M48
; DRILL file {KiCad (5.1.5)-2} date 12/28/2019 7:20:11 PM
; FORMAT={3:3/ absolute / metric / suppress leading zeros}
; #@! TF.CreationDate,2019-12-28T19:20:11-08:00
; #@! TF.GenerationSoftware,Kicad,Pcbnew,(5.1.5)-2
FMAT,2
METRIC,TZ
T1C0.400
T2C0.600
T3C0.762
T4C0.800
T5C0.900
T6C1.000
T7C1.200
T8C2.400
T9C1.300
%
G90
G05
T1
X13400Y28850
X26000Y30300
X26050Y32650
X26800Y29000
X26800Y24700
X27900Y23900
X28150Y20800
X28300Y32700
X32100Y33900
X32700Y28750
X40400Y18200
X40450Y33450
X40450Y29650
X40450Y25850
X40450Y22050
X40450Y14450
X40450Y10650
X47250Y20500
X47250Y16700
X47250Y12950
X47300Y24300
X47350Y35700
X47350Y31900
X47350Y28100
X51800Y-20800
X53200Y-20500
X67500Y-18500
T2
X3500Y65100
X4600Y43100
X5700Y43100
X6900Y17100
X6900Y8000
X7150Y24450
X8750Y24200
X10175Y15450
X10300Y6350
X10500Y57000
X10500Y11900
X10500Y2800
X10600Y51600
X11400Y33500
X11400Y32450
X11400Y31400
X11900Y57000
X12400Y65100
X16400Y8000
X17000Y44100
X19500Y35000
X19900Y6350
X20100Y2800
X23500Y44000
X23600Y40200
X26100Y8000
X27800Y44100
X29450Y6350
X29700Y2800
X34300Y44000
X35600Y8000
X35750Y44000
X38600Y44100
X39000Y6350
X39200Y2800
X44250Y35650
X44250Y31850
X44250Y28050
X44250Y24250
X44250Y20450
X44250Y16650
X44250Y12850
X45100Y44000
X45800Y11000
X51350Y22350
X51350Y35500
X52250Y4700
X53950Y18500
X58050Y13900
X59500Y55300
X59550Y34300
X59650Y-7350
T3
X85700Y66100
X85700Y61100
T4
X74850Y67500
X74850Y64000
X78900Y18200
X82400Y18200
X78900Y-2600
X82400Y-2600
X78900Y39000
X82400Y39000
T5
X4600Y5400
X4600Y2900
X27800Y65700
X30300Y65700
X38600Y57500
X41100Y57500
X23800Y5400
X23800Y2900
X88600Y33900
X88600Y31400
X88600Y28900
X88600Y26400
X88600Y23900
X57000Y12200
X57000Y9700
X57000Y7200
X57000Y4700
X57000Y2200
X27800Y57500
X30300Y57500
X57100Y53900
X57100Y51400
X57100Y48900
X57100Y46400
X57100Y43900
X88600Y13100
X88600Y10600
X88600Y8100
X88600Y5600
X88600Y3100
X38600Y65700
X41100Y65700
X57000Y33000
X57000Y30500
X57000Y28000
X57000Y25500
X57000Y23000
X17000Y65700
X19500Y65700
X33300Y5400
X33300Y2900
X88700Y54800
X88700Y52300
X88700Y49800
X88700Y47300
X88700Y44800
X14200Y5400
X14200Y2900
X57000Y-8600
X57000Y-11100
X57000Y-13600
X57000Y-16100
X57000Y-18600
X4600Y14500
X4600Y12000
X88600Y-7700
X88600Y-10200
X88600Y-12700
X88600Y-15200
X88600Y-17700
X17000Y57500
X19500Y57500
T6
X1100Y38200
X1100Y35700
X1100Y33200
X1100Y30600
X1100Y25650
X62150Y-2610
X62150Y-5150
X62150Y-7690
X62150Y-10230
X62150Y-12770
X62150Y-15310
X62150Y-17850
X62150Y-20390
X74850Y-2610
X74850Y-5150
X74850Y-7690
X74850Y-10230
X74850Y-12770
X74850Y-15310
X74850Y-17850
X74850Y-20390
X62150Y38990
X62150Y36450
X62150Y33910
X62150Y31370
X62150Y28830
X62150Y26290
X62150Y23750
X62150Y21210
X74850Y38990
X74850Y36450
X74850Y33910
X74850Y31370
X74850Y28830
X74850Y26290
X74850Y23750
X74850Y21210
X62150Y59890
X62150Y57350
X62150Y54810
X62150Y52270
X62150Y49730
X62150Y47190
X62150Y44650
X62150Y42110
X74850Y59890
X74850Y57350
X74850Y54810
X74850Y52270
X74850Y49730
X74850Y47190
X74850Y44650
X74850Y42110
X23400Y66040
X23400Y63500
X62150Y18190
X62150Y15650
X62150Y13110
X62150Y10570
X62150Y8030
X62150Y5490
X62150Y2950
X62150Y410
X74850Y18190
X74850Y15650
X74850Y13110
X74850Y10570
X74850Y8030
X74850Y5490
X74850Y2950
X74850Y410
X45000Y66040
X45000Y63500
X65250Y7850
X65250Y5310
X65150Y-12900
X65150Y-15440
X65150Y49650
X65150Y47110
X34200Y66040
X34200Y63500
X1400Y44730
X1400Y42190
X65200Y28750
X65200Y26210
T7
X47430Y-13520
X47430Y-16060
X47430Y-18600
X49970Y-13520
X49970Y-16060
X49970Y-18600
X48530Y-3110
X48530Y-5650
X48530Y-8190
X51070Y-3110
X51070Y-5650
X51070Y-8190
X65130Y-5160
X65130Y-7700
X65130Y-10240
X67670Y-5160
X67670Y-7700
X67670Y-10240
X65200Y36500
X65200Y33960
X65200Y31420
X67740Y36500
X67740Y33960
X67740Y31420
X65230Y15600
X65230Y13060
X65230Y10520
X67770Y15600
X67770Y13060
X67770Y10520
X65130Y57400
X65130Y54860
X65130Y52320
X67670Y57400
X67670Y54860
X67670Y52320
T8
X79300Y-19950
X63500Y68500
X42500Y7050
X2700Y21150
T9
X15400Y55900
X3000Y7000
X26200Y64100
X37000Y55900
X22200Y7000
X87000Y35500
X58600Y600
X26200Y55900
X58700Y42300
X87000Y14700
X37000Y64100
X58600Y21400
X15400Y64100
X31700Y7000
X87100Y56400
X12600Y7000
X58600Y-20200
X3000Y16100
X87000Y-6100
T0
M30
