%TF.GenerationSoftware,KiCad,Pcbnew,(5.1.5)-2*%
%TF.CreationDate,2019-12-28T19:20:09-08:00*%
%TF.ProjectId,20191222_Projects_Mainboard_A0,32303139-3132-4323-925f-50726f6a6563,A3*%
%TF.SameCoordinates,PX2191c00PY7534e20*%
%TF.FileFunction,Paste,Top*%
%TF.FilePolarity,Positive*%
%FSLAX46Y46*%
G04 Gerber Fmt 4.6, Leading zero omitted, Abs format (unit mm)*
G04 Created by KiCad (PCBNEW (5.1.5)-2) date 2019-12-28 19:20:09*
%MOMM*%
%LPD*%
G04 APERTURE LIST*
%ADD10R,2.000000X1.000000*%
%ADD11C,0.100000*%
%ADD12R,5.080000X2.540000*%
%ADD13R,1.440000X2.090000*%
%ADD14R,1.560000X0.650000*%
%ADD15R,1.600000X0.550000*%
%ADD16R,0.550000X1.600000*%
%ADD17R,2.540000X1.270000*%
G04 APERTURE END LIST*
D10*
X1200000Y38250000D03*
X1200000Y35710000D03*
X1200000Y33170000D03*
X1200000Y30630000D03*
X1200000Y28090000D03*
X1200000Y25550000D03*
D11*
G36*
X10860779Y49948856D02*
G01*
X10883834Y49945437D01*
X10906443Y49939773D01*
X10928387Y49931921D01*
X10949457Y49921956D01*
X10969448Y49909974D01*
X10988168Y49896090D01*
X11005438Y49880438D01*
X11021090Y49863168D01*
X11034974Y49844448D01*
X11046956Y49824457D01*
X11056921Y49803387D01*
X11064773Y49781443D01*
X11070437Y49758834D01*
X11073856Y49735779D01*
X11075000Y49712500D01*
X11075000Y49137500D01*
X11073856Y49114221D01*
X11070437Y49091166D01*
X11064773Y49068557D01*
X11056921Y49046613D01*
X11046956Y49025543D01*
X11034974Y49005552D01*
X11021090Y48986832D01*
X11005438Y48969562D01*
X10988168Y48953910D01*
X10969448Y48940026D01*
X10949457Y48928044D01*
X10928387Y48918079D01*
X10906443Y48910227D01*
X10883834Y48904563D01*
X10860779Y48901144D01*
X10837500Y48900000D01*
X10362500Y48900000D01*
X10339221Y48901144D01*
X10316166Y48904563D01*
X10293557Y48910227D01*
X10271613Y48918079D01*
X10250543Y48928044D01*
X10230552Y48940026D01*
X10211832Y48953910D01*
X10194562Y48969562D01*
X10178910Y48986832D01*
X10165026Y49005552D01*
X10153044Y49025543D01*
X10143079Y49046613D01*
X10135227Y49068557D01*
X10129563Y49091166D01*
X10126144Y49114221D01*
X10125000Y49137500D01*
X10125000Y49712500D01*
X10126144Y49735779D01*
X10129563Y49758834D01*
X10135227Y49781443D01*
X10143079Y49803387D01*
X10153044Y49824457D01*
X10165026Y49844448D01*
X10178910Y49863168D01*
X10194562Y49880438D01*
X10211832Y49896090D01*
X10230552Y49909974D01*
X10250543Y49921956D01*
X10271613Y49931921D01*
X10293557Y49939773D01*
X10316166Y49945437D01*
X10339221Y49948856D01*
X10362500Y49950000D01*
X10837500Y49950000D01*
X10860779Y49948856D01*
G37*
G36*
X10860779Y51698856D02*
G01*
X10883834Y51695437D01*
X10906443Y51689773D01*
X10928387Y51681921D01*
X10949457Y51671956D01*
X10969448Y51659974D01*
X10988168Y51646090D01*
X11005438Y51630438D01*
X11021090Y51613168D01*
X11034974Y51594448D01*
X11046956Y51574457D01*
X11056921Y51553387D01*
X11064773Y51531443D01*
X11070437Y51508834D01*
X11073856Y51485779D01*
X11075000Y51462500D01*
X11075000Y50887500D01*
X11073856Y50864221D01*
X11070437Y50841166D01*
X11064773Y50818557D01*
X11056921Y50796613D01*
X11046956Y50775543D01*
X11034974Y50755552D01*
X11021090Y50736832D01*
X11005438Y50719562D01*
X10988168Y50703910D01*
X10969448Y50690026D01*
X10949457Y50678044D01*
X10928387Y50668079D01*
X10906443Y50660227D01*
X10883834Y50654563D01*
X10860779Y50651144D01*
X10837500Y50650000D01*
X10362500Y50650000D01*
X10339221Y50651144D01*
X10316166Y50654563D01*
X10293557Y50660227D01*
X10271613Y50668079D01*
X10250543Y50678044D01*
X10230552Y50690026D01*
X10211832Y50703910D01*
X10194562Y50719562D01*
X10178910Y50736832D01*
X10165026Y50755552D01*
X10153044Y50775543D01*
X10143079Y50796613D01*
X10135227Y50818557D01*
X10129563Y50841166D01*
X10126144Y50864221D01*
X10125000Y50887500D01*
X10125000Y51462500D01*
X10126144Y51485779D01*
X10129563Y51508834D01*
X10135227Y51531443D01*
X10143079Y51553387D01*
X10153044Y51574457D01*
X10165026Y51594448D01*
X10178910Y51613168D01*
X10194562Y51630438D01*
X10211832Y51646090D01*
X10230552Y51659974D01*
X10250543Y51671956D01*
X10271613Y51681921D01*
X10293557Y51689773D01*
X10316166Y51695437D01*
X10339221Y51698856D01*
X10362500Y51700000D01*
X10837500Y51700000D01*
X10860779Y51698856D01*
G37*
G36*
X47185779Y17173856D02*
G01*
X47208834Y17170437D01*
X47231443Y17164773D01*
X47253387Y17156921D01*
X47274457Y17146956D01*
X47294448Y17134974D01*
X47313168Y17121090D01*
X47330438Y17105438D01*
X47346090Y17088168D01*
X47359974Y17069448D01*
X47371956Y17049457D01*
X47381921Y17028387D01*
X47389773Y17006443D01*
X47395437Y16983834D01*
X47398856Y16960779D01*
X47400000Y16937500D01*
X47400000Y16462500D01*
X47398856Y16439221D01*
X47395437Y16416166D01*
X47389773Y16393557D01*
X47381921Y16371613D01*
X47371956Y16350543D01*
X47359974Y16330552D01*
X47346090Y16311832D01*
X47330438Y16294562D01*
X47313168Y16278910D01*
X47294448Y16265026D01*
X47274457Y16253044D01*
X47253387Y16243079D01*
X47231443Y16235227D01*
X47208834Y16229563D01*
X47185779Y16226144D01*
X47162500Y16225000D01*
X46587500Y16225000D01*
X46564221Y16226144D01*
X46541166Y16229563D01*
X46518557Y16235227D01*
X46496613Y16243079D01*
X46475543Y16253044D01*
X46455552Y16265026D01*
X46436832Y16278910D01*
X46419562Y16294562D01*
X46403910Y16311832D01*
X46390026Y16330552D01*
X46378044Y16350543D01*
X46368079Y16371613D01*
X46360227Y16393557D01*
X46354563Y16416166D01*
X46351144Y16439221D01*
X46350000Y16462500D01*
X46350000Y16937500D01*
X46351144Y16960779D01*
X46354563Y16983834D01*
X46360227Y17006443D01*
X46368079Y17028387D01*
X46378044Y17049457D01*
X46390026Y17069448D01*
X46403910Y17088168D01*
X46419562Y17105438D01*
X46436832Y17121090D01*
X46455552Y17134974D01*
X46475543Y17146956D01*
X46496613Y17156921D01*
X46518557Y17164773D01*
X46541166Y17170437D01*
X46564221Y17173856D01*
X46587500Y17175000D01*
X47162500Y17175000D01*
X47185779Y17173856D01*
G37*
G36*
X45435779Y17173856D02*
G01*
X45458834Y17170437D01*
X45481443Y17164773D01*
X45503387Y17156921D01*
X45524457Y17146956D01*
X45544448Y17134974D01*
X45563168Y17121090D01*
X45580438Y17105438D01*
X45596090Y17088168D01*
X45609974Y17069448D01*
X45621956Y17049457D01*
X45631921Y17028387D01*
X45639773Y17006443D01*
X45645437Y16983834D01*
X45648856Y16960779D01*
X45650000Y16937500D01*
X45650000Y16462500D01*
X45648856Y16439221D01*
X45645437Y16416166D01*
X45639773Y16393557D01*
X45631921Y16371613D01*
X45621956Y16350543D01*
X45609974Y16330552D01*
X45596090Y16311832D01*
X45580438Y16294562D01*
X45563168Y16278910D01*
X45544448Y16265026D01*
X45524457Y16253044D01*
X45503387Y16243079D01*
X45481443Y16235227D01*
X45458834Y16229563D01*
X45435779Y16226144D01*
X45412500Y16225000D01*
X44837500Y16225000D01*
X44814221Y16226144D01*
X44791166Y16229563D01*
X44768557Y16235227D01*
X44746613Y16243079D01*
X44725543Y16253044D01*
X44705552Y16265026D01*
X44686832Y16278910D01*
X44669562Y16294562D01*
X44653910Y16311832D01*
X44640026Y16330552D01*
X44628044Y16350543D01*
X44618079Y16371613D01*
X44610227Y16393557D01*
X44604563Y16416166D01*
X44601144Y16439221D01*
X44600000Y16462500D01*
X44600000Y16937500D01*
X44601144Y16960779D01*
X44604563Y16983834D01*
X44610227Y17006443D01*
X44618079Y17028387D01*
X44628044Y17049457D01*
X44640026Y17069448D01*
X44653910Y17088168D01*
X44669562Y17105438D01*
X44686832Y17121090D01*
X44705552Y17134974D01*
X44725543Y17146956D01*
X44746613Y17156921D01*
X44768557Y17164773D01*
X44791166Y17170437D01*
X44814221Y17173856D01*
X44837500Y17175000D01*
X45412500Y17175000D01*
X45435779Y17173856D01*
G37*
G36*
X47185779Y20973856D02*
G01*
X47208834Y20970437D01*
X47231443Y20964773D01*
X47253387Y20956921D01*
X47274457Y20946956D01*
X47294448Y20934974D01*
X47313168Y20921090D01*
X47330438Y20905438D01*
X47346090Y20888168D01*
X47359974Y20869448D01*
X47371956Y20849457D01*
X47381921Y20828387D01*
X47389773Y20806443D01*
X47395437Y20783834D01*
X47398856Y20760779D01*
X47400000Y20737500D01*
X47400000Y20262500D01*
X47398856Y20239221D01*
X47395437Y20216166D01*
X47389773Y20193557D01*
X47381921Y20171613D01*
X47371956Y20150543D01*
X47359974Y20130552D01*
X47346090Y20111832D01*
X47330438Y20094562D01*
X47313168Y20078910D01*
X47294448Y20065026D01*
X47274457Y20053044D01*
X47253387Y20043079D01*
X47231443Y20035227D01*
X47208834Y20029563D01*
X47185779Y20026144D01*
X47162500Y20025000D01*
X46587500Y20025000D01*
X46564221Y20026144D01*
X46541166Y20029563D01*
X46518557Y20035227D01*
X46496613Y20043079D01*
X46475543Y20053044D01*
X46455552Y20065026D01*
X46436832Y20078910D01*
X46419562Y20094562D01*
X46403910Y20111832D01*
X46390026Y20130552D01*
X46378044Y20150543D01*
X46368079Y20171613D01*
X46360227Y20193557D01*
X46354563Y20216166D01*
X46351144Y20239221D01*
X46350000Y20262500D01*
X46350000Y20737500D01*
X46351144Y20760779D01*
X46354563Y20783834D01*
X46360227Y20806443D01*
X46368079Y20828387D01*
X46378044Y20849457D01*
X46390026Y20869448D01*
X46403910Y20888168D01*
X46419562Y20905438D01*
X46436832Y20921090D01*
X46455552Y20934974D01*
X46475543Y20946956D01*
X46496613Y20956921D01*
X46518557Y20964773D01*
X46541166Y20970437D01*
X46564221Y20973856D01*
X46587500Y20975000D01*
X47162500Y20975000D01*
X47185779Y20973856D01*
G37*
G36*
X45435779Y20973856D02*
G01*
X45458834Y20970437D01*
X45481443Y20964773D01*
X45503387Y20956921D01*
X45524457Y20946956D01*
X45544448Y20934974D01*
X45563168Y20921090D01*
X45580438Y20905438D01*
X45596090Y20888168D01*
X45609974Y20869448D01*
X45621956Y20849457D01*
X45631921Y20828387D01*
X45639773Y20806443D01*
X45645437Y20783834D01*
X45648856Y20760779D01*
X45650000Y20737500D01*
X45650000Y20262500D01*
X45648856Y20239221D01*
X45645437Y20216166D01*
X45639773Y20193557D01*
X45631921Y20171613D01*
X45621956Y20150543D01*
X45609974Y20130552D01*
X45596090Y20111832D01*
X45580438Y20094562D01*
X45563168Y20078910D01*
X45544448Y20065026D01*
X45524457Y20053044D01*
X45503387Y20043079D01*
X45481443Y20035227D01*
X45458834Y20029563D01*
X45435779Y20026144D01*
X45412500Y20025000D01*
X44837500Y20025000D01*
X44814221Y20026144D01*
X44791166Y20029563D01*
X44768557Y20035227D01*
X44746613Y20043079D01*
X44725543Y20053044D01*
X44705552Y20065026D01*
X44686832Y20078910D01*
X44669562Y20094562D01*
X44653910Y20111832D01*
X44640026Y20130552D01*
X44628044Y20150543D01*
X44618079Y20171613D01*
X44610227Y20193557D01*
X44604563Y20216166D01*
X44601144Y20239221D01*
X44600000Y20262500D01*
X44600000Y20737500D01*
X44601144Y20760779D01*
X44604563Y20783834D01*
X44610227Y20806443D01*
X44618079Y20828387D01*
X44628044Y20849457D01*
X44640026Y20869448D01*
X44653910Y20888168D01*
X44669562Y20905438D01*
X44686832Y20921090D01*
X44705552Y20934974D01*
X44725543Y20946956D01*
X44746613Y20956921D01*
X44768557Y20964773D01*
X44791166Y20970437D01*
X44814221Y20973856D01*
X44837500Y20975000D01*
X45412500Y20975000D01*
X45435779Y20973856D01*
G37*
G36*
X45435779Y24773856D02*
G01*
X45458834Y24770437D01*
X45481443Y24764773D01*
X45503387Y24756921D01*
X45524457Y24746956D01*
X45544448Y24734974D01*
X45563168Y24721090D01*
X45580438Y24705438D01*
X45596090Y24688168D01*
X45609974Y24669448D01*
X45621956Y24649457D01*
X45631921Y24628387D01*
X45639773Y24606443D01*
X45645437Y24583834D01*
X45648856Y24560779D01*
X45650000Y24537500D01*
X45650000Y24062500D01*
X45648856Y24039221D01*
X45645437Y24016166D01*
X45639773Y23993557D01*
X45631921Y23971613D01*
X45621956Y23950543D01*
X45609974Y23930552D01*
X45596090Y23911832D01*
X45580438Y23894562D01*
X45563168Y23878910D01*
X45544448Y23865026D01*
X45524457Y23853044D01*
X45503387Y23843079D01*
X45481443Y23835227D01*
X45458834Y23829563D01*
X45435779Y23826144D01*
X45412500Y23825000D01*
X44837500Y23825000D01*
X44814221Y23826144D01*
X44791166Y23829563D01*
X44768557Y23835227D01*
X44746613Y23843079D01*
X44725543Y23853044D01*
X44705552Y23865026D01*
X44686832Y23878910D01*
X44669562Y23894562D01*
X44653910Y23911832D01*
X44640026Y23930552D01*
X44628044Y23950543D01*
X44618079Y23971613D01*
X44610227Y23993557D01*
X44604563Y24016166D01*
X44601144Y24039221D01*
X44600000Y24062500D01*
X44600000Y24537500D01*
X44601144Y24560779D01*
X44604563Y24583834D01*
X44610227Y24606443D01*
X44618079Y24628387D01*
X44628044Y24649457D01*
X44640026Y24669448D01*
X44653910Y24688168D01*
X44669562Y24705438D01*
X44686832Y24721090D01*
X44705552Y24734974D01*
X44725543Y24746956D01*
X44746613Y24756921D01*
X44768557Y24764773D01*
X44791166Y24770437D01*
X44814221Y24773856D01*
X44837500Y24775000D01*
X45412500Y24775000D01*
X45435779Y24773856D01*
G37*
G36*
X47185779Y24773856D02*
G01*
X47208834Y24770437D01*
X47231443Y24764773D01*
X47253387Y24756921D01*
X47274457Y24746956D01*
X47294448Y24734974D01*
X47313168Y24721090D01*
X47330438Y24705438D01*
X47346090Y24688168D01*
X47359974Y24669448D01*
X47371956Y24649457D01*
X47381921Y24628387D01*
X47389773Y24606443D01*
X47395437Y24583834D01*
X47398856Y24560779D01*
X47400000Y24537500D01*
X47400000Y24062500D01*
X47398856Y24039221D01*
X47395437Y24016166D01*
X47389773Y23993557D01*
X47381921Y23971613D01*
X47371956Y23950543D01*
X47359974Y23930552D01*
X47346090Y23911832D01*
X47330438Y23894562D01*
X47313168Y23878910D01*
X47294448Y23865026D01*
X47274457Y23853044D01*
X47253387Y23843079D01*
X47231443Y23835227D01*
X47208834Y23829563D01*
X47185779Y23826144D01*
X47162500Y23825000D01*
X46587500Y23825000D01*
X46564221Y23826144D01*
X46541166Y23829563D01*
X46518557Y23835227D01*
X46496613Y23843079D01*
X46475543Y23853044D01*
X46455552Y23865026D01*
X46436832Y23878910D01*
X46419562Y23894562D01*
X46403910Y23911832D01*
X46390026Y23930552D01*
X46378044Y23950543D01*
X46368079Y23971613D01*
X46360227Y23993557D01*
X46354563Y24016166D01*
X46351144Y24039221D01*
X46350000Y24062500D01*
X46350000Y24537500D01*
X46351144Y24560779D01*
X46354563Y24583834D01*
X46360227Y24606443D01*
X46368079Y24628387D01*
X46378044Y24649457D01*
X46390026Y24669448D01*
X46403910Y24688168D01*
X46419562Y24705438D01*
X46436832Y24721090D01*
X46455552Y24734974D01*
X46475543Y24746956D01*
X46496613Y24756921D01*
X46518557Y24764773D01*
X46541166Y24770437D01*
X46564221Y24773856D01*
X46587500Y24775000D01*
X47162500Y24775000D01*
X47185779Y24773856D01*
G37*
G36*
X45435779Y13373856D02*
G01*
X45458834Y13370437D01*
X45481443Y13364773D01*
X45503387Y13356921D01*
X45524457Y13346956D01*
X45544448Y13334974D01*
X45563168Y13321090D01*
X45580438Y13305438D01*
X45596090Y13288168D01*
X45609974Y13269448D01*
X45621956Y13249457D01*
X45631921Y13228387D01*
X45639773Y13206443D01*
X45645437Y13183834D01*
X45648856Y13160779D01*
X45650000Y13137500D01*
X45650000Y12662500D01*
X45648856Y12639221D01*
X45645437Y12616166D01*
X45639773Y12593557D01*
X45631921Y12571613D01*
X45621956Y12550543D01*
X45609974Y12530552D01*
X45596090Y12511832D01*
X45580438Y12494562D01*
X45563168Y12478910D01*
X45544448Y12465026D01*
X45524457Y12453044D01*
X45503387Y12443079D01*
X45481443Y12435227D01*
X45458834Y12429563D01*
X45435779Y12426144D01*
X45412500Y12425000D01*
X44837500Y12425000D01*
X44814221Y12426144D01*
X44791166Y12429563D01*
X44768557Y12435227D01*
X44746613Y12443079D01*
X44725543Y12453044D01*
X44705552Y12465026D01*
X44686832Y12478910D01*
X44669562Y12494562D01*
X44653910Y12511832D01*
X44640026Y12530552D01*
X44628044Y12550543D01*
X44618079Y12571613D01*
X44610227Y12593557D01*
X44604563Y12616166D01*
X44601144Y12639221D01*
X44600000Y12662500D01*
X44600000Y13137500D01*
X44601144Y13160779D01*
X44604563Y13183834D01*
X44610227Y13206443D01*
X44618079Y13228387D01*
X44628044Y13249457D01*
X44640026Y13269448D01*
X44653910Y13288168D01*
X44669562Y13305438D01*
X44686832Y13321090D01*
X44705552Y13334974D01*
X44725543Y13346956D01*
X44746613Y13356921D01*
X44768557Y13364773D01*
X44791166Y13370437D01*
X44814221Y13373856D01*
X44837500Y13375000D01*
X45412500Y13375000D01*
X45435779Y13373856D01*
G37*
G36*
X47185779Y13373856D02*
G01*
X47208834Y13370437D01*
X47231443Y13364773D01*
X47253387Y13356921D01*
X47274457Y13346956D01*
X47294448Y13334974D01*
X47313168Y13321090D01*
X47330438Y13305438D01*
X47346090Y13288168D01*
X47359974Y13269448D01*
X47371956Y13249457D01*
X47381921Y13228387D01*
X47389773Y13206443D01*
X47395437Y13183834D01*
X47398856Y13160779D01*
X47400000Y13137500D01*
X47400000Y12662500D01*
X47398856Y12639221D01*
X47395437Y12616166D01*
X47389773Y12593557D01*
X47381921Y12571613D01*
X47371956Y12550543D01*
X47359974Y12530552D01*
X47346090Y12511832D01*
X47330438Y12494562D01*
X47313168Y12478910D01*
X47294448Y12465026D01*
X47274457Y12453044D01*
X47253387Y12443079D01*
X47231443Y12435227D01*
X47208834Y12429563D01*
X47185779Y12426144D01*
X47162500Y12425000D01*
X46587500Y12425000D01*
X46564221Y12426144D01*
X46541166Y12429563D01*
X46518557Y12435227D01*
X46496613Y12443079D01*
X46475543Y12453044D01*
X46455552Y12465026D01*
X46436832Y12478910D01*
X46419562Y12494562D01*
X46403910Y12511832D01*
X46390026Y12530552D01*
X46378044Y12550543D01*
X46368079Y12571613D01*
X46360227Y12593557D01*
X46354563Y12616166D01*
X46351144Y12639221D01*
X46350000Y12662500D01*
X46350000Y13137500D01*
X46351144Y13160779D01*
X46354563Y13183834D01*
X46360227Y13206443D01*
X46368079Y13228387D01*
X46378044Y13249457D01*
X46390026Y13269448D01*
X46403910Y13288168D01*
X46419562Y13305438D01*
X46436832Y13321090D01*
X46455552Y13334974D01*
X46475543Y13346956D01*
X46496613Y13356921D01*
X46518557Y13364773D01*
X46541166Y13370437D01*
X46564221Y13373856D01*
X46587500Y13375000D01*
X47162500Y13375000D01*
X47185779Y13373856D01*
G37*
G36*
X47185779Y28573856D02*
G01*
X47208834Y28570437D01*
X47231443Y28564773D01*
X47253387Y28556921D01*
X47274457Y28546956D01*
X47294448Y28534974D01*
X47313168Y28521090D01*
X47330438Y28505438D01*
X47346090Y28488168D01*
X47359974Y28469448D01*
X47371956Y28449457D01*
X47381921Y28428387D01*
X47389773Y28406443D01*
X47395437Y28383834D01*
X47398856Y28360779D01*
X47400000Y28337500D01*
X47400000Y27862500D01*
X47398856Y27839221D01*
X47395437Y27816166D01*
X47389773Y27793557D01*
X47381921Y27771613D01*
X47371956Y27750543D01*
X47359974Y27730552D01*
X47346090Y27711832D01*
X47330438Y27694562D01*
X47313168Y27678910D01*
X47294448Y27665026D01*
X47274457Y27653044D01*
X47253387Y27643079D01*
X47231443Y27635227D01*
X47208834Y27629563D01*
X47185779Y27626144D01*
X47162500Y27625000D01*
X46587500Y27625000D01*
X46564221Y27626144D01*
X46541166Y27629563D01*
X46518557Y27635227D01*
X46496613Y27643079D01*
X46475543Y27653044D01*
X46455552Y27665026D01*
X46436832Y27678910D01*
X46419562Y27694562D01*
X46403910Y27711832D01*
X46390026Y27730552D01*
X46378044Y27750543D01*
X46368079Y27771613D01*
X46360227Y27793557D01*
X46354563Y27816166D01*
X46351144Y27839221D01*
X46350000Y27862500D01*
X46350000Y28337500D01*
X46351144Y28360779D01*
X46354563Y28383834D01*
X46360227Y28406443D01*
X46368079Y28428387D01*
X46378044Y28449457D01*
X46390026Y28469448D01*
X46403910Y28488168D01*
X46419562Y28505438D01*
X46436832Y28521090D01*
X46455552Y28534974D01*
X46475543Y28546956D01*
X46496613Y28556921D01*
X46518557Y28564773D01*
X46541166Y28570437D01*
X46564221Y28573856D01*
X46587500Y28575000D01*
X47162500Y28575000D01*
X47185779Y28573856D01*
G37*
G36*
X45435779Y28573856D02*
G01*
X45458834Y28570437D01*
X45481443Y28564773D01*
X45503387Y28556921D01*
X45524457Y28546956D01*
X45544448Y28534974D01*
X45563168Y28521090D01*
X45580438Y28505438D01*
X45596090Y28488168D01*
X45609974Y28469448D01*
X45621956Y28449457D01*
X45631921Y28428387D01*
X45639773Y28406443D01*
X45645437Y28383834D01*
X45648856Y28360779D01*
X45650000Y28337500D01*
X45650000Y27862500D01*
X45648856Y27839221D01*
X45645437Y27816166D01*
X45639773Y27793557D01*
X45631921Y27771613D01*
X45621956Y27750543D01*
X45609974Y27730552D01*
X45596090Y27711832D01*
X45580438Y27694562D01*
X45563168Y27678910D01*
X45544448Y27665026D01*
X45524457Y27653044D01*
X45503387Y27643079D01*
X45481443Y27635227D01*
X45458834Y27629563D01*
X45435779Y27626144D01*
X45412500Y27625000D01*
X44837500Y27625000D01*
X44814221Y27626144D01*
X44791166Y27629563D01*
X44768557Y27635227D01*
X44746613Y27643079D01*
X44725543Y27653044D01*
X44705552Y27665026D01*
X44686832Y27678910D01*
X44669562Y27694562D01*
X44653910Y27711832D01*
X44640026Y27730552D01*
X44628044Y27750543D01*
X44618079Y27771613D01*
X44610227Y27793557D01*
X44604563Y27816166D01*
X44601144Y27839221D01*
X44600000Y27862500D01*
X44600000Y28337500D01*
X44601144Y28360779D01*
X44604563Y28383834D01*
X44610227Y28406443D01*
X44618079Y28428387D01*
X44628044Y28449457D01*
X44640026Y28469448D01*
X44653910Y28488168D01*
X44669562Y28505438D01*
X44686832Y28521090D01*
X44705552Y28534974D01*
X44725543Y28546956D01*
X44746613Y28556921D01*
X44768557Y28564773D01*
X44791166Y28570437D01*
X44814221Y28573856D01*
X44837500Y28575000D01*
X45412500Y28575000D01*
X45435779Y28573856D01*
G37*
G36*
X45435779Y32373856D02*
G01*
X45458834Y32370437D01*
X45481443Y32364773D01*
X45503387Y32356921D01*
X45524457Y32346956D01*
X45544448Y32334974D01*
X45563168Y32321090D01*
X45580438Y32305438D01*
X45596090Y32288168D01*
X45609974Y32269448D01*
X45621956Y32249457D01*
X45631921Y32228387D01*
X45639773Y32206443D01*
X45645437Y32183834D01*
X45648856Y32160779D01*
X45650000Y32137500D01*
X45650000Y31662500D01*
X45648856Y31639221D01*
X45645437Y31616166D01*
X45639773Y31593557D01*
X45631921Y31571613D01*
X45621956Y31550543D01*
X45609974Y31530552D01*
X45596090Y31511832D01*
X45580438Y31494562D01*
X45563168Y31478910D01*
X45544448Y31465026D01*
X45524457Y31453044D01*
X45503387Y31443079D01*
X45481443Y31435227D01*
X45458834Y31429563D01*
X45435779Y31426144D01*
X45412500Y31425000D01*
X44837500Y31425000D01*
X44814221Y31426144D01*
X44791166Y31429563D01*
X44768557Y31435227D01*
X44746613Y31443079D01*
X44725543Y31453044D01*
X44705552Y31465026D01*
X44686832Y31478910D01*
X44669562Y31494562D01*
X44653910Y31511832D01*
X44640026Y31530552D01*
X44628044Y31550543D01*
X44618079Y31571613D01*
X44610227Y31593557D01*
X44604563Y31616166D01*
X44601144Y31639221D01*
X44600000Y31662500D01*
X44600000Y32137500D01*
X44601144Y32160779D01*
X44604563Y32183834D01*
X44610227Y32206443D01*
X44618079Y32228387D01*
X44628044Y32249457D01*
X44640026Y32269448D01*
X44653910Y32288168D01*
X44669562Y32305438D01*
X44686832Y32321090D01*
X44705552Y32334974D01*
X44725543Y32346956D01*
X44746613Y32356921D01*
X44768557Y32364773D01*
X44791166Y32370437D01*
X44814221Y32373856D01*
X44837500Y32375000D01*
X45412500Y32375000D01*
X45435779Y32373856D01*
G37*
G36*
X47185779Y32373856D02*
G01*
X47208834Y32370437D01*
X47231443Y32364773D01*
X47253387Y32356921D01*
X47274457Y32346956D01*
X47294448Y32334974D01*
X47313168Y32321090D01*
X47330438Y32305438D01*
X47346090Y32288168D01*
X47359974Y32269448D01*
X47371956Y32249457D01*
X47381921Y32228387D01*
X47389773Y32206443D01*
X47395437Y32183834D01*
X47398856Y32160779D01*
X47400000Y32137500D01*
X47400000Y31662500D01*
X47398856Y31639221D01*
X47395437Y31616166D01*
X47389773Y31593557D01*
X47381921Y31571613D01*
X47371956Y31550543D01*
X47359974Y31530552D01*
X47346090Y31511832D01*
X47330438Y31494562D01*
X47313168Y31478910D01*
X47294448Y31465026D01*
X47274457Y31453044D01*
X47253387Y31443079D01*
X47231443Y31435227D01*
X47208834Y31429563D01*
X47185779Y31426144D01*
X47162500Y31425000D01*
X46587500Y31425000D01*
X46564221Y31426144D01*
X46541166Y31429563D01*
X46518557Y31435227D01*
X46496613Y31443079D01*
X46475543Y31453044D01*
X46455552Y31465026D01*
X46436832Y31478910D01*
X46419562Y31494562D01*
X46403910Y31511832D01*
X46390026Y31530552D01*
X46378044Y31550543D01*
X46368079Y31571613D01*
X46360227Y31593557D01*
X46354563Y31616166D01*
X46351144Y31639221D01*
X46350000Y31662500D01*
X46350000Y32137500D01*
X46351144Y32160779D01*
X46354563Y32183834D01*
X46360227Y32206443D01*
X46368079Y32228387D01*
X46378044Y32249457D01*
X46390026Y32269448D01*
X46403910Y32288168D01*
X46419562Y32305438D01*
X46436832Y32321090D01*
X46455552Y32334974D01*
X46475543Y32346956D01*
X46496613Y32356921D01*
X46518557Y32364773D01*
X46541166Y32370437D01*
X46564221Y32373856D01*
X46587500Y32375000D01*
X47162500Y32375000D01*
X47185779Y32373856D01*
G37*
G36*
X47185779Y36173856D02*
G01*
X47208834Y36170437D01*
X47231443Y36164773D01*
X47253387Y36156921D01*
X47274457Y36146956D01*
X47294448Y36134974D01*
X47313168Y36121090D01*
X47330438Y36105438D01*
X47346090Y36088168D01*
X47359974Y36069448D01*
X47371956Y36049457D01*
X47381921Y36028387D01*
X47389773Y36006443D01*
X47395437Y35983834D01*
X47398856Y35960779D01*
X47400000Y35937500D01*
X47400000Y35462500D01*
X47398856Y35439221D01*
X47395437Y35416166D01*
X47389773Y35393557D01*
X47381921Y35371613D01*
X47371956Y35350543D01*
X47359974Y35330552D01*
X47346090Y35311832D01*
X47330438Y35294562D01*
X47313168Y35278910D01*
X47294448Y35265026D01*
X47274457Y35253044D01*
X47253387Y35243079D01*
X47231443Y35235227D01*
X47208834Y35229563D01*
X47185779Y35226144D01*
X47162500Y35225000D01*
X46587500Y35225000D01*
X46564221Y35226144D01*
X46541166Y35229563D01*
X46518557Y35235227D01*
X46496613Y35243079D01*
X46475543Y35253044D01*
X46455552Y35265026D01*
X46436832Y35278910D01*
X46419562Y35294562D01*
X46403910Y35311832D01*
X46390026Y35330552D01*
X46378044Y35350543D01*
X46368079Y35371613D01*
X46360227Y35393557D01*
X46354563Y35416166D01*
X46351144Y35439221D01*
X46350000Y35462500D01*
X46350000Y35937500D01*
X46351144Y35960779D01*
X46354563Y35983834D01*
X46360227Y36006443D01*
X46368079Y36028387D01*
X46378044Y36049457D01*
X46390026Y36069448D01*
X46403910Y36088168D01*
X46419562Y36105438D01*
X46436832Y36121090D01*
X46455552Y36134974D01*
X46475543Y36146956D01*
X46496613Y36156921D01*
X46518557Y36164773D01*
X46541166Y36170437D01*
X46564221Y36173856D01*
X46587500Y36175000D01*
X47162500Y36175000D01*
X47185779Y36173856D01*
G37*
G36*
X45435779Y36173856D02*
G01*
X45458834Y36170437D01*
X45481443Y36164773D01*
X45503387Y36156921D01*
X45524457Y36146956D01*
X45544448Y36134974D01*
X45563168Y36121090D01*
X45580438Y36105438D01*
X45596090Y36088168D01*
X45609974Y36069448D01*
X45621956Y36049457D01*
X45631921Y36028387D01*
X45639773Y36006443D01*
X45645437Y35983834D01*
X45648856Y35960779D01*
X45650000Y35937500D01*
X45650000Y35462500D01*
X45648856Y35439221D01*
X45645437Y35416166D01*
X45639773Y35393557D01*
X45631921Y35371613D01*
X45621956Y35350543D01*
X45609974Y35330552D01*
X45596090Y35311832D01*
X45580438Y35294562D01*
X45563168Y35278910D01*
X45544448Y35265026D01*
X45524457Y35253044D01*
X45503387Y35243079D01*
X45481443Y35235227D01*
X45458834Y35229563D01*
X45435779Y35226144D01*
X45412500Y35225000D01*
X44837500Y35225000D01*
X44814221Y35226144D01*
X44791166Y35229563D01*
X44768557Y35235227D01*
X44746613Y35243079D01*
X44725543Y35253044D01*
X44705552Y35265026D01*
X44686832Y35278910D01*
X44669562Y35294562D01*
X44653910Y35311832D01*
X44640026Y35330552D01*
X44628044Y35350543D01*
X44618079Y35371613D01*
X44610227Y35393557D01*
X44604563Y35416166D01*
X44601144Y35439221D01*
X44600000Y35462500D01*
X44600000Y35937500D01*
X44601144Y35960779D01*
X44604563Y35983834D01*
X44610227Y36006443D01*
X44618079Y36028387D01*
X44628044Y36049457D01*
X44640026Y36069448D01*
X44653910Y36088168D01*
X44669562Y36105438D01*
X44686832Y36121090D01*
X44705552Y36134974D01*
X44725543Y36146956D01*
X44746613Y36156921D01*
X44768557Y36164773D01*
X44791166Y36170437D01*
X44814221Y36173856D01*
X44837500Y36175000D01*
X45412500Y36175000D01*
X45435779Y36173856D01*
G37*
D12*
X6600000Y48675000D03*
X6600000Y52725000D03*
D13*
X41140000Y52300000D03*
X38600000Y52300000D03*
X38600000Y43220000D03*
X41140000Y43220000D03*
X30340000Y52300000D03*
X27800000Y52300000D03*
X27800000Y43220000D03*
X30340000Y43220000D03*
X19540000Y43220000D03*
X17000000Y43220000D03*
X17000000Y52300000D03*
X19540000Y52300000D03*
D14*
X40450000Y16650000D03*
X40450000Y15700000D03*
X40450000Y14750000D03*
X43150000Y14750000D03*
X43150000Y16650000D03*
X40450000Y20450000D03*
X40450000Y19500000D03*
X40450000Y18550000D03*
X43150000Y18550000D03*
X43150000Y20450000D03*
X43150000Y24250000D03*
X43150000Y22350000D03*
X40450000Y22350000D03*
X40450000Y23300000D03*
X40450000Y24250000D03*
X40450000Y12850000D03*
X40450000Y11900000D03*
X40450000Y10950000D03*
X43150000Y10950000D03*
X43150000Y12850000D03*
X43150000Y28050000D03*
X43150000Y26150000D03*
X40450000Y26150000D03*
X40450000Y27100000D03*
X40450000Y28050000D03*
X40450000Y31850000D03*
X40450000Y30900000D03*
X40450000Y29950000D03*
X43150000Y29950000D03*
X43150000Y31850000D03*
X43150000Y35650000D03*
X43150000Y33750000D03*
X40450000Y33750000D03*
X40450000Y34700000D03*
X40450000Y35650000D03*
D11*
G36*
X26619206Y22926305D02*
G01*
X26642261Y22922886D01*
X26664870Y22917222D01*
X26686814Y22909370D01*
X26707884Y22899405D01*
X26727875Y22887423D01*
X26746595Y22873539D01*
X26763865Y22857887D01*
X27170451Y22451301D01*
X27186103Y22434031D01*
X27199987Y22415311D01*
X27211969Y22395320D01*
X27221934Y22374250D01*
X27229786Y22352306D01*
X27235450Y22329697D01*
X27238869Y22306642D01*
X27240013Y22283363D01*
X27238869Y22260084D01*
X27235450Y22237029D01*
X27229786Y22214420D01*
X27221934Y22192476D01*
X27211969Y22171406D01*
X27199987Y22151415D01*
X27186103Y22132695D01*
X27170451Y22115425D01*
X26834575Y21779549D01*
X26817305Y21763897D01*
X26798585Y21750013D01*
X26778594Y21738031D01*
X26757524Y21728066D01*
X26735580Y21720214D01*
X26712971Y21714550D01*
X26689916Y21711131D01*
X26666637Y21709987D01*
X26643358Y21711131D01*
X26620303Y21714550D01*
X26597694Y21720214D01*
X26575750Y21728066D01*
X26554680Y21738031D01*
X26534689Y21750013D01*
X26515969Y21763897D01*
X26498699Y21779549D01*
X26092113Y22186135D01*
X26076461Y22203405D01*
X26062577Y22222125D01*
X26050595Y22242116D01*
X26040630Y22263186D01*
X26032778Y22285130D01*
X26027114Y22307739D01*
X26023695Y22330794D01*
X26022551Y22354073D01*
X26023695Y22377352D01*
X26027114Y22400407D01*
X26032778Y22423016D01*
X26040630Y22444960D01*
X26050595Y22466030D01*
X26062577Y22486021D01*
X26076461Y22504741D01*
X26092113Y22522011D01*
X26427989Y22857887D01*
X26445259Y22873539D01*
X26463979Y22887423D01*
X26483970Y22899405D01*
X26505040Y22909370D01*
X26526984Y22917222D01*
X26549593Y22922886D01*
X26572648Y22926305D01*
X26595927Y22927449D01*
X26619206Y22926305D01*
G37*
G36*
X27856642Y21688869D02*
G01*
X27879697Y21685450D01*
X27902306Y21679786D01*
X27924250Y21671934D01*
X27945320Y21661969D01*
X27965311Y21649987D01*
X27984031Y21636103D01*
X28001301Y21620451D01*
X28407887Y21213865D01*
X28423539Y21196595D01*
X28437423Y21177875D01*
X28449405Y21157884D01*
X28459370Y21136814D01*
X28467222Y21114870D01*
X28472886Y21092261D01*
X28476305Y21069206D01*
X28477449Y21045927D01*
X28476305Y21022648D01*
X28472886Y20999593D01*
X28467222Y20976984D01*
X28459370Y20955040D01*
X28449405Y20933970D01*
X28437423Y20913979D01*
X28423539Y20895259D01*
X28407887Y20877989D01*
X28072011Y20542113D01*
X28054741Y20526461D01*
X28036021Y20512577D01*
X28016030Y20500595D01*
X27994960Y20490630D01*
X27973016Y20482778D01*
X27950407Y20477114D01*
X27927352Y20473695D01*
X27904073Y20472551D01*
X27880794Y20473695D01*
X27857739Y20477114D01*
X27835130Y20482778D01*
X27813186Y20490630D01*
X27792116Y20500595D01*
X27772125Y20512577D01*
X27753405Y20526461D01*
X27736135Y20542113D01*
X27329549Y20948699D01*
X27313897Y20965969D01*
X27300013Y20984689D01*
X27288031Y21004680D01*
X27278066Y21025750D01*
X27270214Y21047694D01*
X27264550Y21070303D01*
X27261131Y21093358D01*
X27259987Y21116637D01*
X27261131Y21139916D01*
X27264550Y21162971D01*
X27270214Y21185580D01*
X27278066Y21207524D01*
X27288031Y21228594D01*
X27300013Y21248585D01*
X27313897Y21267305D01*
X27329549Y21284575D01*
X27665425Y21620451D01*
X27682695Y21636103D01*
X27701415Y21649987D01*
X27721406Y21661969D01*
X27742476Y21671934D01*
X27764420Y21679786D01*
X27787029Y21685450D01*
X27810084Y21688869D01*
X27833363Y21690013D01*
X27856642Y21688869D01*
G37*
G36*
X43710779Y43573856D02*
G01*
X43733834Y43570437D01*
X43756443Y43564773D01*
X43778387Y43556921D01*
X43799457Y43546956D01*
X43819448Y43534974D01*
X43838168Y43521090D01*
X43855438Y43505438D01*
X43871090Y43488168D01*
X43884974Y43469448D01*
X43896956Y43449457D01*
X43906921Y43428387D01*
X43914773Y43406443D01*
X43920437Y43383834D01*
X43923856Y43360779D01*
X43925000Y43337500D01*
X43925000Y42862500D01*
X43923856Y42839221D01*
X43920437Y42816166D01*
X43914773Y42793557D01*
X43906921Y42771613D01*
X43896956Y42750543D01*
X43884974Y42730552D01*
X43871090Y42711832D01*
X43855438Y42694562D01*
X43838168Y42678910D01*
X43819448Y42665026D01*
X43799457Y42653044D01*
X43778387Y42643079D01*
X43756443Y42635227D01*
X43733834Y42629563D01*
X43710779Y42626144D01*
X43687500Y42625000D01*
X43112500Y42625000D01*
X43089221Y42626144D01*
X43066166Y42629563D01*
X43043557Y42635227D01*
X43021613Y42643079D01*
X43000543Y42653044D01*
X42980552Y42665026D01*
X42961832Y42678910D01*
X42944562Y42694562D01*
X42928910Y42711832D01*
X42915026Y42730552D01*
X42903044Y42750543D01*
X42893079Y42771613D01*
X42885227Y42793557D01*
X42879563Y42816166D01*
X42876144Y42839221D01*
X42875000Y42862500D01*
X42875000Y43337500D01*
X42876144Y43360779D01*
X42879563Y43383834D01*
X42885227Y43406443D01*
X42893079Y43428387D01*
X42903044Y43449457D01*
X42915026Y43469448D01*
X42928910Y43488168D01*
X42944562Y43505438D01*
X42961832Y43521090D01*
X42980552Y43534974D01*
X43000543Y43546956D01*
X43021613Y43556921D01*
X43043557Y43564773D01*
X43066166Y43570437D01*
X43089221Y43573856D01*
X43112500Y43575000D01*
X43687500Y43575000D01*
X43710779Y43573856D01*
G37*
G36*
X45460779Y43573856D02*
G01*
X45483834Y43570437D01*
X45506443Y43564773D01*
X45528387Y43556921D01*
X45549457Y43546956D01*
X45569448Y43534974D01*
X45588168Y43521090D01*
X45605438Y43505438D01*
X45621090Y43488168D01*
X45634974Y43469448D01*
X45646956Y43449457D01*
X45656921Y43428387D01*
X45664773Y43406443D01*
X45670437Y43383834D01*
X45673856Y43360779D01*
X45675000Y43337500D01*
X45675000Y42862500D01*
X45673856Y42839221D01*
X45670437Y42816166D01*
X45664773Y42793557D01*
X45656921Y42771613D01*
X45646956Y42750543D01*
X45634974Y42730552D01*
X45621090Y42711832D01*
X45605438Y42694562D01*
X45588168Y42678910D01*
X45569448Y42665026D01*
X45549457Y42653044D01*
X45528387Y42643079D01*
X45506443Y42635227D01*
X45483834Y42629563D01*
X45460779Y42626144D01*
X45437500Y42625000D01*
X44862500Y42625000D01*
X44839221Y42626144D01*
X44816166Y42629563D01*
X44793557Y42635227D01*
X44771613Y42643079D01*
X44750543Y42653044D01*
X44730552Y42665026D01*
X44711832Y42678910D01*
X44694562Y42694562D01*
X44678910Y42711832D01*
X44665026Y42730552D01*
X44653044Y42750543D01*
X44643079Y42771613D01*
X44635227Y42793557D01*
X44629563Y42816166D01*
X44626144Y42839221D01*
X44625000Y42862500D01*
X44625000Y43337500D01*
X44626144Y43360779D01*
X44629563Y43383834D01*
X44635227Y43406443D01*
X44643079Y43428387D01*
X44653044Y43449457D01*
X44665026Y43469448D01*
X44678910Y43488168D01*
X44694562Y43505438D01*
X44711832Y43521090D01*
X44730552Y43534974D01*
X44750543Y43546956D01*
X44771613Y43556921D01*
X44793557Y43564773D01*
X44816166Y43570437D01*
X44839221Y43573856D01*
X44862500Y43575000D01*
X45437500Y43575000D01*
X45460779Y43573856D01*
G37*
G36*
X32835779Y43573856D02*
G01*
X32858834Y43570437D01*
X32881443Y43564773D01*
X32903387Y43556921D01*
X32924457Y43546956D01*
X32944448Y43534974D01*
X32963168Y43521090D01*
X32980438Y43505438D01*
X32996090Y43488168D01*
X33009974Y43469448D01*
X33021956Y43449457D01*
X33031921Y43428387D01*
X33039773Y43406443D01*
X33045437Y43383834D01*
X33048856Y43360779D01*
X33050000Y43337500D01*
X33050000Y42862500D01*
X33048856Y42839221D01*
X33045437Y42816166D01*
X33039773Y42793557D01*
X33031921Y42771613D01*
X33021956Y42750543D01*
X33009974Y42730552D01*
X32996090Y42711832D01*
X32980438Y42694562D01*
X32963168Y42678910D01*
X32944448Y42665026D01*
X32924457Y42653044D01*
X32903387Y42643079D01*
X32881443Y42635227D01*
X32858834Y42629563D01*
X32835779Y42626144D01*
X32812500Y42625000D01*
X32237500Y42625000D01*
X32214221Y42626144D01*
X32191166Y42629563D01*
X32168557Y42635227D01*
X32146613Y42643079D01*
X32125543Y42653044D01*
X32105552Y42665026D01*
X32086832Y42678910D01*
X32069562Y42694562D01*
X32053910Y42711832D01*
X32040026Y42730552D01*
X32028044Y42750543D01*
X32018079Y42771613D01*
X32010227Y42793557D01*
X32004563Y42816166D01*
X32001144Y42839221D01*
X32000000Y42862500D01*
X32000000Y43337500D01*
X32001144Y43360779D01*
X32004563Y43383834D01*
X32010227Y43406443D01*
X32018079Y43428387D01*
X32028044Y43449457D01*
X32040026Y43469448D01*
X32053910Y43488168D01*
X32069562Y43505438D01*
X32086832Y43521090D01*
X32105552Y43534974D01*
X32125543Y43546956D01*
X32146613Y43556921D01*
X32168557Y43564773D01*
X32191166Y43570437D01*
X32214221Y43573856D01*
X32237500Y43575000D01*
X32812500Y43575000D01*
X32835779Y43573856D01*
G37*
G36*
X34585779Y43573856D02*
G01*
X34608834Y43570437D01*
X34631443Y43564773D01*
X34653387Y43556921D01*
X34674457Y43546956D01*
X34694448Y43534974D01*
X34713168Y43521090D01*
X34730438Y43505438D01*
X34746090Y43488168D01*
X34759974Y43469448D01*
X34771956Y43449457D01*
X34781921Y43428387D01*
X34789773Y43406443D01*
X34795437Y43383834D01*
X34798856Y43360779D01*
X34800000Y43337500D01*
X34800000Y42862500D01*
X34798856Y42839221D01*
X34795437Y42816166D01*
X34789773Y42793557D01*
X34781921Y42771613D01*
X34771956Y42750543D01*
X34759974Y42730552D01*
X34746090Y42711832D01*
X34730438Y42694562D01*
X34713168Y42678910D01*
X34694448Y42665026D01*
X34674457Y42653044D01*
X34653387Y42643079D01*
X34631443Y42635227D01*
X34608834Y42629563D01*
X34585779Y42626144D01*
X34562500Y42625000D01*
X33987500Y42625000D01*
X33964221Y42626144D01*
X33941166Y42629563D01*
X33918557Y42635227D01*
X33896613Y42643079D01*
X33875543Y42653044D01*
X33855552Y42665026D01*
X33836832Y42678910D01*
X33819562Y42694562D01*
X33803910Y42711832D01*
X33790026Y42730552D01*
X33778044Y42750543D01*
X33768079Y42771613D01*
X33760227Y42793557D01*
X33754563Y42816166D01*
X33751144Y42839221D01*
X33750000Y42862500D01*
X33750000Y43337500D01*
X33751144Y43360779D01*
X33754563Y43383834D01*
X33760227Y43406443D01*
X33768079Y43428387D01*
X33778044Y43449457D01*
X33790026Y43469448D01*
X33803910Y43488168D01*
X33819562Y43505438D01*
X33836832Y43521090D01*
X33855552Y43534974D01*
X33875543Y43546956D01*
X33896613Y43556921D01*
X33918557Y43564773D01*
X33941166Y43570437D01*
X33964221Y43573856D01*
X33987500Y43575000D01*
X34562500Y43575000D01*
X34585779Y43573856D01*
G37*
G36*
X23785779Y43573856D02*
G01*
X23808834Y43570437D01*
X23831443Y43564773D01*
X23853387Y43556921D01*
X23874457Y43546956D01*
X23894448Y43534974D01*
X23913168Y43521090D01*
X23930438Y43505438D01*
X23946090Y43488168D01*
X23959974Y43469448D01*
X23971956Y43449457D01*
X23981921Y43428387D01*
X23989773Y43406443D01*
X23995437Y43383834D01*
X23998856Y43360779D01*
X24000000Y43337500D01*
X24000000Y42862500D01*
X23998856Y42839221D01*
X23995437Y42816166D01*
X23989773Y42793557D01*
X23981921Y42771613D01*
X23971956Y42750543D01*
X23959974Y42730552D01*
X23946090Y42711832D01*
X23930438Y42694562D01*
X23913168Y42678910D01*
X23894448Y42665026D01*
X23874457Y42653044D01*
X23853387Y42643079D01*
X23831443Y42635227D01*
X23808834Y42629563D01*
X23785779Y42626144D01*
X23762500Y42625000D01*
X23187500Y42625000D01*
X23164221Y42626144D01*
X23141166Y42629563D01*
X23118557Y42635227D01*
X23096613Y42643079D01*
X23075543Y42653044D01*
X23055552Y42665026D01*
X23036832Y42678910D01*
X23019562Y42694562D01*
X23003910Y42711832D01*
X22990026Y42730552D01*
X22978044Y42750543D01*
X22968079Y42771613D01*
X22960227Y42793557D01*
X22954563Y42816166D01*
X22951144Y42839221D01*
X22950000Y42862500D01*
X22950000Y43337500D01*
X22951144Y43360779D01*
X22954563Y43383834D01*
X22960227Y43406443D01*
X22968079Y43428387D01*
X22978044Y43449457D01*
X22990026Y43469448D01*
X23003910Y43488168D01*
X23019562Y43505438D01*
X23036832Y43521090D01*
X23055552Y43534974D01*
X23075543Y43546956D01*
X23096613Y43556921D01*
X23118557Y43564773D01*
X23141166Y43570437D01*
X23164221Y43573856D01*
X23187500Y43575000D01*
X23762500Y43575000D01*
X23785779Y43573856D01*
G37*
G36*
X22035779Y43573856D02*
G01*
X22058834Y43570437D01*
X22081443Y43564773D01*
X22103387Y43556921D01*
X22124457Y43546956D01*
X22144448Y43534974D01*
X22163168Y43521090D01*
X22180438Y43505438D01*
X22196090Y43488168D01*
X22209974Y43469448D01*
X22221956Y43449457D01*
X22231921Y43428387D01*
X22239773Y43406443D01*
X22245437Y43383834D01*
X22248856Y43360779D01*
X22250000Y43337500D01*
X22250000Y42862500D01*
X22248856Y42839221D01*
X22245437Y42816166D01*
X22239773Y42793557D01*
X22231921Y42771613D01*
X22221956Y42750543D01*
X22209974Y42730552D01*
X22196090Y42711832D01*
X22180438Y42694562D01*
X22163168Y42678910D01*
X22144448Y42665026D01*
X22124457Y42653044D01*
X22103387Y42643079D01*
X22081443Y42635227D01*
X22058834Y42629563D01*
X22035779Y42626144D01*
X22012500Y42625000D01*
X21437500Y42625000D01*
X21414221Y42626144D01*
X21391166Y42629563D01*
X21368557Y42635227D01*
X21346613Y42643079D01*
X21325543Y42653044D01*
X21305552Y42665026D01*
X21286832Y42678910D01*
X21269562Y42694562D01*
X21253910Y42711832D01*
X21240026Y42730552D01*
X21228044Y42750543D01*
X21218079Y42771613D01*
X21210227Y42793557D01*
X21204563Y42816166D01*
X21201144Y42839221D01*
X21200000Y42862500D01*
X21200000Y43337500D01*
X21201144Y43360779D01*
X21204563Y43383834D01*
X21210227Y43406443D01*
X21218079Y43428387D01*
X21228044Y43449457D01*
X21240026Y43469448D01*
X21253910Y43488168D01*
X21269562Y43505438D01*
X21286832Y43521090D01*
X21305552Y43534974D01*
X21325543Y43546956D01*
X21346613Y43556921D01*
X21368557Y43564773D01*
X21391166Y43570437D01*
X21414221Y43573856D01*
X21437500Y43575000D01*
X22012500Y43575000D01*
X22035779Y43573856D01*
G37*
G36*
X45385779Y52773856D02*
G01*
X45408834Y52770437D01*
X45431443Y52764773D01*
X45453387Y52756921D01*
X45474457Y52746956D01*
X45494448Y52734974D01*
X45513168Y52721090D01*
X45530438Y52705438D01*
X45546090Y52688168D01*
X45559974Y52669448D01*
X45571956Y52649457D01*
X45581921Y52628387D01*
X45589773Y52606443D01*
X45595437Y52583834D01*
X45598856Y52560779D01*
X45600000Y52537500D01*
X45600000Y52062500D01*
X45598856Y52039221D01*
X45595437Y52016166D01*
X45589773Y51993557D01*
X45581921Y51971613D01*
X45571956Y51950543D01*
X45559974Y51930552D01*
X45546090Y51911832D01*
X45530438Y51894562D01*
X45513168Y51878910D01*
X45494448Y51865026D01*
X45474457Y51853044D01*
X45453387Y51843079D01*
X45431443Y51835227D01*
X45408834Y51829563D01*
X45385779Y51826144D01*
X45362500Y51825000D01*
X44787500Y51825000D01*
X44764221Y51826144D01*
X44741166Y51829563D01*
X44718557Y51835227D01*
X44696613Y51843079D01*
X44675543Y51853044D01*
X44655552Y51865026D01*
X44636832Y51878910D01*
X44619562Y51894562D01*
X44603910Y51911832D01*
X44590026Y51930552D01*
X44578044Y51950543D01*
X44568079Y51971613D01*
X44560227Y51993557D01*
X44554563Y52016166D01*
X44551144Y52039221D01*
X44550000Y52062500D01*
X44550000Y52537500D01*
X44551144Y52560779D01*
X44554563Y52583834D01*
X44560227Y52606443D01*
X44568079Y52628387D01*
X44578044Y52649457D01*
X44590026Y52669448D01*
X44603910Y52688168D01*
X44619562Y52705438D01*
X44636832Y52721090D01*
X44655552Y52734974D01*
X44675543Y52746956D01*
X44696613Y52756921D01*
X44718557Y52764773D01*
X44741166Y52770437D01*
X44764221Y52773856D01*
X44787500Y52775000D01*
X45362500Y52775000D01*
X45385779Y52773856D01*
G37*
G36*
X43635779Y52773856D02*
G01*
X43658834Y52770437D01*
X43681443Y52764773D01*
X43703387Y52756921D01*
X43724457Y52746956D01*
X43744448Y52734974D01*
X43763168Y52721090D01*
X43780438Y52705438D01*
X43796090Y52688168D01*
X43809974Y52669448D01*
X43821956Y52649457D01*
X43831921Y52628387D01*
X43839773Y52606443D01*
X43845437Y52583834D01*
X43848856Y52560779D01*
X43850000Y52537500D01*
X43850000Y52062500D01*
X43848856Y52039221D01*
X43845437Y52016166D01*
X43839773Y51993557D01*
X43831921Y51971613D01*
X43821956Y51950543D01*
X43809974Y51930552D01*
X43796090Y51911832D01*
X43780438Y51894562D01*
X43763168Y51878910D01*
X43744448Y51865026D01*
X43724457Y51853044D01*
X43703387Y51843079D01*
X43681443Y51835227D01*
X43658834Y51829563D01*
X43635779Y51826144D01*
X43612500Y51825000D01*
X43037500Y51825000D01*
X43014221Y51826144D01*
X42991166Y51829563D01*
X42968557Y51835227D01*
X42946613Y51843079D01*
X42925543Y51853044D01*
X42905552Y51865026D01*
X42886832Y51878910D01*
X42869562Y51894562D01*
X42853910Y51911832D01*
X42840026Y51930552D01*
X42828044Y51950543D01*
X42818079Y51971613D01*
X42810227Y51993557D01*
X42804563Y52016166D01*
X42801144Y52039221D01*
X42800000Y52062500D01*
X42800000Y52537500D01*
X42801144Y52560779D01*
X42804563Y52583834D01*
X42810227Y52606443D01*
X42818079Y52628387D01*
X42828044Y52649457D01*
X42840026Y52669448D01*
X42853910Y52688168D01*
X42869562Y52705438D01*
X42886832Y52721090D01*
X42905552Y52734974D01*
X42925543Y52746956D01*
X42946613Y52756921D01*
X42968557Y52764773D01*
X42991166Y52770437D01*
X43014221Y52773856D01*
X43037500Y52775000D01*
X43612500Y52775000D01*
X43635779Y52773856D01*
G37*
G36*
X32835779Y52773856D02*
G01*
X32858834Y52770437D01*
X32881443Y52764773D01*
X32903387Y52756921D01*
X32924457Y52746956D01*
X32944448Y52734974D01*
X32963168Y52721090D01*
X32980438Y52705438D01*
X32996090Y52688168D01*
X33009974Y52669448D01*
X33021956Y52649457D01*
X33031921Y52628387D01*
X33039773Y52606443D01*
X33045437Y52583834D01*
X33048856Y52560779D01*
X33050000Y52537500D01*
X33050000Y52062500D01*
X33048856Y52039221D01*
X33045437Y52016166D01*
X33039773Y51993557D01*
X33031921Y51971613D01*
X33021956Y51950543D01*
X33009974Y51930552D01*
X32996090Y51911832D01*
X32980438Y51894562D01*
X32963168Y51878910D01*
X32944448Y51865026D01*
X32924457Y51853044D01*
X32903387Y51843079D01*
X32881443Y51835227D01*
X32858834Y51829563D01*
X32835779Y51826144D01*
X32812500Y51825000D01*
X32237500Y51825000D01*
X32214221Y51826144D01*
X32191166Y51829563D01*
X32168557Y51835227D01*
X32146613Y51843079D01*
X32125543Y51853044D01*
X32105552Y51865026D01*
X32086832Y51878910D01*
X32069562Y51894562D01*
X32053910Y51911832D01*
X32040026Y51930552D01*
X32028044Y51950543D01*
X32018079Y51971613D01*
X32010227Y51993557D01*
X32004563Y52016166D01*
X32001144Y52039221D01*
X32000000Y52062500D01*
X32000000Y52537500D01*
X32001144Y52560779D01*
X32004563Y52583834D01*
X32010227Y52606443D01*
X32018079Y52628387D01*
X32028044Y52649457D01*
X32040026Y52669448D01*
X32053910Y52688168D01*
X32069562Y52705438D01*
X32086832Y52721090D01*
X32105552Y52734974D01*
X32125543Y52746956D01*
X32146613Y52756921D01*
X32168557Y52764773D01*
X32191166Y52770437D01*
X32214221Y52773856D01*
X32237500Y52775000D01*
X32812500Y52775000D01*
X32835779Y52773856D01*
G37*
G36*
X34585779Y52773856D02*
G01*
X34608834Y52770437D01*
X34631443Y52764773D01*
X34653387Y52756921D01*
X34674457Y52746956D01*
X34694448Y52734974D01*
X34713168Y52721090D01*
X34730438Y52705438D01*
X34746090Y52688168D01*
X34759974Y52669448D01*
X34771956Y52649457D01*
X34781921Y52628387D01*
X34789773Y52606443D01*
X34795437Y52583834D01*
X34798856Y52560779D01*
X34800000Y52537500D01*
X34800000Y52062500D01*
X34798856Y52039221D01*
X34795437Y52016166D01*
X34789773Y51993557D01*
X34781921Y51971613D01*
X34771956Y51950543D01*
X34759974Y51930552D01*
X34746090Y51911832D01*
X34730438Y51894562D01*
X34713168Y51878910D01*
X34694448Y51865026D01*
X34674457Y51853044D01*
X34653387Y51843079D01*
X34631443Y51835227D01*
X34608834Y51829563D01*
X34585779Y51826144D01*
X34562500Y51825000D01*
X33987500Y51825000D01*
X33964221Y51826144D01*
X33941166Y51829563D01*
X33918557Y51835227D01*
X33896613Y51843079D01*
X33875543Y51853044D01*
X33855552Y51865026D01*
X33836832Y51878910D01*
X33819562Y51894562D01*
X33803910Y51911832D01*
X33790026Y51930552D01*
X33778044Y51950543D01*
X33768079Y51971613D01*
X33760227Y51993557D01*
X33754563Y52016166D01*
X33751144Y52039221D01*
X33750000Y52062500D01*
X33750000Y52537500D01*
X33751144Y52560779D01*
X33754563Y52583834D01*
X33760227Y52606443D01*
X33768079Y52628387D01*
X33778044Y52649457D01*
X33790026Y52669448D01*
X33803910Y52688168D01*
X33819562Y52705438D01*
X33836832Y52721090D01*
X33855552Y52734974D01*
X33875543Y52746956D01*
X33896613Y52756921D01*
X33918557Y52764773D01*
X33941166Y52770437D01*
X33964221Y52773856D01*
X33987500Y52775000D01*
X34562500Y52775000D01*
X34585779Y52773856D01*
G37*
G36*
X22035779Y52773856D02*
G01*
X22058834Y52770437D01*
X22081443Y52764773D01*
X22103387Y52756921D01*
X22124457Y52746956D01*
X22144448Y52734974D01*
X22163168Y52721090D01*
X22180438Y52705438D01*
X22196090Y52688168D01*
X22209974Y52669448D01*
X22221956Y52649457D01*
X22231921Y52628387D01*
X22239773Y52606443D01*
X22245437Y52583834D01*
X22248856Y52560779D01*
X22250000Y52537500D01*
X22250000Y52062500D01*
X22248856Y52039221D01*
X22245437Y52016166D01*
X22239773Y51993557D01*
X22231921Y51971613D01*
X22221956Y51950543D01*
X22209974Y51930552D01*
X22196090Y51911832D01*
X22180438Y51894562D01*
X22163168Y51878910D01*
X22144448Y51865026D01*
X22124457Y51853044D01*
X22103387Y51843079D01*
X22081443Y51835227D01*
X22058834Y51829563D01*
X22035779Y51826144D01*
X22012500Y51825000D01*
X21437500Y51825000D01*
X21414221Y51826144D01*
X21391166Y51829563D01*
X21368557Y51835227D01*
X21346613Y51843079D01*
X21325543Y51853044D01*
X21305552Y51865026D01*
X21286832Y51878910D01*
X21269562Y51894562D01*
X21253910Y51911832D01*
X21240026Y51930552D01*
X21228044Y51950543D01*
X21218079Y51971613D01*
X21210227Y51993557D01*
X21204563Y52016166D01*
X21201144Y52039221D01*
X21200000Y52062500D01*
X21200000Y52537500D01*
X21201144Y52560779D01*
X21204563Y52583834D01*
X21210227Y52606443D01*
X21218079Y52628387D01*
X21228044Y52649457D01*
X21240026Y52669448D01*
X21253910Y52688168D01*
X21269562Y52705438D01*
X21286832Y52721090D01*
X21305552Y52734974D01*
X21325543Y52746956D01*
X21346613Y52756921D01*
X21368557Y52764773D01*
X21391166Y52770437D01*
X21414221Y52773856D01*
X21437500Y52775000D01*
X22012500Y52775000D01*
X22035779Y52773856D01*
G37*
G36*
X23785779Y52773856D02*
G01*
X23808834Y52770437D01*
X23831443Y52764773D01*
X23853387Y52756921D01*
X23874457Y52746956D01*
X23894448Y52734974D01*
X23913168Y52721090D01*
X23930438Y52705438D01*
X23946090Y52688168D01*
X23959974Y52669448D01*
X23971956Y52649457D01*
X23981921Y52628387D01*
X23989773Y52606443D01*
X23995437Y52583834D01*
X23998856Y52560779D01*
X24000000Y52537500D01*
X24000000Y52062500D01*
X23998856Y52039221D01*
X23995437Y52016166D01*
X23989773Y51993557D01*
X23981921Y51971613D01*
X23971956Y51950543D01*
X23959974Y51930552D01*
X23946090Y51911832D01*
X23930438Y51894562D01*
X23913168Y51878910D01*
X23894448Y51865026D01*
X23874457Y51853044D01*
X23853387Y51843079D01*
X23831443Y51835227D01*
X23808834Y51829563D01*
X23785779Y51826144D01*
X23762500Y51825000D01*
X23187500Y51825000D01*
X23164221Y51826144D01*
X23141166Y51829563D01*
X23118557Y51835227D01*
X23096613Y51843079D01*
X23075543Y51853044D01*
X23055552Y51865026D01*
X23036832Y51878910D01*
X23019562Y51894562D01*
X23003910Y51911832D01*
X22990026Y51930552D01*
X22978044Y51950543D01*
X22968079Y51971613D01*
X22960227Y51993557D01*
X22954563Y52016166D01*
X22951144Y52039221D01*
X22950000Y52062500D01*
X22950000Y52537500D01*
X22951144Y52560779D01*
X22954563Y52583834D01*
X22960227Y52606443D01*
X22968079Y52628387D01*
X22978044Y52649457D01*
X22990026Y52669448D01*
X23003910Y52688168D01*
X23019562Y52705438D01*
X23036832Y52721090D01*
X23055552Y52734974D01*
X23075543Y52746956D01*
X23096613Y52756921D01*
X23118557Y52764773D01*
X23141166Y52770437D01*
X23164221Y52773856D01*
X23187500Y52775000D01*
X23762500Y52775000D01*
X23785779Y52773856D01*
G37*
G36*
X66585779Y18673856D02*
G01*
X66608834Y18670437D01*
X66631443Y18664773D01*
X66653387Y18656921D01*
X66674457Y18646956D01*
X66694448Y18634974D01*
X66713168Y18621090D01*
X66730438Y18605438D01*
X66746090Y18588168D01*
X66759974Y18569448D01*
X66771956Y18549457D01*
X66781921Y18528387D01*
X66789773Y18506443D01*
X66795437Y18483834D01*
X66798856Y18460779D01*
X66800000Y18437500D01*
X66800000Y17962500D01*
X66798856Y17939221D01*
X66795437Y17916166D01*
X66789773Y17893557D01*
X66781921Y17871613D01*
X66771956Y17850543D01*
X66759974Y17830552D01*
X66746090Y17811832D01*
X66730438Y17794562D01*
X66713168Y17778910D01*
X66694448Y17765026D01*
X66674457Y17753044D01*
X66653387Y17743079D01*
X66631443Y17735227D01*
X66608834Y17729563D01*
X66585779Y17726144D01*
X66562500Y17725000D01*
X65987500Y17725000D01*
X65964221Y17726144D01*
X65941166Y17729563D01*
X65918557Y17735227D01*
X65896613Y17743079D01*
X65875543Y17753044D01*
X65855552Y17765026D01*
X65836832Y17778910D01*
X65819562Y17794562D01*
X65803910Y17811832D01*
X65790026Y17830552D01*
X65778044Y17850543D01*
X65768079Y17871613D01*
X65760227Y17893557D01*
X65754563Y17916166D01*
X65751144Y17939221D01*
X65750000Y17962500D01*
X65750000Y18437500D01*
X65751144Y18460779D01*
X65754563Y18483834D01*
X65760227Y18506443D01*
X65768079Y18528387D01*
X65778044Y18549457D01*
X65790026Y18569448D01*
X65803910Y18588168D01*
X65819562Y18605438D01*
X65836832Y18621090D01*
X65855552Y18634974D01*
X65875543Y18646956D01*
X65896613Y18656921D01*
X65918557Y18664773D01*
X65941166Y18670437D01*
X65964221Y18673856D01*
X65987500Y18675000D01*
X66562500Y18675000D01*
X66585779Y18673856D01*
G37*
G36*
X64835779Y18673856D02*
G01*
X64858834Y18670437D01*
X64881443Y18664773D01*
X64903387Y18656921D01*
X64924457Y18646956D01*
X64944448Y18634974D01*
X64963168Y18621090D01*
X64980438Y18605438D01*
X64996090Y18588168D01*
X65009974Y18569448D01*
X65021956Y18549457D01*
X65031921Y18528387D01*
X65039773Y18506443D01*
X65045437Y18483834D01*
X65048856Y18460779D01*
X65050000Y18437500D01*
X65050000Y17962500D01*
X65048856Y17939221D01*
X65045437Y17916166D01*
X65039773Y17893557D01*
X65031921Y17871613D01*
X65021956Y17850543D01*
X65009974Y17830552D01*
X64996090Y17811832D01*
X64980438Y17794562D01*
X64963168Y17778910D01*
X64944448Y17765026D01*
X64924457Y17753044D01*
X64903387Y17743079D01*
X64881443Y17735227D01*
X64858834Y17729563D01*
X64835779Y17726144D01*
X64812500Y17725000D01*
X64237500Y17725000D01*
X64214221Y17726144D01*
X64191166Y17729563D01*
X64168557Y17735227D01*
X64146613Y17743079D01*
X64125543Y17753044D01*
X64105552Y17765026D01*
X64086832Y17778910D01*
X64069562Y17794562D01*
X64053910Y17811832D01*
X64040026Y17830552D01*
X64028044Y17850543D01*
X64018079Y17871613D01*
X64010227Y17893557D01*
X64004563Y17916166D01*
X64001144Y17939221D01*
X64000000Y17962500D01*
X64000000Y18437500D01*
X64001144Y18460779D01*
X64004563Y18483834D01*
X64010227Y18506443D01*
X64018079Y18528387D01*
X64028044Y18549457D01*
X64040026Y18569448D01*
X64053910Y18588168D01*
X64069562Y18605438D01*
X64086832Y18621090D01*
X64105552Y18634974D01*
X64125543Y18646956D01*
X64146613Y18656921D01*
X64168557Y18664773D01*
X64191166Y18670437D01*
X64214221Y18673856D01*
X64237500Y18675000D01*
X64812500Y18675000D01*
X64835779Y18673856D01*
G37*
G36*
X66585779Y39473856D02*
G01*
X66608834Y39470437D01*
X66631443Y39464773D01*
X66653387Y39456921D01*
X66674457Y39446956D01*
X66694448Y39434974D01*
X66713168Y39421090D01*
X66730438Y39405438D01*
X66746090Y39388168D01*
X66759974Y39369448D01*
X66771956Y39349457D01*
X66781921Y39328387D01*
X66789773Y39306443D01*
X66795437Y39283834D01*
X66798856Y39260779D01*
X66800000Y39237500D01*
X66800000Y38762500D01*
X66798856Y38739221D01*
X66795437Y38716166D01*
X66789773Y38693557D01*
X66781921Y38671613D01*
X66771956Y38650543D01*
X66759974Y38630552D01*
X66746090Y38611832D01*
X66730438Y38594562D01*
X66713168Y38578910D01*
X66694448Y38565026D01*
X66674457Y38553044D01*
X66653387Y38543079D01*
X66631443Y38535227D01*
X66608834Y38529563D01*
X66585779Y38526144D01*
X66562500Y38525000D01*
X65987500Y38525000D01*
X65964221Y38526144D01*
X65941166Y38529563D01*
X65918557Y38535227D01*
X65896613Y38543079D01*
X65875543Y38553044D01*
X65855552Y38565026D01*
X65836832Y38578910D01*
X65819562Y38594562D01*
X65803910Y38611832D01*
X65790026Y38630552D01*
X65778044Y38650543D01*
X65768079Y38671613D01*
X65760227Y38693557D01*
X65754563Y38716166D01*
X65751144Y38739221D01*
X65750000Y38762500D01*
X65750000Y39237500D01*
X65751144Y39260779D01*
X65754563Y39283834D01*
X65760227Y39306443D01*
X65768079Y39328387D01*
X65778044Y39349457D01*
X65790026Y39369448D01*
X65803910Y39388168D01*
X65819562Y39405438D01*
X65836832Y39421090D01*
X65855552Y39434974D01*
X65875543Y39446956D01*
X65896613Y39456921D01*
X65918557Y39464773D01*
X65941166Y39470437D01*
X65964221Y39473856D01*
X65987500Y39475000D01*
X66562500Y39475000D01*
X66585779Y39473856D01*
G37*
G36*
X64835779Y39473856D02*
G01*
X64858834Y39470437D01*
X64881443Y39464773D01*
X64903387Y39456921D01*
X64924457Y39446956D01*
X64944448Y39434974D01*
X64963168Y39421090D01*
X64980438Y39405438D01*
X64996090Y39388168D01*
X65009974Y39369448D01*
X65021956Y39349457D01*
X65031921Y39328387D01*
X65039773Y39306443D01*
X65045437Y39283834D01*
X65048856Y39260779D01*
X65050000Y39237500D01*
X65050000Y38762500D01*
X65048856Y38739221D01*
X65045437Y38716166D01*
X65039773Y38693557D01*
X65031921Y38671613D01*
X65021956Y38650543D01*
X65009974Y38630552D01*
X64996090Y38611832D01*
X64980438Y38594562D01*
X64963168Y38578910D01*
X64944448Y38565026D01*
X64924457Y38553044D01*
X64903387Y38543079D01*
X64881443Y38535227D01*
X64858834Y38529563D01*
X64835779Y38526144D01*
X64812500Y38525000D01*
X64237500Y38525000D01*
X64214221Y38526144D01*
X64191166Y38529563D01*
X64168557Y38535227D01*
X64146613Y38543079D01*
X64125543Y38553044D01*
X64105552Y38565026D01*
X64086832Y38578910D01*
X64069562Y38594562D01*
X64053910Y38611832D01*
X64040026Y38630552D01*
X64028044Y38650543D01*
X64018079Y38671613D01*
X64010227Y38693557D01*
X64004563Y38716166D01*
X64001144Y38739221D01*
X64000000Y38762500D01*
X64000000Y39237500D01*
X64001144Y39260779D01*
X64004563Y39283834D01*
X64010227Y39306443D01*
X64018079Y39328387D01*
X64028044Y39349457D01*
X64040026Y39369448D01*
X64053910Y39388168D01*
X64069562Y39405438D01*
X64086832Y39421090D01*
X64105552Y39434974D01*
X64125543Y39446956D01*
X64146613Y39456921D01*
X64168557Y39464773D01*
X64191166Y39470437D01*
X64214221Y39473856D01*
X64237500Y39475000D01*
X64812500Y39475000D01*
X64835779Y39473856D01*
G37*
G36*
X64935779Y60373856D02*
G01*
X64958834Y60370437D01*
X64981443Y60364773D01*
X65003387Y60356921D01*
X65024457Y60346956D01*
X65044448Y60334974D01*
X65063168Y60321090D01*
X65080438Y60305438D01*
X65096090Y60288168D01*
X65109974Y60269448D01*
X65121956Y60249457D01*
X65131921Y60228387D01*
X65139773Y60206443D01*
X65145437Y60183834D01*
X65148856Y60160779D01*
X65150000Y60137500D01*
X65150000Y59662500D01*
X65148856Y59639221D01*
X65145437Y59616166D01*
X65139773Y59593557D01*
X65131921Y59571613D01*
X65121956Y59550543D01*
X65109974Y59530552D01*
X65096090Y59511832D01*
X65080438Y59494562D01*
X65063168Y59478910D01*
X65044448Y59465026D01*
X65024457Y59453044D01*
X65003387Y59443079D01*
X64981443Y59435227D01*
X64958834Y59429563D01*
X64935779Y59426144D01*
X64912500Y59425000D01*
X64337500Y59425000D01*
X64314221Y59426144D01*
X64291166Y59429563D01*
X64268557Y59435227D01*
X64246613Y59443079D01*
X64225543Y59453044D01*
X64205552Y59465026D01*
X64186832Y59478910D01*
X64169562Y59494562D01*
X64153910Y59511832D01*
X64140026Y59530552D01*
X64128044Y59550543D01*
X64118079Y59571613D01*
X64110227Y59593557D01*
X64104563Y59616166D01*
X64101144Y59639221D01*
X64100000Y59662500D01*
X64100000Y60137500D01*
X64101144Y60160779D01*
X64104563Y60183834D01*
X64110227Y60206443D01*
X64118079Y60228387D01*
X64128044Y60249457D01*
X64140026Y60269448D01*
X64153910Y60288168D01*
X64169562Y60305438D01*
X64186832Y60321090D01*
X64205552Y60334974D01*
X64225543Y60346956D01*
X64246613Y60356921D01*
X64268557Y60364773D01*
X64291166Y60370437D01*
X64314221Y60373856D01*
X64337500Y60375000D01*
X64912500Y60375000D01*
X64935779Y60373856D01*
G37*
G36*
X66685779Y60373856D02*
G01*
X66708834Y60370437D01*
X66731443Y60364773D01*
X66753387Y60356921D01*
X66774457Y60346956D01*
X66794448Y60334974D01*
X66813168Y60321090D01*
X66830438Y60305438D01*
X66846090Y60288168D01*
X66859974Y60269448D01*
X66871956Y60249457D01*
X66881921Y60228387D01*
X66889773Y60206443D01*
X66895437Y60183834D01*
X66898856Y60160779D01*
X66900000Y60137500D01*
X66900000Y59662500D01*
X66898856Y59639221D01*
X66895437Y59616166D01*
X66889773Y59593557D01*
X66881921Y59571613D01*
X66871956Y59550543D01*
X66859974Y59530552D01*
X66846090Y59511832D01*
X66830438Y59494562D01*
X66813168Y59478910D01*
X66794448Y59465026D01*
X66774457Y59453044D01*
X66753387Y59443079D01*
X66731443Y59435227D01*
X66708834Y59429563D01*
X66685779Y59426144D01*
X66662500Y59425000D01*
X66087500Y59425000D01*
X66064221Y59426144D01*
X66041166Y59429563D01*
X66018557Y59435227D01*
X65996613Y59443079D01*
X65975543Y59453044D01*
X65955552Y59465026D01*
X65936832Y59478910D01*
X65919562Y59494562D01*
X65903910Y59511832D01*
X65890026Y59530552D01*
X65878044Y59550543D01*
X65868079Y59571613D01*
X65860227Y59593557D01*
X65854563Y59616166D01*
X65851144Y59639221D01*
X65850000Y59662500D01*
X65850000Y60137500D01*
X65851144Y60160779D01*
X65854563Y60183834D01*
X65860227Y60206443D01*
X65868079Y60228387D01*
X65878044Y60249457D01*
X65890026Y60269448D01*
X65903910Y60288168D01*
X65919562Y60305438D01*
X65936832Y60321090D01*
X65955552Y60334974D01*
X65975543Y60346956D01*
X65996613Y60356921D01*
X66018557Y60364773D01*
X66041166Y60370437D01*
X66064221Y60373856D01*
X66087500Y60375000D01*
X66662500Y60375000D01*
X66685779Y60373856D01*
G37*
G36*
X64835779Y-2226144D02*
G01*
X64858834Y-2229563D01*
X64881443Y-2235227D01*
X64903387Y-2243079D01*
X64924457Y-2253044D01*
X64944448Y-2265026D01*
X64963168Y-2278910D01*
X64980438Y-2294562D01*
X64996090Y-2311832D01*
X65009974Y-2330552D01*
X65021956Y-2350543D01*
X65031921Y-2371613D01*
X65039773Y-2393557D01*
X65045437Y-2416166D01*
X65048856Y-2439221D01*
X65050000Y-2462500D01*
X65050000Y-2937500D01*
X65048856Y-2960779D01*
X65045437Y-2983834D01*
X65039773Y-3006443D01*
X65031921Y-3028387D01*
X65021956Y-3049457D01*
X65009974Y-3069448D01*
X64996090Y-3088168D01*
X64980438Y-3105438D01*
X64963168Y-3121090D01*
X64944448Y-3134974D01*
X64924457Y-3146956D01*
X64903387Y-3156921D01*
X64881443Y-3164773D01*
X64858834Y-3170437D01*
X64835779Y-3173856D01*
X64812500Y-3175000D01*
X64237500Y-3175000D01*
X64214221Y-3173856D01*
X64191166Y-3170437D01*
X64168557Y-3164773D01*
X64146613Y-3156921D01*
X64125543Y-3146956D01*
X64105552Y-3134974D01*
X64086832Y-3121090D01*
X64069562Y-3105438D01*
X64053910Y-3088168D01*
X64040026Y-3069448D01*
X64028044Y-3049457D01*
X64018079Y-3028387D01*
X64010227Y-3006443D01*
X64004563Y-2983834D01*
X64001144Y-2960779D01*
X64000000Y-2937500D01*
X64000000Y-2462500D01*
X64001144Y-2439221D01*
X64004563Y-2416166D01*
X64010227Y-2393557D01*
X64018079Y-2371613D01*
X64028044Y-2350543D01*
X64040026Y-2330552D01*
X64053910Y-2311832D01*
X64069562Y-2294562D01*
X64086832Y-2278910D01*
X64105552Y-2265026D01*
X64125543Y-2253044D01*
X64146613Y-2243079D01*
X64168557Y-2235227D01*
X64191166Y-2229563D01*
X64214221Y-2226144D01*
X64237500Y-2225000D01*
X64812500Y-2225000D01*
X64835779Y-2226144D01*
G37*
G36*
X66585779Y-2226144D02*
G01*
X66608834Y-2229563D01*
X66631443Y-2235227D01*
X66653387Y-2243079D01*
X66674457Y-2253044D01*
X66694448Y-2265026D01*
X66713168Y-2278910D01*
X66730438Y-2294562D01*
X66746090Y-2311832D01*
X66759974Y-2330552D01*
X66771956Y-2350543D01*
X66781921Y-2371613D01*
X66789773Y-2393557D01*
X66795437Y-2416166D01*
X66798856Y-2439221D01*
X66800000Y-2462500D01*
X66800000Y-2937500D01*
X66798856Y-2960779D01*
X66795437Y-2983834D01*
X66789773Y-3006443D01*
X66781921Y-3028387D01*
X66771956Y-3049457D01*
X66759974Y-3069448D01*
X66746090Y-3088168D01*
X66730438Y-3105438D01*
X66713168Y-3121090D01*
X66694448Y-3134974D01*
X66674457Y-3146956D01*
X66653387Y-3156921D01*
X66631443Y-3164773D01*
X66608834Y-3170437D01*
X66585779Y-3173856D01*
X66562500Y-3175000D01*
X65987500Y-3175000D01*
X65964221Y-3173856D01*
X65941166Y-3170437D01*
X65918557Y-3164773D01*
X65896613Y-3156921D01*
X65875543Y-3146956D01*
X65855552Y-3134974D01*
X65836832Y-3121090D01*
X65819562Y-3105438D01*
X65803910Y-3088168D01*
X65790026Y-3069448D01*
X65778044Y-3049457D01*
X65768079Y-3028387D01*
X65760227Y-3006443D01*
X65754563Y-2983834D01*
X65751144Y-2960779D01*
X65750000Y-2937500D01*
X65750000Y-2462500D01*
X65751144Y-2439221D01*
X65754563Y-2416166D01*
X65760227Y-2393557D01*
X65768079Y-2371613D01*
X65778044Y-2350543D01*
X65790026Y-2330552D01*
X65803910Y-2311832D01*
X65819562Y-2294562D01*
X65836832Y-2278910D01*
X65855552Y-2265026D01*
X65875543Y-2253044D01*
X65896613Y-2243079D01*
X65918557Y-2235227D01*
X65941166Y-2229563D01*
X65964221Y-2226144D01*
X65987500Y-2225000D01*
X66562500Y-2225000D01*
X66585779Y-2226144D01*
G37*
D15*
X29850000Y27900000D03*
X29850000Y28700000D03*
X29850000Y29500000D03*
X29850000Y30300000D03*
X29850000Y31100000D03*
X29850000Y31900000D03*
X29850000Y32700000D03*
X29850000Y33500000D03*
D16*
X28400000Y34950000D03*
X27600000Y34950000D03*
X26800000Y34950000D03*
X26000000Y34950000D03*
X25200000Y34950000D03*
X24400000Y34950000D03*
X23600000Y34950000D03*
X22800000Y34950000D03*
D15*
X21350000Y33500000D03*
X21350000Y32700000D03*
X21350000Y31900000D03*
X21350000Y31100000D03*
X21350000Y30300000D03*
X21350000Y29500000D03*
X21350000Y28700000D03*
X21350000Y27900000D03*
D16*
X22800000Y26450000D03*
X23600000Y26450000D03*
X24400000Y26450000D03*
X25200000Y26450000D03*
X26000000Y26450000D03*
X26800000Y26450000D03*
X27600000Y26450000D03*
X28400000Y26450000D03*
D17*
X11200000Y57500000D03*
X11200000Y60040000D03*
X11200000Y65120000D03*
X1670000Y65120000D03*
X1670000Y57500000D03*
D11*
G36*
X19610779Y31773856D02*
G01*
X19633834Y31770437D01*
X19656443Y31764773D01*
X19678387Y31756921D01*
X19699457Y31746956D01*
X19719448Y31734974D01*
X19738168Y31721090D01*
X19755438Y31705438D01*
X19771090Y31688168D01*
X19784974Y31669448D01*
X19796956Y31649457D01*
X19806921Y31628387D01*
X19814773Y31606443D01*
X19820437Y31583834D01*
X19823856Y31560779D01*
X19825000Y31537500D01*
X19825000Y31062500D01*
X19823856Y31039221D01*
X19820437Y31016166D01*
X19814773Y30993557D01*
X19806921Y30971613D01*
X19796956Y30950543D01*
X19784974Y30930552D01*
X19771090Y30911832D01*
X19755438Y30894562D01*
X19738168Y30878910D01*
X19719448Y30865026D01*
X19699457Y30853044D01*
X19678387Y30843079D01*
X19656443Y30835227D01*
X19633834Y30829563D01*
X19610779Y30826144D01*
X19587500Y30825000D01*
X19012500Y30825000D01*
X18989221Y30826144D01*
X18966166Y30829563D01*
X18943557Y30835227D01*
X18921613Y30843079D01*
X18900543Y30853044D01*
X18880552Y30865026D01*
X18861832Y30878910D01*
X18844562Y30894562D01*
X18828910Y30911832D01*
X18815026Y30930552D01*
X18803044Y30950543D01*
X18793079Y30971613D01*
X18785227Y30993557D01*
X18779563Y31016166D01*
X18776144Y31039221D01*
X18775000Y31062500D01*
X18775000Y31537500D01*
X18776144Y31560779D01*
X18779563Y31583834D01*
X18785227Y31606443D01*
X18793079Y31628387D01*
X18803044Y31649457D01*
X18815026Y31669448D01*
X18828910Y31688168D01*
X18844562Y31705438D01*
X18861832Y31721090D01*
X18880552Y31734974D01*
X18900543Y31746956D01*
X18921613Y31756921D01*
X18943557Y31764773D01*
X18966166Y31770437D01*
X18989221Y31773856D01*
X19012500Y31775000D01*
X19587500Y31775000D01*
X19610779Y31773856D01*
G37*
G36*
X17860779Y31773856D02*
G01*
X17883834Y31770437D01*
X17906443Y31764773D01*
X17928387Y31756921D01*
X17949457Y31746956D01*
X17969448Y31734974D01*
X17988168Y31721090D01*
X18005438Y31705438D01*
X18021090Y31688168D01*
X18034974Y31669448D01*
X18046956Y31649457D01*
X18056921Y31628387D01*
X18064773Y31606443D01*
X18070437Y31583834D01*
X18073856Y31560779D01*
X18075000Y31537500D01*
X18075000Y31062500D01*
X18073856Y31039221D01*
X18070437Y31016166D01*
X18064773Y30993557D01*
X18056921Y30971613D01*
X18046956Y30950543D01*
X18034974Y30930552D01*
X18021090Y30911832D01*
X18005438Y30894562D01*
X17988168Y30878910D01*
X17969448Y30865026D01*
X17949457Y30853044D01*
X17928387Y30843079D01*
X17906443Y30835227D01*
X17883834Y30829563D01*
X17860779Y30826144D01*
X17837500Y30825000D01*
X17262500Y30825000D01*
X17239221Y30826144D01*
X17216166Y30829563D01*
X17193557Y30835227D01*
X17171613Y30843079D01*
X17150543Y30853044D01*
X17130552Y30865026D01*
X17111832Y30878910D01*
X17094562Y30894562D01*
X17078910Y30911832D01*
X17065026Y30930552D01*
X17053044Y30950543D01*
X17043079Y30971613D01*
X17035227Y30993557D01*
X17029563Y31016166D01*
X17026144Y31039221D01*
X17025000Y31062500D01*
X17025000Y31537500D01*
X17026144Y31560779D01*
X17029563Y31583834D01*
X17035227Y31606443D01*
X17043079Y31628387D01*
X17053044Y31649457D01*
X17065026Y31669448D01*
X17078910Y31688168D01*
X17094562Y31705438D01*
X17111832Y31721090D01*
X17130552Y31734974D01*
X17150543Y31746956D01*
X17171613Y31756921D01*
X17193557Y31764773D01*
X17216166Y31770437D01*
X17239221Y31773856D01*
X17262500Y31775000D01*
X17837500Y31775000D01*
X17860779Y31773856D01*
G37*
G36*
X19760779Y35173856D02*
G01*
X19783834Y35170437D01*
X19806443Y35164773D01*
X19828387Y35156921D01*
X19849457Y35146956D01*
X19869448Y35134974D01*
X19888168Y35121090D01*
X19905438Y35105438D01*
X19921090Y35088168D01*
X19934974Y35069448D01*
X19946956Y35049457D01*
X19956921Y35028387D01*
X19964773Y35006443D01*
X19970437Y34983834D01*
X19973856Y34960779D01*
X19975000Y34937500D01*
X19975000Y34362500D01*
X19973856Y34339221D01*
X19970437Y34316166D01*
X19964773Y34293557D01*
X19956921Y34271613D01*
X19946956Y34250543D01*
X19934974Y34230552D01*
X19921090Y34211832D01*
X19905438Y34194562D01*
X19888168Y34178910D01*
X19869448Y34165026D01*
X19849457Y34153044D01*
X19828387Y34143079D01*
X19806443Y34135227D01*
X19783834Y34129563D01*
X19760779Y34126144D01*
X19737500Y34125000D01*
X19262500Y34125000D01*
X19239221Y34126144D01*
X19216166Y34129563D01*
X19193557Y34135227D01*
X19171613Y34143079D01*
X19150543Y34153044D01*
X19130552Y34165026D01*
X19111832Y34178910D01*
X19094562Y34194562D01*
X19078910Y34211832D01*
X19065026Y34230552D01*
X19053044Y34250543D01*
X19043079Y34271613D01*
X19035227Y34293557D01*
X19029563Y34316166D01*
X19026144Y34339221D01*
X19025000Y34362500D01*
X19025000Y34937500D01*
X19026144Y34960779D01*
X19029563Y34983834D01*
X19035227Y35006443D01*
X19043079Y35028387D01*
X19053044Y35049457D01*
X19065026Y35069448D01*
X19078910Y35088168D01*
X19094562Y35105438D01*
X19111832Y35121090D01*
X19130552Y35134974D01*
X19150543Y35146956D01*
X19171613Y35156921D01*
X19193557Y35164773D01*
X19216166Y35170437D01*
X19239221Y35173856D01*
X19262500Y35175000D01*
X19737500Y35175000D01*
X19760779Y35173856D01*
G37*
G36*
X19760779Y33423856D02*
G01*
X19783834Y33420437D01*
X19806443Y33414773D01*
X19828387Y33406921D01*
X19849457Y33396956D01*
X19869448Y33384974D01*
X19888168Y33371090D01*
X19905438Y33355438D01*
X19921090Y33338168D01*
X19934974Y33319448D01*
X19946956Y33299457D01*
X19956921Y33278387D01*
X19964773Y33256443D01*
X19970437Y33233834D01*
X19973856Y33210779D01*
X19975000Y33187500D01*
X19975000Y32612500D01*
X19973856Y32589221D01*
X19970437Y32566166D01*
X19964773Y32543557D01*
X19956921Y32521613D01*
X19946956Y32500543D01*
X19934974Y32480552D01*
X19921090Y32461832D01*
X19905438Y32444562D01*
X19888168Y32428910D01*
X19869448Y32415026D01*
X19849457Y32403044D01*
X19828387Y32393079D01*
X19806443Y32385227D01*
X19783834Y32379563D01*
X19760779Y32376144D01*
X19737500Y32375000D01*
X19262500Y32375000D01*
X19239221Y32376144D01*
X19216166Y32379563D01*
X19193557Y32385227D01*
X19171613Y32393079D01*
X19150543Y32403044D01*
X19130552Y32415026D01*
X19111832Y32428910D01*
X19094562Y32444562D01*
X19078910Y32461832D01*
X19065026Y32480552D01*
X19053044Y32500543D01*
X19043079Y32521613D01*
X19035227Y32543557D01*
X19029563Y32566166D01*
X19026144Y32589221D01*
X19025000Y32612500D01*
X19025000Y33187500D01*
X19026144Y33210779D01*
X19029563Y33233834D01*
X19035227Y33256443D01*
X19043079Y33278387D01*
X19053044Y33299457D01*
X19065026Y33319448D01*
X19078910Y33338168D01*
X19094562Y33355438D01*
X19111832Y33371090D01*
X19130552Y33384974D01*
X19150543Y33396956D01*
X19171613Y33406921D01*
X19193557Y33414773D01*
X19216166Y33420437D01*
X19239221Y33423856D01*
X19262500Y33425000D01*
X19737500Y33425000D01*
X19760779Y33423856D01*
G37*
G36*
X33510779Y30748856D02*
G01*
X33533834Y30745437D01*
X33556443Y30739773D01*
X33578387Y30731921D01*
X33599457Y30721956D01*
X33619448Y30709974D01*
X33638168Y30696090D01*
X33655438Y30680438D01*
X33671090Y30663168D01*
X33684974Y30644448D01*
X33696956Y30624457D01*
X33706921Y30603387D01*
X33714773Y30581443D01*
X33720437Y30558834D01*
X33723856Y30535779D01*
X33725000Y30512500D01*
X33725000Y29937500D01*
X33723856Y29914221D01*
X33720437Y29891166D01*
X33714773Y29868557D01*
X33706921Y29846613D01*
X33696956Y29825543D01*
X33684974Y29805552D01*
X33671090Y29786832D01*
X33655438Y29769562D01*
X33638168Y29753910D01*
X33619448Y29740026D01*
X33599457Y29728044D01*
X33578387Y29718079D01*
X33556443Y29710227D01*
X33533834Y29704563D01*
X33510779Y29701144D01*
X33487500Y29700000D01*
X33012500Y29700000D01*
X32989221Y29701144D01*
X32966166Y29704563D01*
X32943557Y29710227D01*
X32921613Y29718079D01*
X32900543Y29728044D01*
X32880552Y29740026D01*
X32861832Y29753910D01*
X32844562Y29769562D01*
X32828910Y29786832D01*
X32815026Y29805552D01*
X32803044Y29825543D01*
X32793079Y29846613D01*
X32785227Y29868557D01*
X32779563Y29891166D01*
X32776144Y29914221D01*
X32775000Y29937500D01*
X32775000Y30512500D01*
X32776144Y30535779D01*
X32779563Y30558834D01*
X32785227Y30581443D01*
X32793079Y30603387D01*
X32803044Y30624457D01*
X32815026Y30644448D01*
X32828910Y30663168D01*
X32844562Y30680438D01*
X32861832Y30696090D01*
X32880552Y30709974D01*
X32900543Y30721956D01*
X32921613Y30731921D01*
X32943557Y30739773D01*
X32966166Y30745437D01*
X32989221Y30748856D01*
X33012500Y30750000D01*
X33487500Y30750000D01*
X33510779Y30748856D01*
G37*
G36*
X33510779Y32498856D02*
G01*
X33533834Y32495437D01*
X33556443Y32489773D01*
X33578387Y32481921D01*
X33599457Y32471956D01*
X33619448Y32459974D01*
X33638168Y32446090D01*
X33655438Y32430438D01*
X33671090Y32413168D01*
X33684974Y32394448D01*
X33696956Y32374457D01*
X33706921Y32353387D01*
X33714773Y32331443D01*
X33720437Y32308834D01*
X33723856Y32285779D01*
X33725000Y32262500D01*
X33725000Y31687500D01*
X33723856Y31664221D01*
X33720437Y31641166D01*
X33714773Y31618557D01*
X33706921Y31596613D01*
X33696956Y31575543D01*
X33684974Y31555552D01*
X33671090Y31536832D01*
X33655438Y31519562D01*
X33638168Y31503910D01*
X33619448Y31490026D01*
X33599457Y31478044D01*
X33578387Y31468079D01*
X33556443Y31460227D01*
X33533834Y31454563D01*
X33510779Y31451144D01*
X33487500Y31450000D01*
X33012500Y31450000D01*
X32989221Y31451144D01*
X32966166Y31454563D01*
X32943557Y31460227D01*
X32921613Y31468079D01*
X32900543Y31478044D01*
X32880552Y31490026D01*
X32861832Y31503910D01*
X32844562Y31519562D01*
X32828910Y31536832D01*
X32815026Y31555552D01*
X32803044Y31575543D01*
X32793079Y31596613D01*
X32785227Y31618557D01*
X32779563Y31641166D01*
X32776144Y31664221D01*
X32775000Y31687500D01*
X32775000Y32262500D01*
X32776144Y32285779D01*
X32779563Y32308834D01*
X32785227Y32331443D01*
X32793079Y32353387D01*
X32803044Y32374457D01*
X32815026Y32394448D01*
X32828910Y32413168D01*
X32844562Y32430438D01*
X32861832Y32446090D01*
X32880552Y32459974D01*
X32900543Y32471956D01*
X32921613Y32481921D01*
X32943557Y32489773D01*
X32966166Y32495437D01*
X32989221Y32498856D01*
X33012500Y32500000D01*
X33487500Y32500000D01*
X33510779Y32498856D01*
G37*
G36*
X31960779Y34398856D02*
G01*
X31983834Y34395437D01*
X32006443Y34389773D01*
X32028387Y34381921D01*
X32049457Y34371956D01*
X32069448Y34359974D01*
X32088168Y34346090D01*
X32105438Y34330438D01*
X32121090Y34313168D01*
X32134974Y34294448D01*
X32146956Y34274457D01*
X32156921Y34253387D01*
X32164773Y34231443D01*
X32170437Y34208834D01*
X32173856Y34185779D01*
X32175000Y34162500D01*
X32175000Y33587500D01*
X32173856Y33564221D01*
X32170437Y33541166D01*
X32164773Y33518557D01*
X32156921Y33496613D01*
X32146956Y33475543D01*
X32134974Y33455552D01*
X32121090Y33436832D01*
X32105438Y33419562D01*
X32088168Y33403910D01*
X32069448Y33390026D01*
X32049457Y33378044D01*
X32028387Y33368079D01*
X32006443Y33360227D01*
X31983834Y33354563D01*
X31960779Y33351144D01*
X31937500Y33350000D01*
X31462500Y33350000D01*
X31439221Y33351144D01*
X31416166Y33354563D01*
X31393557Y33360227D01*
X31371613Y33368079D01*
X31350543Y33378044D01*
X31330552Y33390026D01*
X31311832Y33403910D01*
X31294562Y33419562D01*
X31278910Y33436832D01*
X31265026Y33455552D01*
X31253044Y33475543D01*
X31243079Y33496613D01*
X31235227Y33518557D01*
X31229563Y33541166D01*
X31226144Y33564221D01*
X31225000Y33587500D01*
X31225000Y34162500D01*
X31226144Y34185779D01*
X31229563Y34208834D01*
X31235227Y34231443D01*
X31243079Y34253387D01*
X31253044Y34274457D01*
X31265026Y34294448D01*
X31278910Y34313168D01*
X31294562Y34330438D01*
X31311832Y34346090D01*
X31330552Y34359974D01*
X31350543Y34371956D01*
X31371613Y34381921D01*
X31393557Y34389773D01*
X31416166Y34395437D01*
X31439221Y34398856D01*
X31462500Y34400000D01*
X31937500Y34400000D01*
X31960779Y34398856D01*
G37*
G36*
X31960779Y32648856D02*
G01*
X31983834Y32645437D01*
X32006443Y32639773D01*
X32028387Y32631921D01*
X32049457Y32621956D01*
X32069448Y32609974D01*
X32088168Y32596090D01*
X32105438Y32580438D01*
X32121090Y32563168D01*
X32134974Y32544448D01*
X32146956Y32524457D01*
X32156921Y32503387D01*
X32164773Y32481443D01*
X32170437Y32458834D01*
X32173856Y32435779D01*
X32175000Y32412500D01*
X32175000Y31837500D01*
X32173856Y31814221D01*
X32170437Y31791166D01*
X32164773Y31768557D01*
X32156921Y31746613D01*
X32146956Y31725543D01*
X32134974Y31705552D01*
X32121090Y31686832D01*
X32105438Y31669562D01*
X32088168Y31653910D01*
X32069448Y31640026D01*
X32049457Y31628044D01*
X32028387Y31618079D01*
X32006443Y31610227D01*
X31983834Y31604563D01*
X31960779Y31601144D01*
X31937500Y31600000D01*
X31462500Y31600000D01*
X31439221Y31601144D01*
X31416166Y31604563D01*
X31393557Y31610227D01*
X31371613Y31618079D01*
X31350543Y31628044D01*
X31330552Y31640026D01*
X31311832Y31653910D01*
X31294562Y31669562D01*
X31278910Y31686832D01*
X31265026Y31705552D01*
X31253044Y31725543D01*
X31243079Y31746613D01*
X31235227Y31768557D01*
X31229563Y31791166D01*
X31226144Y31814221D01*
X31225000Y31837500D01*
X31225000Y32412500D01*
X31226144Y32435779D01*
X31229563Y32458834D01*
X31235227Y32481443D01*
X31243079Y32503387D01*
X31253044Y32524457D01*
X31265026Y32544448D01*
X31278910Y32563168D01*
X31294562Y32580438D01*
X31311832Y32596090D01*
X31330552Y32609974D01*
X31350543Y32621956D01*
X31371613Y32631921D01*
X31393557Y32639773D01*
X31416166Y32645437D01*
X31439221Y32648856D01*
X31462500Y32650000D01*
X31937500Y32650000D01*
X31960779Y32648856D01*
G37*
M02*
