%TF.GenerationSoftware,KiCad,Pcbnew,(5.1.5)-2*%
%TF.CreationDate,2019-12-28T19:20:09-08:00*%
%TF.ProjectId,20191222_Projects_Mainboard_A0,32303139-3132-4323-925f-50726f6a6563,A3*%
%TF.SameCoordinates,PX2191c00PY7534e20*%
%TF.FileFunction,Paste,Bot*%
%TF.FilePolarity,Positive*%
%FSLAX46Y46*%
G04 Gerber Fmt 4.6, Leading zero omitted, Abs format (unit mm)*
G04 Created by KiCad (PCBNEW (5.1.5)-2) date 2019-12-28 19:20:09*
%MOMM*%
%LPD*%
G04 APERTURE LIST*
%ADD10C,0.100000*%
%ADD11R,1.800000X2.500000*%
%ADD12R,1.500000X6.600000*%
%ADD13R,1.560000X0.650000*%
%ADD14R,0.650000X0.400000*%
%ADD15R,2.200000X2.000000*%
G04 APERTURE END LIST*
D10*
G36*
X3210779Y38773856D02*
G01*
X3233834Y38770437D01*
X3256443Y38764773D01*
X3278387Y38756921D01*
X3299457Y38746956D01*
X3319448Y38734974D01*
X3338168Y38721090D01*
X3355438Y38705438D01*
X3371090Y38688168D01*
X3384974Y38669448D01*
X3396956Y38649457D01*
X3406921Y38628387D01*
X3414773Y38606443D01*
X3420437Y38583834D01*
X3423856Y38560779D01*
X3425000Y38537500D01*
X3425000Y38062500D01*
X3423856Y38039221D01*
X3420437Y38016166D01*
X3414773Y37993557D01*
X3406921Y37971613D01*
X3396956Y37950543D01*
X3384974Y37930552D01*
X3371090Y37911832D01*
X3355438Y37894562D01*
X3338168Y37878910D01*
X3319448Y37865026D01*
X3299457Y37853044D01*
X3278387Y37843079D01*
X3256443Y37835227D01*
X3233834Y37829563D01*
X3210779Y37826144D01*
X3187500Y37825000D01*
X2612500Y37825000D01*
X2589221Y37826144D01*
X2566166Y37829563D01*
X2543557Y37835227D01*
X2521613Y37843079D01*
X2500543Y37853044D01*
X2480552Y37865026D01*
X2461832Y37878910D01*
X2444562Y37894562D01*
X2428910Y37911832D01*
X2415026Y37930552D01*
X2403044Y37950543D01*
X2393079Y37971613D01*
X2385227Y37993557D01*
X2379563Y38016166D01*
X2376144Y38039221D01*
X2375000Y38062500D01*
X2375000Y38537500D01*
X2376144Y38560779D01*
X2379563Y38583834D01*
X2385227Y38606443D01*
X2393079Y38628387D01*
X2403044Y38649457D01*
X2415026Y38669448D01*
X2428910Y38688168D01*
X2444562Y38705438D01*
X2461832Y38721090D01*
X2480552Y38734974D01*
X2500543Y38746956D01*
X2521613Y38756921D01*
X2543557Y38764773D01*
X2566166Y38770437D01*
X2589221Y38773856D01*
X2612500Y38775000D01*
X3187500Y38775000D01*
X3210779Y38773856D01*
G37*
G36*
X4960779Y38773856D02*
G01*
X4983834Y38770437D01*
X5006443Y38764773D01*
X5028387Y38756921D01*
X5049457Y38746956D01*
X5069448Y38734974D01*
X5088168Y38721090D01*
X5105438Y38705438D01*
X5121090Y38688168D01*
X5134974Y38669448D01*
X5146956Y38649457D01*
X5156921Y38628387D01*
X5164773Y38606443D01*
X5170437Y38583834D01*
X5173856Y38560779D01*
X5175000Y38537500D01*
X5175000Y38062500D01*
X5173856Y38039221D01*
X5170437Y38016166D01*
X5164773Y37993557D01*
X5156921Y37971613D01*
X5146956Y37950543D01*
X5134974Y37930552D01*
X5121090Y37911832D01*
X5105438Y37894562D01*
X5088168Y37878910D01*
X5069448Y37865026D01*
X5049457Y37853044D01*
X5028387Y37843079D01*
X5006443Y37835227D01*
X4983834Y37829563D01*
X4960779Y37826144D01*
X4937500Y37825000D01*
X4362500Y37825000D01*
X4339221Y37826144D01*
X4316166Y37829563D01*
X4293557Y37835227D01*
X4271613Y37843079D01*
X4250543Y37853044D01*
X4230552Y37865026D01*
X4211832Y37878910D01*
X4194562Y37894562D01*
X4178910Y37911832D01*
X4165026Y37930552D01*
X4153044Y37950543D01*
X4143079Y37971613D01*
X4135227Y37993557D01*
X4129563Y38016166D01*
X4126144Y38039221D01*
X4125000Y38062500D01*
X4125000Y38537500D01*
X4126144Y38560779D01*
X4129563Y38583834D01*
X4135227Y38606443D01*
X4143079Y38628387D01*
X4153044Y38649457D01*
X4165026Y38669448D01*
X4178910Y38688168D01*
X4194562Y38705438D01*
X4211832Y38721090D01*
X4230552Y38734974D01*
X4250543Y38746956D01*
X4271613Y38756921D01*
X4293557Y38764773D01*
X4316166Y38770437D01*
X4339221Y38773856D01*
X4362500Y38775000D01*
X4937500Y38775000D01*
X4960779Y38773856D01*
G37*
G36*
X5985779Y65573856D02*
G01*
X6008834Y65570437D01*
X6031443Y65564773D01*
X6053387Y65556921D01*
X6074457Y65546956D01*
X6094448Y65534974D01*
X6113168Y65521090D01*
X6130438Y65505438D01*
X6146090Y65488168D01*
X6159974Y65469448D01*
X6171956Y65449457D01*
X6181921Y65428387D01*
X6189773Y65406443D01*
X6195437Y65383834D01*
X6198856Y65360779D01*
X6200000Y65337500D01*
X6200000Y64862500D01*
X6198856Y64839221D01*
X6195437Y64816166D01*
X6189773Y64793557D01*
X6181921Y64771613D01*
X6171956Y64750543D01*
X6159974Y64730552D01*
X6146090Y64711832D01*
X6130438Y64694562D01*
X6113168Y64678910D01*
X6094448Y64665026D01*
X6074457Y64653044D01*
X6053387Y64643079D01*
X6031443Y64635227D01*
X6008834Y64629563D01*
X5985779Y64626144D01*
X5962500Y64625000D01*
X5387500Y64625000D01*
X5364221Y64626144D01*
X5341166Y64629563D01*
X5318557Y64635227D01*
X5296613Y64643079D01*
X5275543Y64653044D01*
X5255552Y64665026D01*
X5236832Y64678910D01*
X5219562Y64694562D01*
X5203910Y64711832D01*
X5190026Y64730552D01*
X5178044Y64750543D01*
X5168079Y64771613D01*
X5160227Y64793557D01*
X5154563Y64816166D01*
X5151144Y64839221D01*
X5150000Y64862500D01*
X5150000Y65337500D01*
X5151144Y65360779D01*
X5154563Y65383834D01*
X5160227Y65406443D01*
X5168079Y65428387D01*
X5178044Y65449457D01*
X5190026Y65469448D01*
X5203910Y65488168D01*
X5219562Y65505438D01*
X5236832Y65521090D01*
X5255552Y65534974D01*
X5275543Y65546956D01*
X5296613Y65556921D01*
X5318557Y65564773D01*
X5341166Y65570437D01*
X5364221Y65573856D01*
X5387500Y65575000D01*
X5962500Y65575000D01*
X5985779Y65573856D01*
G37*
G36*
X4235779Y65573856D02*
G01*
X4258834Y65570437D01*
X4281443Y65564773D01*
X4303387Y65556921D01*
X4324457Y65546956D01*
X4344448Y65534974D01*
X4363168Y65521090D01*
X4380438Y65505438D01*
X4396090Y65488168D01*
X4409974Y65469448D01*
X4421956Y65449457D01*
X4431921Y65428387D01*
X4439773Y65406443D01*
X4445437Y65383834D01*
X4448856Y65360779D01*
X4450000Y65337500D01*
X4450000Y64862500D01*
X4448856Y64839221D01*
X4445437Y64816166D01*
X4439773Y64793557D01*
X4431921Y64771613D01*
X4421956Y64750543D01*
X4409974Y64730552D01*
X4396090Y64711832D01*
X4380438Y64694562D01*
X4363168Y64678910D01*
X4344448Y64665026D01*
X4324457Y64653044D01*
X4303387Y64643079D01*
X4281443Y64635227D01*
X4258834Y64629563D01*
X4235779Y64626144D01*
X4212500Y64625000D01*
X3637500Y64625000D01*
X3614221Y64626144D01*
X3591166Y64629563D01*
X3568557Y64635227D01*
X3546613Y64643079D01*
X3525543Y64653044D01*
X3505552Y64665026D01*
X3486832Y64678910D01*
X3469562Y64694562D01*
X3453910Y64711832D01*
X3440026Y64730552D01*
X3428044Y64750543D01*
X3418079Y64771613D01*
X3410227Y64793557D01*
X3404563Y64816166D01*
X3401144Y64839221D01*
X3400000Y64862500D01*
X3400000Y65337500D01*
X3401144Y65360779D01*
X3404563Y65383834D01*
X3410227Y65406443D01*
X3418079Y65428387D01*
X3428044Y65449457D01*
X3440026Y65469448D01*
X3453910Y65488168D01*
X3469562Y65505438D01*
X3486832Y65521090D01*
X3505552Y65534974D01*
X3525543Y65546956D01*
X3546613Y65556921D01*
X3568557Y65564773D01*
X3591166Y65570437D01*
X3614221Y65573856D01*
X3637500Y65575000D01*
X4212500Y65575000D01*
X4235779Y65573856D01*
G37*
G36*
X38985779Y3273856D02*
G01*
X39008834Y3270437D01*
X39031443Y3264773D01*
X39053387Y3256921D01*
X39074457Y3246956D01*
X39094448Y3234974D01*
X39113168Y3221090D01*
X39130438Y3205438D01*
X39146090Y3188168D01*
X39159974Y3169448D01*
X39171956Y3149457D01*
X39181921Y3128387D01*
X39189773Y3106443D01*
X39195437Y3083834D01*
X39198856Y3060779D01*
X39200000Y3037500D01*
X39200000Y2562500D01*
X39198856Y2539221D01*
X39195437Y2516166D01*
X39189773Y2493557D01*
X39181921Y2471613D01*
X39171956Y2450543D01*
X39159974Y2430552D01*
X39146090Y2411832D01*
X39130438Y2394562D01*
X39113168Y2378910D01*
X39094448Y2365026D01*
X39074457Y2353044D01*
X39053387Y2343079D01*
X39031443Y2335227D01*
X39008834Y2329563D01*
X38985779Y2326144D01*
X38962500Y2325000D01*
X38387500Y2325000D01*
X38364221Y2326144D01*
X38341166Y2329563D01*
X38318557Y2335227D01*
X38296613Y2343079D01*
X38275543Y2353044D01*
X38255552Y2365026D01*
X38236832Y2378910D01*
X38219562Y2394562D01*
X38203910Y2411832D01*
X38190026Y2430552D01*
X38178044Y2450543D01*
X38168079Y2471613D01*
X38160227Y2493557D01*
X38154563Y2516166D01*
X38151144Y2539221D01*
X38150000Y2562500D01*
X38150000Y3037500D01*
X38151144Y3060779D01*
X38154563Y3083834D01*
X38160227Y3106443D01*
X38168079Y3128387D01*
X38178044Y3149457D01*
X38190026Y3169448D01*
X38203910Y3188168D01*
X38219562Y3205438D01*
X38236832Y3221090D01*
X38255552Y3234974D01*
X38275543Y3246956D01*
X38296613Y3256921D01*
X38318557Y3264773D01*
X38341166Y3270437D01*
X38364221Y3273856D01*
X38387500Y3275000D01*
X38962500Y3275000D01*
X38985779Y3273856D01*
G37*
G36*
X37235779Y3273856D02*
G01*
X37258834Y3270437D01*
X37281443Y3264773D01*
X37303387Y3256921D01*
X37324457Y3246956D01*
X37344448Y3234974D01*
X37363168Y3221090D01*
X37380438Y3205438D01*
X37396090Y3188168D01*
X37409974Y3169448D01*
X37421956Y3149457D01*
X37431921Y3128387D01*
X37439773Y3106443D01*
X37445437Y3083834D01*
X37448856Y3060779D01*
X37450000Y3037500D01*
X37450000Y2562500D01*
X37448856Y2539221D01*
X37445437Y2516166D01*
X37439773Y2493557D01*
X37431921Y2471613D01*
X37421956Y2450543D01*
X37409974Y2430552D01*
X37396090Y2411832D01*
X37380438Y2394562D01*
X37363168Y2378910D01*
X37344448Y2365026D01*
X37324457Y2353044D01*
X37303387Y2343079D01*
X37281443Y2335227D01*
X37258834Y2329563D01*
X37235779Y2326144D01*
X37212500Y2325000D01*
X36637500Y2325000D01*
X36614221Y2326144D01*
X36591166Y2329563D01*
X36568557Y2335227D01*
X36546613Y2343079D01*
X36525543Y2353044D01*
X36505552Y2365026D01*
X36486832Y2378910D01*
X36469562Y2394562D01*
X36453910Y2411832D01*
X36440026Y2430552D01*
X36428044Y2450543D01*
X36418079Y2471613D01*
X36410227Y2493557D01*
X36404563Y2516166D01*
X36401144Y2539221D01*
X36400000Y2562500D01*
X36400000Y3037500D01*
X36401144Y3060779D01*
X36404563Y3083834D01*
X36410227Y3106443D01*
X36418079Y3128387D01*
X36428044Y3149457D01*
X36440026Y3169448D01*
X36453910Y3188168D01*
X36469562Y3205438D01*
X36486832Y3221090D01*
X36505552Y3234974D01*
X36525543Y3246956D01*
X36546613Y3256921D01*
X36568557Y3264773D01*
X36591166Y3270437D01*
X36614221Y3273856D01*
X36637500Y3275000D01*
X37212500Y3275000D01*
X37235779Y3273856D01*
G37*
G36*
X8535779Y3273856D02*
G01*
X8558834Y3270437D01*
X8581443Y3264773D01*
X8603387Y3256921D01*
X8624457Y3246956D01*
X8644448Y3234974D01*
X8663168Y3221090D01*
X8680438Y3205438D01*
X8696090Y3188168D01*
X8709974Y3169448D01*
X8721956Y3149457D01*
X8731921Y3128387D01*
X8739773Y3106443D01*
X8745437Y3083834D01*
X8748856Y3060779D01*
X8750000Y3037500D01*
X8750000Y2562500D01*
X8748856Y2539221D01*
X8745437Y2516166D01*
X8739773Y2493557D01*
X8731921Y2471613D01*
X8721956Y2450543D01*
X8709974Y2430552D01*
X8696090Y2411832D01*
X8680438Y2394562D01*
X8663168Y2378910D01*
X8644448Y2365026D01*
X8624457Y2353044D01*
X8603387Y2343079D01*
X8581443Y2335227D01*
X8558834Y2329563D01*
X8535779Y2326144D01*
X8512500Y2325000D01*
X7937500Y2325000D01*
X7914221Y2326144D01*
X7891166Y2329563D01*
X7868557Y2335227D01*
X7846613Y2343079D01*
X7825543Y2353044D01*
X7805552Y2365026D01*
X7786832Y2378910D01*
X7769562Y2394562D01*
X7753910Y2411832D01*
X7740026Y2430552D01*
X7728044Y2450543D01*
X7718079Y2471613D01*
X7710227Y2493557D01*
X7704563Y2516166D01*
X7701144Y2539221D01*
X7700000Y2562500D01*
X7700000Y3037500D01*
X7701144Y3060779D01*
X7704563Y3083834D01*
X7710227Y3106443D01*
X7718079Y3128387D01*
X7728044Y3149457D01*
X7740026Y3169448D01*
X7753910Y3188168D01*
X7769562Y3205438D01*
X7786832Y3221090D01*
X7805552Y3234974D01*
X7825543Y3246956D01*
X7846613Y3256921D01*
X7868557Y3264773D01*
X7891166Y3270437D01*
X7914221Y3273856D01*
X7937500Y3275000D01*
X8512500Y3275000D01*
X8535779Y3273856D01*
G37*
G36*
X10285779Y3273856D02*
G01*
X10308834Y3270437D01*
X10331443Y3264773D01*
X10353387Y3256921D01*
X10374457Y3246956D01*
X10394448Y3234974D01*
X10413168Y3221090D01*
X10430438Y3205438D01*
X10446090Y3188168D01*
X10459974Y3169448D01*
X10471956Y3149457D01*
X10481921Y3128387D01*
X10489773Y3106443D01*
X10495437Y3083834D01*
X10498856Y3060779D01*
X10500000Y3037500D01*
X10500000Y2562500D01*
X10498856Y2539221D01*
X10495437Y2516166D01*
X10489773Y2493557D01*
X10481921Y2471613D01*
X10471956Y2450543D01*
X10459974Y2430552D01*
X10446090Y2411832D01*
X10430438Y2394562D01*
X10413168Y2378910D01*
X10394448Y2365026D01*
X10374457Y2353044D01*
X10353387Y2343079D01*
X10331443Y2335227D01*
X10308834Y2329563D01*
X10285779Y2326144D01*
X10262500Y2325000D01*
X9687500Y2325000D01*
X9664221Y2326144D01*
X9641166Y2329563D01*
X9618557Y2335227D01*
X9596613Y2343079D01*
X9575543Y2353044D01*
X9555552Y2365026D01*
X9536832Y2378910D01*
X9519562Y2394562D01*
X9503910Y2411832D01*
X9490026Y2430552D01*
X9478044Y2450543D01*
X9468079Y2471613D01*
X9460227Y2493557D01*
X9454563Y2516166D01*
X9451144Y2539221D01*
X9450000Y2562500D01*
X9450000Y3037500D01*
X9451144Y3060779D01*
X9454563Y3083834D01*
X9460227Y3106443D01*
X9468079Y3128387D01*
X9478044Y3149457D01*
X9490026Y3169448D01*
X9503910Y3188168D01*
X9519562Y3205438D01*
X9536832Y3221090D01*
X9555552Y3234974D01*
X9575543Y3246956D01*
X9596613Y3256921D01*
X9618557Y3264773D01*
X9641166Y3270437D01*
X9664221Y3273856D01*
X9687500Y3275000D01*
X10262500Y3275000D01*
X10285779Y3273856D01*
G37*
G36*
X19885779Y3273856D02*
G01*
X19908834Y3270437D01*
X19931443Y3264773D01*
X19953387Y3256921D01*
X19974457Y3246956D01*
X19994448Y3234974D01*
X20013168Y3221090D01*
X20030438Y3205438D01*
X20046090Y3188168D01*
X20059974Y3169448D01*
X20071956Y3149457D01*
X20081921Y3128387D01*
X20089773Y3106443D01*
X20095437Y3083834D01*
X20098856Y3060779D01*
X20100000Y3037500D01*
X20100000Y2562500D01*
X20098856Y2539221D01*
X20095437Y2516166D01*
X20089773Y2493557D01*
X20081921Y2471613D01*
X20071956Y2450543D01*
X20059974Y2430552D01*
X20046090Y2411832D01*
X20030438Y2394562D01*
X20013168Y2378910D01*
X19994448Y2365026D01*
X19974457Y2353044D01*
X19953387Y2343079D01*
X19931443Y2335227D01*
X19908834Y2329563D01*
X19885779Y2326144D01*
X19862500Y2325000D01*
X19287500Y2325000D01*
X19264221Y2326144D01*
X19241166Y2329563D01*
X19218557Y2335227D01*
X19196613Y2343079D01*
X19175543Y2353044D01*
X19155552Y2365026D01*
X19136832Y2378910D01*
X19119562Y2394562D01*
X19103910Y2411832D01*
X19090026Y2430552D01*
X19078044Y2450543D01*
X19068079Y2471613D01*
X19060227Y2493557D01*
X19054563Y2516166D01*
X19051144Y2539221D01*
X19050000Y2562500D01*
X19050000Y3037500D01*
X19051144Y3060779D01*
X19054563Y3083834D01*
X19060227Y3106443D01*
X19068079Y3128387D01*
X19078044Y3149457D01*
X19090026Y3169448D01*
X19103910Y3188168D01*
X19119562Y3205438D01*
X19136832Y3221090D01*
X19155552Y3234974D01*
X19175543Y3246956D01*
X19196613Y3256921D01*
X19218557Y3264773D01*
X19241166Y3270437D01*
X19264221Y3273856D01*
X19287500Y3275000D01*
X19862500Y3275000D01*
X19885779Y3273856D01*
G37*
G36*
X18135779Y3273856D02*
G01*
X18158834Y3270437D01*
X18181443Y3264773D01*
X18203387Y3256921D01*
X18224457Y3246956D01*
X18244448Y3234974D01*
X18263168Y3221090D01*
X18280438Y3205438D01*
X18296090Y3188168D01*
X18309974Y3169448D01*
X18321956Y3149457D01*
X18331921Y3128387D01*
X18339773Y3106443D01*
X18345437Y3083834D01*
X18348856Y3060779D01*
X18350000Y3037500D01*
X18350000Y2562500D01*
X18348856Y2539221D01*
X18345437Y2516166D01*
X18339773Y2493557D01*
X18331921Y2471613D01*
X18321956Y2450543D01*
X18309974Y2430552D01*
X18296090Y2411832D01*
X18280438Y2394562D01*
X18263168Y2378910D01*
X18244448Y2365026D01*
X18224457Y2353044D01*
X18203387Y2343079D01*
X18181443Y2335227D01*
X18158834Y2329563D01*
X18135779Y2326144D01*
X18112500Y2325000D01*
X17537500Y2325000D01*
X17514221Y2326144D01*
X17491166Y2329563D01*
X17468557Y2335227D01*
X17446613Y2343079D01*
X17425543Y2353044D01*
X17405552Y2365026D01*
X17386832Y2378910D01*
X17369562Y2394562D01*
X17353910Y2411832D01*
X17340026Y2430552D01*
X17328044Y2450543D01*
X17318079Y2471613D01*
X17310227Y2493557D01*
X17304563Y2516166D01*
X17301144Y2539221D01*
X17300000Y2562500D01*
X17300000Y3037500D01*
X17301144Y3060779D01*
X17304563Y3083834D01*
X17310227Y3106443D01*
X17318079Y3128387D01*
X17328044Y3149457D01*
X17340026Y3169448D01*
X17353910Y3188168D01*
X17369562Y3205438D01*
X17386832Y3221090D01*
X17405552Y3234974D01*
X17425543Y3246956D01*
X17446613Y3256921D01*
X17468557Y3264773D01*
X17491166Y3270437D01*
X17514221Y3273856D01*
X17537500Y3275000D01*
X18112500Y3275000D01*
X18135779Y3273856D01*
G37*
G36*
X8535779Y12373856D02*
G01*
X8558834Y12370437D01*
X8581443Y12364773D01*
X8603387Y12356921D01*
X8624457Y12346956D01*
X8644448Y12334974D01*
X8663168Y12321090D01*
X8680438Y12305438D01*
X8696090Y12288168D01*
X8709974Y12269448D01*
X8721956Y12249457D01*
X8731921Y12228387D01*
X8739773Y12206443D01*
X8745437Y12183834D01*
X8748856Y12160779D01*
X8750000Y12137500D01*
X8750000Y11662500D01*
X8748856Y11639221D01*
X8745437Y11616166D01*
X8739773Y11593557D01*
X8731921Y11571613D01*
X8721956Y11550543D01*
X8709974Y11530552D01*
X8696090Y11511832D01*
X8680438Y11494562D01*
X8663168Y11478910D01*
X8644448Y11465026D01*
X8624457Y11453044D01*
X8603387Y11443079D01*
X8581443Y11435227D01*
X8558834Y11429563D01*
X8535779Y11426144D01*
X8512500Y11425000D01*
X7937500Y11425000D01*
X7914221Y11426144D01*
X7891166Y11429563D01*
X7868557Y11435227D01*
X7846613Y11443079D01*
X7825543Y11453044D01*
X7805552Y11465026D01*
X7786832Y11478910D01*
X7769562Y11494562D01*
X7753910Y11511832D01*
X7740026Y11530552D01*
X7728044Y11550543D01*
X7718079Y11571613D01*
X7710227Y11593557D01*
X7704563Y11616166D01*
X7701144Y11639221D01*
X7700000Y11662500D01*
X7700000Y12137500D01*
X7701144Y12160779D01*
X7704563Y12183834D01*
X7710227Y12206443D01*
X7718079Y12228387D01*
X7728044Y12249457D01*
X7740026Y12269448D01*
X7753910Y12288168D01*
X7769562Y12305438D01*
X7786832Y12321090D01*
X7805552Y12334974D01*
X7825543Y12346956D01*
X7846613Y12356921D01*
X7868557Y12364773D01*
X7891166Y12370437D01*
X7914221Y12373856D01*
X7937500Y12375000D01*
X8512500Y12375000D01*
X8535779Y12373856D01*
G37*
G36*
X10285779Y12373856D02*
G01*
X10308834Y12370437D01*
X10331443Y12364773D01*
X10353387Y12356921D01*
X10374457Y12346956D01*
X10394448Y12334974D01*
X10413168Y12321090D01*
X10430438Y12305438D01*
X10446090Y12288168D01*
X10459974Y12269448D01*
X10471956Y12249457D01*
X10481921Y12228387D01*
X10489773Y12206443D01*
X10495437Y12183834D01*
X10498856Y12160779D01*
X10500000Y12137500D01*
X10500000Y11662500D01*
X10498856Y11639221D01*
X10495437Y11616166D01*
X10489773Y11593557D01*
X10481921Y11571613D01*
X10471956Y11550543D01*
X10459974Y11530552D01*
X10446090Y11511832D01*
X10430438Y11494562D01*
X10413168Y11478910D01*
X10394448Y11465026D01*
X10374457Y11453044D01*
X10353387Y11443079D01*
X10331443Y11435227D01*
X10308834Y11429563D01*
X10285779Y11426144D01*
X10262500Y11425000D01*
X9687500Y11425000D01*
X9664221Y11426144D01*
X9641166Y11429563D01*
X9618557Y11435227D01*
X9596613Y11443079D01*
X9575543Y11453044D01*
X9555552Y11465026D01*
X9536832Y11478910D01*
X9519562Y11494562D01*
X9503910Y11511832D01*
X9490026Y11530552D01*
X9478044Y11550543D01*
X9468079Y11571613D01*
X9460227Y11593557D01*
X9454563Y11616166D01*
X9451144Y11639221D01*
X9450000Y11662500D01*
X9450000Y12137500D01*
X9451144Y12160779D01*
X9454563Y12183834D01*
X9460227Y12206443D01*
X9468079Y12228387D01*
X9478044Y12249457D01*
X9490026Y12269448D01*
X9503910Y12288168D01*
X9519562Y12305438D01*
X9536832Y12321090D01*
X9555552Y12334974D01*
X9575543Y12346956D01*
X9596613Y12356921D01*
X9618557Y12364773D01*
X9641166Y12370437D01*
X9664221Y12373856D01*
X9687500Y12375000D01*
X10262500Y12375000D01*
X10285779Y12373856D01*
G37*
G36*
X29485779Y3273856D02*
G01*
X29508834Y3270437D01*
X29531443Y3264773D01*
X29553387Y3256921D01*
X29574457Y3246956D01*
X29594448Y3234974D01*
X29613168Y3221090D01*
X29630438Y3205438D01*
X29646090Y3188168D01*
X29659974Y3169448D01*
X29671956Y3149457D01*
X29681921Y3128387D01*
X29689773Y3106443D01*
X29695437Y3083834D01*
X29698856Y3060779D01*
X29700000Y3037500D01*
X29700000Y2562500D01*
X29698856Y2539221D01*
X29695437Y2516166D01*
X29689773Y2493557D01*
X29681921Y2471613D01*
X29671956Y2450543D01*
X29659974Y2430552D01*
X29646090Y2411832D01*
X29630438Y2394562D01*
X29613168Y2378910D01*
X29594448Y2365026D01*
X29574457Y2353044D01*
X29553387Y2343079D01*
X29531443Y2335227D01*
X29508834Y2329563D01*
X29485779Y2326144D01*
X29462500Y2325000D01*
X28887500Y2325000D01*
X28864221Y2326144D01*
X28841166Y2329563D01*
X28818557Y2335227D01*
X28796613Y2343079D01*
X28775543Y2353044D01*
X28755552Y2365026D01*
X28736832Y2378910D01*
X28719562Y2394562D01*
X28703910Y2411832D01*
X28690026Y2430552D01*
X28678044Y2450543D01*
X28668079Y2471613D01*
X28660227Y2493557D01*
X28654563Y2516166D01*
X28651144Y2539221D01*
X28650000Y2562500D01*
X28650000Y3037500D01*
X28651144Y3060779D01*
X28654563Y3083834D01*
X28660227Y3106443D01*
X28668079Y3128387D01*
X28678044Y3149457D01*
X28690026Y3169448D01*
X28703910Y3188168D01*
X28719562Y3205438D01*
X28736832Y3221090D01*
X28755552Y3234974D01*
X28775543Y3246956D01*
X28796613Y3256921D01*
X28818557Y3264773D01*
X28841166Y3270437D01*
X28864221Y3273856D01*
X28887500Y3275000D01*
X29462500Y3275000D01*
X29485779Y3273856D01*
G37*
G36*
X27735779Y3273856D02*
G01*
X27758834Y3270437D01*
X27781443Y3264773D01*
X27803387Y3256921D01*
X27824457Y3246956D01*
X27844448Y3234974D01*
X27863168Y3221090D01*
X27880438Y3205438D01*
X27896090Y3188168D01*
X27909974Y3169448D01*
X27921956Y3149457D01*
X27931921Y3128387D01*
X27939773Y3106443D01*
X27945437Y3083834D01*
X27948856Y3060779D01*
X27950000Y3037500D01*
X27950000Y2562500D01*
X27948856Y2539221D01*
X27945437Y2516166D01*
X27939773Y2493557D01*
X27931921Y2471613D01*
X27921956Y2450543D01*
X27909974Y2430552D01*
X27896090Y2411832D01*
X27880438Y2394562D01*
X27863168Y2378910D01*
X27844448Y2365026D01*
X27824457Y2353044D01*
X27803387Y2343079D01*
X27781443Y2335227D01*
X27758834Y2329563D01*
X27735779Y2326144D01*
X27712500Y2325000D01*
X27137500Y2325000D01*
X27114221Y2326144D01*
X27091166Y2329563D01*
X27068557Y2335227D01*
X27046613Y2343079D01*
X27025543Y2353044D01*
X27005552Y2365026D01*
X26986832Y2378910D01*
X26969562Y2394562D01*
X26953910Y2411832D01*
X26940026Y2430552D01*
X26928044Y2450543D01*
X26918079Y2471613D01*
X26910227Y2493557D01*
X26904563Y2516166D01*
X26901144Y2539221D01*
X26900000Y2562500D01*
X26900000Y3037500D01*
X26901144Y3060779D01*
X26904563Y3083834D01*
X26910227Y3106443D01*
X26918079Y3128387D01*
X26928044Y3149457D01*
X26940026Y3169448D01*
X26953910Y3188168D01*
X26969562Y3205438D01*
X26986832Y3221090D01*
X27005552Y3234974D01*
X27025543Y3246956D01*
X27046613Y3256921D01*
X27068557Y3264773D01*
X27091166Y3270437D01*
X27114221Y3273856D01*
X27137500Y3275000D01*
X27712500Y3275000D01*
X27735779Y3273856D01*
G37*
G36*
X4760779Y24948856D02*
G01*
X4783834Y24945437D01*
X4806443Y24939773D01*
X4828387Y24931921D01*
X4849457Y24921956D01*
X4869448Y24909974D01*
X4888168Y24896090D01*
X4905438Y24880438D01*
X4921090Y24863168D01*
X4934974Y24844448D01*
X4946956Y24824457D01*
X4956921Y24803387D01*
X4964773Y24781443D01*
X4970437Y24758834D01*
X4973856Y24735779D01*
X4975000Y24712500D01*
X4975000Y24137500D01*
X4973856Y24114221D01*
X4970437Y24091166D01*
X4964773Y24068557D01*
X4956921Y24046613D01*
X4946956Y24025543D01*
X4934974Y24005552D01*
X4921090Y23986832D01*
X4905438Y23969562D01*
X4888168Y23953910D01*
X4869448Y23940026D01*
X4849457Y23928044D01*
X4828387Y23918079D01*
X4806443Y23910227D01*
X4783834Y23904563D01*
X4760779Y23901144D01*
X4737500Y23900000D01*
X4262500Y23900000D01*
X4239221Y23901144D01*
X4216166Y23904563D01*
X4193557Y23910227D01*
X4171613Y23918079D01*
X4150543Y23928044D01*
X4130552Y23940026D01*
X4111832Y23953910D01*
X4094562Y23969562D01*
X4078910Y23986832D01*
X4065026Y24005552D01*
X4053044Y24025543D01*
X4043079Y24046613D01*
X4035227Y24068557D01*
X4029563Y24091166D01*
X4026144Y24114221D01*
X4025000Y24137500D01*
X4025000Y24712500D01*
X4026144Y24735779D01*
X4029563Y24758834D01*
X4035227Y24781443D01*
X4043079Y24803387D01*
X4053044Y24824457D01*
X4065026Y24844448D01*
X4078910Y24863168D01*
X4094562Y24880438D01*
X4111832Y24896090D01*
X4130552Y24909974D01*
X4150543Y24921956D01*
X4171613Y24931921D01*
X4193557Y24939773D01*
X4216166Y24945437D01*
X4239221Y24948856D01*
X4262500Y24950000D01*
X4737500Y24950000D01*
X4760779Y24948856D01*
G37*
G36*
X4760779Y26698856D02*
G01*
X4783834Y26695437D01*
X4806443Y26689773D01*
X4828387Y26681921D01*
X4849457Y26671956D01*
X4869448Y26659974D01*
X4888168Y26646090D01*
X4905438Y26630438D01*
X4921090Y26613168D01*
X4934974Y26594448D01*
X4946956Y26574457D01*
X4956921Y26553387D01*
X4964773Y26531443D01*
X4970437Y26508834D01*
X4973856Y26485779D01*
X4975000Y26462500D01*
X4975000Y25887500D01*
X4973856Y25864221D01*
X4970437Y25841166D01*
X4964773Y25818557D01*
X4956921Y25796613D01*
X4946956Y25775543D01*
X4934974Y25755552D01*
X4921090Y25736832D01*
X4905438Y25719562D01*
X4888168Y25703910D01*
X4869448Y25690026D01*
X4849457Y25678044D01*
X4828387Y25668079D01*
X4806443Y25660227D01*
X4783834Y25654563D01*
X4760779Y25651144D01*
X4737500Y25650000D01*
X4262500Y25650000D01*
X4239221Y25651144D01*
X4216166Y25654563D01*
X4193557Y25660227D01*
X4171613Y25668079D01*
X4150543Y25678044D01*
X4130552Y25690026D01*
X4111832Y25703910D01*
X4094562Y25719562D01*
X4078910Y25736832D01*
X4065026Y25755552D01*
X4053044Y25775543D01*
X4043079Y25796613D01*
X4035227Y25818557D01*
X4029563Y25841166D01*
X4026144Y25864221D01*
X4025000Y25887500D01*
X4025000Y26462500D01*
X4026144Y26485779D01*
X4029563Y26508834D01*
X4035227Y26531443D01*
X4043079Y26553387D01*
X4053044Y26574457D01*
X4065026Y26594448D01*
X4078910Y26613168D01*
X4094562Y26630438D01*
X4111832Y26646090D01*
X4130552Y26659974D01*
X4150543Y26671956D01*
X4171613Y26681921D01*
X4193557Y26689773D01*
X4216166Y26695437D01*
X4239221Y26698856D01*
X4262500Y26700000D01*
X4737500Y26700000D01*
X4760779Y26698856D01*
G37*
G36*
X6360779Y26698856D02*
G01*
X6383834Y26695437D01*
X6406443Y26689773D01*
X6428387Y26681921D01*
X6449457Y26671956D01*
X6469448Y26659974D01*
X6488168Y26646090D01*
X6505438Y26630438D01*
X6521090Y26613168D01*
X6534974Y26594448D01*
X6546956Y26574457D01*
X6556921Y26553387D01*
X6564773Y26531443D01*
X6570437Y26508834D01*
X6573856Y26485779D01*
X6575000Y26462500D01*
X6575000Y25887500D01*
X6573856Y25864221D01*
X6570437Y25841166D01*
X6564773Y25818557D01*
X6556921Y25796613D01*
X6546956Y25775543D01*
X6534974Y25755552D01*
X6521090Y25736832D01*
X6505438Y25719562D01*
X6488168Y25703910D01*
X6469448Y25690026D01*
X6449457Y25678044D01*
X6428387Y25668079D01*
X6406443Y25660227D01*
X6383834Y25654563D01*
X6360779Y25651144D01*
X6337500Y25650000D01*
X5862500Y25650000D01*
X5839221Y25651144D01*
X5816166Y25654563D01*
X5793557Y25660227D01*
X5771613Y25668079D01*
X5750543Y25678044D01*
X5730552Y25690026D01*
X5711832Y25703910D01*
X5694562Y25719562D01*
X5678910Y25736832D01*
X5665026Y25755552D01*
X5653044Y25775543D01*
X5643079Y25796613D01*
X5635227Y25818557D01*
X5629563Y25841166D01*
X5626144Y25864221D01*
X5625000Y25887500D01*
X5625000Y26462500D01*
X5626144Y26485779D01*
X5629563Y26508834D01*
X5635227Y26531443D01*
X5643079Y26553387D01*
X5653044Y26574457D01*
X5665026Y26594448D01*
X5678910Y26613168D01*
X5694562Y26630438D01*
X5711832Y26646090D01*
X5730552Y26659974D01*
X5750543Y26671956D01*
X5771613Y26681921D01*
X5793557Y26689773D01*
X5816166Y26695437D01*
X5839221Y26698856D01*
X5862500Y26700000D01*
X6337500Y26700000D01*
X6360779Y26698856D01*
G37*
G36*
X6360779Y24948856D02*
G01*
X6383834Y24945437D01*
X6406443Y24939773D01*
X6428387Y24931921D01*
X6449457Y24921956D01*
X6469448Y24909974D01*
X6488168Y24896090D01*
X6505438Y24880438D01*
X6521090Y24863168D01*
X6534974Y24844448D01*
X6546956Y24824457D01*
X6556921Y24803387D01*
X6564773Y24781443D01*
X6570437Y24758834D01*
X6573856Y24735779D01*
X6575000Y24712500D01*
X6575000Y24137500D01*
X6573856Y24114221D01*
X6570437Y24091166D01*
X6564773Y24068557D01*
X6556921Y24046613D01*
X6546956Y24025543D01*
X6534974Y24005552D01*
X6521090Y23986832D01*
X6505438Y23969562D01*
X6488168Y23953910D01*
X6469448Y23940026D01*
X6449457Y23928044D01*
X6428387Y23918079D01*
X6406443Y23910227D01*
X6383834Y23904563D01*
X6360779Y23901144D01*
X6337500Y23900000D01*
X5862500Y23900000D01*
X5839221Y23901144D01*
X5816166Y23904563D01*
X5793557Y23910227D01*
X5771613Y23918079D01*
X5750543Y23928044D01*
X5730552Y23940026D01*
X5711832Y23953910D01*
X5694562Y23969562D01*
X5678910Y23986832D01*
X5665026Y24005552D01*
X5653044Y24025543D01*
X5643079Y24046613D01*
X5635227Y24068557D01*
X5629563Y24091166D01*
X5626144Y24114221D01*
X5625000Y24137500D01*
X5625000Y24712500D01*
X5626144Y24735779D01*
X5629563Y24758834D01*
X5635227Y24781443D01*
X5643079Y24803387D01*
X5653044Y24824457D01*
X5665026Y24844448D01*
X5678910Y24863168D01*
X5694562Y24880438D01*
X5711832Y24896090D01*
X5730552Y24909974D01*
X5750543Y24921956D01*
X5771613Y24931921D01*
X5793557Y24939773D01*
X5816166Y24945437D01*
X5839221Y24948856D01*
X5862500Y24950000D01*
X6337500Y24950000D01*
X6360779Y24948856D01*
G37*
G36*
X10060779Y26498856D02*
G01*
X10083834Y26495437D01*
X10106443Y26489773D01*
X10128387Y26481921D01*
X10149457Y26471956D01*
X10169448Y26459974D01*
X10188168Y26446090D01*
X10205438Y26430438D01*
X10221090Y26413168D01*
X10234974Y26394448D01*
X10246956Y26374457D01*
X10256921Y26353387D01*
X10264773Y26331443D01*
X10270437Y26308834D01*
X10273856Y26285779D01*
X10275000Y26262500D01*
X10275000Y25687500D01*
X10273856Y25664221D01*
X10270437Y25641166D01*
X10264773Y25618557D01*
X10256921Y25596613D01*
X10246956Y25575543D01*
X10234974Y25555552D01*
X10221090Y25536832D01*
X10205438Y25519562D01*
X10188168Y25503910D01*
X10169448Y25490026D01*
X10149457Y25478044D01*
X10128387Y25468079D01*
X10106443Y25460227D01*
X10083834Y25454563D01*
X10060779Y25451144D01*
X10037500Y25450000D01*
X9562500Y25450000D01*
X9539221Y25451144D01*
X9516166Y25454563D01*
X9493557Y25460227D01*
X9471613Y25468079D01*
X9450543Y25478044D01*
X9430552Y25490026D01*
X9411832Y25503910D01*
X9394562Y25519562D01*
X9378910Y25536832D01*
X9365026Y25555552D01*
X9353044Y25575543D01*
X9343079Y25596613D01*
X9335227Y25618557D01*
X9329563Y25641166D01*
X9326144Y25664221D01*
X9325000Y25687500D01*
X9325000Y26262500D01*
X9326144Y26285779D01*
X9329563Y26308834D01*
X9335227Y26331443D01*
X9343079Y26353387D01*
X9353044Y26374457D01*
X9365026Y26394448D01*
X9378910Y26413168D01*
X9394562Y26430438D01*
X9411832Y26446090D01*
X9430552Y26459974D01*
X9450543Y26471956D01*
X9471613Y26481921D01*
X9493557Y26489773D01*
X9516166Y26495437D01*
X9539221Y26498856D01*
X9562500Y26500000D01*
X10037500Y26500000D01*
X10060779Y26498856D01*
G37*
G36*
X10060779Y24748856D02*
G01*
X10083834Y24745437D01*
X10106443Y24739773D01*
X10128387Y24731921D01*
X10149457Y24721956D01*
X10169448Y24709974D01*
X10188168Y24696090D01*
X10205438Y24680438D01*
X10221090Y24663168D01*
X10234974Y24644448D01*
X10246956Y24624457D01*
X10256921Y24603387D01*
X10264773Y24581443D01*
X10270437Y24558834D01*
X10273856Y24535779D01*
X10275000Y24512500D01*
X10275000Y23937500D01*
X10273856Y23914221D01*
X10270437Y23891166D01*
X10264773Y23868557D01*
X10256921Y23846613D01*
X10246956Y23825543D01*
X10234974Y23805552D01*
X10221090Y23786832D01*
X10205438Y23769562D01*
X10188168Y23753910D01*
X10169448Y23740026D01*
X10149457Y23728044D01*
X10128387Y23718079D01*
X10106443Y23710227D01*
X10083834Y23704563D01*
X10060779Y23701144D01*
X10037500Y23700000D01*
X9562500Y23700000D01*
X9539221Y23701144D01*
X9516166Y23704563D01*
X9493557Y23710227D01*
X9471613Y23718079D01*
X9450543Y23728044D01*
X9430552Y23740026D01*
X9411832Y23753910D01*
X9394562Y23769562D01*
X9378910Y23786832D01*
X9365026Y23805552D01*
X9353044Y23825543D01*
X9343079Y23846613D01*
X9335227Y23868557D01*
X9329563Y23891166D01*
X9326144Y23914221D01*
X9325000Y23937500D01*
X9325000Y24512500D01*
X9326144Y24535779D01*
X9329563Y24558834D01*
X9335227Y24581443D01*
X9343079Y24603387D01*
X9353044Y24624457D01*
X9365026Y24644448D01*
X9378910Y24663168D01*
X9394562Y24680438D01*
X9411832Y24696090D01*
X9430552Y24709974D01*
X9450543Y24721956D01*
X9471613Y24731921D01*
X9493557Y24739773D01*
X9516166Y24745437D01*
X9539221Y24748856D01*
X9562500Y24750000D01*
X10037500Y24750000D01*
X10060779Y24748856D01*
G37*
G36*
X11660779Y24748856D02*
G01*
X11683834Y24745437D01*
X11706443Y24739773D01*
X11728387Y24731921D01*
X11749457Y24721956D01*
X11769448Y24709974D01*
X11788168Y24696090D01*
X11805438Y24680438D01*
X11821090Y24663168D01*
X11834974Y24644448D01*
X11846956Y24624457D01*
X11856921Y24603387D01*
X11864773Y24581443D01*
X11870437Y24558834D01*
X11873856Y24535779D01*
X11875000Y24512500D01*
X11875000Y23937500D01*
X11873856Y23914221D01*
X11870437Y23891166D01*
X11864773Y23868557D01*
X11856921Y23846613D01*
X11846956Y23825543D01*
X11834974Y23805552D01*
X11821090Y23786832D01*
X11805438Y23769562D01*
X11788168Y23753910D01*
X11769448Y23740026D01*
X11749457Y23728044D01*
X11728387Y23718079D01*
X11706443Y23710227D01*
X11683834Y23704563D01*
X11660779Y23701144D01*
X11637500Y23700000D01*
X11162500Y23700000D01*
X11139221Y23701144D01*
X11116166Y23704563D01*
X11093557Y23710227D01*
X11071613Y23718079D01*
X11050543Y23728044D01*
X11030552Y23740026D01*
X11011832Y23753910D01*
X10994562Y23769562D01*
X10978910Y23786832D01*
X10965026Y23805552D01*
X10953044Y23825543D01*
X10943079Y23846613D01*
X10935227Y23868557D01*
X10929563Y23891166D01*
X10926144Y23914221D01*
X10925000Y23937500D01*
X10925000Y24512500D01*
X10926144Y24535779D01*
X10929563Y24558834D01*
X10935227Y24581443D01*
X10943079Y24603387D01*
X10953044Y24624457D01*
X10965026Y24644448D01*
X10978910Y24663168D01*
X10994562Y24680438D01*
X11011832Y24696090D01*
X11030552Y24709974D01*
X11050543Y24721956D01*
X11071613Y24731921D01*
X11093557Y24739773D01*
X11116166Y24745437D01*
X11139221Y24748856D01*
X11162500Y24750000D01*
X11637500Y24750000D01*
X11660779Y24748856D01*
G37*
G36*
X11660779Y26498856D02*
G01*
X11683834Y26495437D01*
X11706443Y26489773D01*
X11728387Y26481921D01*
X11749457Y26471956D01*
X11769448Y26459974D01*
X11788168Y26446090D01*
X11805438Y26430438D01*
X11821090Y26413168D01*
X11834974Y26394448D01*
X11846956Y26374457D01*
X11856921Y26353387D01*
X11864773Y26331443D01*
X11870437Y26308834D01*
X11873856Y26285779D01*
X11875000Y26262500D01*
X11875000Y25687500D01*
X11873856Y25664221D01*
X11870437Y25641166D01*
X11864773Y25618557D01*
X11856921Y25596613D01*
X11846956Y25575543D01*
X11834974Y25555552D01*
X11821090Y25536832D01*
X11805438Y25519562D01*
X11788168Y25503910D01*
X11769448Y25490026D01*
X11749457Y25478044D01*
X11728387Y25468079D01*
X11706443Y25460227D01*
X11683834Y25454563D01*
X11660779Y25451144D01*
X11637500Y25450000D01*
X11162500Y25450000D01*
X11139221Y25451144D01*
X11116166Y25454563D01*
X11093557Y25460227D01*
X11071613Y25468079D01*
X11050543Y25478044D01*
X11030552Y25490026D01*
X11011832Y25503910D01*
X10994562Y25519562D01*
X10978910Y25536832D01*
X10965026Y25555552D01*
X10953044Y25575543D01*
X10943079Y25596613D01*
X10935227Y25618557D01*
X10929563Y25641166D01*
X10926144Y25664221D01*
X10925000Y25687500D01*
X10925000Y26262500D01*
X10926144Y26285779D01*
X10929563Y26308834D01*
X10935227Y26331443D01*
X10943079Y26353387D01*
X10953044Y26374457D01*
X10965026Y26394448D01*
X10978910Y26413168D01*
X10994562Y26430438D01*
X11011832Y26446090D01*
X11030552Y26459974D01*
X11050543Y26471956D01*
X11071613Y26481921D01*
X11093557Y26489773D01*
X11116166Y26495437D01*
X11139221Y26498856D01*
X11162500Y26500000D01*
X11637500Y26500000D01*
X11660779Y26498856D01*
G37*
G36*
X13260779Y26498856D02*
G01*
X13283834Y26495437D01*
X13306443Y26489773D01*
X13328387Y26481921D01*
X13349457Y26471956D01*
X13369448Y26459974D01*
X13388168Y26446090D01*
X13405438Y26430438D01*
X13421090Y26413168D01*
X13434974Y26394448D01*
X13446956Y26374457D01*
X13456921Y26353387D01*
X13464773Y26331443D01*
X13470437Y26308834D01*
X13473856Y26285779D01*
X13475000Y26262500D01*
X13475000Y25687500D01*
X13473856Y25664221D01*
X13470437Y25641166D01*
X13464773Y25618557D01*
X13456921Y25596613D01*
X13446956Y25575543D01*
X13434974Y25555552D01*
X13421090Y25536832D01*
X13405438Y25519562D01*
X13388168Y25503910D01*
X13369448Y25490026D01*
X13349457Y25478044D01*
X13328387Y25468079D01*
X13306443Y25460227D01*
X13283834Y25454563D01*
X13260779Y25451144D01*
X13237500Y25450000D01*
X12762500Y25450000D01*
X12739221Y25451144D01*
X12716166Y25454563D01*
X12693557Y25460227D01*
X12671613Y25468079D01*
X12650543Y25478044D01*
X12630552Y25490026D01*
X12611832Y25503910D01*
X12594562Y25519562D01*
X12578910Y25536832D01*
X12565026Y25555552D01*
X12553044Y25575543D01*
X12543079Y25596613D01*
X12535227Y25618557D01*
X12529563Y25641166D01*
X12526144Y25664221D01*
X12525000Y25687500D01*
X12525000Y26262500D01*
X12526144Y26285779D01*
X12529563Y26308834D01*
X12535227Y26331443D01*
X12543079Y26353387D01*
X12553044Y26374457D01*
X12565026Y26394448D01*
X12578910Y26413168D01*
X12594562Y26430438D01*
X12611832Y26446090D01*
X12630552Y26459974D01*
X12650543Y26471956D01*
X12671613Y26481921D01*
X12693557Y26489773D01*
X12716166Y26495437D01*
X12739221Y26498856D01*
X12762500Y26500000D01*
X13237500Y26500000D01*
X13260779Y26498856D01*
G37*
G36*
X13260779Y24748856D02*
G01*
X13283834Y24745437D01*
X13306443Y24739773D01*
X13328387Y24731921D01*
X13349457Y24721956D01*
X13369448Y24709974D01*
X13388168Y24696090D01*
X13405438Y24680438D01*
X13421090Y24663168D01*
X13434974Y24644448D01*
X13446956Y24624457D01*
X13456921Y24603387D01*
X13464773Y24581443D01*
X13470437Y24558834D01*
X13473856Y24535779D01*
X13475000Y24512500D01*
X13475000Y23937500D01*
X13473856Y23914221D01*
X13470437Y23891166D01*
X13464773Y23868557D01*
X13456921Y23846613D01*
X13446956Y23825543D01*
X13434974Y23805552D01*
X13421090Y23786832D01*
X13405438Y23769562D01*
X13388168Y23753910D01*
X13369448Y23740026D01*
X13349457Y23728044D01*
X13328387Y23718079D01*
X13306443Y23710227D01*
X13283834Y23704563D01*
X13260779Y23701144D01*
X13237500Y23700000D01*
X12762500Y23700000D01*
X12739221Y23701144D01*
X12716166Y23704563D01*
X12693557Y23710227D01*
X12671613Y23718079D01*
X12650543Y23728044D01*
X12630552Y23740026D01*
X12611832Y23753910D01*
X12594562Y23769562D01*
X12578910Y23786832D01*
X12565026Y23805552D01*
X12553044Y23825543D01*
X12543079Y23846613D01*
X12535227Y23868557D01*
X12529563Y23891166D01*
X12526144Y23914221D01*
X12525000Y23937500D01*
X12525000Y24512500D01*
X12526144Y24535779D01*
X12529563Y24558834D01*
X12535227Y24581443D01*
X12543079Y24603387D01*
X12553044Y24624457D01*
X12565026Y24644448D01*
X12578910Y24663168D01*
X12594562Y24680438D01*
X12611832Y24696090D01*
X12630552Y24709974D01*
X12650543Y24721956D01*
X12671613Y24731921D01*
X12693557Y24739773D01*
X12716166Y24745437D01*
X12739221Y24748856D01*
X12762500Y24750000D01*
X13237500Y24750000D01*
X13260779Y24748856D01*
G37*
D11*
X82400000Y61600000D03*
X82400000Y65600000D03*
D12*
X4550000Y30700000D03*
X10250000Y30700000D03*
D13*
X38250000Y4450000D03*
X38250000Y6350000D03*
X35550000Y6350000D03*
X35550000Y5400000D03*
X35550000Y4450000D03*
X6850000Y4450000D03*
X6850000Y5400000D03*
X6850000Y6350000D03*
X9550000Y6350000D03*
X9550000Y4450000D03*
X19150000Y4450000D03*
X19150000Y6350000D03*
X16450000Y6350000D03*
X16450000Y5400000D03*
X16450000Y4450000D03*
X6850000Y13550000D03*
X6850000Y14500000D03*
X6850000Y15450000D03*
X9550000Y15450000D03*
X9550000Y13550000D03*
X26000000Y4450000D03*
X26000000Y5400000D03*
X26000000Y6350000D03*
X28700000Y6350000D03*
X28700000Y4450000D03*
D14*
X55050000Y-19900000D03*
X55050000Y-18600000D03*
X53150000Y-19250000D03*
X55050000Y-19250000D03*
X53150000Y-18600000D03*
X53150000Y-19900000D03*
D10*
G36*
X35385779Y8473856D02*
G01*
X35408834Y8470437D01*
X35431443Y8464773D01*
X35453387Y8456921D01*
X35474457Y8446956D01*
X35494448Y8434974D01*
X35513168Y8421090D01*
X35530438Y8405438D01*
X35546090Y8388168D01*
X35559974Y8369448D01*
X35571956Y8349457D01*
X35581921Y8328387D01*
X35589773Y8306443D01*
X35595437Y8283834D01*
X35598856Y8260779D01*
X35600000Y8237500D01*
X35600000Y7762500D01*
X35598856Y7739221D01*
X35595437Y7716166D01*
X35589773Y7693557D01*
X35581921Y7671613D01*
X35571956Y7650543D01*
X35559974Y7630552D01*
X35546090Y7611832D01*
X35530438Y7594562D01*
X35513168Y7578910D01*
X35494448Y7565026D01*
X35474457Y7553044D01*
X35453387Y7543079D01*
X35431443Y7535227D01*
X35408834Y7529563D01*
X35385779Y7526144D01*
X35362500Y7525000D01*
X34787500Y7525000D01*
X34764221Y7526144D01*
X34741166Y7529563D01*
X34718557Y7535227D01*
X34696613Y7543079D01*
X34675543Y7553044D01*
X34655552Y7565026D01*
X34636832Y7578910D01*
X34619562Y7594562D01*
X34603910Y7611832D01*
X34590026Y7630552D01*
X34578044Y7650543D01*
X34568079Y7671613D01*
X34560227Y7693557D01*
X34554563Y7716166D01*
X34551144Y7739221D01*
X34550000Y7762500D01*
X34550000Y8237500D01*
X34551144Y8260779D01*
X34554563Y8283834D01*
X34560227Y8306443D01*
X34568079Y8328387D01*
X34578044Y8349457D01*
X34590026Y8369448D01*
X34603910Y8388168D01*
X34619562Y8405438D01*
X34636832Y8421090D01*
X34655552Y8434974D01*
X34675543Y8446956D01*
X34696613Y8456921D01*
X34718557Y8464773D01*
X34741166Y8470437D01*
X34764221Y8473856D01*
X34787500Y8475000D01*
X35362500Y8475000D01*
X35385779Y8473856D01*
G37*
G36*
X33635779Y8473856D02*
G01*
X33658834Y8470437D01*
X33681443Y8464773D01*
X33703387Y8456921D01*
X33724457Y8446956D01*
X33744448Y8434974D01*
X33763168Y8421090D01*
X33780438Y8405438D01*
X33796090Y8388168D01*
X33809974Y8369448D01*
X33821956Y8349457D01*
X33831921Y8328387D01*
X33839773Y8306443D01*
X33845437Y8283834D01*
X33848856Y8260779D01*
X33850000Y8237500D01*
X33850000Y7762500D01*
X33848856Y7739221D01*
X33845437Y7716166D01*
X33839773Y7693557D01*
X33831921Y7671613D01*
X33821956Y7650543D01*
X33809974Y7630552D01*
X33796090Y7611832D01*
X33780438Y7594562D01*
X33763168Y7578910D01*
X33744448Y7565026D01*
X33724457Y7553044D01*
X33703387Y7543079D01*
X33681443Y7535227D01*
X33658834Y7529563D01*
X33635779Y7526144D01*
X33612500Y7525000D01*
X33037500Y7525000D01*
X33014221Y7526144D01*
X32991166Y7529563D01*
X32968557Y7535227D01*
X32946613Y7543079D01*
X32925543Y7553044D01*
X32905552Y7565026D01*
X32886832Y7578910D01*
X32869562Y7594562D01*
X32853910Y7611832D01*
X32840026Y7630552D01*
X32828044Y7650543D01*
X32818079Y7671613D01*
X32810227Y7693557D01*
X32804563Y7716166D01*
X32801144Y7739221D01*
X32800000Y7762500D01*
X32800000Y8237500D01*
X32801144Y8260779D01*
X32804563Y8283834D01*
X32810227Y8306443D01*
X32818079Y8328387D01*
X32828044Y8349457D01*
X32840026Y8369448D01*
X32853910Y8388168D01*
X32869562Y8405438D01*
X32886832Y8421090D01*
X32905552Y8434974D01*
X32925543Y8446956D01*
X32946613Y8456921D01*
X32968557Y8464773D01*
X32991166Y8470437D01*
X33014221Y8473856D01*
X33037500Y8475000D01*
X33612500Y8475000D01*
X33635779Y8473856D01*
G37*
G36*
X6685779Y8473856D02*
G01*
X6708834Y8470437D01*
X6731443Y8464773D01*
X6753387Y8456921D01*
X6774457Y8446956D01*
X6794448Y8434974D01*
X6813168Y8421090D01*
X6830438Y8405438D01*
X6846090Y8388168D01*
X6859974Y8369448D01*
X6871956Y8349457D01*
X6881921Y8328387D01*
X6889773Y8306443D01*
X6895437Y8283834D01*
X6898856Y8260779D01*
X6900000Y8237500D01*
X6900000Y7762500D01*
X6898856Y7739221D01*
X6895437Y7716166D01*
X6889773Y7693557D01*
X6881921Y7671613D01*
X6871956Y7650543D01*
X6859974Y7630552D01*
X6846090Y7611832D01*
X6830438Y7594562D01*
X6813168Y7578910D01*
X6794448Y7565026D01*
X6774457Y7553044D01*
X6753387Y7543079D01*
X6731443Y7535227D01*
X6708834Y7529563D01*
X6685779Y7526144D01*
X6662500Y7525000D01*
X6087500Y7525000D01*
X6064221Y7526144D01*
X6041166Y7529563D01*
X6018557Y7535227D01*
X5996613Y7543079D01*
X5975543Y7553044D01*
X5955552Y7565026D01*
X5936832Y7578910D01*
X5919562Y7594562D01*
X5903910Y7611832D01*
X5890026Y7630552D01*
X5878044Y7650543D01*
X5868079Y7671613D01*
X5860227Y7693557D01*
X5854563Y7716166D01*
X5851144Y7739221D01*
X5850000Y7762500D01*
X5850000Y8237500D01*
X5851144Y8260779D01*
X5854563Y8283834D01*
X5860227Y8306443D01*
X5868079Y8328387D01*
X5878044Y8349457D01*
X5890026Y8369448D01*
X5903910Y8388168D01*
X5919562Y8405438D01*
X5936832Y8421090D01*
X5955552Y8434974D01*
X5975543Y8446956D01*
X5996613Y8456921D01*
X6018557Y8464773D01*
X6041166Y8470437D01*
X6064221Y8473856D01*
X6087500Y8475000D01*
X6662500Y8475000D01*
X6685779Y8473856D01*
G37*
G36*
X4935779Y8473856D02*
G01*
X4958834Y8470437D01*
X4981443Y8464773D01*
X5003387Y8456921D01*
X5024457Y8446956D01*
X5044448Y8434974D01*
X5063168Y8421090D01*
X5080438Y8405438D01*
X5096090Y8388168D01*
X5109974Y8369448D01*
X5121956Y8349457D01*
X5131921Y8328387D01*
X5139773Y8306443D01*
X5145437Y8283834D01*
X5148856Y8260779D01*
X5150000Y8237500D01*
X5150000Y7762500D01*
X5148856Y7739221D01*
X5145437Y7716166D01*
X5139773Y7693557D01*
X5131921Y7671613D01*
X5121956Y7650543D01*
X5109974Y7630552D01*
X5096090Y7611832D01*
X5080438Y7594562D01*
X5063168Y7578910D01*
X5044448Y7565026D01*
X5024457Y7553044D01*
X5003387Y7543079D01*
X4981443Y7535227D01*
X4958834Y7529563D01*
X4935779Y7526144D01*
X4912500Y7525000D01*
X4337500Y7525000D01*
X4314221Y7526144D01*
X4291166Y7529563D01*
X4268557Y7535227D01*
X4246613Y7543079D01*
X4225543Y7553044D01*
X4205552Y7565026D01*
X4186832Y7578910D01*
X4169562Y7594562D01*
X4153910Y7611832D01*
X4140026Y7630552D01*
X4128044Y7650543D01*
X4118079Y7671613D01*
X4110227Y7693557D01*
X4104563Y7716166D01*
X4101144Y7739221D01*
X4100000Y7762500D01*
X4100000Y8237500D01*
X4101144Y8260779D01*
X4104563Y8283834D01*
X4110227Y8306443D01*
X4118079Y8328387D01*
X4128044Y8349457D01*
X4140026Y8369448D01*
X4153910Y8388168D01*
X4169562Y8405438D01*
X4186832Y8421090D01*
X4205552Y8434974D01*
X4225543Y8446956D01*
X4246613Y8456921D01*
X4268557Y8464773D01*
X4291166Y8470437D01*
X4314221Y8473856D01*
X4337500Y8475000D01*
X4912500Y8475000D01*
X4935779Y8473856D01*
G37*
G36*
X14535779Y8473856D02*
G01*
X14558834Y8470437D01*
X14581443Y8464773D01*
X14603387Y8456921D01*
X14624457Y8446956D01*
X14644448Y8434974D01*
X14663168Y8421090D01*
X14680438Y8405438D01*
X14696090Y8388168D01*
X14709974Y8369448D01*
X14721956Y8349457D01*
X14731921Y8328387D01*
X14739773Y8306443D01*
X14745437Y8283834D01*
X14748856Y8260779D01*
X14750000Y8237500D01*
X14750000Y7762500D01*
X14748856Y7739221D01*
X14745437Y7716166D01*
X14739773Y7693557D01*
X14731921Y7671613D01*
X14721956Y7650543D01*
X14709974Y7630552D01*
X14696090Y7611832D01*
X14680438Y7594562D01*
X14663168Y7578910D01*
X14644448Y7565026D01*
X14624457Y7553044D01*
X14603387Y7543079D01*
X14581443Y7535227D01*
X14558834Y7529563D01*
X14535779Y7526144D01*
X14512500Y7525000D01*
X13937500Y7525000D01*
X13914221Y7526144D01*
X13891166Y7529563D01*
X13868557Y7535227D01*
X13846613Y7543079D01*
X13825543Y7553044D01*
X13805552Y7565026D01*
X13786832Y7578910D01*
X13769562Y7594562D01*
X13753910Y7611832D01*
X13740026Y7630552D01*
X13728044Y7650543D01*
X13718079Y7671613D01*
X13710227Y7693557D01*
X13704563Y7716166D01*
X13701144Y7739221D01*
X13700000Y7762500D01*
X13700000Y8237500D01*
X13701144Y8260779D01*
X13704563Y8283834D01*
X13710227Y8306443D01*
X13718079Y8328387D01*
X13728044Y8349457D01*
X13740026Y8369448D01*
X13753910Y8388168D01*
X13769562Y8405438D01*
X13786832Y8421090D01*
X13805552Y8434974D01*
X13825543Y8446956D01*
X13846613Y8456921D01*
X13868557Y8464773D01*
X13891166Y8470437D01*
X13914221Y8473856D01*
X13937500Y8475000D01*
X14512500Y8475000D01*
X14535779Y8473856D01*
G37*
G36*
X16285779Y8473856D02*
G01*
X16308834Y8470437D01*
X16331443Y8464773D01*
X16353387Y8456921D01*
X16374457Y8446956D01*
X16394448Y8434974D01*
X16413168Y8421090D01*
X16430438Y8405438D01*
X16446090Y8388168D01*
X16459974Y8369448D01*
X16471956Y8349457D01*
X16481921Y8328387D01*
X16489773Y8306443D01*
X16495437Y8283834D01*
X16498856Y8260779D01*
X16500000Y8237500D01*
X16500000Y7762500D01*
X16498856Y7739221D01*
X16495437Y7716166D01*
X16489773Y7693557D01*
X16481921Y7671613D01*
X16471956Y7650543D01*
X16459974Y7630552D01*
X16446090Y7611832D01*
X16430438Y7594562D01*
X16413168Y7578910D01*
X16394448Y7565026D01*
X16374457Y7553044D01*
X16353387Y7543079D01*
X16331443Y7535227D01*
X16308834Y7529563D01*
X16285779Y7526144D01*
X16262500Y7525000D01*
X15687500Y7525000D01*
X15664221Y7526144D01*
X15641166Y7529563D01*
X15618557Y7535227D01*
X15596613Y7543079D01*
X15575543Y7553044D01*
X15555552Y7565026D01*
X15536832Y7578910D01*
X15519562Y7594562D01*
X15503910Y7611832D01*
X15490026Y7630552D01*
X15478044Y7650543D01*
X15468079Y7671613D01*
X15460227Y7693557D01*
X15454563Y7716166D01*
X15451144Y7739221D01*
X15450000Y7762500D01*
X15450000Y8237500D01*
X15451144Y8260779D01*
X15454563Y8283834D01*
X15460227Y8306443D01*
X15468079Y8328387D01*
X15478044Y8349457D01*
X15490026Y8369448D01*
X15503910Y8388168D01*
X15519562Y8405438D01*
X15536832Y8421090D01*
X15555552Y8434974D01*
X15575543Y8446956D01*
X15596613Y8456921D01*
X15618557Y8464773D01*
X15641166Y8470437D01*
X15664221Y8473856D01*
X15687500Y8475000D01*
X16262500Y8475000D01*
X16285779Y8473856D01*
G37*
G36*
X6685779Y17573856D02*
G01*
X6708834Y17570437D01*
X6731443Y17564773D01*
X6753387Y17556921D01*
X6774457Y17546956D01*
X6794448Y17534974D01*
X6813168Y17521090D01*
X6830438Y17505438D01*
X6846090Y17488168D01*
X6859974Y17469448D01*
X6871956Y17449457D01*
X6881921Y17428387D01*
X6889773Y17406443D01*
X6895437Y17383834D01*
X6898856Y17360779D01*
X6900000Y17337500D01*
X6900000Y16862500D01*
X6898856Y16839221D01*
X6895437Y16816166D01*
X6889773Y16793557D01*
X6881921Y16771613D01*
X6871956Y16750543D01*
X6859974Y16730552D01*
X6846090Y16711832D01*
X6830438Y16694562D01*
X6813168Y16678910D01*
X6794448Y16665026D01*
X6774457Y16653044D01*
X6753387Y16643079D01*
X6731443Y16635227D01*
X6708834Y16629563D01*
X6685779Y16626144D01*
X6662500Y16625000D01*
X6087500Y16625000D01*
X6064221Y16626144D01*
X6041166Y16629563D01*
X6018557Y16635227D01*
X5996613Y16643079D01*
X5975543Y16653044D01*
X5955552Y16665026D01*
X5936832Y16678910D01*
X5919562Y16694562D01*
X5903910Y16711832D01*
X5890026Y16730552D01*
X5878044Y16750543D01*
X5868079Y16771613D01*
X5860227Y16793557D01*
X5854563Y16816166D01*
X5851144Y16839221D01*
X5850000Y16862500D01*
X5850000Y17337500D01*
X5851144Y17360779D01*
X5854563Y17383834D01*
X5860227Y17406443D01*
X5868079Y17428387D01*
X5878044Y17449457D01*
X5890026Y17469448D01*
X5903910Y17488168D01*
X5919562Y17505438D01*
X5936832Y17521090D01*
X5955552Y17534974D01*
X5975543Y17546956D01*
X5996613Y17556921D01*
X6018557Y17564773D01*
X6041166Y17570437D01*
X6064221Y17573856D01*
X6087500Y17575000D01*
X6662500Y17575000D01*
X6685779Y17573856D01*
G37*
G36*
X4935779Y17573856D02*
G01*
X4958834Y17570437D01*
X4981443Y17564773D01*
X5003387Y17556921D01*
X5024457Y17546956D01*
X5044448Y17534974D01*
X5063168Y17521090D01*
X5080438Y17505438D01*
X5096090Y17488168D01*
X5109974Y17469448D01*
X5121956Y17449457D01*
X5131921Y17428387D01*
X5139773Y17406443D01*
X5145437Y17383834D01*
X5148856Y17360779D01*
X5150000Y17337500D01*
X5150000Y16862500D01*
X5148856Y16839221D01*
X5145437Y16816166D01*
X5139773Y16793557D01*
X5131921Y16771613D01*
X5121956Y16750543D01*
X5109974Y16730552D01*
X5096090Y16711832D01*
X5080438Y16694562D01*
X5063168Y16678910D01*
X5044448Y16665026D01*
X5024457Y16653044D01*
X5003387Y16643079D01*
X4981443Y16635227D01*
X4958834Y16629563D01*
X4935779Y16626144D01*
X4912500Y16625000D01*
X4337500Y16625000D01*
X4314221Y16626144D01*
X4291166Y16629563D01*
X4268557Y16635227D01*
X4246613Y16643079D01*
X4225543Y16653044D01*
X4205552Y16665026D01*
X4186832Y16678910D01*
X4169562Y16694562D01*
X4153910Y16711832D01*
X4140026Y16730552D01*
X4128044Y16750543D01*
X4118079Y16771613D01*
X4110227Y16793557D01*
X4104563Y16816166D01*
X4101144Y16839221D01*
X4100000Y16862500D01*
X4100000Y17337500D01*
X4101144Y17360779D01*
X4104563Y17383834D01*
X4110227Y17406443D01*
X4118079Y17428387D01*
X4128044Y17449457D01*
X4140026Y17469448D01*
X4153910Y17488168D01*
X4169562Y17505438D01*
X4186832Y17521090D01*
X4205552Y17534974D01*
X4225543Y17546956D01*
X4246613Y17556921D01*
X4268557Y17564773D01*
X4291166Y17570437D01*
X4314221Y17573856D01*
X4337500Y17575000D01*
X4912500Y17575000D01*
X4935779Y17573856D01*
G37*
G36*
X25885779Y8473856D02*
G01*
X25908834Y8470437D01*
X25931443Y8464773D01*
X25953387Y8456921D01*
X25974457Y8446956D01*
X25994448Y8434974D01*
X26013168Y8421090D01*
X26030438Y8405438D01*
X26046090Y8388168D01*
X26059974Y8369448D01*
X26071956Y8349457D01*
X26081921Y8328387D01*
X26089773Y8306443D01*
X26095437Y8283834D01*
X26098856Y8260779D01*
X26100000Y8237500D01*
X26100000Y7762500D01*
X26098856Y7739221D01*
X26095437Y7716166D01*
X26089773Y7693557D01*
X26081921Y7671613D01*
X26071956Y7650543D01*
X26059974Y7630552D01*
X26046090Y7611832D01*
X26030438Y7594562D01*
X26013168Y7578910D01*
X25994448Y7565026D01*
X25974457Y7553044D01*
X25953387Y7543079D01*
X25931443Y7535227D01*
X25908834Y7529563D01*
X25885779Y7526144D01*
X25862500Y7525000D01*
X25287500Y7525000D01*
X25264221Y7526144D01*
X25241166Y7529563D01*
X25218557Y7535227D01*
X25196613Y7543079D01*
X25175543Y7553044D01*
X25155552Y7565026D01*
X25136832Y7578910D01*
X25119562Y7594562D01*
X25103910Y7611832D01*
X25090026Y7630552D01*
X25078044Y7650543D01*
X25068079Y7671613D01*
X25060227Y7693557D01*
X25054563Y7716166D01*
X25051144Y7739221D01*
X25050000Y7762500D01*
X25050000Y8237500D01*
X25051144Y8260779D01*
X25054563Y8283834D01*
X25060227Y8306443D01*
X25068079Y8328387D01*
X25078044Y8349457D01*
X25090026Y8369448D01*
X25103910Y8388168D01*
X25119562Y8405438D01*
X25136832Y8421090D01*
X25155552Y8434974D01*
X25175543Y8446956D01*
X25196613Y8456921D01*
X25218557Y8464773D01*
X25241166Y8470437D01*
X25264221Y8473856D01*
X25287500Y8475000D01*
X25862500Y8475000D01*
X25885779Y8473856D01*
G37*
G36*
X24135779Y8473856D02*
G01*
X24158834Y8470437D01*
X24181443Y8464773D01*
X24203387Y8456921D01*
X24224457Y8446956D01*
X24244448Y8434974D01*
X24263168Y8421090D01*
X24280438Y8405438D01*
X24296090Y8388168D01*
X24309974Y8369448D01*
X24321956Y8349457D01*
X24331921Y8328387D01*
X24339773Y8306443D01*
X24345437Y8283834D01*
X24348856Y8260779D01*
X24350000Y8237500D01*
X24350000Y7762500D01*
X24348856Y7739221D01*
X24345437Y7716166D01*
X24339773Y7693557D01*
X24331921Y7671613D01*
X24321956Y7650543D01*
X24309974Y7630552D01*
X24296090Y7611832D01*
X24280438Y7594562D01*
X24263168Y7578910D01*
X24244448Y7565026D01*
X24224457Y7553044D01*
X24203387Y7543079D01*
X24181443Y7535227D01*
X24158834Y7529563D01*
X24135779Y7526144D01*
X24112500Y7525000D01*
X23537500Y7525000D01*
X23514221Y7526144D01*
X23491166Y7529563D01*
X23468557Y7535227D01*
X23446613Y7543079D01*
X23425543Y7553044D01*
X23405552Y7565026D01*
X23386832Y7578910D01*
X23369562Y7594562D01*
X23353910Y7611832D01*
X23340026Y7630552D01*
X23328044Y7650543D01*
X23318079Y7671613D01*
X23310227Y7693557D01*
X23304563Y7716166D01*
X23301144Y7739221D01*
X23300000Y7762500D01*
X23300000Y8237500D01*
X23301144Y8260779D01*
X23304563Y8283834D01*
X23310227Y8306443D01*
X23318079Y8328387D01*
X23328044Y8349457D01*
X23340026Y8369448D01*
X23353910Y8388168D01*
X23369562Y8405438D01*
X23386832Y8421090D01*
X23405552Y8434974D01*
X23425543Y8446956D01*
X23446613Y8456921D01*
X23468557Y8464773D01*
X23491166Y8470437D01*
X23514221Y8473856D01*
X23537500Y8475000D01*
X24112500Y8475000D01*
X24135779Y8473856D01*
G37*
G36*
X59760779Y14448856D02*
G01*
X59783834Y14445437D01*
X59806443Y14439773D01*
X59828387Y14431921D01*
X59849457Y14421956D01*
X59869448Y14409974D01*
X59888168Y14396090D01*
X59905438Y14380438D01*
X59921090Y14363168D01*
X59934974Y14344448D01*
X59946956Y14324457D01*
X59956921Y14303387D01*
X59964773Y14281443D01*
X59970437Y14258834D01*
X59973856Y14235779D01*
X59975000Y14212500D01*
X59975000Y13637500D01*
X59973856Y13614221D01*
X59970437Y13591166D01*
X59964773Y13568557D01*
X59956921Y13546613D01*
X59946956Y13525543D01*
X59934974Y13505552D01*
X59921090Y13486832D01*
X59905438Y13469562D01*
X59888168Y13453910D01*
X59869448Y13440026D01*
X59849457Y13428044D01*
X59828387Y13418079D01*
X59806443Y13410227D01*
X59783834Y13404563D01*
X59760779Y13401144D01*
X59737500Y13400000D01*
X59262500Y13400000D01*
X59239221Y13401144D01*
X59216166Y13404563D01*
X59193557Y13410227D01*
X59171613Y13418079D01*
X59150543Y13428044D01*
X59130552Y13440026D01*
X59111832Y13453910D01*
X59094562Y13469562D01*
X59078910Y13486832D01*
X59065026Y13505552D01*
X59053044Y13525543D01*
X59043079Y13546613D01*
X59035227Y13568557D01*
X59029563Y13591166D01*
X59026144Y13614221D01*
X59025000Y13637500D01*
X59025000Y14212500D01*
X59026144Y14235779D01*
X59029563Y14258834D01*
X59035227Y14281443D01*
X59043079Y14303387D01*
X59053044Y14324457D01*
X59065026Y14344448D01*
X59078910Y14363168D01*
X59094562Y14380438D01*
X59111832Y14396090D01*
X59130552Y14409974D01*
X59150543Y14421956D01*
X59171613Y14431921D01*
X59193557Y14439773D01*
X59216166Y14445437D01*
X59239221Y14448856D01*
X59262500Y14450000D01*
X59737500Y14450000D01*
X59760779Y14448856D01*
G37*
G36*
X59760779Y16198856D02*
G01*
X59783834Y16195437D01*
X59806443Y16189773D01*
X59828387Y16181921D01*
X59849457Y16171956D01*
X59869448Y16159974D01*
X59888168Y16146090D01*
X59905438Y16130438D01*
X59921090Y16113168D01*
X59934974Y16094448D01*
X59946956Y16074457D01*
X59956921Y16053387D01*
X59964773Y16031443D01*
X59970437Y16008834D01*
X59973856Y15985779D01*
X59975000Y15962500D01*
X59975000Y15387500D01*
X59973856Y15364221D01*
X59970437Y15341166D01*
X59964773Y15318557D01*
X59956921Y15296613D01*
X59946956Y15275543D01*
X59934974Y15255552D01*
X59921090Y15236832D01*
X59905438Y15219562D01*
X59888168Y15203910D01*
X59869448Y15190026D01*
X59849457Y15178044D01*
X59828387Y15168079D01*
X59806443Y15160227D01*
X59783834Y15154563D01*
X59760779Y15151144D01*
X59737500Y15150000D01*
X59262500Y15150000D01*
X59239221Y15151144D01*
X59216166Y15154563D01*
X59193557Y15160227D01*
X59171613Y15168079D01*
X59150543Y15178044D01*
X59130552Y15190026D01*
X59111832Y15203910D01*
X59094562Y15219562D01*
X59078910Y15236832D01*
X59065026Y15255552D01*
X59053044Y15275543D01*
X59043079Y15296613D01*
X59035227Y15318557D01*
X59029563Y15341166D01*
X59026144Y15364221D01*
X59025000Y15387500D01*
X59025000Y15962500D01*
X59026144Y15985779D01*
X59029563Y16008834D01*
X59035227Y16031443D01*
X59043079Y16053387D01*
X59053044Y16074457D01*
X59065026Y16094448D01*
X59078910Y16113168D01*
X59094562Y16130438D01*
X59111832Y16146090D01*
X59130552Y16159974D01*
X59150543Y16171956D01*
X59171613Y16181921D01*
X59193557Y16189773D01*
X59216166Y16195437D01*
X59239221Y16198856D01*
X59262500Y16200000D01*
X59737500Y16200000D01*
X59760779Y16198856D01*
G37*
G36*
X59810779Y35248856D02*
G01*
X59833834Y35245437D01*
X59856443Y35239773D01*
X59878387Y35231921D01*
X59899457Y35221956D01*
X59919448Y35209974D01*
X59938168Y35196090D01*
X59955438Y35180438D01*
X59971090Y35163168D01*
X59984974Y35144448D01*
X59996956Y35124457D01*
X60006921Y35103387D01*
X60014773Y35081443D01*
X60020437Y35058834D01*
X60023856Y35035779D01*
X60025000Y35012500D01*
X60025000Y34437500D01*
X60023856Y34414221D01*
X60020437Y34391166D01*
X60014773Y34368557D01*
X60006921Y34346613D01*
X59996956Y34325543D01*
X59984974Y34305552D01*
X59971090Y34286832D01*
X59955438Y34269562D01*
X59938168Y34253910D01*
X59919448Y34240026D01*
X59899457Y34228044D01*
X59878387Y34218079D01*
X59856443Y34210227D01*
X59833834Y34204563D01*
X59810779Y34201144D01*
X59787500Y34200000D01*
X59312500Y34200000D01*
X59289221Y34201144D01*
X59266166Y34204563D01*
X59243557Y34210227D01*
X59221613Y34218079D01*
X59200543Y34228044D01*
X59180552Y34240026D01*
X59161832Y34253910D01*
X59144562Y34269562D01*
X59128910Y34286832D01*
X59115026Y34305552D01*
X59103044Y34325543D01*
X59093079Y34346613D01*
X59085227Y34368557D01*
X59079563Y34391166D01*
X59076144Y34414221D01*
X59075000Y34437500D01*
X59075000Y35012500D01*
X59076144Y35035779D01*
X59079563Y35058834D01*
X59085227Y35081443D01*
X59093079Y35103387D01*
X59103044Y35124457D01*
X59115026Y35144448D01*
X59128910Y35163168D01*
X59144562Y35180438D01*
X59161832Y35196090D01*
X59180552Y35209974D01*
X59200543Y35221956D01*
X59221613Y35231921D01*
X59243557Y35239773D01*
X59266166Y35245437D01*
X59289221Y35248856D01*
X59312500Y35250000D01*
X59787500Y35250000D01*
X59810779Y35248856D01*
G37*
G36*
X59810779Y36998856D02*
G01*
X59833834Y36995437D01*
X59856443Y36989773D01*
X59878387Y36981921D01*
X59899457Y36971956D01*
X59919448Y36959974D01*
X59938168Y36946090D01*
X59955438Y36930438D01*
X59971090Y36913168D01*
X59984974Y36894448D01*
X59996956Y36874457D01*
X60006921Y36853387D01*
X60014773Y36831443D01*
X60020437Y36808834D01*
X60023856Y36785779D01*
X60025000Y36762500D01*
X60025000Y36187500D01*
X60023856Y36164221D01*
X60020437Y36141166D01*
X60014773Y36118557D01*
X60006921Y36096613D01*
X59996956Y36075543D01*
X59984974Y36055552D01*
X59971090Y36036832D01*
X59955438Y36019562D01*
X59938168Y36003910D01*
X59919448Y35990026D01*
X59899457Y35978044D01*
X59878387Y35968079D01*
X59856443Y35960227D01*
X59833834Y35954563D01*
X59810779Y35951144D01*
X59787500Y35950000D01*
X59312500Y35950000D01*
X59289221Y35951144D01*
X59266166Y35954563D01*
X59243557Y35960227D01*
X59221613Y35968079D01*
X59200543Y35978044D01*
X59180552Y35990026D01*
X59161832Y36003910D01*
X59144562Y36019562D01*
X59128910Y36036832D01*
X59115026Y36055552D01*
X59103044Y36075543D01*
X59093079Y36096613D01*
X59085227Y36118557D01*
X59079563Y36141166D01*
X59076144Y36164221D01*
X59075000Y36187500D01*
X59075000Y36762500D01*
X59076144Y36785779D01*
X59079563Y36808834D01*
X59085227Y36831443D01*
X59093079Y36853387D01*
X59103044Y36874457D01*
X59115026Y36894448D01*
X59128910Y36913168D01*
X59144562Y36930438D01*
X59161832Y36946090D01*
X59180552Y36959974D01*
X59200543Y36971956D01*
X59221613Y36981921D01*
X59243557Y36989773D01*
X59266166Y36995437D01*
X59289221Y36998856D01*
X59312500Y37000000D01*
X59787500Y37000000D01*
X59810779Y36998856D01*
G37*
G36*
X59760779Y57948856D02*
G01*
X59783834Y57945437D01*
X59806443Y57939773D01*
X59828387Y57931921D01*
X59849457Y57921956D01*
X59869448Y57909974D01*
X59888168Y57896090D01*
X59905438Y57880438D01*
X59921090Y57863168D01*
X59934974Y57844448D01*
X59946956Y57824457D01*
X59956921Y57803387D01*
X59964773Y57781443D01*
X59970437Y57758834D01*
X59973856Y57735779D01*
X59975000Y57712500D01*
X59975000Y57137500D01*
X59973856Y57114221D01*
X59970437Y57091166D01*
X59964773Y57068557D01*
X59956921Y57046613D01*
X59946956Y57025543D01*
X59934974Y57005552D01*
X59921090Y56986832D01*
X59905438Y56969562D01*
X59888168Y56953910D01*
X59869448Y56940026D01*
X59849457Y56928044D01*
X59828387Y56918079D01*
X59806443Y56910227D01*
X59783834Y56904563D01*
X59760779Y56901144D01*
X59737500Y56900000D01*
X59262500Y56900000D01*
X59239221Y56901144D01*
X59216166Y56904563D01*
X59193557Y56910227D01*
X59171613Y56918079D01*
X59150543Y56928044D01*
X59130552Y56940026D01*
X59111832Y56953910D01*
X59094562Y56969562D01*
X59078910Y56986832D01*
X59065026Y57005552D01*
X59053044Y57025543D01*
X59043079Y57046613D01*
X59035227Y57068557D01*
X59029563Y57091166D01*
X59026144Y57114221D01*
X59025000Y57137500D01*
X59025000Y57712500D01*
X59026144Y57735779D01*
X59029563Y57758834D01*
X59035227Y57781443D01*
X59043079Y57803387D01*
X59053044Y57824457D01*
X59065026Y57844448D01*
X59078910Y57863168D01*
X59094562Y57880438D01*
X59111832Y57896090D01*
X59130552Y57909974D01*
X59150543Y57921956D01*
X59171613Y57931921D01*
X59193557Y57939773D01*
X59216166Y57945437D01*
X59239221Y57948856D01*
X59262500Y57950000D01*
X59737500Y57950000D01*
X59760779Y57948856D01*
G37*
G36*
X59760779Y56198856D02*
G01*
X59783834Y56195437D01*
X59806443Y56189773D01*
X59828387Y56181921D01*
X59849457Y56171956D01*
X59869448Y56159974D01*
X59888168Y56146090D01*
X59905438Y56130438D01*
X59921090Y56113168D01*
X59934974Y56094448D01*
X59946956Y56074457D01*
X59956921Y56053387D01*
X59964773Y56031443D01*
X59970437Y56008834D01*
X59973856Y55985779D01*
X59975000Y55962500D01*
X59975000Y55387500D01*
X59973856Y55364221D01*
X59970437Y55341166D01*
X59964773Y55318557D01*
X59956921Y55296613D01*
X59946956Y55275543D01*
X59934974Y55255552D01*
X59921090Y55236832D01*
X59905438Y55219562D01*
X59888168Y55203910D01*
X59869448Y55190026D01*
X59849457Y55178044D01*
X59828387Y55168079D01*
X59806443Y55160227D01*
X59783834Y55154563D01*
X59760779Y55151144D01*
X59737500Y55150000D01*
X59262500Y55150000D01*
X59239221Y55151144D01*
X59216166Y55154563D01*
X59193557Y55160227D01*
X59171613Y55168079D01*
X59150543Y55178044D01*
X59130552Y55190026D01*
X59111832Y55203910D01*
X59094562Y55219562D01*
X59078910Y55236832D01*
X59065026Y55255552D01*
X59053044Y55275543D01*
X59043079Y55296613D01*
X59035227Y55318557D01*
X59029563Y55341166D01*
X59026144Y55364221D01*
X59025000Y55387500D01*
X59025000Y55962500D01*
X59026144Y55985779D01*
X59029563Y56008834D01*
X59035227Y56031443D01*
X59043079Y56053387D01*
X59053044Y56074457D01*
X59065026Y56094448D01*
X59078910Y56113168D01*
X59094562Y56130438D01*
X59111832Y56146090D01*
X59130552Y56159974D01*
X59150543Y56171956D01*
X59171613Y56181921D01*
X59193557Y56189773D01*
X59216166Y56195437D01*
X59239221Y56198856D01*
X59262500Y56200000D01*
X59737500Y56200000D01*
X59760779Y56198856D01*
G37*
G36*
X59860779Y-4601144D02*
G01*
X59883834Y-4604563D01*
X59906443Y-4610227D01*
X59928387Y-4618079D01*
X59949457Y-4628044D01*
X59969448Y-4640026D01*
X59988168Y-4653910D01*
X60005438Y-4669562D01*
X60021090Y-4686832D01*
X60034974Y-4705552D01*
X60046956Y-4725543D01*
X60056921Y-4746613D01*
X60064773Y-4768557D01*
X60070437Y-4791166D01*
X60073856Y-4814221D01*
X60075000Y-4837500D01*
X60075000Y-5412500D01*
X60073856Y-5435779D01*
X60070437Y-5458834D01*
X60064773Y-5481443D01*
X60056921Y-5503387D01*
X60046956Y-5524457D01*
X60034974Y-5544448D01*
X60021090Y-5563168D01*
X60005438Y-5580438D01*
X59988168Y-5596090D01*
X59969448Y-5609974D01*
X59949457Y-5621956D01*
X59928387Y-5631921D01*
X59906443Y-5639773D01*
X59883834Y-5645437D01*
X59860779Y-5648856D01*
X59837500Y-5650000D01*
X59362500Y-5650000D01*
X59339221Y-5648856D01*
X59316166Y-5645437D01*
X59293557Y-5639773D01*
X59271613Y-5631921D01*
X59250543Y-5621956D01*
X59230552Y-5609974D01*
X59211832Y-5596090D01*
X59194562Y-5580438D01*
X59178910Y-5563168D01*
X59165026Y-5544448D01*
X59153044Y-5524457D01*
X59143079Y-5503387D01*
X59135227Y-5481443D01*
X59129563Y-5458834D01*
X59126144Y-5435779D01*
X59125000Y-5412500D01*
X59125000Y-4837500D01*
X59126144Y-4814221D01*
X59129563Y-4791166D01*
X59135227Y-4768557D01*
X59143079Y-4746613D01*
X59153044Y-4725543D01*
X59165026Y-4705552D01*
X59178910Y-4686832D01*
X59194562Y-4669562D01*
X59211832Y-4653910D01*
X59230552Y-4640026D01*
X59250543Y-4628044D01*
X59271613Y-4618079D01*
X59293557Y-4610227D01*
X59316166Y-4604563D01*
X59339221Y-4601144D01*
X59362500Y-4600000D01*
X59837500Y-4600000D01*
X59860779Y-4601144D01*
G37*
G36*
X59860779Y-6351144D02*
G01*
X59883834Y-6354563D01*
X59906443Y-6360227D01*
X59928387Y-6368079D01*
X59949457Y-6378044D01*
X59969448Y-6390026D01*
X59988168Y-6403910D01*
X60005438Y-6419562D01*
X60021090Y-6436832D01*
X60034974Y-6455552D01*
X60046956Y-6475543D01*
X60056921Y-6496613D01*
X60064773Y-6518557D01*
X60070437Y-6541166D01*
X60073856Y-6564221D01*
X60075000Y-6587500D01*
X60075000Y-7162500D01*
X60073856Y-7185779D01*
X60070437Y-7208834D01*
X60064773Y-7231443D01*
X60056921Y-7253387D01*
X60046956Y-7274457D01*
X60034974Y-7294448D01*
X60021090Y-7313168D01*
X60005438Y-7330438D01*
X59988168Y-7346090D01*
X59969448Y-7359974D01*
X59949457Y-7371956D01*
X59928387Y-7381921D01*
X59906443Y-7389773D01*
X59883834Y-7395437D01*
X59860779Y-7398856D01*
X59837500Y-7400000D01*
X59362500Y-7400000D01*
X59339221Y-7398856D01*
X59316166Y-7395437D01*
X59293557Y-7389773D01*
X59271613Y-7381921D01*
X59250543Y-7371956D01*
X59230552Y-7359974D01*
X59211832Y-7346090D01*
X59194562Y-7330438D01*
X59178910Y-7313168D01*
X59165026Y-7294448D01*
X59153044Y-7274457D01*
X59143079Y-7253387D01*
X59135227Y-7231443D01*
X59129563Y-7208834D01*
X59126144Y-7185779D01*
X59125000Y-7162500D01*
X59125000Y-6587500D01*
X59126144Y-6564221D01*
X59129563Y-6541166D01*
X59135227Y-6518557D01*
X59143079Y-6496613D01*
X59153044Y-6475543D01*
X59165026Y-6455552D01*
X59178910Y-6436832D01*
X59194562Y-6419562D01*
X59211832Y-6403910D01*
X59230552Y-6390026D01*
X59250543Y-6378044D01*
X59271613Y-6368079D01*
X59293557Y-6360227D01*
X59316166Y-6354563D01*
X59339221Y-6351144D01*
X59362500Y-6350000D01*
X59837500Y-6350000D01*
X59860779Y-6351144D01*
G37*
G36*
X35410779Y34573856D02*
G01*
X35433834Y34570437D01*
X35456443Y34564773D01*
X35478387Y34556921D01*
X35499457Y34546956D01*
X35519448Y34534974D01*
X35538168Y34521090D01*
X35555438Y34505438D01*
X35571090Y34488168D01*
X35584974Y34469448D01*
X35596956Y34449457D01*
X35606921Y34428387D01*
X35614773Y34406443D01*
X35620437Y34383834D01*
X35623856Y34360779D01*
X35625000Y34337500D01*
X35625000Y33862500D01*
X35623856Y33839221D01*
X35620437Y33816166D01*
X35614773Y33793557D01*
X35606921Y33771613D01*
X35596956Y33750543D01*
X35584974Y33730552D01*
X35571090Y33711832D01*
X35555438Y33694562D01*
X35538168Y33678910D01*
X35519448Y33665026D01*
X35499457Y33653044D01*
X35478387Y33643079D01*
X35456443Y33635227D01*
X35433834Y33629563D01*
X35410779Y33626144D01*
X35387500Y33625000D01*
X34812500Y33625000D01*
X34789221Y33626144D01*
X34766166Y33629563D01*
X34743557Y33635227D01*
X34721613Y33643079D01*
X34700543Y33653044D01*
X34680552Y33665026D01*
X34661832Y33678910D01*
X34644562Y33694562D01*
X34628910Y33711832D01*
X34615026Y33730552D01*
X34603044Y33750543D01*
X34593079Y33771613D01*
X34585227Y33793557D01*
X34579563Y33816166D01*
X34576144Y33839221D01*
X34575000Y33862500D01*
X34575000Y34337500D01*
X34576144Y34360779D01*
X34579563Y34383834D01*
X34585227Y34406443D01*
X34593079Y34428387D01*
X34603044Y34449457D01*
X34615026Y34469448D01*
X34628910Y34488168D01*
X34644562Y34505438D01*
X34661832Y34521090D01*
X34680552Y34534974D01*
X34700543Y34546956D01*
X34721613Y34556921D01*
X34743557Y34564773D01*
X34766166Y34570437D01*
X34789221Y34573856D01*
X34812500Y34575000D01*
X35387500Y34575000D01*
X35410779Y34573856D01*
G37*
G36*
X33660779Y34573856D02*
G01*
X33683834Y34570437D01*
X33706443Y34564773D01*
X33728387Y34556921D01*
X33749457Y34546956D01*
X33769448Y34534974D01*
X33788168Y34521090D01*
X33805438Y34505438D01*
X33821090Y34488168D01*
X33834974Y34469448D01*
X33846956Y34449457D01*
X33856921Y34428387D01*
X33864773Y34406443D01*
X33870437Y34383834D01*
X33873856Y34360779D01*
X33875000Y34337500D01*
X33875000Y33862500D01*
X33873856Y33839221D01*
X33870437Y33816166D01*
X33864773Y33793557D01*
X33856921Y33771613D01*
X33846956Y33750543D01*
X33834974Y33730552D01*
X33821090Y33711832D01*
X33805438Y33694562D01*
X33788168Y33678910D01*
X33769448Y33665026D01*
X33749457Y33653044D01*
X33728387Y33643079D01*
X33706443Y33635227D01*
X33683834Y33629563D01*
X33660779Y33626144D01*
X33637500Y33625000D01*
X33062500Y33625000D01*
X33039221Y33626144D01*
X33016166Y33629563D01*
X32993557Y33635227D01*
X32971613Y33643079D01*
X32950543Y33653044D01*
X32930552Y33665026D01*
X32911832Y33678910D01*
X32894562Y33694562D01*
X32878910Y33711832D01*
X32865026Y33730552D01*
X32853044Y33750543D01*
X32843079Y33771613D01*
X32835227Y33793557D01*
X32829563Y33816166D01*
X32826144Y33839221D01*
X32825000Y33862500D01*
X32825000Y34337500D01*
X32826144Y34360779D01*
X32829563Y34383834D01*
X32835227Y34406443D01*
X32843079Y34428387D01*
X32853044Y34449457D01*
X32865026Y34469448D01*
X32878910Y34488168D01*
X32894562Y34505438D01*
X32911832Y34521090D01*
X32930552Y34534974D01*
X32950543Y34546956D01*
X32971613Y34556921D01*
X32993557Y34564773D01*
X33016166Y34570437D01*
X33039221Y34573856D01*
X33062500Y34575000D01*
X33637500Y34575000D01*
X33660779Y34573856D01*
G37*
D15*
X35740000Y27900000D03*
X30660000Y27900000D03*
X30660000Y32100000D03*
X35740000Y32100000D03*
M02*
