%TF.GenerationSoftware,KiCad,Pcbnew,(5.1.5)-2*%
%TF.CreationDate,2019-12-28T19:20:09-08:00*%
%TF.ProjectId,20191222_Projects_Mainboard_A0,32303139-3132-4323-925f-50726f6a6563,A3*%
%TF.SameCoordinates,PX2191c00PY7534e20*%
%TF.FileFunction,Copper,L3,Inr*%
%TF.FilePolarity,Positive*%
%FSLAX46Y46*%
G04 Gerber Fmt 4.6, Leading zero omitted, Abs format (unit mm)*
G04 Created by KiCad (PCBNEW (5.1.5)-2) date 2019-12-28 19:20:09*
%MOMM*%
%LPD*%
G04 APERTURE LIST*
%ADD10C,1.750000*%
%ADD11C,1.600000*%
%ADD12R,1.600000X1.600000*%
%ADD13C,2.000000*%
%ADD14C,1.524000*%
%ADD15C,4.400000*%
%ADD16C,0.800000*%
%ADD17C,1.000000*%
%ADD18C,0.600000*%
%ADD19C,0.254000*%
G04 APERTURE END LIST*
D10*
X33300000Y2900000D03*
X33300000Y5400000D03*
X4600000Y2900000D03*
X4600000Y5400000D03*
X14200000Y2900000D03*
X14200000Y5400000D03*
X4600000Y12000000D03*
X4600000Y14500000D03*
X23800000Y2900000D03*
X23800000Y5400000D03*
X41100000Y57500000D03*
X38600000Y57500000D03*
X41100000Y65700000D03*
X38600000Y65700000D03*
X30300000Y57500000D03*
X27800000Y57500000D03*
X30300000Y65700000D03*
X27800000Y65700000D03*
X19500000Y57500000D03*
X17000000Y57500000D03*
X19500000Y65700000D03*
X17000000Y65700000D03*
D11*
X74850000Y67500000D03*
D12*
X74850000Y64000000D03*
X78900000Y39000000D03*
D11*
X82400000Y39000000D03*
D12*
X78900000Y18200000D03*
D11*
X82400000Y18200000D03*
X82400000Y-2600000D03*
D12*
X78900000Y-2600000D03*
D13*
X45000000Y63500000D03*
X45000000Y66040000D03*
X34200000Y66040000D03*
X34200000Y63500000D03*
X23400000Y63500000D03*
X23400000Y66040000D03*
D10*
X57000000Y-8600000D03*
X57000000Y-11100000D03*
X57000000Y-13600000D03*
X57000000Y-16100000D03*
X57000000Y-18600000D03*
X57000000Y12200000D03*
X57000000Y9700000D03*
X57000000Y7200000D03*
X57000000Y4700000D03*
X57000000Y2200000D03*
X57000000Y33000000D03*
X57000000Y30500000D03*
X57000000Y28000000D03*
X57000000Y25500000D03*
X57000000Y23000000D03*
X57100000Y43900000D03*
X57100000Y46400000D03*
X57100000Y48900000D03*
X57100000Y51400000D03*
X57100000Y53900000D03*
D13*
X48530000Y-3110000D03*
X51070000Y-3110000D03*
X48530000Y-5650000D03*
X51070000Y-5650000D03*
X48530000Y-8190000D03*
X51070000Y-8190000D03*
X49970000Y-18600000D03*
X47430000Y-18600000D03*
X49970000Y-16060000D03*
X47430000Y-16060000D03*
X49970000Y-13520000D03*
X47430000Y-13520000D03*
X67770000Y10520000D03*
X65230000Y10520000D03*
X67770000Y13060000D03*
X65230000Y13060000D03*
X67770000Y15600000D03*
X65230000Y15600000D03*
X65200000Y36500000D03*
X67740000Y36500000D03*
X65200000Y33960000D03*
X67740000Y33960000D03*
X65200000Y31420000D03*
X67740000Y31420000D03*
X67670000Y52320000D03*
X65130000Y52320000D03*
X67670000Y54860000D03*
X65130000Y54860000D03*
X67670000Y57400000D03*
X65130000Y57400000D03*
X65130000Y-5160000D03*
X67670000Y-5160000D03*
X65130000Y-7700000D03*
X67670000Y-7700000D03*
X65130000Y-10240000D03*
X67670000Y-10240000D03*
D10*
X88600000Y3100000D03*
X88600000Y5600000D03*
X88600000Y8100000D03*
X88600000Y10600000D03*
X88600000Y13100000D03*
X88600000Y33900000D03*
X88600000Y31400000D03*
X88600000Y28900000D03*
X88600000Y26400000D03*
X88600000Y23900000D03*
X88700000Y54800000D03*
X88700000Y52300000D03*
X88700000Y49800000D03*
X88700000Y47300000D03*
X88700000Y44800000D03*
X88600000Y-7700000D03*
X88600000Y-10200000D03*
X88600000Y-12700000D03*
X88600000Y-15200000D03*
X88600000Y-17700000D03*
D14*
X85700000Y61100000D03*
X85700000Y66100000D03*
D13*
X74850000Y18190000D03*
X74850000Y15650000D03*
X74850000Y13110000D03*
X74850000Y10570000D03*
X74850000Y8030000D03*
X74850000Y5490000D03*
X74850000Y2950000D03*
X74850000Y410000D03*
X62150000Y410000D03*
X62150000Y2950000D03*
X62150000Y5490000D03*
X62150000Y8030000D03*
X62150000Y10570000D03*
X62150000Y13110000D03*
X62150000Y15650000D03*
X62150000Y18190000D03*
X74850000Y38990000D03*
X74850000Y36450000D03*
X74850000Y33910000D03*
X74850000Y31370000D03*
X74850000Y28830000D03*
X74850000Y26290000D03*
X74850000Y23750000D03*
X74850000Y21210000D03*
X62150000Y21210000D03*
X62150000Y23750000D03*
X62150000Y26290000D03*
X62150000Y28830000D03*
X62150000Y31370000D03*
X62150000Y33910000D03*
X62150000Y36450000D03*
X62150000Y38990000D03*
X62150000Y59890000D03*
X62150000Y57350000D03*
X62150000Y54810000D03*
X62150000Y52270000D03*
X62150000Y49730000D03*
X62150000Y47190000D03*
X62150000Y44650000D03*
X62150000Y42110000D03*
X74850000Y42110000D03*
X74850000Y44650000D03*
X74850000Y47190000D03*
X74850000Y49730000D03*
X74850000Y52270000D03*
X74850000Y54810000D03*
X74850000Y57350000D03*
X74850000Y59890000D03*
X62150000Y-2610000D03*
X62150000Y-5150000D03*
X62150000Y-7690000D03*
X62150000Y-10230000D03*
X62150000Y-12770000D03*
X62150000Y-15310000D03*
X62150000Y-17850000D03*
X62150000Y-20390000D03*
X74850000Y-20390000D03*
X74850000Y-17850000D03*
X74850000Y-15310000D03*
X74850000Y-12770000D03*
X74850000Y-10230000D03*
X74850000Y-7690000D03*
X74850000Y-5150000D03*
X74850000Y-2610000D03*
X65250000Y5310000D03*
X65250000Y7850000D03*
X65200000Y26210000D03*
X65200000Y28750000D03*
X65150000Y49650000D03*
X65150000Y47110000D03*
X65150000Y-12900000D03*
X65150000Y-15440000D03*
X1400000Y42190000D03*
X1400000Y44730000D03*
D15*
X2700000Y21150000D03*
X63500000Y68500000D03*
X79300000Y-19950000D03*
X42500000Y7050000D03*
D13*
X1100000Y38200000D03*
D16*
X26000000Y30300000D03*
X28150000Y20800000D03*
D17*
X16400000Y8000000D03*
X11400000Y33500000D03*
X11400000Y32450000D03*
X11400000Y31400000D03*
X4600000Y43100000D03*
X5700000Y43100000D03*
X23500000Y44000000D03*
X34300000Y44000000D03*
X45100000Y44000000D03*
X44250000Y35650000D03*
X44250000Y31850000D03*
X44250000Y28050000D03*
X44250000Y24250000D03*
X44250000Y20450000D03*
X44250000Y16650000D03*
X44250000Y12850000D03*
X35600000Y8000000D03*
X26100000Y8000000D03*
X20100000Y2800000D03*
X6900000Y8000000D03*
X6900000Y17100000D03*
X10500000Y11900000D03*
X10500000Y2800000D03*
X29700000Y2800000D03*
X39200000Y2800000D03*
D16*
X67500000Y-18500000D03*
D17*
X35750000Y44000000D03*
X59500000Y55300000D03*
X59550000Y34300000D03*
X59650000Y-7350000D03*
X19500000Y35000000D03*
X10600000Y51600000D03*
X10500000Y57000000D03*
X11900000Y57000000D03*
X38600000Y44100000D03*
X27800000Y44100000D03*
X17000000Y44100000D03*
D16*
X40450000Y10650000D03*
X40450000Y14450000D03*
X47250000Y12950000D03*
X47250000Y16700000D03*
X47250000Y20500000D03*
X47300000Y24300000D03*
X47350000Y28100000D03*
X47350000Y31900000D03*
X40450000Y33450000D03*
X40450000Y29650000D03*
X40450000Y22050000D03*
X40450000Y25850000D03*
X40400000Y18200000D03*
D13*
X1100000Y25650000D03*
D16*
X47350000Y35700000D03*
X32100000Y33900000D03*
X32700000Y28750000D03*
D17*
X7150000Y24450000D03*
X8750000Y24200000D03*
X58050000Y13900000D03*
D16*
X51800000Y-20800000D03*
X28300000Y32700000D03*
D17*
X12400000Y65100000D03*
X3500000Y65100000D03*
D13*
X1100000Y30600000D03*
X1100000Y35700000D03*
D16*
X26800000Y29000000D03*
D13*
X1100000Y33200000D03*
D16*
X26800000Y24700000D03*
X13400000Y28850000D03*
D17*
X45800000Y11000000D03*
X52250000Y4700000D03*
X53950000Y18500000D03*
X51350000Y35500000D03*
X51349996Y22350000D03*
D16*
X53200000Y-20500000D03*
D17*
X39000000Y6350000D03*
X10300000Y6350000D03*
X19900000Y6350000D03*
X10174990Y15450000D03*
X29450000Y6350000D03*
D16*
X27900000Y23900000D03*
X26050000Y32650000D03*
D17*
X23600000Y40200000D03*
D18*
X57000000Y-5300000D02*
X57000000Y2200000D01*
X51500000Y-10800000D02*
X57000000Y-5300000D01*
X48200000Y-10800000D02*
X51500000Y-10800000D01*
X47430000Y-13520000D02*
X47430000Y-11570000D01*
X47430000Y-11570000D02*
X48200000Y-10800000D01*
X52250000Y4650000D02*
X52250000Y4700000D01*
X48530000Y-3110000D02*
X48530000Y930000D01*
X48530000Y930000D02*
X52250000Y4650000D01*
X45810000Y-16060000D02*
X47430000Y-16060000D01*
X44800000Y-15050000D02*
X45810000Y-16060000D01*
X55350000Y23000000D02*
X53650000Y24700000D01*
X53650000Y24700000D02*
X50700000Y24700000D01*
X49900000Y7875000D02*
X44800000Y2775000D01*
X57000000Y23000000D02*
X55350000Y23000000D01*
X44800000Y2775000D02*
X44800000Y-15050000D01*
X50700000Y24700000D02*
X49900000Y23900000D01*
X49900000Y23900000D02*
X49900000Y7875000D01*
X53950000Y17792894D02*
X53950000Y18500000D01*
X53950000Y8050000D02*
X53950000Y17792894D01*
X47029999Y1129999D02*
X53950000Y8050000D01*
X47029999Y-4929999D02*
X47029999Y1129999D01*
X48530000Y-5650000D02*
X47750000Y-5650000D01*
X47750000Y-5650000D02*
X47029999Y-4929999D01*
X51350000Y22349996D02*
X51349996Y22350000D01*
X51350000Y7350000D02*
X51350000Y22349996D01*
X46000000Y2000000D02*
X51350000Y7350000D01*
X48530000Y-8190000D02*
X46890000Y-8190000D01*
X46000000Y-7300000D02*
X46000000Y2000000D01*
X46890000Y-8190000D02*
X46000000Y-7300000D01*
X48800000Y30200000D02*
X57100000Y38500000D01*
X44700000Y-18600000D02*
X43600000Y-17500000D01*
X43600000Y3300000D02*
X48800000Y8500000D01*
X57100000Y38500000D02*
X57100000Y43900000D01*
X47430000Y-18600000D02*
X44700000Y-18600000D01*
X43600000Y-17500000D02*
X43600000Y3300000D01*
X48800000Y8500000D02*
X48800000Y30200000D01*
D19*
G36*
X16204782Y44341227D02*
G01*
X16173000Y44181452D01*
X16173000Y44018548D01*
X16204782Y43858773D01*
X16267123Y43708269D01*
X16357628Y43572819D01*
X16472819Y43457628D01*
X16608269Y43367123D01*
X16758773Y43304782D01*
X16918548Y43273000D01*
X17081452Y43273000D01*
X17241227Y43304782D01*
X17391731Y43367123D01*
X17527181Y43457628D01*
X17642372Y43572819D01*
X17732877Y43708269D01*
X17795218Y43858773D01*
X17827000Y44018548D01*
X17827000Y44181452D01*
X17795218Y44341227D01*
X17782057Y44373000D01*
X27017943Y44373000D01*
X27004782Y44341227D01*
X26973000Y44181452D01*
X26973000Y44018548D01*
X27004782Y43858773D01*
X27067123Y43708269D01*
X27157628Y43572819D01*
X27272819Y43457628D01*
X27408269Y43367123D01*
X27558773Y43304782D01*
X27718548Y43273000D01*
X27881452Y43273000D01*
X28041227Y43304782D01*
X28191731Y43367123D01*
X28327181Y43457628D01*
X28442372Y43572819D01*
X28532877Y43708269D01*
X28595218Y43858773D01*
X28627000Y44018548D01*
X28627000Y44181452D01*
X28595218Y44341227D01*
X28582057Y44373000D01*
X37817943Y44373000D01*
X37804782Y44341227D01*
X37773000Y44181452D01*
X37773000Y44018548D01*
X37804782Y43858773D01*
X37867123Y43708269D01*
X37957628Y43572819D01*
X38072819Y43457628D01*
X38208269Y43367123D01*
X38358773Y43304782D01*
X38518548Y43273000D01*
X38681452Y43273000D01*
X38841227Y43304782D01*
X38991731Y43367123D01*
X39127181Y43457628D01*
X39242372Y43572819D01*
X39332877Y43708269D01*
X39395218Y43858773D01*
X39427000Y44018548D01*
X39427000Y44181452D01*
X39395218Y44341227D01*
X39382057Y44373000D01*
X44191679Y44373000D01*
X44322136Y44355825D01*
X44435951Y44308681D01*
X44533686Y44233686D01*
X44608681Y44135951D01*
X44655825Y44022136D01*
X44673000Y43891679D01*
X44673000Y34827000D01*
X39450000Y34827000D01*
X39425224Y34824560D01*
X39401399Y34817333D01*
X39379443Y34805597D01*
X39360197Y34789803D01*
X39344403Y34770557D01*
X39332667Y34748601D01*
X39325440Y34724776D01*
X39323000Y34700000D01*
X39323000Y32700000D01*
X39325440Y32675224D01*
X39332667Y32651399D01*
X39344403Y32629443D01*
X39360197Y32610197D01*
X39379443Y32594403D01*
X39401399Y32582667D01*
X39425224Y32575440D01*
X39450000Y32573000D01*
X44673000Y32573000D01*
X44673000Y31027000D01*
X39450000Y31027000D01*
X39425224Y31024560D01*
X39401399Y31017333D01*
X39379443Y31005597D01*
X39360197Y30989803D01*
X39344403Y30970557D01*
X39332667Y30948601D01*
X39325440Y30924776D01*
X39323000Y30900000D01*
X39323000Y28900000D01*
X39325440Y28875224D01*
X39332667Y28851399D01*
X39344403Y28829443D01*
X39360197Y28810197D01*
X39379443Y28794403D01*
X39401399Y28782667D01*
X39425224Y28775440D01*
X39450000Y28773000D01*
X44673000Y28773000D01*
X44673000Y27227000D01*
X39450000Y27227000D01*
X39425224Y27224560D01*
X39401399Y27217333D01*
X39379443Y27205597D01*
X39360197Y27189803D01*
X39344403Y27170557D01*
X39332667Y27148601D01*
X39325440Y27124776D01*
X39323000Y27100000D01*
X39323000Y25100000D01*
X39325440Y25075224D01*
X39332667Y25051399D01*
X39344403Y25029443D01*
X39360197Y25010197D01*
X39379443Y24994403D01*
X39401399Y24982667D01*
X39425224Y24975440D01*
X39450000Y24973000D01*
X44673000Y24973000D01*
X44673000Y23427000D01*
X39450000Y23427000D01*
X39425224Y23424560D01*
X39401399Y23417333D01*
X39379443Y23405597D01*
X39360197Y23389803D01*
X39344403Y23370557D01*
X39332667Y23348601D01*
X39325440Y23324776D01*
X39323000Y23300000D01*
X39323000Y21300000D01*
X39325440Y21275224D01*
X39332667Y21251399D01*
X39344403Y21229443D01*
X39360197Y21210197D01*
X39379443Y21194403D01*
X39401399Y21182667D01*
X39425224Y21175440D01*
X39450000Y21173000D01*
X44673000Y21173000D01*
X44673000Y19627000D01*
X39450000Y19627000D01*
X39425224Y19624560D01*
X39401399Y19617333D01*
X39379443Y19605597D01*
X39360197Y19589803D01*
X39344403Y19570557D01*
X39332667Y19548601D01*
X39325440Y19524776D01*
X39323000Y19500000D01*
X39323000Y17500000D01*
X39325440Y17475224D01*
X39332667Y17451399D01*
X39344403Y17429443D01*
X39360197Y17410197D01*
X39379443Y17394403D01*
X39401399Y17382667D01*
X39425224Y17375440D01*
X39450000Y17373000D01*
X44673000Y17373000D01*
X44673000Y15477000D01*
X39450000Y15477000D01*
X39425224Y15474560D01*
X39401399Y15467333D01*
X39379443Y15455597D01*
X39360197Y15439803D01*
X39344403Y15420557D01*
X39332667Y15398601D01*
X39325440Y15374776D01*
X39323000Y15350000D01*
X39323000Y13700000D01*
X39325440Y13675224D01*
X39332667Y13651399D01*
X39344403Y13629443D01*
X39360197Y13610197D01*
X39379443Y13594403D01*
X39401399Y13582667D01*
X39425224Y13575440D01*
X39450000Y13573000D01*
X44673000Y13573000D01*
X44673000Y12808321D01*
X44655825Y12677864D01*
X44608681Y12564049D01*
X44533686Y12466314D01*
X44435951Y12391319D01*
X44322136Y12344175D01*
X44191679Y12327000D01*
X39400000Y12327000D01*
X39375224Y12324560D01*
X39351399Y12317333D01*
X39329443Y12305597D01*
X39310197Y12289803D01*
X39294403Y12270557D01*
X39282667Y12248601D01*
X39275440Y12224776D01*
X39273000Y12200000D01*
X39273000Y9700000D01*
X39275440Y9675224D01*
X39282667Y9651399D01*
X39294403Y9629443D01*
X39310197Y9610197D01*
X39329443Y9594403D01*
X39351399Y9582667D01*
X39375224Y9575440D01*
X39400000Y9573000D01*
X39823000Y9573000D01*
X39823000Y6451561D01*
X39795218Y6591227D01*
X39732877Y6741731D01*
X39642372Y6877181D01*
X39527181Y6992372D01*
X39391731Y7082877D01*
X39241227Y7145218D01*
X39081452Y7177000D01*
X38918548Y7177000D01*
X38758773Y7145218D01*
X38608269Y7082877D01*
X38472819Y6992372D01*
X38357628Y6877181D01*
X38267123Y6741731D01*
X38204782Y6591227D01*
X38173000Y6431452D01*
X38173000Y6268548D01*
X38204782Y6108773D01*
X38267123Y5958269D01*
X38357628Y5822819D01*
X38472819Y5707628D01*
X38608269Y5617123D01*
X38758773Y5554782D01*
X38918548Y5523000D01*
X39081452Y5523000D01*
X39241227Y5554782D01*
X39391731Y5617123D01*
X39527181Y5707628D01*
X39642372Y5822819D01*
X39732877Y5958269D01*
X39795218Y6108773D01*
X39823000Y6248439D01*
X39823000Y608321D01*
X39805825Y477864D01*
X39758681Y364049D01*
X39749435Y352000D01*
X34527000Y352000D01*
X34527000Y7867474D01*
X34524560Y7892250D01*
X34517333Y7916075D01*
X34505597Y7938031D01*
X34489803Y7957277D01*
X34470557Y7973071D01*
X34448601Y7984807D01*
X34424776Y7992034D01*
X34400000Y7994474D01*
X30900000Y7994474D01*
X30875224Y7992034D01*
X30851399Y7984807D01*
X30829443Y7973071D01*
X30810197Y7957277D01*
X30794403Y7938031D01*
X30782667Y7916075D01*
X30775440Y7892250D01*
X30773000Y7867474D01*
X30773000Y7315047D01*
X30760546Y7284980D01*
X30723000Y7096226D01*
X30723000Y6903774D01*
X30760546Y6715020D01*
X30773000Y6684953D01*
X30773000Y6067474D01*
X30775440Y6042698D01*
X30782667Y6018873D01*
X30794403Y5996917D01*
X30810197Y5977671D01*
X30829443Y5961877D01*
X30851399Y5950141D01*
X30875224Y5942914D01*
X30900000Y5940474D01*
X32073000Y5940474D01*
X32073000Y352000D01*
X25027000Y352000D01*
X25027000Y6431452D01*
X28623000Y6431452D01*
X28623000Y6268548D01*
X28654782Y6108773D01*
X28717123Y5958269D01*
X28807628Y5822819D01*
X28922819Y5707628D01*
X29058269Y5617123D01*
X29208773Y5554782D01*
X29368548Y5523000D01*
X29531452Y5523000D01*
X29691227Y5554782D01*
X29841731Y5617123D01*
X29977181Y5707628D01*
X30092372Y5822819D01*
X30182877Y5958269D01*
X30245218Y6108773D01*
X30277000Y6268548D01*
X30277000Y6431452D01*
X30245218Y6591227D01*
X30182877Y6741731D01*
X30092372Y6877181D01*
X29977181Y6992372D01*
X29841731Y7082877D01*
X29691227Y7145218D01*
X29531452Y7177000D01*
X29368548Y7177000D01*
X29208773Y7145218D01*
X29058269Y7082877D01*
X28922819Y6992372D01*
X28807628Y6877181D01*
X28717123Y6741731D01*
X28654782Y6591227D01*
X28623000Y6431452D01*
X25027000Y6431452D01*
X25027000Y7900000D01*
X25024560Y7924776D01*
X25017333Y7948601D01*
X25005597Y7970557D01*
X24989803Y7989803D01*
X24970557Y8005597D01*
X24948601Y8017333D01*
X24924776Y8024560D01*
X24900000Y8027000D01*
X21400000Y8027000D01*
X21375224Y8024560D01*
X21351399Y8017333D01*
X21329443Y8005597D01*
X21310197Y7989803D01*
X21294403Y7970557D01*
X21282667Y7948601D01*
X21275440Y7924776D01*
X21273000Y7900000D01*
X21273000Y7315047D01*
X21260546Y7284980D01*
X21223000Y7096226D01*
X21223000Y6903774D01*
X21260546Y6715020D01*
X21273000Y6684953D01*
X21273000Y6100000D01*
X21275440Y6075224D01*
X21282667Y6051399D01*
X21294403Y6029443D01*
X21310197Y6010197D01*
X21329443Y5994403D01*
X21351399Y5982667D01*
X21375224Y5975440D01*
X21400000Y5973000D01*
X22573000Y5973000D01*
X22573000Y352000D01*
X15427000Y352000D01*
X15427000Y6431452D01*
X19073000Y6431452D01*
X19073000Y6268548D01*
X19104782Y6108773D01*
X19167123Y5958269D01*
X19257628Y5822819D01*
X19372819Y5707628D01*
X19508269Y5617123D01*
X19658773Y5554782D01*
X19818548Y5523000D01*
X19981452Y5523000D01*
X20141227Y5554782D01*
X20291731Y5617123D01*
X20427181Y5707628D01*
X20542372Y5822819D01*
X20632877Y5958269D01*
X20695218Y6108773D01*
X20727000Y6268548D01*
X20727000Y6431452D01*
X20695218Y6591227D01*
X20632877Y6741731D01*
X20542372Y6877181D01*
X20427181Y6992372D01*
X20291731Y7082877D01*
X20141227Y7145218D01*
X19981452Y7177000D01*
X19818548Y7177000D01*
X19658773Y7145218D01*
X19508269Y7082877D01*
X19372819Y6992372D01*
X19257628Y6877181D01*
X19167123Y6741731D01*
X19104782Y6591227D01*
X19073000Y6431452D01*
X15427000Y6431452D01*
X15427000Y7900000D01*
X15424560Y7924776D01*
X15417333Y7948601D01*
X15405597Y7970557D01*
X15389803Y7989803D01*
X15370557Y8005597D01*
X15348601Y8017333D01*
X15324776Y8024560D01*
X15300000Y8027000D01*
X11800000Y8027000D01*
X11775224Y8024560D01*
X11751399Y8017333D01*
X11729443Y8005597D01*
X11710197Y7989803D01*
X11694403Y7970557D01*
X11682667Y7948601D01*
X11675440Y7924776D01*
X11673000Y7900000D01*
X11673000Y7315047D01*
X11660546Y7284980D01*
X11623000Y7096226D01*
X11623000Y6903774D01*
X11660546Y6715020D01*
X11673000Y6684953D01*
X11673000Y6100000D01*
X11675440Y6075224D01*
X11682667Y6051399D01*
X11694403Y6029443D01*
X11710197Y6010197D01*
X11729443Y5994403D01*
X11751399Y5982667D01*
X11775224Y5975440D01*
X11800000Y5973000D01*
X12973000Y5973000D01*
X12973000Y352000D01*
X5900565Y352000D01*
X5891319Y364049D01*
X5844175Y477864D01*
X5827000Y608321D01*
X5827000Y6431452D01*
X9473000Y6431452D01*
X9473000Y6268548D01*
X9504782Y6108773D01*
X9567123Y5958269D01*
X9657628Y5822819D01*
X9772819Y5707628D01*
X9908269Y5617123D01*
X10058773Y5554782D01*
X10218548Y5523000D01*
X10381452Y5523000D01*
X10541227Y5554782D01*
X10691731Y5617123D01*
X10827181Y5707628D01*
X10942372Y5822819D01*
X11032877Y5958269D01*
X11095218Y6108773D01*
X11127000Y6268548D01*
X11127000Y6431452D01*
X11095218Y6591227D01*
X11032877Y6741731D01*
X10942372Y6877181D01*
X10827181Y6992372D01*
X10691731Y7082877D01*
X10541227Y7145218D01*
X10381452Y7177000D01*
X10218548Y7177000D01*
X10058773Y7145218D01*
X9908269Y7082877D01*
X9772819Y6992372D01*
X9657628Y6877181D01*
X9567123Y6741731D01*
X9504782Y6591227D01*
X9473000Y6431452D01*
X5827000Y6431452D01*
X5827000Y15531452D01*
X9347990Y15531452D01*
X9347990Y15368548D01*
X9379772Y15208773D01*
X9442113Y15058269D01*
X9532618Y14922819D01*
X9647809Y14807628D01*
X9783259Y14717123D01*
X9933763Y14654782D01*
X10093538Y14623000D01*
X10256442Y14623000D01*
X10416217Y14654782D01*
X10566721Y14717123D01*
X10702171Y14807628D01*
X10817362Y14922819D01*
X10907867Y15058269D01*
X10970208Y15208773D01*
X11001990Y15368548D01*
X11001990Y15531452D01*
X10970208Y15691227D01*
X10907867Y15841731D01*
X10817362Y15977181D01*
X10702171Y16092372D01*
X10566721Y16182877D01*
X10416217Y16245218D01*
X10256442Y16277000D01*
X10093538Y16277000D01*
X9933763Y16245218D01*
X9783259Y16182877D01*
X9647809Y16092372D01*
X9532618Y15977181D01*
X9442113Y15841731D01*
X9379772Y15691227D01*
X9347990Y15531452D01*
X5827000Y15531452D01*
X5827000Y20691679D01*
X5844175Y20822136D01*
X5891319Y20935951D01*
X5966314Y21033686D01*
X6064049Y21108681D01*
X6177864Y21155825D01*
X6308321Y21173000D01*
X13200000Y21173000D01*
X13216577Y21174087D01*
X13371868Y21194532D01*
X13403891Y21203112D01*
X13548600Y21263052D01*
X13577313Y21279629D01*
X13701577Y21374980D01*
X13725020Y21398423D01*
X13820371Y21522687D01*
X13836948Y21551400D01*
X13896888Y21696109D01*
X13905468Y21728132D01*
X13925913Y21883423D01*
X13927000Y21900000D01*
X13927000Y24771603D01*
X26073000Y24771603D01*
X26073000Y24628397D01*
X26100938Y24487942D01*
X26155741Y24355636D01*
X26235302Y24236564D01*
X26336564Y24135302D01*
X26455636Y24055741D01*
X26587942Y24000938D01*
X26728397Y23973000D01*
X26871603Y23973000D01*
X27012058Y24000938D01*
X27144364Y24055741D01*
X27196691Y24090704D01*
X27173000Y23971603D01*
X27173000Y23828397D01*
X27200938Y23687942D01*
X27255741Y23555636D01*
X27335302Y23436564D01*
X27436564Y23335302D01*
X27555636Y23255741D01*
X27687942Y23200938D01*
X27828397Y23173000D01*
X27971603Y23173000D01*
X28112058Y23200938D01*
X28244364Y23255741D01*
X28363436Y23335302D01*
X28464698Y23436564D01*
X28544259Y23555636D01*
X28599062Y23687942D01*
X28627000Y23828397D01*
X28627000Y23971603D01*
X28599062Y24112058D01*
X28544259Y24244364D01*
X28464698Y24363436D01*
X28363436Y24464698D01*
X28244364Y24544259D01*
X28112058Y24599062D01*
X27971603Y24627000D01*
X27828397Y24627000D01*
X27687942Y24599062D01*
X27555636Y24544259D01*
X27503309Y24509296D01*
X27527000Y24628397D01*
X27527000Y24771603D01*
X27499062Y24912058D01*
X27444259Y25044364D01*
X27364698Y25163436D01*
X27263436Y25264698D01*
X27144364Y25344259D01*
X27012058Y25399062D01*
X26871603Y25427000D01*
X26728397Y25427000D01*
X26587942Y25399062D01*
X26455636Y25344259D01*
X26336564Y25264698D01*
X26235302Y25163436D01*
X26155741Y25044364D01*
X26100938Y24912058D01*
X26073000Y24771603D01*
X13927000Y24771603D01*
X13927000Y28348866D01*
X13964698Y28386564D01*
X14044259Y28505636D01*
X14099062Y28637942D01*
X14127000Y28778397D01*
X14127000Y28921603D01*
X14099062Y29062058D01*
X14095109Y29071603D01*
X26073000Y29071603D01*
X26073000Y28928397D01*
X26100938Y28787942D01*
X26155741Y28655636D01*
X26235302Y28536564D01*
X26336564Y28435302D01*
X26455636Y28355741D01*
X26587942Y28300938D01*
X26728397Y28273000D01*
X26871603Y28273000D01*
X27012058Y28300938D01*
X27144364Y28355741D01*
X27263436Y28435302D01*
X27364698Y28536564D01*
X27444259Y28655636D01*
X27499062Y28787942D01*
X27505757Y28821603D01*
X31973000Y28821603D01*
X31973000Y28678397D01*
X32000938Y28537942D01*
X32055741Y28405636D01*
X32135302Y28286564D01*
X32236564Y28185302D01*
X32355636Y28105741D01*
X32487942Y28050938D01*
X32628397Y28023000D01*
X32771603Y28023000D01*
X32912058Y28050938D01*
X33044364Y28105741D01*
X33163436Y28185302D01*
X33264698Y28286564D01*
X33344259Y28405636D01*
X33399062Y28537942D01*
X33427000Y28678397D01*
X33427000Y28821603D01*
X33399062Y28962058D01*
X33344259Y29094364D01*
X33264698Y29213436D01*
X33163436Y29314698D01*
X33044364Y29394259D01*
X32912058Y29449062D01*
X32771603Y29477000D01*
X32628397Y29477000D01*
X32487942Y29449062D01*
X32355636Y29394259D01*
X32236564Y29314698D01*
X32135302Y29213436D01*
X32055741Y29094364D01*
X32000938Y28962058D01*
X31973000Y28821603D01*
X27505757Y28821603D01*
X27527000Y28928397D01*
X27527000Y29071603D01*
X27499062Y29212058D01*
X27444259Y29344364D01*
X27364698Y29463436D01*
X27263436Y29564698D01*
X27144364Y29644259D01*
X27012058Y29699062D01*
X26871603Y29727000D01*
X26728397Y29727000D01*
X26587942Y29699062D01*
X26455636Y29644259D01*
X26336564Y29564698D01*
X26235302Y29463436D01*
X26155741Y29344364D01*
X26100938Y29212058D01*
X26073000Y29071603D01*
X14095109Y29071603D01*
X14044259Y29194364D01*
X13964698Y29313436D01*
X13927000Y29351134D01*
X13927000Y30300000D01*
X13925913Y30316577D01*
X13918669Y30371603D01*
X25273000Y30371603D01*
X25273000Y30228397D01*
X25300938Y30087942D01*
X25355741Y29955636D01*
X25435302Y29836564D01*
X25536564Y29735302D01*
X25655636Y29655741D01*
X25787942Y29600938D01*
X25928397Y29573000D01*
X26071603Y29573000D01*
X26212058Y29600938D01*
X26344364Y29655741D01*
X26463436Y29735302D01*
X26564698Y29836564D01*
X26644259Y29955636D01*
X26699062Y30087942D01*
X26727000Y30228397D01*
X26727000Y30371603D01*
X26699062Y30512058D01*
X26644259Y30644364D01*
X26564698Y30763436D01*
X26463436Y30864698D01*
X26344364Y30944259D01*
X26212058Y30999062D01*
X26071603Y31027000D01*
X25928397Y31027000D01*
X25787942Y30999062D01*
X25655636Y30944259D01*
X25536564Y30864698D01*
X25435302Y30763436D01*
X25355741Y30644364D01*
X25300938Y30512058D01*
X25273000Y30371603D01*
X13918669Y30371603D01*
X13905468Y30471868D01*
X13896888Y30503891D01*
X13836948Y30648600D01*
X13820371Y30677313D01*
X13725020Y30801577D01*
X13701577Y30825020D01*
X13577313Y30920371D01*
X13548600Y30936948D01*
X13403891Y30996888D01*
X13371868Y31005468D01*
X13216577Y31025913D01*
X13200000Y31027000D01*
X4708321Y31027000D01*
X4577864Y31044175D01*
X4464049Y31091319D01*
X4366314Y31166314D01*
X4291319Y31264049D01*
X4244175Y31377864D01*
X4227000Y31508321D01*
X4227000Y32721603D01*
X25323000Y32721603D01*
X25323000Y32578397D01*
X25350938Y32437942D01*
X25405741Y32305636D01*
X25485302Y32186564D01*
X25586564Y32085302D01*
X25705636Y32005741D01*
X25837942Y31950938D01*
X25978397Y31923000D01*
X26121603Y31923000D01*
X26262058Y31950938D01*
X26394364Y32005741D01*
X26513436Y32085302D01*
X26614698Y32186564D01*
X26694259Y32305636D01*
X26749062Y32437942D01*
X26777000Y32578397D01*
X26777000Y32721603D01*
X26767055Y32771603D01*
X27573000Y32771603D01*
X27573000Y32628397D01*
X27600938Y32487942D01*
X27655741Y32355636D01*
X27735302Y32236564D01*
X27836564Y32135302D01*
X27955636Y32055741D01*
X28087942Y32000938D01*
X28228397Y31973000D01*
X28371603Y31973000D01*
X28512058Y32000938D01*
X28644364Y32055741D01*
X28763436Y32135302D01*
X28864698Y32236564D01*
X28944259Y32355636D01*
X28999062Y32487942D01*
X29027000Y32628397D01*
X29027000Y32771603D01*
X28999062Y32912058D01*
X28944259Y33044364D01*
X28864698Y33163436D01*
X28763436Y33264698D01*
X28644364Y33344259D01*
X28512058Y33399062D01*
X28371603Y33427000D01*
X28228397Y33427000D01*
X28087942Y33399062D01*
X27955636Y33344259D01*
X27836564Y33264698D01*
X27735302Y33163436D01*
X27655741Y33044364D01*
X27600938Y32912058D01*
X27573000Y32771603D01*
X26767055Y32771603D01*
X26749062Y32862058D01*
X26694259Y32994364D01*
X26614698Y33113436D01*
X26513436Y33214698D01*
X26394364Y33294259D01*
X26262058Y33349062D01*
X26121603Y33377000D01*
X25978397Y33377000D01*
X25837942Y33349062D01*
X25705636Y33294259D01*
X25586564Y33214698D01*
X25485302Y33113436D01*
X25405741Y32994364D01*
X25350938Y32862058D01*
X25323000Y32721603D01*
X4227000Y32721603D01*
X4227000Y33971603D01*
X31373000Y33971603D01*
X31373000Y33828397D01*
X31400938Y33687942D01*
X31455741Y33555636D01*
X31535302Y33436564D01*
X31636564Y33335302D01*
X31755636Y33255741D01*
X31887942Y33200938D01*
X32028397Y33173000D01*
X32171603Y33173000D01*
X32312058Y33200938D01*
X32444364Y33255741D01*
X32563436Y33335302D01*
X32664698Y33436564D01*
X32744259Y33555636D01*
X32799062Y33687942D01*
X32827000Y33828397D01*
X32827000Y33971603D01*
X32799062Y34112058D01*
X32744259Y34244364D01*
X32664698Y34363436D01*
X32563436Y34464698D01*
X32444364Y34544259D01*
X32312058Y34599062D01*
X32171603Y34627000D01*
X32028397Y34627000D01*
X31887942Y34599062D01*
X31755636Y34544259D01*
X31636564Y34464698D01*
X31535302Y34363436D01*
X31455741Y34244364D01*
X31400938Y34112058D01*
X31373000Y33971603D01*
X4227000Y33971603D01*
X4227000Y35081452D01*
X18673000Y35081452D01*
X18673000Y34918548D01*
X18704782Y34758773D01*
X18767123Y34608269D01*
X18857628Y34472819D01*
X18972819Y34357628D01*
X19108269Y34267123D01*
X19258773Y34204782D01*
X19418548Y34173000D01*
X19581452Y34173000D01*
X19741227Y34204782D01*
X19891731Y34267123D01*
X20027181Y34357628D01*
X20142372Y34472819D01*
X20232877Y34608269D01*
X20295218Y34758773D01*
X20327000Y34918548D01*
X20327000Y35081452D01*
X20295218Y35241227D01*
X20232877Y35391731D01*
X20142372Y35527181D01*
X20027181Y35642372D01*
X19891731Y35732877D01*
X19741227Y35795218D01*
X19581452Y35827000D01*
X19418548Y35827000D01*
X19258773Y35795218D01*
X19108269Y35732877D01*
X18972819Y35642372D01*
X18857628Y35527181D01*
X18767123Y35391731D01*
X18704782Y35241227D01*
X18673000Y35081452D01*
X4227000Y35081452D01*
X4227000Y40281452D01*
X22773000Y40281452D01*
X22773000Y40118548D01*
X22804782Y39958773D01*
X22867123Y39808269D01*
X22957628Y39672819D01*
X23072819Y39557628D01*
X23208269Y39467123D01*
X23358773Y39404782D01*
X23518548Y39373000D01*
X23681452Y39373000D01*
X23841227Y39404782D01*
X23991731Y39467123D01*
X24127181Y39557628D01*
X24242372Y39672819D01*
X24332877Y39808269D01*
X24395218Y39958773D01*
X24427000Y40118548D01*
X24427000Y40281452D01*
X24395218Y40441227D01*
X24332877Y40591731D01*
X24242372Y40727181D01*
X24127181Y40842372D01*
X23991731Y40932877D01*
X23841227Y40995218D01*
X23681452Y41027000D01*
X23518548Y41027000D01*
X23358773Y40995218D01*
X23208269Y40932877D01*
X23072819Y40842372D01*
X22957628Y40727181D01*
X22867123Y40591731D01*
X22804782Y40441227D01*
X22773000Y40281452D01*
X4227000Y40281452D01*
X4227000Y43891679D01*
X4244175Y44022136D01*
X4291319Y44135951D01*
X4366314Y44233686D01*
X4464049Y44308681D01*
X4577864Y44355825D01*
X4708321Y44373000D01*
X16217943Y44373000D01*
X16204782Y44341227D01*
G37*
X16204782Y44341227D02*
X16173000Y44181452D01*
X16173000Y44018548D01*
X16204782Y43858773D01*
X16267123Y43708269D01*
X16357628Y43572819D01*
X16472819Y43457628D01*
X16608269Y43367123D01*
X16758773Y43304782D01*
X16918548Y43273000D01*
X17081452Y43273000D01*
X17241227Y43304782D01*
X17391731Y43367123D01*
X17527181Y43457628D01*
X17642372Y43572819D01*
X17732877Y43708269D01*
X17795218Y43858773D01*
X17827000Y44018548D01*
X17827000Y44181452D01*
X17795218Y44341227D01*
X17782057Y44373000D01*
X27017943Y44373000D01*
X27004782Y44341227D01*
X26973000Y44181452D01*
X26973000Y44018548D01*
X27004782Y43858773D01*
X27067123Y43708269D01*
X27157628Y43572819D01*
X27272819Y43457628D01*
X27408269Y43367123D01*
X27558773Y43304782D01*
X27718548Y43273000D01*
X27881452Y43273000D01*
X28041227Y43304782D01*
X28191731Y43367123D01*
X28327181Y43457628D01*
X28442372Y43572819D01*
X28532877Y43708269D01*
X28595218Y43858773D01*
X28627000Y44018548D01*
X28627000Y44181452D01*
X28595218Y44341227D01*
X28582057Y44373000D01*
X37817943Y44373000D01*
X37804782Y44341227D01*
X37773000Y44181452D01*
X37773000Y44018548D01*
X37804782Y43858773D01*
X37867123Y43708269D01*
X37957628Y43572819D01*
X38072819Y43457628D01*
X38208269Y43367123D01*
X38358773Y43304782D01*
X38518548Y43273000D01*
X38681452Y43273000D01*
X38841227Y43304782D01*
X38991731Y43367123D01*
X39127181Y43457628D01*
X39242372Y43572819D01*
X39332877Y43708269D01*
X39395218Y43858773D01*
X39427000Y44018548D01*
X39427000Y44181452D01*
X39395218Y44341227D01*
X39382057Y44373000D01*
X44191679Y44373000D01*
X44322136Y44355825D01*
X44435951Y44308681D01*
X44533686Y44233686D01*
X44608681Y44135951D01*
X44655825Y44022136D01*
X44673000Y43891679D01*
X44673000Y34827000D01*
X39450000Y34827000D01*
X39425224Y34824560D01*
X39401399Y34817333D01*
X39379443Y34805597D01*
X39360197Y34789803D01*
X39344403Y34770557D01*
X39332667Y34748601D01*
X39325440Y34724776D01*
X39323000Y34700000D01*
X39323000Y32700000D01*
X39325440Y32675224D01*
X39332667Y32651399D01*
X39344403Y32629443D01*
X39360197Y32610197D01*
X39379443Y32594403D01*
X39401399Y32582667D01*
X39425224Y32575440D01*
X39450000Y32573000D01*
X44673000Y32573000D01*
X44673000Y31027000D01*
X39450000Y31027000D01*
X39425224Y31024560D01*
X39401399Y31017333D01*
X39379443Y31005597D01*
X39360197Y30989803D01*
X39344403Y30970557D01*
X39332667Y30948601D01*
X39325440Y30924776D01*
X39323000Y30900000D01*
X39323000Y28900000D01*
X39325440Y28875224D01*
X39332667Y28851399D01*
X39344403Y28829443D01*
X39360197Y28810197D01*
X39379443Y28794403D01*
X39401399Y28782667D01*
X39425224Y28775440D01*
X39450000Y28773000D01*
X44673000Y28773000D01*
X44673000Y27227000D01*
X39450000Y27227000D01*
X39425224Y27224560D01*
X39401399Y27217333D01*
X39379443Y27205597D01*
X39360197Y27189803D01*
X39344403Y27170557D01*
X39332667Y27148601D01*
X39325440Y27124776D01*
X39323000Y27100000D01*
X39323000Y25100000D01*
X39325440Y25075224D01*
X39332667Y25051399D01*
X39344403Y25029443D01*
X39360197Y25010197D01*
X39379443Y24994403D01*
X39401399Y24982667D01*
X39425224Y24975440D01*
X39450000Y24973000D01*
X44673000Y24973000D01*
X44673000Y23427000D01*
X39450000Y23427000D01*
X39425224Y23424560D01*
X39401399Y23417333D01*
X39379443Y23405597D01*
X39360197Y23389803D01*
X39344403Y23370557D01*
X39332667Y23348601D01*
X39325440Y23324776D01*
X39323000Y23300000D01*
X39323000Y21300000D01*
X39325440Y21275224D01*
X39332667Y21251399D01*
X39344403Y21229443D01*
X39360197Y21210197D01*
X39379443Y21194403D01*
X39401399Y21182667D01*
X39425224Y21175440D01*
X39450000Y21173000D01*
X44673000Y21173000D01*
X44673000Y19627000D01*
X39450000Y19627000D01*
X39425224Y19624560D01*
X39401399Y19617333D01*
X39379443Y19605597D01*
X39360197Y19589803D01*
X39344403Y19570557D01*
X39332667Y19548601D01*
X39325440Y19524776D01*
X39323000Y19500000D01*
X39323000Y17500000D01*
X39325440Y17475224D01*
X39332667Y17451399D01*
X39344403Y17429443D01*
X39360197Y17410197D01*
X39379443Y17394403D01*
X39401399Y17382667D01*
X39425224Y17375440D01*
X39450000Y17373000D01*
X44673000Y17373000D01*
X44673000Y15477000D01*
X39450000Y15477000D01*
X39425224Y15474560D01*
X39401399Y15467333D01*
X39379443Y15455597D01*
X39360197Y15439803D01*
X39344403Y15420557D01*
X39332667Y15398601D01*
X39325440Y15374776D01*
X39323000Y15350000D01*
X39323000Y13700000D01*
X39325440Y13675224D01*
X39332667Y13651399D01*
X39344403Y13629443D01*
X39360197Y13610197D01*
X39379443Y13594403D01*
X39401399Y13582667D01*
X39425224Y13575440D01*
X39450000Y13573000D01*
X44673000Y13573000D01*
X44673000Y12808321D01*
X44655825Y12677864D01*
X44608681Y12564049D01*
X44533686Y12466314D01*
X44435951Y12391319D01*
X44322136Y12344175D01*
X44191679Y12327000D01*
X39400000Y12327000D01*
X39375224Y12324560D01*
X39351399Y12317333D01*
X39329443Y12305597D01*
X39310197Y12289803D01*
X39294403Y12270557D01*
X39282667Y12248601D01*
X39275440Y12224776D01*
X39273000Y12200000D01*
X39273000Y9700000D01*
X39275440Y9675224D01*
X39282667Y9651399D01*
X39294403Y9629443D01*
X39310197Y9610197D01*
X39329443Y9594403D01*
X39351399Y9582667D01*
X39375224Y9575440D01*
X39400000Y9573000D01*
X39823000Y9573000D01*
X39823000Y6451561D01*
X39795218Y6591227D01*
X39732877Y6741731D01*
X39642372Y6877181D01*
X39527181Y6992372D01*
X39391731Y7082877D01*
X39241227Y7145218D01*
X39081452Y7177000D01*
X38918548Y7177000D01*
X38758773Y7145218D01*
X38608269Y7082877D01*
X38472819Y6992372D01*
X38357628Y6877181D01*
X38267123Y6741731D01*
X38204782Y6591227D01*
X38173000Y6431452D01*
X38173000Y6268548D01*
X38204782Y6108773D01*
X38267123Y5958269D01*
X38357628Y5822819D01*
X38472819Y5707628D01*
X38608269Y5617123D01*
X38758773Y5554782D01*
X38918548Y5523000D01*
X39081452Y5523000D01*
X39241227Y5554782D01*
X39391731Y5617123D01*
X39527181Y5707628D01*
X39642372Y5822819D01*
X39732877Y5958269D01*
X39795218Y6108773D01*
X39823000Y6248439D01*
X39823000Y608321D01*
X39805825Y477864D01*
X39758681Y364049D01*
X39749435Y352000D01*
X34527000Y352000D01*
X34527000Y7867474D01*
X34524560Y7892250D01*
X34517333Y7916075D01*
X34505597Y7938031D01*
X34489803Y7957277D01*
X34470557Y7973071D01*
X34448601Y7984807D01*
X34424776Y7992034D01*
X34400000Y7994474D01*
X30900000Y7994474D01*
X30875224Y7992034D01*
X30851399Y7984807D01*
X30829443Y7973071D01*
X30810197Y7957277D01*
X30794403Y7938031D01*
X30782667Y7916075D01*
X30775440Y7892250D01*
X30773000Y7867474D01*
X30773000Y7315047D01*
X30760546Y7284980D01*
X30723000Y7096226D01*
X30723000Y6903774D01*
X30760546Y6715020D01*
X30773000Y6684953D01*
X30773000Y6067474D01*
X30775440Y6042698D01*
X30782667Y6018873D01*
X30794403Y5996917D01*
X30810197Y5977671D01*
X30829443Y5961877D01*
X30851399Y5950141D01*
X30875224Y5942914D01*
X30900000Y5940474D01*
X32073000Y5940474D01*
X32073000Y352000D01*
X25027000Y352000D01*
X25027000Y6431452D01*
X28623000Y6431452D01*
X28623000Y6268548D01*
X28654782Y6108773D01*
X28717123Y5958269D01*
X28807628Y5822819D01*
X28922819Y5707628D01*
X29058269Y5617123D01*
X29208773Y5554782D01*
X29368548Y5523000D01*
X29531452Y5523000D01*
X29691227Y5554782D01*
X29841731Y5617123D01*
X29977181Y5707628D01*
X30092372Y5822819D01*
X30182877Y5958269D01*
X30245218Y6108773D01*
X30277000Y6268548D01*
X30277000Y6431452D01*
X30245218Y6591227D01*
X30182877Y6741731D01*
X30092372Y6877181D01*
X29977181Y6992372D01*
X29841731Y7082877D01*
X29691227Y7145218D01*
X29531452Y7177000D01*
X29368548Y7177000D01*
X29208773Y7145218D01*
X29058269Y7082877D01*
X28922819Y6992372D01*
X28807628Y6877181D01*
X28717123Y6741731D01*
X28654782Y6591227D01*
X28623000Y6431452D01*
X25027000Y6431452D01*
X25027000Y7900000D01*
X25024560Y7924776D01*
X25017333Y7948601D01*
X25005597Y7970557D01*
X24989803Y7989803D01*
X24970557Y8005597D01*
X24948601Y8017333D01*
X24924776Y8024560D01*
X24900000Y8027000D01*
X21400000Y8027000D01*
X21375224Y8024560D01*
X21351399Y8017333D01*
X21329443Y8005597D01*
X21310197Y7989803D01*
X21294403Y7970557D01*
X21282667Y7948601D01*
X21275440Y7924776D01*
X21273000Y7900000D01*
X21273000Y7315047D01*
X21260546Y7284980D01*
X21223000Y7096226D01*
X21223000Y6903774D01*
X21260546Y6715020D01*
X21273000Y6684953D01*
X21273000Y6100000D01*
X21275440Y6075224D01*
X21282667Y6051399D01*
X21294403Y6029443D01*
X21310197Y6010197D01*
X21329443Y5994403D01*
X21351399Y5982667D01*
X21375224Y5975440D01*
X21400000Y5973000D01*
X22573000Y5973000D01*
X22573000Y352000D01*
X15427000Y352000D01*
X15427000Y6431452D01*
X19073000Y6431452D01*
X19073000Y6268548D01*
X19104782Y6108773D01*
X19167123Y5958269D01*
X19257628Y5822819D01*
X19372819Y5707628D01*
X19508269Y5617123D01*
X19658773Y5554782D01*
X19818548Y5523000D01*
X19981452Y5523000D01*
X20141227Y5554782D01*
X20291731Y5617123D01*
X20427181Y5707628D01*
X20542372Y5822819D01*
X20632877Y5958269D01*
X20695218Y6108773D01*
X20727000Y6268548D01*
X20727000Y6431452D01*
X20695218Y6591227D01*
X20632877Y6741731D01*
X20542372Y6877181D01*
X20427181Y6992372D01*
X20291731Y7082877D01*
X20141227Y7145218D01*
X19981452Y7177000D01*
X19818548Y7177000D01*
X19658773Y7145218D01*
X19508269Y7082877D01*
X19372819Y6992372D01*
X19257628Y6877181D01*
X19167123Y6741731D01*
X19104782Y6591227D01*
X19073000Y6431452D01*
X15427000Y6431452D01*
X15427000Y7900000D01*
X15424560Y7924776D01*
X15417333Y7948601D01*
X15405597Y7970557D01*
X15389803Y7989803D01*
X15370557Y8005597D01*
X15348601Y8017333D01*
X15324776Y8024560D01*
X15300000Y8027000D01*
X11800000Y8027000D01*
X11775224Y8024560D01*
X11751399Y8017333D01*
X11729443Y8005597D01*
X11710197Y7989803D01*
X11694403Y7970557D01*
X11682667Y7948601D01*
X11675440Y7924776D01*
X11673000Y7900000D01*
X11673000Y7315047D01*
X11660546Y7284980D01*
X11623000Y7096226D01*
X11623000Y6903774D01*
X11660546Y6715020D01*
X11673000Y6684953D01*
X11673000Y6100000D01*
X11675440Y6075224D01*
X11682667Y6051399D01*
X11694403Y6029443D01*
X11710197Y6010197D01*
X11729443Y5994403D01*
X11751399Y5982667D01*
X11775224Y5975440D01*
X11800000Y5973000D01*
X12973000Y5973000D01*
X12973000Y352000D01*
X5900565Y352000D01*
X5891319Y364049D01*
X5844175Y477864D01*
X5827000Y608321D01*
X5827000Y6431452D01*
X9473000Y6431452D01*
X9473000Y6268548D01*
X9504782Y6108773D01*
X9567123Y5958269D01*
X9657628Y5822819D01*
X9772819Y5707628D01*
X9908269Y5617123D01*
X10058773Y5554782D01*
X10218548Y5523000D01*
X10381452Y5523000D01*
X10541227Y5554782D01*
X10691731Y5617123D01*
X10827181Y5707628D01*
X10942372Y5822819D01*
X11032877Y5958269D01*
X11095218Y6108773D01*
X11127000Y6268548D01*
X11127000Y6431452D01*
X11095218Y6591227D01*
X11032877Y6741731D01*
X10942372Y6877181D01*
X10827181Y6992372D01*
X10691731Y7082877D01*
X10541227Y7145218D01*
X10381452Y7177000D01*
X10218548Y7177000D01*
X10058773Y7145218D01*
X9908269Y7082877D01*
X9772819Y6992372D01*
X9657628Y6877181D01*
X9567123Y6741731D01*
X9504782Y6591227D01*
X9473000Y6431452D01*
X5827000Y6431452D01*
X5827000Y15531452D01*
X9347990Y15531452D01*
X9347990Y15368548D01*
X9379772Y15208773D01*
X9442113Y15058269D01*
X9532618Y14922819D01*
X9647809Y14807628D01*
X9783259Y14717123D01*
X9933763Y14654782D01*
X10093538Y14623000D01*
X10256442Y14623000D01*
X10416217Y14654782D01*
X10566721Y14717123D01*
X10702171Y14807628D01*
X10817362Y14922819D01*
X10907867Y15058269D01*
X10970208Y15208773D01*
X11001990Y15368548D01*
X11001990Y15531452D01*
X10970208Y15691227D01*
X10907867Y15841731D01*
X10817362Y15977181D01*
X10702171Y16092372D01*
X10566721Y16182877D01*
X10416217Y16245218D01*
X10256442Y16277000D01*
X10093538Y16277000D01*
X9933763Y16245218D01*
X9783259Y16182877D01*
X9647809Y16092372D01*
X9532618Y15977181D01*
X9442113Y15841731D01*
X9379772Y15691227D01*
X9347990Y15531452D01*
X5827000Y15531452D01*
X5827000Y20691679D01*
X5844175Y20822136D01*
X5891319Y20935951D01*
X5966314Y21033686D01*
X6064049Y21108681D01*
X6177864Y21155825D01*
X6308321Y21173000D01*
X13200000Y21173000D01*
X13216577Y21174087D01*
X13371868Y21194532D01*
X13403891Y21203112D01*
X13548600Y21263052D01*
X13577313Y21279629D01*
X13701577Y21374980D01*
X13725020Y21398423D01*
X13820371Y21522687D01*
X13836948Y21551400D01*
X13896888Y21696109D01*
X13905468Y21728132D01*
X13925913Y21883423D01*
X13927000Y21900000D01*
X13927000Y24771603D01*
X26073000Y24771603D01*
X26073000Y24628397D01*
X26100938Y24487942D01*
X26155741Y24355636D01*
X26235302Y24236564D01*
X26336564Y24135302D01*
X26455636Y24055741D01*
X26587942Y24000938D01*
X26728397Y23973000D01*
X26871603Y23973000D01*
X27012058Y24000938D01*
X27144364Y24055741D01*
X27196691Y24090704D01*
X27173000Y23971603D01*
X27173000Y23828397D01*
X27200938Y23687942D01*
X27255741Y23555636D01*
X27335302Y23436564D01*
X27436564Y23335302D01*
X27555636Y23255741D01*
X27687942Y23200938D01*
X27828397Y23173000D01*
X27971603Y23173000D01*
X28112058Y23200938D01*
X28244364Y23255741D01*
X28363436Y23335302D01*
X28464698Y23436564D01*
X28544259Y23555636D01*
X28599062Y23687942D01*
X28627000Y23828397D01*
X28627000Y23971603D01*
X28599062Y24112058D01*
X28544259Y24244364D01*
X28464698Y24363436D01*
X28363436Y24464698D01*
X28244364Y24544259D01*
X28112058Y24599062D01*
X27971603Y24627000D01*
X27828397Y24627000D01*
X27687942Y24599062D01*
X27555636Y24544259D01*
X27503309Y24509296D01*
X27527000Y24628397D01*
X27527000Y24771603D01*
X27499062Y24912058D01*
X27444259Y25044364D01*
X27364698Y25163436D01*
X27263436Y25264698D01*
X27144364Y25344259D01*
X27012058Y25399062D01*
X26871603Y25427000D01*
X26728397Y25427000D01*
X26587942Y25399062D01*
X26455636Y25344259D01*
X26336564Y25264698D01*
X26235302Y25163436D01*
X26155741Y25044364D01*
X26100938Y24912058D01*
X26073000Y24771603D01*
X13927000Y24771603D01*
X13927000Y28348866D01*
X13964698Y28386564D01*
X14044259Y28505636D01*
X14099062Y28637942D01*
X14127000Y28778397D01*
X14127000Y28921603D01*
X14099062Y29062058D01*
X14095109Y29071603D01*
X26073000Y29071603D01*
X26073000Y28928397D01*
X26100938Y28787942D01*
X26155741Y28655636D01*
X26235302Y28536564D01*
X26336564Y28435302D01*
X26455636Y28355741D01*
X26587942Y28300938D01*
X26728397Y28273000D01*
X26871603Y28273000D01*
X27012058Y28300938D01*
X27144364Y28355741D01*
X27263436Y28435302D01*
X27364698Y28536564D01*
X27444259Y28655636D01*
X27499062Y28787942D01*
X27505757Y28821603D01*
X31973000Y28821603D01*
X31973000Y28678397D01*
X32000938Y28537942D01*
X32055741Y28405636D01*
X32135302Y28286564D01*
X32236564Y28185302D01*
X32355636Y28105741D01*
X32487942Y28050938D01*
X32628397Y28023000D01*
X32771603Y28023000D01*
X32912058Y28050938D01*
X33044364Y28105741D01*
X33163436Y28185302D01*
X33264698Y28286564D01*
X33344259Y28405636D01*
X33399062Y28537942D01*
X33427000Y28678397D01*
X33427000Y28821603D01*
X33399062Y28962058D01*
X33344259Y29094364D01*
X33264698Y29213436D01*
X33163436Y29314698D01*
X33044364Y29394259D01*
X32912058Y29449062D01*
X32771603Y29477000D01*
X32628397Y29477000D01*
X32487942Y29449062D01*
X32355636Y29394259D01*
X32236564Y29314698D01*
X32135302Y29213436D01*
X32055741Y29094364D01*
X32000938Y28962058D01*
X31973000Y28821603D01*
X27505757Y28821603D01*
X27527000Y28928397D01*
X27527000Y29071603D01*
X27499062Y29212058D01*
X27444259Y29344364D01*
X27364698Y29463436D01*
X27263436Y29564698D01*
X27144364Y29644259D01*
X27012058Y29699062D01*
X26871603Y29727000D01*
X26728397Y29727000D01*
X26587942Y29699062D01*
X26455636Y29644259D01*
X26336564Y29564698D01*
X26235302Y29463436D01*
X26155741Y29344364D01*
X26100938Y29212058D01*
X26073000Y29071603D01*
X14095109Y29071603D01*
X14044259Y29194364D01*
X13964698Y29313436D01*
X13927000Y29351134D01*
X13927000Y30300000D01*
X13925913Y30316577D01*
X13918669Y30371603D01*
X25273000Y30371603D01*
X25273000Y30228397D01*
X25300938Y30087942D01*
X25355741Y29955636D01*
X25435302Y29836564D01*
X25536564Y29735302D01*
X25655636Y29655741D01*
X25787942Y29600938D01*
X25928397Y29573000D01*
X26071603Y29573000D01*
X26212058Y29600938D01*
X26344364Y29655741D01*
X26463436Y29735302D01*
X26564698Y29836564D01*
X26644259Y29955636D01*
X26699062Y30087942D01*
X26727000Y30228397D01*
X26727000Y30371603D01*
X26699062Y30512058D01*
X26644259Y30644364D01*
X26564698Y30763436D01*
X26463436Y30864698D01*
X26344364Y30944259D01*
X26212058Y30999062D01*
X26071603Y31027000D01*
X25928397Y31027000D01*
X25787942Y30999062D01*
X25655636Y30944259D01*
X25536564Y30864698D01*
X25435302Y30763436D01*
X25355741Y30644364D01*
X25300938Y30512058D01*
X25273000Y30371603D01*
X13918669Y30371603D01*
X13905468Y30471868D01*
X13896888Y30503891D01*
X13836948Y30648600D01*
X13820371Y30677313D01*
X13725020Y30801577D01*
X13701577Y30825020D01*
X13577313Y30920371D01*
X13548600Y30936948D01*
X13403891Y30996888D01*
X13371868Y31005468D01*
X13216577Y31025913D01*
X13200000Y31027000D01*
X4708321Y31027000D01*
X4577864Y31044175D01*
X4464049Y31091319D01*
X4366314Y31166314D01*
X4291319Y31264049D01*
X4244175Y31377864D01*
X4227000Y31508321D01*
X4227000Y32721603D01*
X25323000Y32721603D01*
X25323000Y32578397D01*
X25350938Y32437942D01*
X25405741Y32305636D01*
X25485302Y32186564D01*
X25586564Y32085302D01*
X25705636Y32005741D01*
X25837942Y31950938D01*
X25978397Y31923000D01*
X26121603Y31923000D01*
X26262058Y31950938D01*
X26394364Y32005741D01*
X26513436Y32085302D01*
X26614698Y32186564D01*
X26694259Y32305636D01*
X26749062Y32437942D01*
X26777000Y32578397D01*
X26777000Y32721603D01*
X26767055Y32771603D01*
X27573000Y32771603D01*
X27573000Y32628397D01*
X27600938Y32487942D01*
X27655741Y32355636D01*
X27735302Y32236564D01*
X27836564Y32135302D01*
X27955636Y32055741D01*
X28087942Y32000938D01*
X28228397Y31973000D01*
X28371603Y31973000D01*
X28512058Y32000938D01*
X28644364Y32055741D01*
X28763436Y32135302D01*
X28864698Y32236564D01*
X28944259Y32355636D01*
X28999062Y32487942D01*
X29027000Y32628397D01*
X29027000Y32771603D01*
X28999062Y32912058D01*
X28944259Y33044364D01*
X28864698Y33163436D01*
X28763436Y33264698D01*
X28644364Y33344259D01*
X28512058Y33399062D01*
X28371603Y33427000D01*
X28228397Y33427000D01*
X28087942Y33399062D01*
X27955636Y33344259D01*
X27836564Y33264698D01*
X27735302Y33163436D01*
X27655741Y33044364D01*
X27600938Y32912058D01*
X27573000Y32771603D01*
X26767055Y32771603D01*
X26749062Y32862058D01*
X26694259Y32994364D01*
X26614698Y33113436D01*
X26513436Y33214698D01*
X26394364Y33294259D01*
X26262058Y33349062D01*
X26121603Y33377000D01*
X25978397Y33377000D01*
X25837942Y33349062D01*
X25705636Y33294259D01*
X25586564Y33214698D01*
X25485302Y33113436D01*
X25405741Y32994364D01*
X25350938Y32862058D01*
X25323000Y32721603D01*
X4227000Y32721603D01*
X4227000Y33971603D01*
X31373000Y33971603D01*
X31373000Y33828397D01*
X31400938Y33687942D01*
X31455741Y33555636D01*
X31535302Y33436564D01*
X31636564Y33335302D01*
X31755636Y33255741D01*
X31887942Y33200938D01*
X32028397Y33173000D01*
X32171603Y33173000D01*
X32312058Y33200938D01*
X32444364Y33255741D01*
X32563436Y33335302D01*
X32664698Y33436564D01*
X32744259Y33555636D01*
X32799062Y33687942D01*
X32827000Y33828397D01*
X32827000Y33971603D01*
X32799062Y34112058D01*
X32744259Y34244364D01*
X32664698Y34363436D01*
X32563436Y34464698D01*
X32444364Y34544259D01*
X32312058Y34599062D01*
X32171603Y34627000D01*
X32028397Y34627000D01*
X31887942Y34599062D01*
X31755636Y34544259D01*
X31636564Y34464698D01*
X31535302Y34363436D01*
X31455741Y34244364D01*
X31400938Y34112058D01*
X31373000Y33971603D01*
X4227000Y33971603D01*
X4227000Y35081452D01*
X18673000Y35081452D01*
X18673000Y34918548D01*
X18704782Y34758773D01*
X18767123Y34608269D01*
X18857628Y34472819D01*
X18972819Y34357628D01*
X19108269Y34267123D01*
X19258773Y34204782D01*
X19418548Y34173000D01*
X19581452Y34173000D01*
X19741227Y34204782D01*
X19891731Y34267123D01*
X20027181Y34357628D01*
X20142372Y34472819D01*
X20232877Y34608269D01*
X20295218Y34758773D01*
X20327000Y34918548D01*
X20327000Y35081452D01*
X20295218Y35241227D01*
X20232877Y35391731D01*
X20142372Y35527181D01*
X20027181Y35642372D01*
X19891731Y35732877D01*
X19741227Y35795218D01*
X19581452Y35827000D01*
X19418548Y35827000D01*
X19258773Y35795218D01*
X19108269Y35732877D01*
X18972819Y35642372D01*
X18857628Y35527181D01*
X18767123Y35391731D01*
X18704782Y35241227D01*
X18673000Y35081452D01*
X4227000Y35081452D01*
X4227000Y40281452D01*
X22773000Y40281452D01*
X22773000Y40118548D01*
X22804782Y39958773D01*
X22867123Y39808269D01*
X22957628Y39672819D01*
X23072819Y39557628D01*
X23208269Y39467123D01*
X23358773Y39404782D01*
X23518548Y39373000D01*
X23681452Y39373000D01*
X23841227Y39404782D01*
X23991731Y39467123D01*
X24127181Y39557628D01*
X24242372Y39672819D01*
X24332877Y39808269D01*
X24395218Y39958773D01*
X24427000Y40118548D01*
X24427000Y40281452D01*
X24395218Y40441227D01*
X24332877Y40591731D01*
X24242372Y40727181D01*
X24127181Y40842372D01*
X23991731Y40932877D01*
X23841227Y40995218D01*
X23681452Y41027000D01*
X23518548Y41027000D01*
X23358773Y40995218D01*
X23208269Y40932877D01*
X23072819Y40842372D01*
X22957628Y40727181D01*
X22867123Y40591731D01*
X22804782Y40441227D01*
X22773000Y40281452D01*
X4227000Y40281452D01*
X4227000Y43891679D01*
X4244175Y44022136D01*
X4291319Y44135951D01*
X4366314Y44233686D01*
X4464049Y44308681D01*
X4577864Y44355825D01*
X4708321Y44373000D01*
X16217943Y44373000D01*
X16204782Y44341227D01*
G36*
X60623000Y66350000D02*
G01*
X60624087Y66333423D01*
X60644532Y66178132D01*
X60653112Y66146109D01*
X60713052Y66001400D01*
X60729629Y65972687D01*
X60824980Y65848423D01*
X60848423Y65824980D01*
X60972687Y65729629D01*
X61001400Y65713052D01*
X61146109Y65653112D01*
X61178132Y65644532D01*
X61333423Y65624087D01*
X61350000Y65623000D01*
X69873000Y65623000D01*
X69873000Y-16200000D01*
X69874087Y-16216577D01*
X69894532Y-16371868D01*
X69903112Y-16403891D01*
X69963052Y-16548600D01*
X69979629Y-16577313D01*
X70074980Y-16701577D01*
X70098423Y-16725020D01*
X70222687Y-16820371D01*
X70251400Y-16836948D01*
X70396109Y-16896888D01*
X70428132Y-16905468D01*
X70583423Y-16925913D01*
X70600000Y-16927000D01*
X75191679Y-16927000D01*
X75322136Y-16944175D01*
X75435951Y-16991319D01*
X75533686Y-17066314D01*
X75608681Y-17164049D01*
X75655825Y-17277864D01*
X75673000Y-17408321D01*
X75673000Y-18291679D01*
X75655825Y-18422136D01*
X75608681Y-18535951D01*
X75533686Y-18633686D01*
X75435951Y-18708681D01*
X75322136Y-18755825D01*
X75191679Y-18773000D01*
X67208321Y-18773000D01*
X67077864Y-18755825D01*
X66964049Y-18708681D01*
X66866314Y-18633686D01*
X66791319Y-18535951D01*
X66744175Y-18422136D01*
X66727000Y-18291679D01*
X66727000Y61400000D01*
X66725913Y61416577D01*
X66705468Y61571868D01*
X66696888Y61603891D01*
X66636948Y61748600D01*
X66620371Y61777313D01*
X66525020Y61901577D01*
X66501577Y61925020D01*
X66377313Y62020371D01*
X66348600Y62036948D01*
X66203891Y62096888D01*
X66171868Y62105468D01*
X66016577Y62125913D01*
X66000000Y62127000D01*
X55400000Y62127000D01*
X55383423Y62125913D01*
X55228132Y62105468D01*
X55196109Y62096888D01*
X55051400Y62036948D01*
X55022687Y62020371D01*
X54898423Y61925020D01*
X54874980Y61901577D01*
X54779629Y61777313D01*
X54763052Y61748600D01*
X54703112Y61603891D01*
X54694532Y61571868D01*
X54674087Y61416577D01*
X54673000Y61400000D01*
X54673000Y36959711D01*
X54140289Y36427000D01*
X43808321Y36427000D01*
X43677864Y36444175D01*
X43564049Y36491319D01*
X43466314Y36566314D01*
X43391319Y36664049D01*
X43344175Y36777864D01*
X43327000Y36908321D01*
X43327000Y43891679D01*
X43344175Y44022136D01*
X43391319Y44135951D01*
X43466314Y44233686D01*
X43564049Y44308681D01*
X43677864Y44355825D01*
X43808321Y44373000D01*
X47500000Y44373000D01*
X47516577Y44374087D01*
X47671868Y44394532D01*
X47703891Y44403112D01*
X47848600Y44463052D01*
X47877313Y44479629D01*
X48001577Y44574980D01*
X48025020Y44598423D01*
X48120371Y44722687D01*
X48136948Y44751400D01*
X48196888Y44896109D01*
X48205468Y44928132D01*
X48225913Y45083423D01*
X48227000Y45100000D01*
X48227000Y70391679D01*
X48244175Y70522136D01*
X48291319Y70635951D01*
X48300565Y70648000D01*
X60623000Y70648000D01*
X60623000Y66350000D01*
G37*
X60623000Y66350000D02*
X60624087Y66333423D01*
X60644532Y66178132D01*
X60653112Y66146109D01*
X60713052Y66001400D01*
X60729629Y65972687D01*
X60824980Y65848423D01*
X60848423Y65824980D01*
X60972687Y65729629D01*
X61001400Y65713052D01*
X61146109Y65653112D01*
X61178132Y65644532D01*
X61333423Y65624087D01*
X61350000Y65623000D01*
X69873000Y65623000D01*
X69873000Y-16200000D01*
X69874087Y-16216577D01*
X69894532Y-16371868D01*
X69903112Y-16403891D01*
X69963052Y-16548600D01*
X69979629Y-16577313D01*
X70074980Y-16701577D01*
X70098423Y-16725020D01*
X70222687Y-16820371D01*
X70251400Y-16836948D01*
X70396109Y-16896888D01*
X70428132Y-16905468D01*
X70583423Y-16925913D01*
X70600000Y-16927000D01*
X75191679Y-16927000D01*
X75322136Y-16944175D01*
X75435951Y-16991319D01*
X75533686Y-17066314D01*
X75608681Y-17164049D01*
X75655825Y-17277864D01*
X75673000Y-17408321D01*
X75673000Y-18291679D01*
X75655825Y-18422136D01*
X75608681Y-18535951D01*
X75533686Y-18633686D01*
X75435951Y-18708681D01*
X75322136Y-18755825D01*
X75191679Y-18773000D01*
X67208321Y-18773000D01*
X67077864Y-18755825D01*
X66964049Y-18708681D01*
X66866314Y-18633686D01*
X66791319Y-18535951D01*
X66744175Y-18422136D01*
X66727000Y-18291679D01*
X66727000Y61400000D01*
X66725913Y61416577D01*
X66705468Y61571868D01*
X66696888Y61603891D01*
X66636948Y61748600D01*
X66620371Y61777313D01*
X66525020Y61901577D01*
X66501577Y61925020D01*
X66377313Y62020371D01*
X66348600Y62036948D01*
X66203891Y62096888D01*
X66171868Y62105468D01*
X66016577Y62125913D01*
X66000000Y62127000D01*
X55400000Y62127000D01*
X55383423Y62125913D01*
X55228132Y62105468D01*
X55196109Y62096888D01*
X55051400Y62036948D01*
X55022687Y62020371D01*
X54898423Y61925020D01*
X54874980Y61901577D01*
X54779629Y61777313D01*
X54763052Y61748600D01*
X54703112Y61603891D01*
X54694532Y61571868D01*
X54674087Y61416577D01*
X54673000Y61400000D01*
X54673000Y36959711D01*
X54140289Y36427000D01*
X43808321Y36427000D01*
X43677864Y36444175D01*
X43564049Y36491319D01*
X43466314Y36566314D01*
X43391319Y36664049D01*
X43344175Y36777864D01*
X43327000Y36908321D01*
X43327000Y43891679D01*
X43344175Y44022136D01*
X43391319Y44135951D01*
X43466314Y44233686D01*
X43564049Y44308681D01*
X43677864Y44355825D01*
X43808321Y44373000D01*
X47500000Y44373000D01*
X47516577Y44374087D01*
X47671868Y44394532D01*
X47703891Y44403112D01*
X47848600Y44463052D01*
X47877313Y44479629D01*
X48001577Y44574980D01*
X48025020Y44598423D01*
X48120371Y44722687D01*
X48136948Y44751400D01*
X48196888Y44896109D01*
X48205468Y44928132D01*
X48225913Y45083423D01*
X48227000Y45100000D01*
X48227000Y70391679D01*
X48244175Y70522136D01*
X48291319Y70635951D01*
X48300565Y70648000D01*
X60623000Y70648000D01*
X60623000Y66350000D01*
G36*
X86265251Y67157533D02*
G01*
X86320570Y67120570D01*
X86357533Y67065251D01*
X86373000Y66987491D01*
X86373000Y64212509D01*
X86357533Y64134749D01*
X86320570Y64079430D01*
X86265251Y64042467D01*
X86187491Y64027000D01*
X81200000Y64027000D01*
X81175224Y64024560D01*
X81060419Y64001724D01*
X81036594Y63994497D01*
X81014637Y63982761D01*
X80917310Y63917729D01*
X80898065Y63901934D01*
X80882271Y63882690D01*
X80817239Y63785363D01*
X80805503Y63763406D01*
X80798276Y63739581D01*
X80775440Y63624776D01*
X80773000Y63600000D01*
X80773000Y-3287491D01*
X80757533Y-3365251D01*
X80720570Y-3420570D01*
X80665251Y-3457533D01*
X80587491Y-3473000D01*
X74112509Y-3473000D01*
X74034749Y-3457533D01*
X73979430Y-3420570D01*
X73942467Y-3365251D01*
X73927000Y-3287491D01*
X73927000Y-1912509D01*
X73942467Y-1834749D01*
X73979430Y-1779430D01*
X74034749Y-1742467D01*
X74112509Y-1727000D01*
X76800000Y-1727000D01*
X76824776Y-1724560D01*
X76939581Y-1701724D01*
X76963406Y-1694497D01*
X76985363Y-1682761D01*
X77082690Y-1617729D01*
X77101935Y-1601934D01*
X77117729Y-1582690D01*
X77182761Y-1485363D01*
X77194497Y-1463406D01*
X77201724Y-1439581D01*
X77224560Y-1324776D01*
X77227000Y-1300000D01*
X77227000Y16900000D01*
X77224560Y16924776D01*
X77201724Y17039581D01*
X77194497Y17063406D01*
X77182761Y17085363D01*
X77117729Y17182690D01*
X77101934Y17201935D01*
X77082690Y17217729D01*
X76985363Y17282761D01*
X76963406Y17294497D01*
X76939581Y17301724D01*
X76824776Y17324560D01*
X76800000Y17327000D01*
X74112509Y17327000D01*
X74034749Y17342467D01*
X73979430Y17379430D01*
X73942467Y17434749D01*
X73927000Y17512509D01*
X73927000Y18887491D01*
X73942467Y18965251D01*
X73979430Y19020570D01*
X74034749Y19057533D01*
X74112509Y19073000D01*
X76800000Y19073000D01*
X76824776Y19075440D01*
X76939581Y19098276D01*
X76963406Y19105503D01*
X76985363Y19117239D01*
X77082690Y19182271D01*
X77101935Y19198066D01*
X77117729Y19217310D01*
X77182761Y19314637D01*
X77194497Y19336594D01*
X77201724Y19360419D01*
X77224560Y19475224D01*
X77227000Y19500000D01*
X77227000Y37700000D01*
X77224560Y37724776D01*
X77201724Y37839581D01*
X77194497Y37863406D01*
X77182761Y37885363D01*
X77117729Y37982690D01*
X77101934Y38001935D01*
X77082690Y38017729D01*
X76985363Y38082761D01*
X76963406Y38094497D01*
X76939581Y38101724D01*
X76824776Y38124560D01*
X76800000Y38127000D01*
X74112509Y38127000D01*
X74034749Y38142467D01*
X73979430Y38179430D01*
X73942467Y38234749D01*
X73927000Y38312509D01*
X73927000Y39687491D01*
X73942467Y39765251D01*
X73979430Y39820570D01*
X74034749Y39857533D01*
X74112509Y39873000D01*
X76800000Y39873000D01*
X76824776Y39875440D01*
X76939581Y39898276D01*
X76963406Y39905503D01*
X76985363Y39917239D01*
X77082690Y39982271D01*
X77101935Y39998066D01*
X77117729Y40017310D01*
X77182761Y40114637D01*
X77194497Y40136594D01*
X77201724Y40160419D01*
X77224560Y40275224D01*
X77227000Y40300000D01*
X77227000Y58600000D01*
X77224560Y58624776D01*
X77201724Y58739581D01*
X77194497Y58763406D01*
X77182761Y58785363D01*
X77117729Y58882690D01*
X77101934Y58901935D01*
X77082690Y58917729D01*
X76985363Y58982761D01*
X76963406Y58994497D01*
X76939581Y59001724D01*
X76824776Y59024560D01*
X76800000Y59027000D01*
X74412509Y59027000D01*
X74334749Y59042467D01*
X74279430Y59079430D01*
X74242467Y59134749D01*
X74227000Y59212509D01*
X74227000Y64487491D01*
X74242467Y64565251D01*
X74279430Y64620570D01*
X74334749Y64657533D01*
X74412509Y64673000D01*
X76800000Y64673000D01*
X76824776Y64675440D01*
X76939581Y64698276D01*
X76963406Y64705503D01*
X76985363Y64717239D01*
X77082690Y64782271D01*
X77101935Y64798066D01*
X77117729Y64817310D01*
X77182761Y64914637D01*
X77194497Y64936594D01*
X77201724Y64960419D01*
X77224560Y65075224D01*
X77227000Y65100000D01*
X77227000Y66987491D01*
X77242467Y67065251D01*
X77279430Y67120570D01*
X77334749Y67157533D01*
X77412509Y67173000D01*
X86187491Y67173000D01*
X86265251Y67157533D01*
G37*
X86265251Y67157533D02*
X86320570Y67120570D01*
X86357533Y67065251D01*
X86373000Y66987491D01*
X86373000Y64212509D01*
X86357533Y64134749D01*
X86320570Y64079430D01*
X86265251Y64042467D01*
X86187491Y64027000D01*
X81200000Y64027000D01*
X81175224Y64024560D01*
X81060419Y64001724D01*
X81036594Y63994497D01*
X81014637Y63982761D01*
X80917310Y63917729D01*
X80898065Y63901934D01*
X80882271Y63882690D01*
X80817239Y63785363D01*
X80805503Y63763406D01*
X80798276Y63739581D01*
X80775440Y63624776D01*
X80773000Y63600000D01*
X80773000Y-3287491D01*
X80757533Y-3365251D01*
X80720570Y-3420570D01*
X80665251Y-3457533D01*
X80587491Y-3473000D01*
X74112509Y-3473000D01*
X74034749Y-3457533D01*
X73979430Y-3420570D01*
X73942467Y-3365251D01*
X73927000Y-3287491D01*
X73927000Y-1912509D01*
X73942467Y-1834749D01*
X73979430Y-1779430D01*
X74034749Y-1742467D01*
X74112509Y-1727000D01*
X76800000Y-1727000D01*
X76824776Y-1724560D01*
X76939581Y-1701724D01*
X76963406Y-1694497D01*
X76985363Y-1682761D01*
X77082690Y-1617729D01*
X77101935Y-1601934D01*
X77117729Y-1582690D01*
X77182761Y-1485363D01*
X77194497Y-1463406D01*
X77201724Y-1439581D01*
X77224560Y-1324776D01*
X77227000Y-1300000D01*
X77227000Y16900000D01*
X77224560Y16924776D01*
X77201724Y17039581D01*
X77194497Y17063406D01*
X77182761Y17085363D01*
X77117729Y17182690D01*
X77101934Y17201935D01*
X77082690Y17217729D01*
X76985363Y17282761D01*
X76963406Y17294497D01*
X76939581Y17301724D01*
X76824776Y17324560D01*
X76800000Y17327000D01*
X74112509Y17327000D01*
X74034749Y17342467D01*
X73979430Y17379430D01*
X73942467Y17434749D01*
X73927000Y17512509D01*
X73927000Y18887491D01*
X73942467Y18965251D01*
X73979430Y19020570D01*
X74034749Y19057533D01*
X74112509Y19073000D01*
X76800000Y19073000D01*
X76824776Y19075440D01*
X76939581Y19098276D01*
X76963406Y19105503D01*
X76985363Y19117239D01*
X77082690Y19182271D01*
X77101935Y19198066D01*
X77117729Y19217310D01*
X77182761Y19314637D01*
X77194497Y19336594D01*
X77201724Y19360419D01*
X77224560Y19475224D01*
X77227000Y19500000D01*
X77227000Y37700000D01*
X77224560Y37724776D01*
X77201724Y37839581D01*
X77194497Y37863406D01*
X77182761Y37885363D01*
X77117729Y37982690D01*
X77101934Y38001935D01*
X77082690Y38017729D01*
X76985363Y38082761D01*
X76963406Y38094497D01*
X76939581Y38101724D01*
X76824776Y38124560D01*
X76800000Y38127000D01*
X74112509Y38127000D01*
X74034749Y38142467D01*
X73979430Y38179430D01*
X73942467Y38234749D01*
X73927000Y38312509D01*
X73927000Y39687491D01*
X73942467Y39765251D01*
X73979430Y39820570D01*
X74034749Y39857533D01*
X74112509Y39873000D01*
X76800000Y39873000D01*
X76824776Y39875440D01*
X76939581Y39898276D01*
X76963406Y39905503D01*
X76985363Y39917239D01*
X77082690Y39982271D01*
X77101935Y39998066D01*
X77117729Y40017310D01*
X77182761Y40114637D01*
X77194497Y40136594D01*
X77201724Y40160419D01*
X77224560Y40275224D01*
X77227000Y40300000D01*
X77227000Y58600000D01*
X77224560Y58624776D01*
X77201724Y58739581D01*
X77194497Y58763406D01*
X77182761Y58785363D01*
X77117729Y58882690D01*
X77101934Y58901935D01*
X77082690Y58917729D01*
X76985363Y58982761D01*
X76963406Y58994497D01*
X76939581Y59001724D01*
X76824776Y59024560D01*
X76800000Y59027000D01*
X74412509Y59027000D01*
X74334749Y59042467D01*
X74279430Y59079430D01*
X74242467Y59134749D01*
X74227000Y59212509D01*
X74227000Y64487491D01*
X74242467Y64565251D01*
X74279430Y64620570D01*
X74334749Y64657533D01*
X74412509Y64673000D01*
X76800000Y64673000D01*
X76824776Y64675440D01*
X76939581Y64698276D01*
X76963406Y64705503D01*
X76985363Y64717239D01*
X77082690Y64782271D01*
X77101935Y64798066D01*
X77117729Y64817310D01*
X77182761Y64914637D01*
X77194497Y64936594D01*
X77201724Y64960419D01*
X77224560Y65075224D01*
X77227000Y65100000D01*
X77227000Y66987491D01*
X77242467Y67065251D01*
X77279430Y67120570D01*
X77334749Y67157533D01*
X77412509Y67173000D01*
X86187491Y67173000D01*
X86265251Y67157533D01*
M02*
