%TF.GenerationSoftware,KiCad,Pcbnew,(5.1.5)-2*%
%TF.CreationDate,2019-12-28T19:20:09-08:00*%
%TF.ProjectId,20191222_Projects_Mainboard_A0,32303139-3132-4323-925f-50726f6a6563,A3*%
%TF.SameCoordinates,PX2191c00PY7534e20*%
%TF.FileFunction,Copper,L2,Inr*%
%TF.FilePolarity,Positive*%
%FSLAX46Y46*%
G04 Gerber Fmt 4.6, Leading zero omitted, Abs format (unit mm)*
G04 Created by KiCad (PCBNEW (5.1.5)-2) date 2019-12-28 19:20:09*
%MOMM*%
%LPD*%
G04 APERTURE LIST*
%ADD10C,1.750000*%
%ADD11C,1.600000*%
%ADD12R,1.600000X1.600000*%
%ADD13C,2.000000*%
%ADD14C,1.524000*%
%ADD15C,4.400000*%
%ADD16C,0.800000*%
%ADD17C,1.000000*%
%ADD18C,0.750000*%
%ADD19C,1.000000*%
%ADD20C,0.254000*%
G04 APERTURE END LIST*
D10*
X33300000Y2900000D03*
X33300000Y5400000D03*
X4600000Y2900000D03*
X4600000Y5400000D03*
X14200000Y2900000D03*
X14200000Y5400000D03*
X4600000Y12000000D03*
X4600000Y14500000D03*
X23800000Y2900000D03*
X23800000Y5400000D03*
X41100000Y57500000D03*
X38600000Y57500000D03*
X41100000Y65700000D03*
X38600000Y65700000D03*
X30300000Y57500000D03*
X27800000Y57500000D03*
X30300000Y65700000D03*
X27800000Y65700000D03*
X19500000Y57500000D03*
X17000000Y57500000D03*
X19500000Y65700000D03*
X17000000Y65700000D03*
D11*
X74850000Y67500000D03*
D12*
X74850000Y64000000D03*
X78900000Y39000000D03*
D11*
X82400000Y39000000D03*
D12*
X78900000Y18200000D03*
D11*
X82400000Y18200000D03*
X82400000Y-2600000D03*
D12*
X78900000Y-2600000D03*
D13*
X45000000Y63500000D03*
X45000000Y66040000D03*
X34200000Y66040000D03*
X34200000Y63500000D03*
X23400000Y63500000D03*
X23400000Y66040000D03*
D10*
X57000000Y-8600000D03*
X57000000Y-11100000D03*
X57000000Y-13600000D03*
X57000000Y-16100000D03*
X57000000Y-18600000D03*
X57000000Y12200000D03*
X57000000Y9700000D03*
X57000000Y7200000D03*
X57000000Y4700000D03*
X57000000Y2200000D03*
X57000000Y33000000D03*
X57000000Y30500000D03*
X57000000Y28000000D03*
X57000000Y25500000D03*
X57000000Y23000000D03*
X57100000Y43900000D03*
X57100000Y46400000D03*
X57100000Y48900000D03*
X57100000Y51400000D03*
X57100000Y53900000D03*
D13*
X48530000Y-3110000D03*
X51070000Y-3110000D03*
X48530000Y-5650000D03*
X51070000Y-5650000D03*
X48530000Y-8190000D03*
X51070000Y-8190000D03*
X49970000Y-18600000D03*
X47430000Y-18600000D03*
X49970000Y-16060000D03*
X47430000Y-16060000D03*
X49970000Y-13520000D03*
X47430000Y-13520000D03*
X67770000Y10520000D03*
X65230000Y10520000D03*
X67770000Y13060000D03*
X65230000Y13060000D03*
X67770000Y15600000D03*
X65230000Y15600000D03*
X65200000Y36500000D03*
X67740000Y36500000D03*
X65200000Y33960000D03*
X67740000Y33960000D03*
X65200000Y31420000D03*
X67740000Y31420000D03*
X67670000Y52320000D03*
X65130000Y52320000D03*
X67670000Y54860000D03*
X65130000Y54860000D03*
X67670000Y57400000D03*
X65130000Y57400000D03*
X65130000Y-5160000D03*
X67670000Y-5160000D03*
X65130000Y-7700000D03*
X67670000Y-7700000D03*
X65130000Y-10240000D03*
X67670000Y-10240000D03*
D10*
X88600000Y3100000D03*
X88600000Y5600000D03*
X88600000Y8100000D03*
X88600000Y10600000D03*
X88600000Y13100000D03*
X88600000Y33900000D03*
X88600000Y31400000D03*
X88600000Y28900000D03*
X88600000Y26400000D03*
X88600000Y23900000D03*
X88700000Y54800000D03*
X88700000Y52300000D03*
X88700000Y49800000D03*
X88700000Y47300000D03*
X88700000Y44800000D03*
X88600000Y-7700000D03*
X88600000Y-10200000D03*
X88600000Y-12700000D03*
X88600000Y-15200000D03*
X88600000Y-17700000D03*
D14*
X85700000Y61100000D03*
X85700000Y66100000D03*
D13*
X74850000Y18190000D03*
X74850000Y15650000D03*
X74850000Y13110000D03*
X74850000Y10570000D03*
X74850000Y8030000D03*
X74850000Y5490000D03*
X74850000Y2950000D03*
X74850000Y410000D03*
X62150000Y410000D03*
X62150000Y2950000D03*
X62150000Y5490000D03*
X62150000Y8030000D03*
X62150000Y10570000D03*
X62150000Y13110000D03*
X62150000Y15650000D03*
X62150000Y18190000D03*
X74850000Y38990000D03*
X74850000Y36450000D03*
X74850000Y33910000D03*
X74850000Y31370000D03*
X74850000Y28830000D03*
X74850000Y26290000D03*
X74850000Y23750000D03*
X74850000Y21210000D03*
X62150000Y21210000D03*
X62150000Y23750000D03*
X62150000Y26290000D03*
X62150000Y28830000D03*
X62150000Y31370000D03*
X62150000Y33910000D03*
X62150000Y36450000D03*
X62150000Y38990000D03*
X62150000Y59890000D03*
X62150000Y57350000D03*
X62150000Y54810000D03*
X62150000Y52270000D03*
X62150000Y49730000D03*
X62150000Y47190000D03*
X62150000Y44650000D03*
X62150000Y42110000D03*
X74850000Y42110000D03*
X74850000Y44650000D03*
X74850000Y47190000D03*
X74850000Y49730000D03*
X74850000Y52270000D03*
X74850000Y54810000D03*
X74850000Y57350000D03*
X74850000Y59890000D03*
X62150000Y-2610000D03*
X62150000Y-5150000D03*
X62150000Y-7690000D03*
X62150000Y-10230000D03*
X62150000Y-12770000D03*
X62150000Y-15310000D03*
X62150000Y-17850000D03*
X62150000Y-20390000D03*
X74850000Y-20390000D03*
X74850000Y-17850000D03*
X74850000Y-15310000D03*
X74850000Y-12770000D03*
X74850000Y-10230000D03*
X74850000Y-7690000D03*
X74850000Y-5150000D03*
X74850000Y-2610000D03*
X65250000Y5310000D03*
X65250000Y7850000D03*
X65200000Y26210000D03*
X65200000Y28750000D03*
X65150000Y49650000D03*
X65150000Y47110000D03*
X65150000Y-12900000D03*
X65150000Y-15440000D03*
X1400000Y42190000D03*
X1400000Y44730000D03*
D15*
X2700000Y21150000D03*
X63500000Y68500000D03*
X79300000Y-19950000D03*
X42500000Y7050000D03*
D13*
X1100000Y38200000D03*
D16*
X26000000Y30300000D03*
X28150000Y20800000D03*
D17*
X16400000Y8000000D03*
X11400000Y33500000D03*
X11400000Y32450000D03*
X11400000Y31400000D03*
X4600000Y43100000D03*
X5700000Y43100000D03*
X23500000Y44000000D03*
X34300000Y44000000D03*
X45100000Y44000000D03*
X44250000Y35650000D03*
X44250000Y31850000D03*
X44250000Y28050000D03*
X44250000Y24250000D03*
X44250000Y20450000D03*
X44250000Y16650000D03*
X44250000Y12850000D03*
X35600000Y8000000D03*
X26100000Y8000000D03*
X20100000Y2800000D03*
X6900000Y8000000D03*
X6900000Y17100000D03*
X10500000Y11900000D03*
X10500000Y2800000D03*
X29700000Y2800000D03*
X39200000Y2800000D03*
D16*
X67500000Y-18500000D03*
D17*
X35750000Y44000000D03*
X59500000Y55300000D03*
X59550000Y34300000D03*
X59650000Y-7350000D03*
X19500000Y35000000D03*
X10600000Y51600000D03*
X10500000Y57000000D03*
X11900000Y57000000D03*
X38600000Y44100000D03*
X27800000Y44100000D03*
X17000000Y44100000D03*
D16*
X40450000Y10650000D03*
X40450000Y14450000D03*
X47250000Y12950000D03*
X47250000Y16700000D03*
X47250000Y20500000D03*
X47300000Y24300000D03*
X47350000Y28100000D03*
X47350000Y31900000D03*
X40450000Y33450000D03*
X40450000Y29650000D03*
X40450000Y22050000D03*
X40450000Y25850000D03*
X40400000Y18200000D03*
D13*
X1100000Y25650000D03*
D16*
X47350000Y35700000D03*
X32100000Y33900000D03*
X32700000Y28750000D03*
D17*
X7150000Y24450000D03*
X8750000Y24200000D03*
X58050000Y13900000D03*
D16*
X51800000Y-20800000D03*
X28300000Y32700000D03*
D17*
X12400000Y65100000D03*
X3500000Y65100000D03*
D13*
X1100000Y30600000D03*
X1100000Y35700000D03*
D16*
X26800000Y29000000D03*
D13*
X1100000Y33200000D03*
D16*
X26800000Y24700000D03*
X13400000Y28850000D03*
D17*
X45800000Y11000000D03*
X52250000Y4700000D03*
X53950000Y18500000D03*
X51350000Y35500000D03*
X51349996Y22350000D03*
D16*
X53200000Y-20500000D03*
D17*
X39000000Y6350000D03*
X10300000Y6350000D03*
X19900000Y6350000D03*
X10174990Y15450000D03*
X29450000Y6350000D03*
D16*
X27900000Y23900000D03*
X26050000Y32650000D03*
D17*
X23600000Y40200000D03*
D18*
X1400000Y44730000D02*
X6930000Y44730000D01*
X10600000Y48400000D02*
X10600000Y51600000D01*
X6930000Y44730000D02*
X10600000Y48400000D01*
D19*
X78860000Y-20390000D02*
X79300000Y-19950000D01*
X74850000Y-20390000D02*
X78860000Y-20390000D01*
D20*
G36*
X60408681Y70635951D02*
G01*
X60455825Y70522136D01*
X60473000Y70391679D01*
X60473000Y49927000D01*
X57726529Y49927000D01*
X57669361Y49965199D01*
X57450610Y50055808D01*
X57218387Y50102000D01*
X56981613Y50102000D01*
X56749390Y50055808D01*
X56530639Y49965199D01*
X56467528Y49923029D01*
X56360419Y49901724D01*
X56336594Y49894497D01*
X56314637Y49882761D01*
X56217310Y49817729D01*
X56198066Y49801935D01*
X56182271Y49782690D01*
X56117239Y49685363D01*
X56105503Y49663406D01*
X56098276Y49639581D01*
X56076971Y49532472D01*
X56034801Y49469361D01*
X55944192Y49250610D01*
X55898000Y49018387D01*
X55898000Y48781613D01*
X55944192Y48549390D01*
X56034801Y48330639D01*
X56073000Y48273471D01*
X56073000Y47026529D01*
X56034801Y46969361D01*
X55944192Y46750610D01*
X55898000Y46518387D01*
X55898000Y46281613D01*
X55944192Y46049390D01*
X56034801Y45830639D01*
X56073000Y45773471D01*
X56073000Y44526529D01*
X56034801Y44469361D01*
X55944192Y44250610D01*
X55898000Y44018387D01*
X55898000Y43781613D01*
X55944192Y43549390D01*
X56034801Y43330639D01*
X56073000Y43273471D01*
X56073000Y41800000D01*
X56075440Y41775224D01*
X56098276Y41660419D01*
X56105503Y41636594D01*
X56117239Y41614637D01*
X56182271Y41517310D01*
X56198065Y41498066D01*
X56217310Y41482271D01*
X56314637Y41417239D01*
X56336594Y41405503D01*
X56360419Y41398276D01*
X56475224Y41375440D01*
X56500000Y41373000D01*
X58384953Y41373000D01*
X58415020Y41360546D01*
X58603774Y41323000D01*
X58796226Y41323000D01*
X58984980Y41360546D01*
X59015047Y41373000D01*
X60473000Y41373000D01*
X60473000Y29024148D01*
X57630798Y29024148D01*
X57569361Y29065199D01*
X57350610Y29155808D01*
X57118387Y29202000D01*
X56881613Y29202000D01*
X56649390Y29155808D01*
X56430639Y29065199D01*
X56361451Y29018968D01*
X56260419Y28998872D01*
X56236594Y28991645D01*
X56214637Y28979909D01*
X56117310Y28914877D01*
X56098066Y28899083D01*
X56082271Y28879838D01*
X56017239Y28782511D01*
X56005503Y28760554D01*
X55998276Y28736729D01*
X55977779Y28633681D01*
X55934801Y28569361D01*
X55844192Y28350610D01*
X55798000Y28118387D01*
X55798000Y27881613D01*
X55844192Y27649390D01*
X55934801Y27430639D01*
X55973000Y27373471D01*
X55973000Y26126529D01*
X55934801Y26069361D01*
X55844192Y25850610D01*
X55798000Y25618387D01*
X55798000Y25381613D01*
X55844192Y25149390D01*
X55934801Y24930639D01*
X55973000Y24873471D01*
X55973000Y23626529D01*
X55934801Y23569361D01*
X55844192Y23350610D01*
X55798000Y23118387D01*
X55798000Y22881613D01*
X55844192Y22649390D01*
X55934801Y22430639D01*
X55973000Y22373471D01*
X55973000Y20897148D01*
X55975440Y20872372D01*
X55998276Y20757567D01*
X56005503Y20733742D01*
X56017239Y20711785D01*
X56082271Y20614458D01*
X56098065Y20595214D01*
X56117310Y20579419D01*
X56214637Y20514387D01*
X56236594Y20502651D01*
X56260419Y20495424D01*
X56375224Y20472588D01*
X56400000Y20470148D01*
X58291839Y20470148D01*
X58315020Y20460546D01*
X58503774Y20423000D01*
X58696226Y20423000D01*
X58884980Y20460546D01*
X58908161Y20470148D01*
X60473000Y20470148D01*
X60473000Y8225211D01*
X57629207Y8225211D01*
X57569361Y8265199D01*
X57350610Y8355808D01*
X57118387Y8402000D01*
X56881613Y8402000D01*
X56649390Y8355808D01*
X56430639Y8265199D01*
X56324737Y8194437D01*
X56319038Y8192708D01*
X56297081Y8180972D01*
X56199754Y8115940D01*
X56180510Y8100146D01*
X56164715Y8080901D01*
X56131888Y8031772D01*
X56066346Y7966230D01*
X55934801Y7769361D01*
X55844192Y7550610D01*
X55798000Y7318387D01*
X55798000Y7081613D01*
X55844192Y6849390D01*
X55934801Y6630639D01*
X56055444Y6450086D01*
X56055444Y5449914D01*
X55934801Y5269361D01*
X55844192Y5050610D01*
X55798000Y4818387D01*
X55798000Y4581613D01*
X55844192Y4349390D01*
X55934801Y4130639D01*
X56055444Y3950086D01*
X56055444Y2949914D01*
X55934801Y2769361D01*
X55844192Y2550610D01*
X55798000Y2318387D01*
X55798000Y2081613D01*
X55844192Y1849390D01*
X55934801Y1630639D01*
X56055444Y1450086D01*
X56055444Y98211D01*
X56057884Y73435D01*
X56080720Y-41370D01*
X56087947Y-65195D01*
X56099683Y-87152D01*
X56164715Y-184479D01*
X56180509Y-203723D01*
X56199754Y-219518D01*
X56297081Y-284550D01*
X56319038Y-296286D01*
X56342863Y-303513D01*
X56457668Y-326349D01*
X56482444Y-328789D01*
X58289272Y-328789D01*
X58315020Y-339454D01*
X58503774Y-377000D01*
X58696226Y-377000D01*
X58884980Y-339454D01*
X58910728Y-328789D01*
X60473000Y-328789D01*
X60473000Y-12610644D01*
X57682867Y-12610644D01*
X57569361Y-12534801D01*
X57350610Y-12444192D01*
X57118387Y-12398000D01*
X56881613Y-12398000D01*
X56649390Y-12444192D01*
X56430639Y-12534801D01*
X56233770Y-12666346D01*
X56066346Y-12833770D01*
X55934801Y-13030639D01*
X55844192Y-13249390D01*
X55798000Y-13481613D01*
X55798000Y-13718387D01*
X55844192Y-13950610D01*
X55934801Y-14169361D01*
X56058350Y-14354264D01*
X56060129Y-15343075D01*
X55934801Y-15530639D01*
X55844192Y-15749390D01*
X55798000Y-15981613D01*
X55798000Y-16218387D01*
X55844192Y-16450610D01*
X55934801Y-16669361D01*
X56062858Y-16861010D01*
X56064612Y-17836365D01*
X55934801Y-18030639D01*
X55844192Y-18249390D01*
X55798000Y-18481613D01*
X55798000Y-18718387D01*
X55844192Y-18950610D01*
X55934801Y-19169361D01*
X56066346Y-19366230D01*
X56067365Y-19367249D01*
X56072366Y-22148000D01*
X51388931Y-22148000D01*
X51341319Y-22085951D01*
X51294175Y-21972136D01*
X51277000Y-21841679D01*
X51277000Y-20428397D01*
X52473000Y-20428397D01*
X52473000Y-20571603D01*
X52500938Y-20712058D01*
X52555741Y-20844364D01*
X52635302Y-20963436D01*
X52736564Y-21064698D01*
X52855636Y-21144259D01*
X52987942Y-21199062D01*
X53128397Y-21227000D01*
X53271603Y-21227000D01*
X53412058Y-21199062D01*
X53544364Y-21144259D01*
X53663436Y-21064698D01*
X53764698Y-20963436D01*
X53844259Y-20844364D01*
X53899062Y-20712058D01*
X53927000Y-20571603D01*
X53927000Y-20428397D01*
X53899062Y-20287942D01*
X53844259Y-20155636D01*
X53764698Y-20036564D01*
X53663436Y-19935302D01*
X53544364Y-19855741D01*
X53412058Y-19800938D01*
X53271603Y-19773000D01*
X53128397Y-19773000D01*
X52987942Y-19800938D01*
X52855636Y-19855741D01*
X52736564Y-19935302D01*
X52635302Y-20036564D01*
X52555741Y-20155636D01*
X52500938Y-20287942D01*
X52473000Y-20428397D01*
X51277000Y-20428397D01*
X51277000Y-18831245D01*
X51297000Y-18730698D01*
X51297000Y-18469302D01*
X51277000Y-18368755D01*
X51277000Y-16291245D01*
X51297000Y-16190698D01*
X51297000Y-15929302D01*
X51277000Y-15828755D01*
X51277000Y-13751245D01*
X51297000Y-13650698D01*
X51297000Y-13389302D01*
X51277000Y-13288755D01*
X51277000Y-9501823D01*
X51457072Y-9466004D01*
X51698570Y-9365972D01*
X51915913Y-9220748D01*
X52100748Y-9035913D01*
X52245972Y-8818570D01*
X52346004Y-8577072D01*
X52397000Y-8320698D01*
X52397000Y-8059302D01*
X52346004Y-7802928D01*
X52245972Y-7561430D01*
X52100748Y-7344087D01*
X51915913Y-7159252D01*
X51698570Y-7014028D01*
X51471567Y-6920000D01*
X51698570Y-6825972D01*
X51915913Y-6680748D01*
X52100748Y-6495913D01*
X52245972Y-6278570D01*
X52346004Y-6037072D01*
X52397000Y-5780698D01*
X52397000Y-5519302D01*
X52346004Y-5262928D01*
X52245972Y-5021430D01*
X52100748Y-4804087D01*
X51915913Y-4619252D01*
X51698570Y-4474028D01*
X51471567Y-4380000D01*
X51698570Y-4285972D01*
X51915913Y-4140748D01*
X52100748Y-3955913D01*
X52245972Y-3738570D01*
X52346004Y-3497072D01*
X52397000Y-3240698D01*
X52397000Y-2979302D01*
X52346004Y-2722928D01*
X52245972Y-2481430D01*
X52100748Y-2264087D01*
X51915913Y-2079252D01*
X51698570Y-1934028D01*
X51457072Y-1833996D01*
X51277000Y-1798177D01*
X51277000Y-550000D01*
X51275913Y-533423D01*
X51255468Y-378132D01*
X51246888Y-346109D01*
X51186948Y-201400D01*
X51170371Y-172687D01*
X51075020Y-48423D01*
X51051577Y-24980D01*
X50927313Y70371D01*
X50898600Y86948D01*
X50753891Y146888D01*
X50721868Y155468D01*
X50566577Y175913D01*
X50550000Y177000D01*
X42304520Y177000D01*
X42294093Y196507D01*
X42250106Y250106D01*
X42196507Y294093D01*
X42135356Y326779D01*
X42069004Y346907D01*
X42017292Y352000D01*
X42017291Y352000D01*
X42000000Y353703D01*
X41982708Y352000D01*
X352000Y352000D01*
X352000Y2881452D01*
X9673000Y2881452D01*
X9673000Y2718548D01*
X9704782Y2558773D01*
X9767123Y2408269D01*
X9857628Y2272819D01*
X9972819Y2157628D01*
X10108269Y2067123D01*
X10258773Y2004782D01*
X10418548Y1973000D01*
X10581452Y1973000D01*
X10741227Y2004782D01*
X10891731Y2067123D01*
X11027181Y2157628D01*
X11142372Y2272819D01*
X11232877Y2408269D01*
X11295218Y2558773D01*
X11327000Y2718548D01*
X11327000Y2881452D01*
X19273000Y2881452D01*
X19273000Y2718548D01*
X19304782Y2558773D01*
X19367123Y2408269D01*
X19457628Y2272819D01*
X19572819Y2157628D01*
X19708269Y2067123D01*
X19858773Y2004782D01*
X20018548Y1973000D01*
X20181452Y1973000D01*
X20341227Y2004782D01*
X20491731Y2067123D01*
X20627181Y2157628D01*
X20742372Y2272819D01*
X20832877Y2408269D01*
X20895218Y2558773D01*
X20927000Y2718548D01*
X20927000Y2881452D01*
X28873000Y2881452D01*
X28873000Y2718548D01*
X28904782Y2558773D01*
X28967123Y2408269D01*
X29057628Y2272819D01*
X29172819Y2157628D01*
X29308269Y2067123D01*
X29458773Y2004782D01*
X29618548Y1973000D01*
X29781452Y1973000D01*
X29941227Y2004782D01*
X30091731Y2067123D01*
X30227181Y2157628D01*
X30342372Y2272819D01*
X30432877Y2408269D01*
X30495218Y2558773D01*
X30527000Y2718548D01*
X30527000Y2881452D01*
X38373000Y2881452D01*
X38373000Y2718548D01*
X38404782Y2558773D01*
X38467123Y2408269D01*
X38557628Y2272819D01*
X38672819Y2157628D01*
X38808269Y2067123D01*
X38958773Y2004782D01*
X39118548Y1973000D01*
X39281452Y1973000D01*
X39441227Y2004782D01*
X39591731Y2067123D01*
X39727181Y2157628D01*
X39842372Y2272819D01*
X39932877Y2408269D01*
X39995218Y2558773D01*
X40027000Y2718548D01*
X40027000Y2881452D01*
X39995218Y3041227D01*
X39932877Y3191731D01*
X39842372Y3327181D01*
X39727181Y3442372D01*
X39591731Y3532877D01*
X39441227Y3595218D01*
X39281452Y3627000D01*
X39118548Y3627000D01*
X38958773Y3595218D01*
X38808269Y3532877D01*
X38672819Y3442372D01*
X38557628Y3327181D01*
X38467123Y3191731D01*
X38404782Y3041227D01*
X38373000Y2881452D01*
X30527000Y2881452D01*
X30495218Y3041227D01*
X30432877Y3191731D01*
X30342372Y3327181D01*
X30227181Y3442372D01*
X30091731Y3532877D01*
X29941227Y3595218D01*
X29781452Y3627000D01*
X29618548Y3627000D01*
X29458773Y3595218D01*
X29308269Y3532877D01*
X29172819Y3442372D01*
X29057628Y3327181D01*
X28967123Y3191731D01*
X28904782Y3041227D01*
X28873000Y2881452D01*
X20927000Y2881452D01*
X20895218Y3041227D01*
X20832877Y3191731D01*
X20742372Y3327181D01*
X20627181Y3442372D01*
X20491731Y3532877D01*
X20341227Y3595218D01*
X20181452Y3627000D01*
X20018548Y3627000D01*
X19858773Y3595218D01*
X19708269Y3532877D01*
X19572819Y3442372D01*
X19457628Y3327181D01*
X19367123Y3191731D01*
X19304782Y3041227D01*
X19273000Y2881452D01*
X11327000Y2881452D01*
X11295218Y3041227D01*
X11232877Y3191731D01*
X11142372Y3327181D01*
X11027181Y3442372D01*
X10891731Y3532877D01*
X10741227Y3595218D01*
X10581452Y3627000D01*
X10418548Y3627000D01*
X10258773Y3595218D01*
X10108269Y3532877D01*
X9972819Y3442372D01*
X9857628Y3327181D01*
X9767123Y3191731D01*
X9704782Y3041227D01*
X9673000Y2881452D01*
X352000Y2881452D01*
X352000Y5518387D01*
X3398000Y5518387D01*
X3398000Y5281613D01*
X3444192Y5049390D01*
X3534801Y4830639D01*
X3666346Y4633770D01*
X3833770Y4466346D01*
X4030639Y4334801D01*
X4249390Y4244192D01*
X4481613Y4198000D01*
X4718387Y4198000D01*
X4950610Y4244192D01*
X5169361Y4334801D01*
X5366230Y4466346D01*
X5533654Y4633770D01*
X5665199Y4830639D01*
X5755808Y5049390D01*
X5802000Y5281613D01*
X5802000Y5518387D01*
X12998000Y5518387D01*
X12998000Y5281613D01*
X13044192Y5049390D01*
X13134801Y4830639D01*
X13266346Y4633770D01*
X13433770Y4466346D01*
X13630639Y4334801D01*
X13849390Y4244192D01*
X14081613Y4198000D01*
X14318387Y4198000D01*
X14550610Y4244192D01*
X14769361Y4334801D01*
X14966230Y4466346D01*
X15133654Y4633770D01*
X15265199Y4830639D01*
X15355808Y5049390D01*
X15402000Y5281613D01*
X15402000Y5518387D01*
X22598000Y5518387D01*
X22598000Y5281613D01*
X22644192Y5049390D01*
X22734801Y4830639D01*
X22866346Y4633770D01*
X23033770Y4466346D01*
X23230639Y4334801D01*
X23449390Y4244192D01*
X23681613Y4198000D01*
X23918387Y4198000D01*
X24150610Y4244192D01*
X24369361Y4334801D01*
X24566230Y4466346D01*
X24733654Y4633770D01*
X24865199Y4830639D01*
X24955808Y5049390D01*
X25002000Y5281613D01*
X25002000Y5518387D01*
X32098000Y5518387D01*
X32098000Y5281613D01*
X32144192Y5049390D01*
X32234801Y4830639D01*
X32366346Y4633770D01*
X32533770Y4466346D01*
X32730639Y4334801D01*
X32949390Y4244192D01*
X33181613Y4198000D01*
X33418387Y4198000D01*
X33650610Y4244192D01*
X33869361Y4334801D01*
X34066230Y4466346D01*
X34233654Y4633770D01*
X34332332Y4781452D01*
X51423000Y4781452D01*
X51423000Y4618548D01*
X51454782Y4458773D01*
X51517123Y4308269D01*
X51607628Y4172819D01*
X51722819Y4057628D01*
X51858269Y3967123D01*
X52008773Y3904782D01*
X52168548Y3873000D01*
X52331452Y3873000D01*
X52491227Y3904782D01*
X52641731Y3967123D01*
X52777181Y4057628D01*
X52892372Y4172819D01*
X52982877Y4308269D01*
X53045218Y4458773D01*
X53077000Y4618548D01*
X53077000Y4781452D01*
X53045218Y4941227D01*
X52982877Y5091731D01*
X52892372Y5227181D01*
X52777181Y5342372D01*
X52641731Y5432877D01*
X52491227Y5495218D01*
X52331452Y5527000D01*
X52168548Y5527000D01*
X52008773Y5495218D01*
X51858269Y5432877D01*
X51722819Y5342372D01*
X51607628Y5227181D01*
X51517123Y5091731D01*
X51454782Y4941227D01*
X51423000Y4781452D01*
X34332332Y4781452D01*
X34365199Y4830639D01*
X34455808Y5049390D01*
X34502000Y5281613D01*
X34502000Y5518387D01*
X34455808Y5750610D01*
X34365199Y5969361D01*
X34233654Y6166230D01*
X34066230Y6333654D01*
X33919867Y6431452D01*
X38173000Y6431452D01*
X38173000Y6268548D01*
X38204782Y6108773D01*
X38267123Y5958269D01*
X38357628Y5822819D01*
X38472819Y5707628D01*
X38608269Y5617123D01*
X38758773Y5554782D01*
X38918548Y5523000D01*
X39081452Y5523000D01*
X39241227Y5554782D01*
X39391731Y5617123D01*
X39527181Y5707628D01*
X39642372Y5822819D01*
X39732877Y5958269D01*
X39795218Y6108773D01*
X39827000Y6268548D01*
X39827000Y6431452D01*
X39795218Y6591227D01*
X39732877Y6741731D01*
X39642372Y6877181D01*
X39527181Y6992372D01*
X39391731Y7082877D01*
X39241227Y7145218D01*
X39081452Y7177000D01*
X38918548Y7177000D01*
X38758773Y7145218D01*
X38608269Y7082877D01*
X38472819Y6992372D01*
X38357628Y6877181D01*
X38267123Y6741731D01*
X38204782Y6591227D01*
X38173000Y6431452D01*
X33919867Y6431452D01*
X33869361Y6465199D01*
X33650610Y6555808D01*
X33418387Y6602000D01*
X33181613Y6602000D01*
X32949390Y6555808D01*
X32730639Y6465199D01*
X32533770Y6333654D01*
X32366346Y6166230D01*
X32234801Y5969361D01*
X32144192Y5750610D01*
X32098000Y5518387D01*
X25002000Y5518387D01*
X24955808Y5750610D01*
X24865199Y5969361D01*
X24733654Y6166230D01*
X24566230Y6333654D01*
X24419867Y6431452D01*
X28623000Y6431452D01*
X28623000Y6268548D01*
X28654782Y6108773D01*
X28717123Y5958269D01*
X28807628Y5822819D01*
X28922819Y5707628D01*
X29058269Y5617123D01*
X29208773Y5554782D01*
X29368548Y5523000D01*
X29531452Y5523000D01*
X29691227Y5554782D01*
X29841731Y5617123D01*
X29977181Y5707628D01*
X30092372Y5822819D01*
X30182877Y5958269D01*
X30245218Y6108773D01*
X30277000Y6268548D01*
X30277000Y6431452D01*
X30245218Y6591227D01*
X30182877Y6741731D01*
X30092372Y6877181D01*
X29977181Y6992372D01*
X29841731Y7082877D01*
X29809504Y7096226D01*
X30723000Y7096226D01*
X30723000Y6903774D01*
X30760546Y6715020D01*
X30834194Y6537217D01*
X30941115Y6377199D01*
X31077199Y6241115D01*
X31237217Y6134194D01*
X31415020Y6060546D01*
X31603774Y6023000D01*
X31796226Y6023000D01*
X31984980Y6060546D01*
X32162783Y6134194D01*
X32322801Y6241115D01*
X32458885Y6377199D01*
X32565806Y6537217D01*
X32639454Y6715020D01*
X32677000Y6903774D01*
X32677000Y7096226D01*
X32639454Y7284980D01*
X32565806Y7462783D01*
X32458885Y7622801D01*
X32322801Y7758885D01*
X32162783Y7865806D01*
X31984980Y7939454D01*
X31796226Y7977000D01*
X31603774Y7977000D01*
X31415020Y7939454D01*
X31237217Y7865806D01*
X31077199Y7758885D01*
X30941115Y7622801D01*
X30834194Y7462783D01*
X30760546Y7284980D01*
X30723000Y7096226D01*
X29809504Y7096226D01*
X29691227Y7145218D01*
X29531452Y7177000D01*
X29368548Y7177000D01*
X29208773Y7145218D01*
X29058269Y7082877D01*
X28922819Y6992372D01*
X28807628Y6877181D01*
X28717123Y6741731D01*
X28654782Y6591227D01*
X28623000Y6431452D01*
X24419867Y6431452D01*
X24369361Y6465199D01*
X24150610Y6555808D01*
X23918387Y6602000D01*
X23681613Y6602000D01*
X23449390Y6555808D01*
X23230639Y6465199D01*
X23033770Y6333654D01*
X22866346Y6166230D01*
X22734801Y5969361D01*
X22644192Y5750610D01*
X22598000Y5518387D01*
X15402000Y5518387D01*
X15355808Y5750610D01*
X15265199Y5969361D01*
X15133654Y6166230D01*
X14966230Y6333654D01*
X14819867Y6431452D01*
X19073000Y6431452D01*
X19073000Y6268548D01*
X19104782Y6108773D01*
X19167123Y5958269D01*
X19257628Y5822819D01*
X19372819Y5707628D01*
X19508269Y5617123D01*
X19658773Y5554782D01*
X19818548Y5523000D01*
X19981452Y5523000D01*
X20141227Y5554782D01*
X20291731Y5617123D01*
X20427181Y5707628D01*
X20542372Y5822819D01*
X20632877Y5958269D01*
X20695218Y6108773D01*
X20727000Y6268548D01*
X20727000Y6431452D01*
X20695218Y6591227D01*
X20632877Y6741731D01*
X20542372Y6877181D01*
X20427181Y6992372D01*
X20291731Y7082877D01*
X20259504Y7096226D01*
X21223000Y7096226D01*
X21223000Y6903774D01*
X21260546Y6715020D01*
X21334194Y6537217D01*
X21441115Y6377199D01*
X21577199Y6241115D01*
X21737217Y6134194D01*
X21915020Y6060546D01*
X22103774Y6023000D01*
X22296226Y6023000D01*
X22484980Y6060546D01*
X22662783Y6134194D01*
X22822801Y6241115D01*
X22958885Y6377199D01*
X23065806Y6537217D01*
X23139454Y6715020D01*
X23177000Y6903774D01*
X23177000Y7096226D01*
X23139454Y7284980D01*
X23065806Y7462783D01*
X22958885Y7622801D01*
X22822801Y7758885D01*
X22662783Y7865806D01*
X22484980Y7939454D01*
X22296226Y7977000D01*
X22103774Y7977000D01*
X21915020Y7939454D01*
X21737217Y7865806D01*
X21577199Y7758885D01*
X21441115Y7622801D01*
X21334194Y7462783D01*
X21260546Y7284980D01*
X21223000Y7096226D01*
X20259504Y7096226D01*
X20141227Y7145218D01*
X19981452Y7177000D01*
X19818548Y7177000D01*
X19658773Y7145218D01*
X19508269Y7082877D01*
X19372819Y6992372D01*
X19257628Y6877181D01*
X19167123Y6741731D01*
X19104782Y6591227D01*
X19073000Y6431452D01*
X14819867Y6431452D01*
X14769361Y6465199D01*
X14550610Y6555808D01*
X14318387Y6602000D01*
X14081613Y6602000D01*
X13849390Y6555808D01*
X13630639Y6465199D01*
X13433770Y6333654D01*
X13266346Y6166230D01*
X13134801Y5969361D01*
X13044192Y5750610D01*
X12998000Y5518387D01*
X5802000Y5518387D01*
X5755808Y5750610D01*
X5665199Y5969361D01*
X5533654Y6166230D01*
X5366230Y6333654D01*
X5219867Y6431452D01*
X9473000Y6431452D01*
X9473000Y6268548D01*
X9504782Y6108773D01*
X9567123Y5958269D01*
X9657628Y5822819D01*
X9772819Y5707628D01*
X9908269Y5617123D01*
X10058773Y5554782D01*
X10218548Y5523000D01*
X10381452Y5523000D01*
X10541227Y5554782D01*
X10691731Y5617123D01*
X10827181Y5707628D01*
X10942372Y5822819D01*
X11032877Y5958269D01*
X11095218Y6108773D01*
X11127000Y6268548D01*
X11127000Y6431452D01*
X11095218Y6591227D01*
X11032877Y6741731D01*
X10942372Y6877181D01*
X10827181Y6992372D01*
X10691731Y7082877D01*
X10659504Y7096226D01*
X11623000Y7096226D01*
X11623000Y6903774D01*
X11660546Y6715020D01*
X11734194Y6537217D01*
X11841115Y6377199D01*
X11977199Y6241115D01*
X12137217Y6134194D01*
X12315020Y6060546D01*
X12503774Y6023000D01*
X12696226Y6023000D01*
X12884980Y6060546D01*
X13062783Y6134194D01*
X13222801Y6241115D01*
X13358885Y6377199D01*
X13465806Y6537217D01*
X13539454Y6715020D01*
X13577000Y6903774D01*
X13577000Y7096226D01*
X13539454Y7284980D01*
X13465806Y7462783D01*
X13358885Y7622801D01*
X13222801Y7758885D01*
X13062783Y7865806D01*
X12884980Y7939454D01*
X12696226Y7977000D01*
X12503774Y7977000D01*
X12315020Y7939454D01*
X12137217Y7865806D01*
X11977199Y7758885D01*
X11841115Y7622801D01*
X11734194Y7462783D01*
X11660546Y7284980D01*
X11623000Y7096226D01*
X10659504Y7096226D01*
X10541227Y7145218D01*
X10381452Y7177000D01*
X10218548Y7177000D01*
X10058773Y7145218D01*
X9908269Y7082877D01*
X9772819Y6992372D01*
X9657628Y6877181D01*
X9567123Y6741731D01*
X9504782Y6591227D01*
X9473000Y6431452D01*
X5219867Y6431452D01*
X5169361Y6465199D01*
X4950610Y6555808D01*
X4718387Y6602000D01*
X4481613Y6602000D01*
X4249390Y6555808D01*
X4030639Y6465199D01*
X3833770Y6333654D01*
X3666346Y6166230D01*
X3534801Y5969361D01*
X3444192Y5750610D01*
X3398000Y5518387D01*
X352000Y5518387D01*
X352000Y7096226D01*
X2023000Y7096226D01*
X2023000Y6903774D01*
X2060546Y6715020D01*
X2134194Y6537217D01*
X2241115Y6377199D01*
X2377199Y6241115D01*
X2537217Y6134194D01*
X2715020Y6060546D01*
X2903774Y6023000D01*
X3096226Y6023000D01*
X3284980Y6060546D01*
X3462783Y6134194D01*
X3622801Y6241115D01*
X3758885Y6377199D01*
X3865806Y6537217D01*
X3939454Y6715020D01*
X3977000Y6903774D01*
X3977000Y7096226D01*
X3939454Y7284980D01*
X3865806Y7462783D01*
X3758885Y7622801D01*
X3622801Y7758885D01*
X3462783Y7865806D01*
X3284980Y7939454D01*
X3096226Y7977000D01*
X2903774Y7977000D01*
X2715020Y7939454D01*
X2537217Y7865806D01*
X2377199Y7758885D01*
X2241115Y7622801D01*
X2134194Y7462783D01*
X2060546Y7284980D01*
X2023000Y7096226D01*
X352000Y7096226D01*
X352000Y8081452D01*
X6073000Y8081452D01*
X6073000Y7918548D01*
X6104782Y7758773D01*
X6167123Y7608269D01*
X6257628Y7472819D01*
X6372819Y7357628D01*
X6508269Y7267123D01*
X6658773Y7204782D01*
X6818548Y7173000D01*
X6981452Y7173000D01*
X7141227Y7204782D01*
X7291731Y7267123D01*
X7427181Y7357628D01*
X7542372Y7472819D01*
X7632877Y7608269D01*
X7695218Y7758773D01*
X7727000Y7918548D01*
X7727000Y8081452D01*
X15573000Y8081452D01*
X15573000Y7918548D01*
X15604782Y7758773D01*
X15667123Y7608269D01*
X15757628Y7472819D01*
X15872819Y7357628D01*
X16008269Y7267123D01*
X16158773Y7204782D01*
X16318548Y7173000D01*
X16481452Y7173000D01*
X16641227Y7204782D01*
X16791731Y7267123D01*
X16927181Y7357628D01*
X17042372Y7472819D01*
X17132877Y7608269D01*
X17195218Y7758773D01*
X17227000Y7918548D01*
X17227000Y8081452D01*
X25273000Y8081452D01*
X25273000Y7918548D01*
X25304782Y7758773D01*
X25367123Y7608269D01*
X25457628Y7472819D01*
X25572819Y7357628D01*
X25708269Y7267123D01*
X25858773Y7204782D01*
X26018548Y7173000D01*
X26181452Y7173000D01*
X26341227Y7204782D01*
X26491731Y7267123D01*
X26627181Y7357628D01*
X26742372Y7472819D01*
X26832877Y7608269D01*
X26895218Y7758773D01*
X26927000Y7918548D01*
X26927000Y8081452D01*
X34773000Y8081452D01*
X34773000Y7918548D01*
X34804782Y7758773D01*
X34867123Y7608269D01*
X34957628Y7472819D01*
X35072819Y7357628D01*
X35208269Y7267123D01*
X35358773Y7204782D01*
X35518548Y7173000D01*
X35681452Y7173000D01*
X35841227Y7204782D01*
X35991731Y7267123D01*
X36127181Y7357628D01*
X36242372Y7472819D01*
X36332877Y7608269D01*
X36395218Y7758773D01*
X36427000Y7918548D01*
X36427000Y8081452D01*
X36395218Y8241227D01*
X36332877Y8391731D01*
X36242372Y8527181D01*
X36127181Y8642372D01*
X35991731Y8732877D01*
X35841227Y8795218D01*
X35681452Y8827000D01*
X35518548Y8827000D01*
X35358773Y8795218D01*
X35208269Y8732877D01*
X35072819Y8642372D01*
X34957628Y8527181D01*
X34867123Y8391731D01*
X34804782Y8241227D01*
X34773000Y8081452D01*
X26927000Y8081452D01*
X26895218Y8241227D01*
X26832877Y8391731D01*
X26742372Y8527181D01*
X26627181Y8642372D01*
X26491731Y8732877D01*
X26341227Y8795218D01*
X26181452Y8827000D01*
X26018548Y8827000D01*
X25858773Y8795218D01*
X25708269Y8732877D01*
X25572819Y8642372D01*
X25457628Y8527181D01*
X25367123Y8391731D01*
X25304782Y8241227D01*
X25273000Y8081452D01*
X17227000Y8081452D01*
X17195218Y8241227D01*
X17132877Y8391731D01*
X17042372Y8527181D01*
X16927181Y8642372D01*
X16791731Y8732877D01*
X16641227Y8795218D01*
X16481452Y8827000D01*
X16318548Y8827000D01*
X16158773Y8795218D01*
X16008269Y8732877D01*
X15872819Y8642372D01*
X15757628Y8527181D01*
X15667123Y8391731D01*
X15604782Y8241227D01*
X15573000Y8081452D01*
X7727000Y8081452D01*
X7695218Y8241227D01*
X7632877Y8391731D01*
X7542372Y8527181D01*
X7427181Y8642372D01*
X7291731Y8732877D01*
X7141227Y8795218D01*
X6981452Y8827000D01*
X6818548Y8827000D01*
X6658773Y8795218D01*
X6508269Y8732877D01*
X6372819Y8642372D01*
X6257628Y8527181D01*
X6167123Y8391731D01*
X6104782Y8241227D01*
X6073000Y8081452D01*
X352000Y8081452D01*
X352000Y11981452D01*
X9673000Y11981452D01*
X9673000Y11818548D01*
X9704782Y11658773D01*
X9767123Y11508269D01*
X9857628Y11372819D01*
X9972819Y11257628D01*
X10108269Y11167123D01*
X10258773Y11104782D01*
X10418548Y11073000D01*
X10581452Y11073000D01*
X10623942Y11081452D01*
X44973000Y11081452D01*
X44973000Y10918548D01*
X45004782Y10758773D01*
X45067123Y10608269D01*
X45157628Y10472819D01*
X45272819Y10357628D01*
X45408269Y10267123D01*
X45558773Y10204782D01*
X45718548Y10173000D01*
X45881452Y10173000D01*
X46041227Y10204782D01*
X46191731Y10267123D01*
X46327181Y10357628D01*
X46442372Y10472819D01*
X46532877Y10608269D01*
X46595218Y10758773D01*
X46627000Y10918548D01*
X46627000Y11081452D01*
X46595218Y11241227D01*
X46532877Y11391731D01*
X46442372Y11527181D01*
X46327181Y11642372D01*
X46191731Y11732877D01*
X46041227Y11795218D01*
X45881452Y11827000D01*
X45718548Y11827000D01*
X45558773Y11795218D01*
X45408269Y11732877D01*
X45272819Y11642372D01*
X45157628Y11527181D01*
X45067123Y11391731D01*
X45004782Y11241227D01*
X44973000Y11081452D01*
X10623942Y11081452D01*
X10741227Y11104782D01*
X10891731Y11167123D01*
X11027181Y11257628D01*
X11142372Y11372819D01*
X11232877Y11508269D01*
X11295218Y11658773D01*
X11327000Y11818548D01*
X11327000Y11981452D01*
X11295218Y12141227D01*
X11232877Y12291731D01*
X11142372Y12427181D01*
X11027181Y12542372D01*
X10891731Y12632877D01*
X10741227Y12695218D01*
X10581452Y12727000D01*
X10418548Y12727000D01*
X10258773Y12695218D01*
X10108269Y12632877D01*
X9972819Y12542372D01*
X9857628Y12427181D01*
X9767123Y12291731D01*
X9704782Y12141227D01*
X9673000Y11981452D01*
X352000Y11981452D01*
X352000Y12931452D01*
X43423000Y12931452D01*
X43423000Y12768548D01*
X43454782Y12608773D01*
X43517123Y12458269D01*
X43607628Y12322819D01*
X43722819Y12207628D01*
X43858269Y12117123D01*
X44008773Y12054782D01*
X44168548Y12023000D01*
X44331452Y12023000D01*
X44491227Y12054782D01*
X44641731Y12117123D01*
X44777181Y12207628D01*
X44892372Y12322819D01*
X44982877Y12458269D01*
X45045218Y12608773D01*
X45077000Y12768548D01*
X45077000Y12931452D01*
X45045218Y13091227D01*
X44982877Y13241731D01*
X44892372Y13377181D01*
X44777181Y13492372D01*
X44641731Y13582877D01*
X44491227Y13645218D01*
X44331452Y13677000D01*
X44168548Y13677000D01*
X44008773Y13645218D01*
X43858269Y13582877D01*
X43722819Y13492372D01*
X43607628Y13377181D01*
X43517123Y13241731D01*
X43454782Y13091227D01*
X43423000Y12931452D01*
X352000Y12931452D01*
X352000Y14618387D01*
X3398000Y14618387D01*
X3398000Y14381613D01*
X3444192Y14149390D01*
X3534801Y13930639D01*
X3666346Y13733770D01*
X3833770Y13566346D01*
X4030639Y13434801D01*
X4249390Y13344192D01*
X4481613Y13298000D01*
X4718387Y13298000D01*
X4950610Y13344192D01*
X5169361Y13434801D01*
X5366230Y13566346D01*
X5533654Y13733770D01*
X5665199Y13930639D01*
X5755808Y14149390D01*
X5802000Y14381613D01*
X5802000Y14618387D01*
X5755808Y14850610D01*
X5665199Y15069361D01*
X5533654Y15266230D01*
X5366230Y15433654D01*
X5219867Y15531452D01*
X9347990Y15531452D01*
X9347990Y15368548D01*
X9379772Y15208773D01*
X9442113Y15058269D01*
X9532618Y14922819D01*
X9647809Y14807628D01*
X9783259Y14717123D01*
X9933763Y14654782D01*
X10093538Y14623000D01*
X10256442Y14623000D01*
X10416217Y14654782D01*
X10566721Y14717123D01*
X10702171Y14807628D01*
X10817362Y14922819D01*
X10907867Y15058269D01*
X10970208Y15208773D01*
X11001990Y15368548D01*
X11001990Y15531452D01*
X10970208Y15691227D01*
X10907867Y15841731D01*
X10817362Y15977181D01*
X10702171Y16092372D01*
X10566721Y16182877D01*
X10416217Y16245218D01*
X10256442Y16277000D01*
X10093538Y16277000D01*
X9933763Y16245218D01*
X9783259Y16182877D01*
X9647809Y16092372D01*
X9532618Y15977181D01*
X9442113Y15841731D01*
X9379772Y15691227D01*
X9347990Y15531452D01*
X5219867Y15531452D01*
X5169361Y15565199D01*
X4950610Y15655808D01*
X4718387Y15702000D01*
X4481613Y15702000D01*
X4249390Y15655808D01*
X4030639Y15565199D01*
X3833770Y15433654D01*
X3666346Y15266230D01*
X3534801Y15069361D01*
X3444192Y14850610D01*
X3398000Y14618387D01*
X352000Y14618387D01*
X352000Y16196226D01*
X2023000Y16196226D01*
X2023000Y16003774D01*
X2060546Y15815020D01*
X2134194Y15637217D01*
X2241115Y15477199D01*
X2377199Y15341115D01*
X2537217Y15234194D01*
X2715020Y15160546D01*
X2903774Y15123000D01*
X3096226Y15123000D01*
X3284980Y15160546D01*
X3462783Y15234194D01*
X3622801Y15341115D01*
X3758885Y15477199D01*
X3865806Y15637217D01*
X3939454Y15815020D01*
X3977000Y16003774D01*
X3977000Y16196226D01*
X3939454Y16384980D01*
X3865806Y16562783D01*
X3758885Y16722801D01*
X3622801Y16858885D01*
X3462783Y16965806D01*
X3284980Y17039454D01*
X3096226Y17077000D01*
X2903774Y17077000D01*
X2715020Y17039454D01*
X2537217Y16965806D01*
X2377199Y16858885D01*
X2241115Y16722801D01*
X2134194Y16562783D01*
X2060546Y16384980D01*
X2023000Y16196226D01*
X352000Y16196226D01*
X352000Y17181452D01*
X6073000Y17181452D01*
X6073000Y17018548D01*
X6104782Y16858773D01*
X6167123Y16708269D01*
X6257628Y16572819D01*
X6372819Y16457628D01*
X6508269Y16367123D01*
X6658773Y16304782D01*
X6818548Y16273000D01*
X6981452Y16273000D01*
X7141227Y16304782D01*
X7291731Y16367123D01*
X7427181Y16457628D01*
X7542372Y16572819D01*
X7632877Y16708269D01*
X7642479Y16731452D01*
X43423000Y16731452D01*
X43423000Y16568548D01*
X43454782Y16408773D01*
X43517123Y16258269D01*
X43607628Y16122819D01*
X43722819Y16007628D01*
X43858269Y15917123D01*
X44008773Y15854782D01*
X44168548Y15823000D01*
X44331452Y15823000D01*
X44491227Y15854782D01*
X44641731Y15917123D01*
X44777181Y16007628D01*
X44892372Y16122819D01*
X44982877Y16258269D01*
X45045218Y16408773D01*
X45077000Y16568548D01*
X45077000Y16731452D01*
X45045218Y16891227D01*
X44982877Y17041731D01*
X44892372Y17177181D01*
X44777181Y17292372D01*
X44641731Y17382877D01*
X44491227Y17445218D01*
X44331452Y17477000D01*
X44168548Y17477000D01*
X44008773Y17445218D01*
X43858269Y17382877D01*
X43722819Y17292372D01*
X43607628Y17177181D01*
X43517123Y17041731D01*
X43454782Y16891227D01*
X43423000Y16731452D01*
X7642479Y16731452D01*
X7695218Y16858773D01*
X7727000Y17018548D01*
X7727000Y17181452D01*
X7695218Y17341227D01*
X7632877Y17491731D01*
X7542372Y17627181D01*
X7427181Y17742372D01*
X7291731Y17832877D01*
X7141227Y17895218D01*
X6981452Y17927000D01*
X6818548Y17927000D01*
X6658773Y17895218D01*
X6508269Y17832877D01*
X6372819Y17742372D01*
X6257628Y17627181D01*
X6167123Y17491731D01*
X6104782Y17341227D01*
X6073000Y17181452D01*
X352000Y17181452D01*
X352000Y18581452D01*
X53123000Y18581452D01*
X53123000Y18418548D01*
X53154782Y18258773D01*
X53217123Y18108269D01*
X53307628Y17972819D01*
X53422819Y17857628D01*
X53558269Y17767123D01*
X53708773Y17704782D01*
X53868548Y17673000D01*
X54031452Y17673000D01*
X54191227Y17704782D01*
X54341731Y17767123D01*
X54477181Y17857628D01*
X54592372Y17972819D01*
X54682877Y18108269D01*
X54745218Y18258773D01*
X54777000Y18418548D01*
X54777000Y18581452D01*
X54745218Y18741227D01*
X54682877Y18891731D01*
X54592372Y19027181D01*
X54477181Y19142372D01*
X54341731Y19232877D01*
X54191227Y19295218D01*
X54031452Y19327000D01*
X53868548Y19327000D01*
X53708773Y19295218D01*
X53558269Y19232877D01*
X53422819Y19142372D01*
X53307628Y19027181D01*
X53217123Y18891731D01*
X53154782Y18741227D01*
X53123000Y18581452D01*
X352000Y18581452D01*
X352000Y20871603D01*
X27423000Y20871603D01*
X27423000Y20728397D01*
X27450938Y20587942D01*
X27505741Y20455636D01*
X27585302Y20336564D01*
X27686564Y20235302D01*
X27805636Y20155741D01*
X27937942Y20100938D01*
X28078397Y20073000D01*
X28221603Y20073000D01*
X28362058Y20100938D01*
X28494364Y20155741D01*
X28613436Y20235302D01*
X28714698Y20336564D01*
X28794259Y20455636D01*
X28825663Y20531452D01*
X43423000Y20531452D01*
X43423000Y20368548D01*
X43454782Y20208773D01*
X43517123Y20058269D01*
X43607628Y19922819D01*
X43722819Y19807628D01*
X43858269Y19717123D01*
X44008773Y19654782D01*
X44168548Y19623000D01*
X44331452Y19623000D01*
X44491227Y19654782D01*
X44641731Y19717123D01*
X44777181Y19807628D01*
X44892372Y19922819D01*
X44982877Y20058269D01*
X45045218Y20208773D01*
X45077000Y20368548D01*
X45077000Y20531452D01*
X45045218Y20691227D01*
X44982877Y20841731D01*
X44892372Y20977181D01*
X44777181Y21092372D01*
X44641731Y21182877D01*
X44491227Y21245218D01*
X44331452Y21277000D01*
X44168548Y21277000D01*
X44008773Y21245218D01*
X43858269Y21182877D01*
X43722819Y21092372D01*
X43607628Y20977181D01*
X43517123Y20841731D01*
X43454782Y20691227D01*
X43423000Y20531452D01*
X28825663Y20531452D01*
X28849062Y20587942D01*
X28877000Y20728397D01*
X28877000Y20871603D01*
X28849062Y21012058D01*
X28794259Y21144364D01*
X28714698Y21263436D01*
X28613436Y21364698D01*
X28494364Y21444259D01*
X28362058Y21499062D01*
X28221603Y21527000D01*
X28078397Y21527000D01*
X27937942Y21499062D01*
X27805636Y21444259D01*
X27686564Y21364698D01*
X27585302Y21263436D01*
X27505741Y21144364D01*
X27450938Y21012058D01*
X27423000Y20871603D01*
X352000Y20871603D01*
X352000Y22431452D01*
X50522996Y22431452D01*
X50522996Y22268548D01*
X50554778Y22108773D01*
X50617119Y21958269D01*
X50707624Y21822819D01*
X50822815Y21707628D01*
X50958265Y21617123D01*
X51108769Y21554782D01*
X51268544Y21523000D01*
X51431448Y21523000D01*
X51591223Y21554782D01*
X51741727Y21617123D01*
X51877177Y21707628D01*
X51992368Y21822819D01*
X52082873Y21958269D01*
X52145214Y22108773D01*
X52176996Y22268548D01*
X52176996Y22431452D01*
X52145214Y22591227D01*
X52082873Y22741731D01*
X51992368Y22877181D01*
X51877177Y22992372D01*
X51741727Y23082877D01*
X51591223Y23145218D01*
X51431448Y23177000D01*
X51268544Y23177000D01*
X51108769Y23145218D01*
X50958265Y23082877D01*
X50822815Y22992372D01*
X50707624Y22877181D01*
X50617119Y22741731D01*
X50554778Y22591227D01*
X50522996Y22431452D01*
X352000Y22431452D01*
X352000Y24771603D01*
X26073000Y24771603D01*
X26073000Y24628397D01*
X26100938Y24487942D01*
X26155741Y24355636D01*
X26235302Y24236564D01*
X26336564Y24135302D01*
X26455636Y24055741D01*
X26587942Y24000938D01*
X26728397Y23973000D01*
X26871603Y23973000D01*
X27012058Y24000938D01*
X27144364Y24055741D01*
X27196691Y24090704D01*
X27173000Y23971603D01*
X27173000Y23828397D01*
X27200938Y23687942D01*
X27255741Y23555636D01*
X27335302Y23436564D01*
X27436564Y23335302D01*
X27555636Y23255741D01*
X27687942Y23200938D01*
X27828397Y23173000D01*
X27971603Y23173000D01*
X28112058Y23200938D01*
X28244364Y23255741D01*
X28363436Y23335302D01*
X28464698Y23436564D01*
X28544259Y23555636D01*
X28599062Y23687942D01*
X28627000Y23828397D01*
X28627000Y23971603D01*
X28599062Y24112058D01*
X28544259Y24244364D01*
X28486069Y24331452D01*
X43423000Y24331452D01*
X43423000Y24168548D01*
X43454782Y24008773D01*
X43517123Y23858269D01*
X43607628Y23722819D01*
X43722819Y23607628D01*
X43858269Y23517123D01*
X44008773Y23454782D01*
X44168548Y23423000D01*
X44331452Y23423000D01*
X44491227Y23454782D01*
X44641731Y23517123D01*
X44777181Y23607628D01*
X44892372Y23722819D01*
X44982877Y23858269D01*
X45045218Y24008773D01*
X45077000Y24168548D01*
X45077000Y24331452D01*
X45045218Y24491227D01*
X44982877Y24641731D01*
X44892372Y24777181D01*
X44777181Y24892372D01*
X44641731Y24982877D01*
X44491227Y25045218D01*
X44331452Y25077000D01*
X44168548Y25077000D01*
X44008773Y25045218D01*
X43858269Y24982877D01*
X43722819Y24892372D01*
X43607628Y24777181D01*
X43517123Y24641731D01*
X43454782Y24491227D01*
X43423000Y24331452D01*
X28486069Y24331452D01*
X28464698Y24363436D01*
X28363436Y24464698D01*
X28244364Y24544259D01*
X28112058Y24599062D01*
X27971603Y24627000D01*
X27828397Y24627000D01*
X27687942Y24599062D01*
X27555636Y24544259D01*
X27503309Y24509296D01*
X27527000Y24628397D01*
X27527000Y24771603D01*
X27499062Y24912058D01*
X27444259Y25044364D01*
X27364698Y25163436D01*
X27263436Y25264698D01*
X27144364Y25344259D01*
X27012058Y25399062D01*
X26871603Y25427000D01*
X26728397Y25427000D01*
X26587942Y25399062D01*
X26455636Y25344259D01*
X26336564Y25264698D01*
X26235302Y25163436D01*
X26155741Y25044364D01*
X26100938Y24912058D01*
X26073000Y24771603D01*
X352000Y24771603D01*
X352000Y27780665D01*
X388632Y27808752D01*
X502395Y27855844D01*
X632785Y27873000D01*
X13400000Y27873000D01*
X13416577Y27874087D01*
X13571868Y27894532D01*
X13603891Y27903112D01*
X13748600Y27963052D01*
X13777313Y27979629D01*
X13901577Y28074980D01*
X13925020Y28098423D01*
X13950364Y28131452D01*
X43423000Y28131452D01*
X43423000Y27968548D01*
X43454782Y27808773D01*
X43517123Y27658269D01*
X43607628Y27522819D01*
X43722819Y27407628D01*
X43858269Y27317123D01*
X44008773Y27254782D01*
X44168548Y27223000D01*
X44331452Y27223000D01*
X44491227Y27254782D01*
X44641731Y27317123D01*
X44777181Y27407628D01*
X44892372Y27522819D01*
X44982877Y27658269D01*
X45045218Y27808773D01*
X45077000Y27968548D01*
X45077000Y28131452D01*
X45045218Y28291227D01*
X44982877Y28441731D01*
X44892372Y28577181D01*
X44777181Y28692372D01*
X44641731Y28782877D01*
X44491227Y28845218D01*
X44331452Y28877000D01*
X44168548Y28877000D01*
X44008773Y28845218D01*
X43858269Y28782877D01*
X43722819Y28692372D01*
X43607628Y28577181D01*
X43517123Y28441731D01*
X43454782Y28291227D01*
X43423000Y28131452D01*
X13950364Y28131452D01*
X14020371Y28222687D01*
X14036948Y28251400D01*
X14096888Y28396109D01*
X14105468Y28428132D01*
X14125913Y28583423D01*
X14127000Y28600000D01*
X14127000Y29071603D01*
X26073000Y29071603D01*
X26073000Y28928397D01*
X26100938Y28787942D01*
X26155741Y28655636D01*
X26235302Y28536564D01*
X26336564Y28435302D01*
X26455636Y28355741D01*
X26587942Y28300938D01*
X26728397Y28273000D01*
X26871603Y28273000D01*
X27012058Y28300938D01*
X27144364Y28355741D01*
X27263436Y28435302D01*
X27364698Y28536564D01*
X27444259Y28655636D01*
X27499062Y28787942D01*
X27527000Y28928397D01*
X27527000Y29071603D01*
X27499062Y29212058D01*
X27444259Y29344364D01*
X27364698Y29463436D01*
X27263436Y29564698D01*
X27144364Y29644259D01*
X27012058Y29699062D01*
X26871603Y29727000D01*
X26728397Y29727000D01*
X26587942Y29699062D01*
X26455636Y29644259D01*
X26336564Y29564698D01*
X26235302Y29463436D01*
X26155741Y29344364D01*
X26100938Y29212058D01*
X26073000Y29071603D01*
X14127000Y29071603D01*
X14127000Y29100000D01*
X14125913Y29116577D01*
X14105468Y29271868D01*
X14096888Y29303891D01*
X14036948Y29448600D01*
X14020371Y29477313D01*
X13925020Y29601577D01*
X13901577Y29625020D01*
X13777313Y29720371D01*
X13748600Y29736948D01*
X13603891Y29796888D01*
X13571868Y29805468D01*
X13416577Y29825913D01*
X13400000Y29827000D01*
X13008321Y29827000D01*
X12877864Y29844175D01*
X12764049Y29891319D01*
X12666314Y29966314D01*
X12591319Y30064049D01*
X12544175Y30177864D01*
X12527000Y30308321D01*
X12527000Y30371603D01*
X25273000Y30371603D01*
X25273000Y30228397D01*
X25300938Y30087942D01*
X25355741Y29955636D01*
X25435302Y29836564D01*
X25536564Y29735302D01*
X25655636Y29655741D01*
X25787942Y29600938D01*
X25928397Y29573000D01*
X26071603Y29573000D01*
X26212058Y29600938D01*
X26344364Y29655741D01*
X26463436Y29735302D01*
X26564698Y29836564D01*
X26644259Y29955636D01*
X26699062Y30087942D01*
X26727000Y30228397D01*
X26727000Y30371603D01*
X26699062Y30512058D01*
X26644259Y30644364D01*
X26564698Y30763436D01*
X26463436Y30864698D01*
X26344364Y30944259D01*
X26212058Y30999062D01*
X26071603Y31027000D01*
X25928397Y31027000D01*
X25787942Y30999062D01*
X25655636Y30944259D01*
X25536564Y30864698D01*
X25435302Y30763436D01*
X25355741Y30644364D01*
X25300938Y30512058D01*
X25273000Y30371603D01*
X12527000Y30371603D01*
X12527000Y32721603D01*
X25323000Y32721603D01*
X25323000Y32578397D01*
X25350938Y32437942D01*
X25405741Y32305636D01*
X25485302Y32186564D01*
X25586564Y32085302D01*
X25705636Y32005741D01*
X25837942Y31950938D01*
X25978397Y31923000D01*
X26121603Y31923000D01*
X26164094Y31931452D01*
X43423000Y31931452D01*
X43423000Y31768548D01*
X43454782Y31608773D01*
X43517123Y31458269D01*
X43607628Y31322819D01*
X43722819Y31207628D01*
X43858269Y31117123D01*
X44008773Y31054782D01*
X44168548Y31023000D01*
X44331452Y31023000D01*
X44491227Y31054782D01*
X44641731Y31117123D01*
X44777181Y31207628D01*
X44892372Y31322819D01*
X44982877Y31458269D01*
X45045218Y31608773D01*
X45077000Y31768548D01*
X45077000Y31931452D01*
X45045218Y32091227D01*
X44982877Y32241731D01*
X44892372Y32377181D01*
X44777181Y32492372D01*
X44641731Y32582877D01*
X44491227Y32645218D01*
X44331452Y32677000D01*
X44168548Y32677000D01*
X44008773Y32645218D01*
X43858269Y32582877D01*
X43722819Y32492372D01*
X43607628Y32377181D01*
X43517123Y32241731D01*
X43454782Y32091227D01*
X43423000Y31931452D01*
X26164094Y31931452D01*
X26262058Y31950938D01*
X26394364Y32005741D01*
X26513436Y32085302D01*
X26614698Y32186564D01*
X26694259Y32305636D01*
X26749062Y32437942D01*
X26777000Y32578397D01*
X26777000Y32721603D01*
X26767055Y32771603D01*
X27573000Y32771603D01*
X27573000Y32628397D01*
X27600938Y32487942D01*
X27655741Y32355636D01*
X27735302Y32236564D01*
X27836564Y32135302D01*
X27955636Y32055741D01*
X28087942Y32000938D01*
X28228397Y31973000D01*
X28371603Y31973000D01*
X28512058Y32000938D01*
X28644364Y32055741D01*
X28763436Y32135302D01*
X28864698Y32236564D01*
X28944259Y32355636D01*
X28999062Y32487942D01*
X29027000Y32628397D01*
X29027000Y32771603D01*
X28999062Y32912058D01*
X28944259Y33044364D01*
X28864698Y33163436D01*
X28763436Y33264698D01*
X28644364Y33344259D01*
X28512058Y33399062D01*
X28371603Y33427000D01*
X28228397Y33427000D01*
X28087942Y33399062D01*
X27955636Y33344259D01*
X27836564Y33264698D01*
X27735302Y33163436D01*
X27655741Y33044364D01*
X27600938Y32912058D01*
X27573000Y32771603D01*
X26767055Y32771603D01*
X26749062Y32862058D01*
X26694259Y32994364D01*
X26614698Y33113436D01*
X26513436Y33214698D01*
X26394364Y33294259D01*
X26262058Y33349062D01*
X26121603Y33377000D01*
X25978397Y33377000D01*
X25837942Y33349062D01*
X25705636Y33294259D01*
X25586564Y33214698D01*
X25485302Y33113436D01*
X25405741Y32994364D01*
X25350938Y32862058D01*
X25323000Y32721603D01*
X12527000Y32721603D01*
X12527000Y33600000D01*
X12525913Y33616577D01*
X12505468Y33771868D01*
X12496888Y33803891D01*
X12436948Y33948600D01*
X12420371Y33977313D01*
X12325020Y34101577D01*
X12301577Y34125020D01*
X12177313Y34220371D01*
X12148600Y34236948D01*
X12003891Y34296888D01*
X11971868Y34305468D01*
X11816577Y34325913D01*
X11800000Y34327000D01*
X7008321Y34327000D01*
X6877864Y34344175D01*
X6764049Y34391319D01*
X6666314Y34466314D01*
X6591319Y34564049D01*
X6544175Y34677864D01*
X6527000Y34808321D01*
X6527000Y35731452D01*
X43423000Y35731452D01*
X43423000Y35568548D01*
X43454782Y35408773D01*
X43517123Y35258269D01*
X43607628Y35122819D01*
X43722819Y35007628D01*
X43858269Y34917123D01*
X44008773Y34854782D01*
X44168548Y34823000D01*
X44331452Y34823000D01*
X44491227Y34854782D01*
X44641731Y34917123D01*
X44777181Y35007628D01*
X44892372Y35122819D01*
X44982877Y35258269D01*
X45045218Y35408773D01*
X45077000Y35568548D01*
X45077000Y35581452D01*
X50523000Y35581452D01*
X50523000Y35418548D01*
X50554782Y35258773D01*
X50617123Y35108269D01*
X50707628Y34972819D01*
X50822819Y34857628D01*
X50958269Y34767123D01*
X51108773Y34704782D01*
X51268548Y34673000D01*
X51431452Y34673000D01*
X51591227Y34704782D01*
X51741731Y34767123D01*
X51877181Y34857628D01*
X51992372Y34972819D01*
X52082877Y35108269D01*
X52145218Y35258773D01*
X52177000Y35418548D01*
X52177000Y35581452D01*
X52145218Y35741227D01*
X52082877Y35891731D01*
X51992372Y36027181D01*
X51877181Y36142372D01*
X51741731Y36232877D01*
X51591227Y36295218D01*
X51431452Y36327000D01*
X51268548Y36327000D01*
X51108773Y36295218D01*
X50958269Y36232877D01*
X50822819Y36142372D01*
X50707628Y36027181D01*
X50617123Y35891731D01*
X50554782Y35741227D01*
X50523000Y35581452D01*
X45077000Y35581452D01*
X45077000Y35731452D01*
X45045218Y35891227D01*
X44982877Y36041731D01*
X44892372Y36177181D01*
X44777181Y36292372D01*
X44641731Y36382877D01*
X44491227Y36445218D01*
X44331452Y36477000D01*
X44168548Y36477000D01*
X44008773Y36445218D01*
X43858269Y36382877D01*
X43722819Y36292372D01*
X43607628Y36177181D01*
X43517123Y36041731D01*
X43454782Y35891227D01*
X43423000Y35731452D01*
X6527000Y35731452D01*
X6527000Y40281452D01*
X22773000Y40281452D01*
X22773000Y40118548D01*
X22804782Y39958773D01*
X22867123Y39808269D01*
X22957628Y39672819D01*
X23072819Y39557628D01*
X23208269Y39467123D01*
X23358773Y39404782D01*
X23518548Y39373000D01*
X23681452Y39373000D01*
X23841227Y39404782D01*
X23991731Y39467123D01*
X24127181Y39557628D01*
X24242372Y39672819D01*
X24332877Y39808269D01*
X24395218Y39958773D01*
X24427000Y40118548D01*
X24427000Y40281452D01*
X24395218Y40441227D01*
X24332877Y40591731D01*
X24242372Y40727181D01*
X24127181Y40842372D01*
X23991731Y40932877D01*
X23841227Y40995218D01*
X23681452Y41027000D01*
X23518548Y41027000D01*
X23358773Y40995218D01*
X23208269Y40932877D01*
X23072819Y40842372D01*
X22957628Y40727181D01*
X22867123Y40591731D01*
X22804782Y40441227D01*
X22773000Y40281452D01*
X6527000Y40281452D01*
X6527000Y57541679D01*
X6544175Y57672136D01*
X6591319Y57785951D01*
X6666314Y57883686D01*
X6764049Y57958681D01*
X6877864Y58005825D01*
X7008321Y58023000D01*
X12091679Y58023000D01*
X12222136Y58005825D01*
X12335951Y57958681D01*
X12433686Y57883686D01*
X12508681Y57785951D01*
X12555825Y57672136D01*
X12573000Y57541679D01*
X12573000Y45100000D01*
X12574087Y45083423D01*
X12594532Y44928132D01*
X12603112Y44896109D01*
X12663052Y44751400D01*
X12679629Y44722687D01*
X12774980Y44598423D01*
X12798423Y44574980D01*
X12922687Y44479629D01*
X12951400Y44463052D01*
X13096109Y44403112D01*
X13128132Y44394532D01*
X13283423Y44374087D01*
X13300000Y44373000D01*
X22759364Y44373000D01*
X22704782Y44241227D01*
X22673000Y44081452D01*
X22673000Y43918548D01*
X22704782Y43758773D01*
X22767123Y43608269D01*
X22857628Y43472819D01*
X22972819Y43357628D01*
X23108269Y43267123D01*
X23258773Y43204782D01*
X23418548Y43173000D01*
X23581452Y43173000D01*
X23741227Y43204782D01*
X23891731Y43267123D01*
X24027181Y43357628D01*
X24142372Y43472819D01*
X24232877Y43608269D01*
X24295218Y43758773D01*
X24327000Y43918548D01*
X24327000Y44081452D01*
X24295218Y44241227D01*
X24240636Y44373000D01*
X33559364Y44373000D01*
X33504782Y44241227D01*
X33473000Y44081452D01*
X33473000Y43918548D01*
X33504782Y43758773D01*
X33567123Y43608269D01*
X33657628Y43472819D01*
X33772819Y43357628D01*
X33908269Y43267123D01*
X34058773Y43204782D01*
X34218548Y43173000D01*
X34381452Y43173000D01*
X34541227Y43204782D01*
X34691731Y43267123D01*
X34827181Y43357628D01*
X34942372Y43472819D01*
X35025000Y43596480D01*
X35107628Y43472819D01*
X35222819Y43357628D01*
X35358269Y43267123D01*
X35508773Y43204782D01*
X35668548Y43173000D01*
X35831452Y43173000D01*
X35991227Y43204782D01*
X36141731Y43267123D01*
X36277181Y43357628D01*
X36392372Y43472819D01*
X36482877Y43608269D01*
X36545218Y43758773D01*
X36577000Y43918548D01*
X36577000Y44081452D01*
X36545218Y44241227D01*
X36490636Y44373000D01*
X44359364Y44373000D01*
X44304782Y44241227D01*
X44273000Y44081452D01*
X44273000Y43918548D01*
X44304782Y43758773D01*
X44367123Y43608269D01*
X44457628Y43472819D01*
X44572819Y43357628D01*
X44708269Y43267123D01*
X44858773Y43204782D01*
X45018548Y43173000D01*
X45181452Y43173000D01*
X45341227Y43204782D01*
X45491731Y43267123D01*
X45627181Y43357628D01*
X45742372Y43472819D01*
X45832877Y43608269D01*
X45895218Y43758773D01*
X45927000Y43918548D01*
X45927000Y44081452D01*
X45895218Y44241227D01*
X45840636Y44373000D01*
X47500000Y44373000D01*
X47516577Y44374087D01*
X47671868Y44394532D01*
X47703891Y44403112D01*
X47848600Y44463052D01*
X47877313Y44479629D01*
X48001577Y44574980D01*
X48025020Y44598423D01*
X48120371Y44722687D01*
X48136948Y44751400D01*
X48196888Y44896109D01*
X48205468Y44928132D01*
X48225913Y45083423D01*
X48227000Y45100000D01*
X48227000Y70391679D01*
X48244175Y70522136D01*
X48291319Y70635951D01*
X48300565Y70648000D01*
X60399435Y70648000D01*
X60408681Y70635951D01*
G37*
X60408681Y70635951D02*
X60455825Y70522136D01*
X60473000Y70391679D01*
X60473000Y49927000D01*
X57726529Y49927000D01*
X57669361Y49965199D01*
X57450610Y50055808D01*
X57218387Y50102000D01*
X56981613Y50102000D01*
X56749390Y50055808D01*
X56530639Y49965199D01*
X56467528Y49923029D01*
X56360419Y49901724D01*
X56336594Y49894497D01*
X56314637Y49882761D01*
X56217310Y49817729D01*
X56198066Y49801935D01*
X56182271Y49782690D01*
X56117239Y49685363D01*
X56105503Y49663406D01*
X56098276Y49639581D01*
X56076971Y49532472D01*
X56034801Y49469361D01*
X55944192Y49250610D01*
X55898000Y49018387D01*
X55898000Y48781613D01*
X55944192Y48549390D01*
X56034801Y48330639D01*
X56073000Y48273471D01*
X56073000Y47026529D01*
X56034801Y46969361D01*
X55944192Y46750610D01*
X55898000Y46518387D01*
X55898000Y46281613D01*
X55944192Y46049390D01*
X56034801Y45830639D01*
X56073000Y45773471D01*
X56073000Y44526529D01*
X56034801Y44469361D01*
X55944192Y44250610D01*
X55898000Y44018387D01*
X55898000Y43781613D01*
X55944192Y43549390D01*
X56034801Y43330639D01*
X56073000Y43273471D01*
X56073000Y41800000D01*
X56075440Y41775224D01*
X56098276Y41660419D01*
X56105503Y41636594D01*
X56117239Y41614637D01*
X56182271Y41517310D01*
X56198065Y41498066D01*
X56217310Y41482271D01*
X56314637Y41417239D01*
X56336594Y41405503D01*
X56360419Y41398276D01*
X56475224Y41375440D01*
X56500000Y41373000D01*
X58384953Y41373000D01*
X58415020Y41360546D01*
X58603774Y41323000D01*
X58796226Y41323000D01*
X58984980Y41360546D01*
X59015047Y41373000D01*
X60473000Y41373000D01*
X60473000Y29024148D01*
X57630798Y29024148D01*
X57569361Y29065199D01*
X57350610Y29155808D01*
X57118387Y29202000D01*
X56881613Y29202000D01*
X56649390Y29155808D01*
X56430639Y29065199D01*
X56361451Y29018968D01*
X56260419Y28998872D01*
X56236594Y28991645D01*
X56214637Y28979909D01*
X56117310Y28914877D01*
X56098066Y28899083D01*
X56082271Y28879838D01*
X56017239Y28782511D01*
X56005503Y28760554D01*
X55998276Y28736729D01*
X55977779Y28633681D01*
X55934801Y28569361D01*
X55844192Y28350610D01*
X55798000Y28118387D01*
X55798000Y27881613D01*
X55844192Y27649390D01*
X55934801Y27430639D01*
X55973000Y27373471D01*
X55973000Y26126529D01*
X55934801Y26069361D01*
X55844192Y25850610D01*
X55798000Y25618387D01*
X55798000Y25381613D01*
X55844192Y25149390D01*
X55934801Y24930639D01*
X55973000Y24873471D01*
X55973000Y23626529D01*
X55934801Y23569361D01*
X55844192Y23350610D01*
X55798000Y23118387D01*
X55798000Y22881613D01*
X55844192Y22649390D01*
X55934801Y22430639D01*
X55973000Y22373471D01*
X55973000Y20897148D01*
X55975440Y20872372D01*
X55998276Y20757567D01*
X56005503Y20733742D01*
X56017239Y20711785D01*
X56082271Y20614458D01*
X56098065Y20595214D01*
X56117310Y20579419D01*
X56214637Y20514387D01*
X56236594Y20502651D01*
X56260419Y20495424D01*
X56375224Y20472588D01*
X56400000Y20470148D01*
X58291839Y20470148D01*
X58315020Y20460546D01*
X58503774Y20423000D01*
X58696226Y20423000D01*
X58884980Y20460546D01*
X58908161Y20470148D01*
X60473000Y20470148D01*
X60473000Y8225211D01*
X57629207Y8225211D01*
X57569361Y8265199D01*
X57350610Y8355808D01*
X57118387Y8402000D01*
X56881613Y8402000D01*
X56649390Y8355808D01*
X56430639Y8265199D01*
X56324737Y8194437D01*
X56319038Y8192708D01*
X56297081Y8180972D01*
X56199754Y8115940D01*
X56180510Y8100146D01*
X56164715Y8080901D01*
X56131888Y8031772D01*
X56066346Y7966230D01*
X55934801Y7769361D01*
X55844192Y7550610D01*
X55798000Y7318387D01*
X55798000Y7081613D01*
X55844192Y6849390D01*
X55934801Y6630639D01*
X56055444Y6450086D01*
X56055444Y5449914D01*
X55934801Y5269361D01*
X55844192Y5050610D01*
X55798000Y4818387D01*
X55798000Y4581613D01*
X55844192Y4349390D01*
X55934801Y4130639D01*
X56055444Y3950086D01*
X56055444Y2949914D01*
X55934801Y2769361D01*
X55844192Y2550610D01*
X55798000Y2318387D01*
X55798000Y2081613D01*
X55844192Y1849390D01*
X55934801Y1630639D01*
X56055444Y1450086D01*
X56055444Y98211D01*
X56057884Y73435D01*
X56080720Y-41370D01*
X56087947Y-65195D01*
X56099683Y-87152D01*
X56164715Y-184479D01*
X56180509Y-203723D01*
X56199754Y-219518D01*
X56297081Y-284550D01*
X56319038Y-296286D01*
X56342863Y-303513D01*
X56457668Y-326349D01*
X56482444Y-328789D01*
X58289272Y-328789D01*
X58315020Y-339454D01*
X58503774Y-377000D01*
X58696226Y-377000D01*
X58884980Y-339454D01*
X58910728Y-328789D01*
X60473000Y-328789D01*
X60473000Y-12610644D01*
X57682867Y-12610644D01*
X57569361Y-12534801D01*
X57350610Y-12444192D01*
X57118387Y-12398000D01*
X56881613Y-12398000D01*
X56649390Y-12444192D01*
X56430639Y-12534801D01*
X56233770Y-12666346D01*
X56066346Y-12833770D01*
X55934801Y-13030639D01*
X55844192Y-13249390D01*
X55798000Y-13481613D01*
X55798000Y-13718387D01*
X55844192Y-13950610D01*
X55934801Y-14169361D01*
X56058350Y-14354264D01*
X56060129Y-15343075D01*
X55934801Y-15530639D01*
X55844192Y-15749390D01*
X55798000Y-15981613D01*
X55798000Y-16218387D01*
X55844192Y-16450610D01*
X55934801Y-16669361D01*
X56062858Y-16861010D01*
X56064612Y-17836365D01*
X55934801Y-18030639D01*
X55844192Y-18249390D01*
X55798000Y-18481613D01*
X55798000Y-18718387D01*
X55844192Y-18950610D01*
X55934801Y-19169361D01*
X56066346Y-19366230D01*
X56067365Y-19367249D01*
X56072366Y-22148000D01*
X51388931Y-22148000D01*
X51341319Y-22085951D01*
X51294175Y-21972136D01*
X51277000Y-21841679D01*
X51277000Y-20428397D01*
X52473000Y-20428397D01*
X52473000Y-20571603D01*
X52500938Y-20712058D01*
X52555741Y-20844364D01*
X52635302Y-20963436D01*
X52736564Y-21064698D01*
X52855636Y-21144259D01*
X52987942Y-21199062D01*
X53128397Y-21227000D01*
X53271603Y-21227000D01*
X53412058Y-21199062D01*
X53544364Y-21144259D01*
X53663436Y-21064698D01*
X53764698Y-20963436D01*
X53844259Y-20844364D01*
X53899062Y-20712058D01*
X53927000Y-20571603D01*
X53927000Y-20428397D01*
X53899062Y-20287942D01*
X53844259Y-20155636D01*
X53764698Y-20036564D01*
X53663436Y-19935302D01*
X53544364Y-19855741D01*
X53412058Y-19800938D01*
X53271603Y-19773000D01*
X53128397Y-19773000D01*
X52987942Y-19800938D01*
X52855636Y-19855741D01*
X52736564Y-19935302D01*
X52635302Y-20036564D01*
X52555741Y-20155636D01*
X52500938Y-20287942D01*
X52473000Y-20428397D01*
X51277000Y-20428397D01*
X51277000Y-18831245D01*
X51297000Y-18730698D01*
X51297000Y-18469302D01*
X51277000Y-18368755D01*
X51277000Y-16291245D01*
X51297000Y-16190698D01*
X51297000Y-15929302D01*
X51277000Y-15828755D01*
X51277000Y-13751245D01*
X51297000Y-13650698D01*
X51297000Y-13389302D01*
X51277000Y-13288755D01*
X51277000Y-9501823D01*
X51457072Y-9466004D01*
X51698570Y-9365972D01*
X51915913Y-9220748D01*
X52100748Y-9035913D01*
X52245972Y-8818570D01*
X52346004Y-8577072D01*
X52397000Y-8320698D01*
X52397000Y-8059302D01*
X52346004Y-7802928D01*
X52245972Y-7561430D01*
X52100748Y-7344087D01*
X51915913Y-7159252D01*
X51698570Y-7014028D01*
X51471567Y-6920000D01*
X51698570Y-6825972D01*
X51915913Y-6680748D01*
X52100748Y-6495913D01*
X52245972Y-6278570D01*
X52346004Y-6037072D01*
X52397000Y-5780698D01*
X52397000Y-5519302D01*
X52346004Y-5262928D01*
X52245972Y-5021430D01*
X52100748Y-4804087D01*
X51915913Y-4619252D01*
X51698570Y-4474028D01*
X51471567Y-4380000D01*
X51698570Y-4285972D01*
X51915913Y-4140748D01*
X52100748Y-3955913D01*
X52245972Y-3738570D01*
X52346004Y-3497072D01*
X52397000Y-3240698D01*
X52397000Y-2979302D01*
X52346004Y-2722928D01*
X52245972Y-2481430D01*
X52100748Y-2264087D01*
X51915913Y-2079252D01*
X51698570Y-1934028D01*
X51457072Y-1833996D01*
X51277000Y-1798177D01*
X51277000Y-550000D01*
X51275913Y-533423D01*
X51255468Y-378132D01*
X51246888Y-346109D01*
X51186948Y-201400D01*
X51170371Y-172687D01*
X51075020Y-48423D01*
X51051577Y-24980D01*
X50927313Y70371D01*
X50898600Y86948D01*
X50753891Y146888D01*
X50721868Y155468D01*
X50566577Y175913D01*
X50550000Y177000D01*
X42304520Y177000D01*
X42294093Y196507D01*
X42250106Y250106D01*
X42196507Y294093D01*
X42135356Y326779D01*
X42069004Y346907D01*
X42017292Y352000D01*
X42017291Y352000D01*
X42000000Y353703D01*
X41982708Y352000D01*
X352000Y352000D01*
X352000Y2881452D01*
X9673000Y2881452D01*
X9673000Y2718548D01*
X9704782Y2558773D01*
X9767123Y2408269D01*
X9857628Y2272819D01*
X9972819Y2157628D01*
X10108269Y2067123D01*
X10258773Y2004782D01*
X10418548Y1973000D01*
X10581452Y1973000D01*
X10741227Y2004782D01*
X10891731Y2067123D01*
X11027181Y2157628D01*
X11142372Y2272819D01*
X11232877Y2408269D01*
X11295218Y2558773D01*
X11327000Y2718548D01*
X11327000Y2881452D01*
X19273000Y2881452D01*
X19273000Y2718548D01*
X19304782Y2558773D01*
X19367123Y2408269D01*
X19457628Y2272819D01*
X19572819Y2157628D01*
X19708269Y2067123D01*
X19858773Y2004782D01*
X20018548Y1973000D01*
X20181452Y1973000D01*
X20341227Y2004782D01*
X20491731Y2067123D01*
X20627181Y2157628D01*
X20742372Y2272819D01*
X20832877Y2408269D01*
X20895218Y2558773D01*
X20927000Y2718548D01*
X20927000Y2881452D01*
X28873000Y2881452D01*
X28873000Y2718548D01*
X28904782Y2558773D01*
X28967123Y2408269D01*
X29057628Y2272819D01*
X29172819Y2157628D01*
X29308269Y2067123D01*
X29458773Y2004782D01*
X29618548Y1973000D01*
X29781452Y1973000D01*
X29941227Y2004782D01*
X30091731Y2067123D01*
X30227181Y2157628D01*
X30342372Y2272819D01*
X30432877Y2408269D01*
X30495218Y2558773D01*
X30527000Y2718548D01*
X30527000Y2881452D01*
X38373000Y2881452D01*
X38373000Y2718548D01*
X38404782Y2558773D01*
X38467123Y2408269D01*
X38557628Y2272819D01*
X38672819Y2157628D01*
X38808269Y2067123D01*
X38958773Y2004782D01*
X39118548Y1973000D01*
X39281452Y1973000D01*
X39441227Y2004782D01*
X39591731Y2067123D01*
X39727181Y2157628D01*
X39842372Y2272819D01*
X39932877Y2408269D01*
X39995218Y2558773D01*
X40027000Y2718548D01*
X40027000Y2881452D01*
X39995218Y3041227D01*
X39932877Y3191731D01*
X39842372Y3327181D01*
X39727181Y3442372D01*
X39591731Y3532877D01*
X39441227Y3595218D01*
X39281452Y3627000D01*
X39118548Y3627000D01*
X38958773Y3595218D01*
X38808269Y3532877D01*
X38672819Y3442372D01*
X38557628Y3327181D01*
X38467123Y3191731D01*
X38404782Y3041227D01*
X38373000Y2881452D01*
X30527000Y2881452D01*
X30495218Y3041227D01*
X30432877Y3191731D01*
X30342372Y3327181D01*
X30227181Y3442372D01*
X30091731Y3532877D01*
X29941227Y3595218D01*
X29781452Y3627000D01*
X29618548Y3627000D01*
X29458773Y3595218D01*
X29308269Y3532877D01*
X29172819Y3442372D01*
X29057628Y3327181D01*
X28967123Y3191731D01*
X28904782Y3041227D01*
X28873000Y2881452D01*
X20927000Y2881452D01*
X20895218Y3041227D01*
X20832877Y3191731D01*
X20742372Y3327181D01*
X20627181Y3442372D01*
X20491731Y3532877D01*
X20341227Y3595218D01*
X20181452Y3627000D01*
X20018548Y3627000D01*
X19858773Y3595218D01*
X19708269Y3532877D01*
X19572819Y3442372D01*
X19457628Y3327181D01*
X19367123Y3191731D01*
X19304782Y3041227D01*
X19273000Y2881452D01*
X11327000Y2881452D01*
X11295218Y3041227D01*
X11232877Y3191731D01*
X11142372Y3327181D01*
X11027181Y3442372D01*
X10891731Y3532877D01*
X10741227Y3595218D01*
X10581452Y3627000D01*
X10418548Y3627000D01*
X10258773Y3595218D01*
X10108269Y3532877D01*
X9972819Y3442372D01*
X9857628Y3327181D01*
X9767123Y3191731D01*
X9704782Y3041227D01*
X9673000Y2881452D01*
X352000Y2881452D01*
X352000Y5518387D01*
X3398000Y5518387D01*
X3398000Y5281613D01*
X3444192Y5049390D01*
X3534801Y4830639D01*
X3666346Y4633770D01*
X3833770Y4466346D01*
X4030639Y4334801D01*
X4249390Y4244192D01*
X4481613Y4198000D01*
X4718387Y4198000D01*
X4950610Y4244192D01*
X5169361Y4334801D01*
X5366230Y4466346D01*
X5533654Y4633770D01*
X5665199Y4830639D01*
X5755808Y5049390D01*
X5802000Y5281613D01*
X5802000Y5518387D01*
X12998000Y5518387D01*
X12998000Y5281613D01*
X13044192Y5049390D01*
X13134801Y4830639D01*
X13266346Y4633770D01*
X13433770Y4466346D01*
X13630639Y4334801D01*
X13849390Y4244192D01*
X14081613Y4198000D01*
X14318387Y4198000D01*
X14550610Y4244192D01*
X14769361Y4334801D01*
X14966230Y4466346D01*
X15133654Y4633770D01*
X15265199Y4830639D01*
X15355808Y5049390D01*
X15402000Y5281613D01*
X15402000Y5518387D01*
X22598000Y5518387D01*
X22598000Y5281613D01*
X22644192Y5049390D01*
X22734801Y4830639D01*
X22866346Y4633770D01*
X23033770Y4466346D01*
X23230639Y4334801D01*
X23449390Y4244192D01*
X23681613Y4198000D01*
X23918387Y4198000D01*
X24150610Y4244192D01*
X24369361Y4334801D01*
X24566230Y4466346D01*
X24733654Y4633770D01*
X24865199Y4830639D01*
X24955808Y5049390D01*
X25002000Y5281613D01*
X25002000Y5518387D01*
X32098000Y5518387D01*
X32098000Y5281613D01*
X32144192Y5049390D01*
X32234801Y4830639D01*
X32366346Y4633770D01*
X32533770Y4466346D01*
X32730639Y4334801D01*
X32949390Y4244192D01*
X33181613Y4198000D01*
X33418387Y4198000D01*
X33650610Y4244192D01*
X33869361Y4334801D01*
X34066230Y4466346D01*
X34233654Y4633770D01*
X34332332Y4781452D01*
X51423000Y4781452D01*
X51423000Y4618548D01*
X51454782Y4458773D01*
X51517123Y4308269D01*
X51607628Y4172819D01*
X51722819Y4057628D01*
X51858269Y3967123D01*
X52008773Y3904782D01*
X52168548Y3873000D01*
X52331452Y3873000D01*
X52491227Y3904782D01*
X52641731Y3967123D01*
X52777181Y4057628D01*
X52892372Y4172819D01*
X52982877Y4308269D01*
X53045218Y4458773D01*
X53077000Y4618548D01*
X53077000Y4781452D01*
X53045218Y4941227D01*
X52982877Y5091731D01*
X52892372Y5227181D01*
X52777181Y5342372D01*
X52641731Y5432877D01*
X52491227Y5495218D01*
X52331452Y5527000D01*
X52168548Y5527000D01*
X52008773Y5495218D01*
X51858269Y5432877D01*
X51722819Y5342372D01*
X51607628Y5227181D01*
X51517123Y5091731D01*
X51454782Y4941227D01*
X51423000Y4781452D01*
X34332332Y4781452D01*
X34365199Y4830639D01*
X34455808Y5049390D01*
X34502000Y5281613D01*
X34502000Y5518387D01*
X34455808Y5750610D01*
X34365199Y5969361D01*
X34233654Y6166230D01*
X34066230Y6333654D01*
X33919867Y6431452D01*
X38173000Y6431452D01*
X38173000Y6268548D01*
X38204782Y6108773D01*
X38267123Y5958269D01*
X38357628Y5822819D01*
X38472819Y5707628D01*
X38608269Y5617123D01*
X38758773Y5554782D01*
X38918548Y5523000D01*
X39081452Y5523000D01*
X39241227Y5554782D01*
X39391731Y5617123D01*
X39527181Y5707628D01*
X39642372Y5822819D01*
X39732877Y5958269D01*
X39795218Y6108773D01*
X39827000Y6268548D01*
X39827000Y6431452D01*
X39795218Y6591227D01*
X39732877Y6741731D01*
X39642372Y6877181D01*
X39527181Y6992372D01*
X39391731Y7082877D01*
X39241227Y7145218D01*
X39081452Y7177000D01*
X38918548Y7177000D01*
X38758773Y7145218D01*
X38608269Y7082877D01*
X38472819Y6992372D01*
X38357628Y6877181D01*
X38267123Y6741731D01*
X38204782Y6591227D01*
X38173000Y6431452D01*
X33919867Y6431452D01*
X33869361Y6465199D01*
X33650610Y6555808D01*
X33418387Y6602000D01*
X33181613Y6602000D01*
X32949390Y6555808D01*
X32730639Y6465199D01*
X32533770Y6333654D01*
X32366346Y6166230D01*
X32234801Y5969361D01*
X32144192Y5750610D01*
X32098000Y5518387D01*
X25002000Y5518387D01*
X24955808Y5750610D01*
X24865199Y5969361D01*
X24733654Y6166230D01*
X24566230Y6333654D01*
X24419867Y6431452D01*
X28623000Y6431452D01*
X28623000Y6268548D01*
X28654782Y6108773D01*
X28717123Y5958269D01*
X28807628Y5822819D01*
X28922819Y5707628D01*
X29058269Y5617123D01*
X29208773Y5554782D01*
X29368548Y5523000D01*
X29531452Y5523000D01*
X29691227Y5554782D01*
X29841731Y5617123D01*
X29977181Y5707628D01*
X30092372Y5822819D01*
X30182877Y5958269D01*
X30245218Y6108773D01*
X30277000Y6268548D01*
X30277000Y6431452D01*
X30245218Y6591227D01*
X30182877Y6741731D01*
X30092372Y6877181D01*
X29977181Y6992372D01*
X29841731Y7082877D01*
X29809504Y7096226D01*
X30723000Y7096226D01*
X30723000Y6903774D01*
X30760546Y6715020D01*
X30834194Y6537217D01*
X30941115Y6377199D01*
X31077199Y6241115D01*
X31237217Y6134194D01*
X31415020Y6060546D01*
X31603774Y6023000D01*
X31796226Y6023000D01*
X31984980Y6060546D01*
X32162783Y6134194D01*
X32322801Y6241115D01*
X32458885Y6377199D01*
X32565806Y6537217D01*
X32639454Y6715020D01*
X32677000Y6903774D01*
X32677000Y7096226D01*
X32639454Y7284980D01*
X32565806Y7462783D01*
X32458885Y7622801D01*
X32322801Y7758885D01*
X32162783Y7865806D01*
X31984980Y7939454D01*
X31796226Y7977000D01*
X31603774Y7977000D01*
X31415020Y7939454D01*
X31237217Y7865806D01*
X31077199Y7758885D01*
X30941115Y7622801D01*
X30834194Y7462783D01*
X30760546Y7284980D01*
X30723000Y7096226D01*
X29809504Y7096226D01*
X29691227Y7145218D01*
X29531452Y7177000D01*
X29368548Y7177000D01*
X29208773Y7145218D01*
X29058269Y7082877D01*
X28922819Y6992372D01*
X28807628Y6877181D01*
X28717123Y6741731D01*
X28654782Y6591227D01*
X28623000Y6431452D01*
X24419867Y6431452D01*
X24369361Y6465199D01*
X24150610Y6555808D01*
X23918387Y6602000D01*
X23681613Y6602000D01*
X23449390Y6555808D01*
X23230639Y6465199D01*
X23033770Y6333654D01*
X22866346Y6166230D01*
X22734801Y5969361D01*
X22644192Y5750610D01*
X22598000Y5518387D01*
X15402000Y5518387D01*
X15355808Y5750610D01*
X15265199Y5969361D01*
X15133654Y6166230D01*
X14966230Y6333654D01*
X14819867Y6431452D01*
X19073000Y6431452D01*
X19073000Y6268548D01*
X19104782Y6108773D01*
X19167123Y5958269D01*
X19257628Y5822819D01*
X19372819Y5707628D01*
X19508269Y5617123D01*
X19658773Y5554782D01*
X19818548Y5523000D01*
X19981452Y5523000D01*
X20141227Y5554782D01*
X20291731Y5617123D01*
X20427181Y5707628D01*
X20542372Y5822819D01*
X20632877Y5958269D01*
X20695218Y6108773D01*
X20727000Y6268548D01*
X20727000Y6431452D01*
X20695218Y6591227D01*
X20632877Y6741731D01*
X20542372Y6877181D01*
X20427181Y6992372D01*
X20291731Y7082877D01*
X20259504Y7096226D01*
X21223000Y7096226D01*
X21223000Y6903774D01*
X21260546Y6715020D01*
X21334194Y6537217D01*
X21441115Y6377199D01*
X21577199Y6241115D01*
X21737217Y6134194D01*
X21915020Y6060546D01*
X22103774Y6023000D01*
X22296226Y6023000D01*
X22484980Y6060546D01*
X22662783Y6134194D01*
X22822801Y6241115D01*
X22958885Y6377199D01*
X23065806Y6537217D01*
X23139454Y6715020D01*
X23177000Y6903774D01*
X23177000Y7096226D01*
X23139454Y7284980D01*
X23065806Y7462783D01*
X22958885Y7622801D01*
X22822801Y7758885D01*
X22662783Y7865806D01*
X22484980Y7939454D01*
X22296226Y7977000D01*
X22103774Y7977000D01*
X21915020Y7939454D01*
X21737217Y7865806D01*
X21577199Y7758885D01*
X21441115Y7622801D01*
X21334194Y7462783D01*
X21260546Y7284980D01*
X21223000Y7096226D01*
X20259504Y7096226D01*
X20141227Y7145218D01*
X19981452Y7177000D01*
X19818548Y7177000D01*
X19658773Y7145218D01*
X19508269Y7082877D01*
X19372819Y6992372D01*
X19257628Y6877181D01*
X19167123Y6741731D01*
X19104782Y6591227D01*
X19073000Y6431452D01*
X14819867Y6431452D01*
X14769361Y6465199D01*
X14550610Y6555808D01*
X14318387Y6602000D01*
X14081613Y6602000D01*
X13849390Y6555808D01*
X13630639Y6465199D01*
X13433770Y6333654D01*
X13266346Y6166230D01*
X13134801Y5969361D01*
X13044192Y5750610D01*
X12998000Y5518387D01*
X5802000Y5518387D01*
X5755808Y5750610D01*
X5665199Y5969361D01*
X5533654Y6166230D01*
X5366230Y6333654D01*
X5219867Y6431452D01*
X9473000Y6431452D01*
X9473000Y6268548D01*
X9504782Y6108773D01*
X9567123Y5958269D01*
X9657628Y5822819D01*
X9772819Y5707628D01*
X9908269Y5617123D01*
X10058773Y5554782D01*
X10218548Y5523000D01*
X10381452Y5523000D01*
X10541227Y5554782D01*
X10691731Y5617123D01*
X10827181Y5707628D01*
X10942372Y5822819D01*
X11032877Y5958269D01*
X11095218Y6108773D01*
X11127000Y6268548D01*
X11127000Y6431452D01*
X11095218Y6591227D01*
X11032877Y6741731D01*
X10942372Y6877181D01*
X10827181Y6992372D01*
X10691731Y7082877D01*
X10659504Y7096226D01*
X11623000Y7096226D01*
X11623000Y6903774D01*
X11660546Y6715020D01*
X11734194Y6537217D01*
X11841115Y6377199D01*
X11977199Y6241115D01*
X12137217Y6134194D01*
X12315020Y6060546D01*
X12503774Y6023000D01*
X12696226Y6023000D01*
X12884980Y6060546D01*
X13062783Y6134194D01*
X13222801Y6241115D01*
X13358885Y6377199D01*
X13465806Y6537217D01*
X13539454Y6715020D01*
X13577000Y6903774D01*
X13577000Y7096226D01*
X13539454Y7284980D01*
X13465806Y7462783D01*
X13358885Y7622801D01*
X13222801Y7758885D01*
X13062783Y7865806D01*
X12884980Y7939454D01*
X12696226Y7977000D01*
X12503774Y7977000D01*
X12315020Y7939454D01*
X12137217Y7865806D01*
X11977199Y7758885D01*
X11841115Y7622801D01*
X11734194Y7462783D01*
X11660546Y7284980D01*
X11623000Y7096226D01*
X10659504Y7096226D01*
X10541227Y7145218D01*
X10381452Y7177000D01*
X10218548Y7177000D01*
X10058773Y7145218D01*
X9908269Y7082877D01*
X9772819Y6992372D01*
X9657628Y6877181D01*
X9567123Y6741731D01*
X9504782Y6591227D01*
X9473000Y6431452D01*
X5219867Y6431452D01*
X5169361Y6465199D01*
X4950610Y6555808D01*
X4718387Y6602000D01*
X4481613Y6602000D01*
X4249390Y6555808D01*
X4030639Y6465199D01*
X3833770Y6333654D01*
X3666346Y6166230D01*
X3534801Y5969361D01*
X3444192Y5750610D01*
X3398000Y5518387D01*
X352000Y5518387D01*
X352000Y7096226D01*
X2023000Y7096226D01*
X2023000Y6903774D01*
X2060546Y6715020D01*
X2134194Y6537217D01*
X2241115Y6377199D01*
X2377199Y6241115D01*
X2537217Y6134194D01*
X2715020Y6060546D01*
X2903774Y6023000D01*
X3096226Y6023000D01*
X3284980Y6060546D01*
X3462783Y6134194D01*
X3622801Y6241115D01*
X3758885Y6377199D01*
X3865806Y6537217D01*
X3939454Y6715020D01*
X3977000Y6903774D01*
X3977000Y7096226D01*
X3939454Y7284980D01*
X3865806Y7462783D01*
X3758885Y7622801D01*
X3622801Y7758885D01*
X3462783Y7865806D01*
X3284980Y7939454D01*
X3096226Y7977000D01*
X2903774Y7977000D01*
X2715020Y7939454D01*
X2537217Y7865806D01*
X2377199Y7758885D01*
X2241115Y7622801D01*
X2134194Y7462783D01*
X2060546Y7284980D01*
X2023000Y7096226D01*
X352000Y7096226D01*
X352000Y8081452D01*
X6073000Y8081452D01*
X6073000Y7918548D01*
X6104782Y7758773D01*
X6167123Y7608269D01*
X6257628Y7472819D01*
X6372819Y7357628D01*
X6508269Y7267123D01*
X6658773Y7204782D01*
X6818548Y7173000D01*
X6981452Y7173000D01*
X7141227Y7204782D01*
X7291731Y7267123D01*
X7427181Y7357628D01*
X7542372Y7472819D01*
X7632877Y7608269D01*
X7695218Y7758773D01*
X7727000Y7918548D01*
X7727000Y8081452D01*
X15573000Y8081452D01*
X15573000Y7918548D01*
X15604782Y7758773D01*
X15667123Y7608269D01*
X15757628Y7472819D01*
X15872819Y7357628D01*
X16008269Y7267123D01*
X16158773Y7204782D01*
X16318548Y7173000D01*
X16481452Y7173000D01*
X16641227Y7204782D01*
X16791731Y7267123D01*
X16927181Y7357628D01*
X17042372Y7472819D01*
X17132877Y7608269D01*
X17195218Y7758773D01*
X17227000Y7918548D01*
X17227000Y8081452D01*
X25273000Y8081452D01*
X25273000Y7918548D01*
X25304782Y7758773D01*
X25367123Y7608269D01*
X25457628Y7472819D01*
X25572819Y7357628D01*
X25708269Y7267123D01*
X25858773Y7204782D01*
X26018548Y7173000D01*
X26181452Y7173000D01*
X26341227Y7204782D01*
X26491731Y7267123D01*
X26627181Y7357628D01*
X26742372Y7472819D01*
X26832877Y7608269D01*
X26895218Y7758773D01*
X26927000Y7918548D01*
X26927000Y8081452D01*
X34773000Y8081452D01*
X34773000Y7918548D01*
X34804782Y7758773D01*
X34867123Y7608269D01*
X34957628Y7472819D01*
X35072819Y7357628D01*
X35208269Y7267123D01*
X35358773Y7204782D01*
X35518548Y7173000D01*
X35681452Y7173000D01*
X35841227Y7204782D01*
X35991731Y7267123D01*
X36127181Y7357628D01*
X36242372Y7472819D01*
X36332877Y7608269D01*
X36395218Y7758773D01*
X36427000Y7918548D01*
X36427000Y8081452D01*
X36395218Y8241227D01*
X36332877Y8391731D01*
X36242372Y8527181D01*
X36127181Y8642372D01*
X35991731Y8732877D01*
X35841227Y8795218D01*
X35681452Y8827000D01*
X35518548Y8827000D01*
X35358773Y8795218D01*
X35208269Y8732877D01*
X35072819Y8642372D01*
X34957628Y8527181D01*
X34867123Y8391731D01*
X34804782Y8241227D01*
X34773000Y8081452D01*
X26927000Y8081452D01*
X26895218Y8241227D01*
X26832877Y8391731D01*
X26742372Y8527181D01*
X26627181Y8642372D01*
X26491731Y8732877D01*
X26341227Y8795218D01*
X26181452Y8827000D01*
X26018548Y8827000D01*
X25858773Y8795218D01*
X25708269Y8732877D01*
X25572819Y8642372D01*
X25457628Y8527181D01*
X25367123Y8391731D01*
X25304782Y8241227D01*
X25273000Y8081452D01*
X17227000Y8081452D01*
X17195218Y8241227D01*
X17132877Y8391731D01*
X17042372Y8527181D01*
X16927181Y8642372D01*
X16791731Y8732877D01*
X16641227Y8795218D01*
X16481452Y8827000D01*
X16318548Y8827000D01*
X16158773Y8795218D01*
X16008269Y8732877D01*
X15872819Y8642372D01*
X15757628Y8527181D01*
X15667123Y8391731D01*
X15604782Y8241227D01*
X15573000Y8081452D01*
X7727000Y8081452D01*
X7695218Y8241227D01*
X7632877Y8391731D01*
X7542372Y8527181D01*
X7427181Y8642372D01*
X7291731Y8732877D01*
X7141227Y8795218D01*
X6981452Y8827000D01*
X6818548Y8827000D01*
X6658773Y8795218D01*
X6508269Y8732877D01*
X6372819Y8642372D01*
X6257628Y8527181D01*
X6167123Y8391731D01*
X6104782Y8241227D01*
X6073000Y8081452D01*
X352000Y8081452D01*
X352000Y11981452D01*
X9673000Y11981452D01*
X9673000Y11818548D01*
X9704782Y11658773D01*
X9767123Y11508269D01*
X9857628Y11372819D01*
X9972819Y11257628D01*
X10108269Y11167123D01*
X10258773Y11104782D01*
X10418548Y11073000D01*
X10581452Y11073000D01*
X10623942Y11081452D01*
X44973000Y11081452D01*
X44973000Y10918548D01*
X45004782Y10758773D01*
X45067123Y10608269D01*
X45157628Y10472819D01*
X45272819Y10357628D01*
X45408269Y10267123D01*
X45558773Y10204782D01*
X45718548Y10173000D01*
X45881452Y10173000D01*
X46041227Y10204782D01*
X46191731Y10267123D01*
X46327181Y10357628D01*
X46442372Y10472819D01*
X46532877Y10608269D01*
X46595218Y10758773D01*
X46627000Y10918548D01*
X46627000Y11081452D01*
X46595218Y11241227D01*
X46532877Y11391731D01*
X46442372Y11527181D01*
X46327181Y11642372D01*
X46191731Y11732877D01*
X46041227Y11795218D01*
X45881452Y11827000D01*
X45718548Y11827000D01*
X45558773Y11795218D01*
X45408269Y11732877D01*
X45272819Y11642372D01*
X45157628Y11527181D01*
X45067123Y11391731D01*
X45004782Y11241227D01*
X44973000Y11081452D01*
X10623942Y11081452D01*
X10741227Y11104782D01*
X10891731Y11167123D01*
X11027181Y11257628D01*
X11142372Y11372819D01*
X11232877Y11508269D01*
X11295218Y11658773D01*
X11327000Y11818548D01*
X11327000Y11981452D01*
X11295218Y12141227D01*
X11232877Y12291731D01*
X11142372Y12427181D01*
X11027181Y12542372D01*
X10891731Y12632877D01*
X10741227Y12695218D01*
X10581452Y12727000D01*
X10418548Y12727000D01*
X10258773Y12695218D01*
X10108269Y12632877D01*
X9972819Y12542372D01*
X9857628Y12427181D01*
X9767123Y12291731D01*
X9704782Y12141227D01*
X9673000Y11981452D01*
X352000Y11981452D01*
X352000Y12931452D01*
X43423000Y12931452D01*
X43423000Y12768548D01*
X43454782Y12608773D01*
X43517123Y12458269D01*
X43607628Y12322819D01*
X43722819Y12207628D01*
X43858269Y12117123D01*
X44008773Y12054782D01*
X44168548Y12023000D01*
X44331452Y12023000D01*
X44491227Y12054782D01*
X44641731Y12117123D01*
X44777181Y12207628D01*
X44892372Y12322819D01*
X44982877Y12458269D01*
X45045218Y12608773D01*
X45077000Y12768548D01*
X45077000Y12931452D01*
X45045218Y13091227D01*
X44982877Y13241731D01*
X44892372Y13377181D01*
X44777181Y13492372D01*
X44641731Y13582877D01*
X44491227Y13645218D01*
X44331452Y13677000D01*
X44168548Y13677000D01*
X44008773Y13645218D01*
X43858269Y13582877D01*
X43722819Y13492372D01*
X43607628Y13377181D01*
X43517123Y13241731D01*
X43454782Y13091227D01*
X43423000Y12931452D01*
X352000Y12931452D01*
X352000Y14618387D01*
X3398000Y14618387D01*
X3398000Y14381613D01*
X3444192Y14149390D01*
X3534801Y13930639D01*
X3666346Y13733770D01*
X3833770Y13566346D01*
X4030639Y13434801D01*
X4249390Y13344192D01*
X4481613Y13298000D01*
X4718387Y13298000D01*
X4950610Y13344192D01*
X5169361Y13434801D01*
X5366230Y13566346D01*
X5533654Y13733770D01*
X5665199Y13930639D01*
X5755808Y14149390D01*
X5802000Y14381613D01*
X5802000Y14618387D01*
X5755808Y14850610D01*
X5665199Y15069361D01*
X5533654Y15266230D01*
X5366230Y15433654D01*
X5219867Y15531452D01*
X9347990Y15531452D01*
X9347990Y15368548D01*
X9379772Y15208773D01*
X9442113Y15058269D01*
X9532618Y14922819D01*
X9647809Y14807628D01*
X9783259Y14717123D01*
X9933763Y14654782D01*
X10093538Y14623000D01*
X10256442Y14623000D01*
X10416217Y14654782D01*
X10566721Y14717123D01*
X10702171Y14807628D01*
X10817362Y14922819D01*
X10907867Y15058269D01*
X10970208Y15208773D01*
X11001990Y15368548D01*
X11001990Y15531452D01*
X10970208Y15691227D01*
X10907867Y15841731D01*
X10817362Y15977181D01*
X10702171Y16092372D01*
X10566721Y16182877D01*
X10416217Y16245218D01*
X10256442Y16277000D01*
X10093538Y16277000D01*
X9933763Y16245218D01*
X9783259Y16182877D01*
X9647809Y16092372D01*
X9532618Y15977181D01*
X9442113Y15841731D01*
X9379772Y15691227D01*
X9347990Y15531452D01*
X5219867Y15531452D01*
X5169361Y15565199D01*
X4950610Y15655808D01*
X4718387Y15702000D01*
X4481613Y15702000D01*
X4249390Y15655808D01*
X4030639Y15565199D01*
X3833770Y15433654D01*
X3666346Y15266230D01*
X3534801Y15069361D01*
X3444192Y14850610D01*
X3398000Y14618387D01*
X352000Y14618387D01*
X352000Y16196226D01*
X2023000Y16196226D01*
X2023000Y16003774D01*
X2060546Y15815020D01*
X2134194Y15637217D01*
X2241115Y15477199D01*
X2377199Y15341115D01*
X2537217Y15234194D01*
X2715020Y15160546D01*
X2903774Y15123000D01*
X3096226Y15123000D01*
X3284980Y15160546D01*
X3462783Y15234194D01*
X3622801Y15341115D01*
X3758885Y15477199D01*
X3865806Y15637217D01*
X3939454Y15815020D01*
X3977000Y16003774D01*
X3977000Y16196226D01*
X3939454Y16384980D01*
X3865806Y16562783D01*
X3758885Y16722801D01*
X3622801Y16858885D01*
X3462783Y16965806D01*
X3284980Y17039454D01*
X3096226Y17077000D01*
X2903774Y17077000D01*
X2715020Y17039454D01*
X2537217Y16965806D01*
X2377199Y16858885D01*
X2241115Y16722801D01*
X2134194Y16562783D01*
X2060546Y16384980D01*
X2023000Y16196226D01*
X352000Y16196226D01*
X352000Y17181452D01*
X6073000Y17181452D01*
X6073000Y17018548D01*
X6104782Y16858773D01*
X6167123Y16708269D01*
X6257628Y16572819D01*
X6372819Y16457628D01*
X6508269Y16367123D01*
X6658773Y16304782D01*
X6818548Y16273000D01*
X6981452Y16273000D01*
X7141227Y16304782D01*
X7291731Y16367123D01*
X7427181Y16457628D01*
X7542372Y16572819D01*
X7632877Y16708269D01*
X7642479Y16731452D01*
X43423000Y16731452D01*
X43423000Y16568548D01*
X43454782Y16408773D01*
X43517123Y16258269D01*
X43607628Y16122819D01*
X43722819Y16007628D01*
X43858269Y15917123D01*
X44008773Y15854782D01*
X44168548Y15823000D01*
X44331452Y15823000D01*
X44491227Y15854782D01*
X44641731Y15917123D01*
X44777181Y16007628D01*
X44892372Y16122819D01*
X44982877Y16258269D01*
X45045218Y16408773D01*
X45077000Y16568548D01*
X45077000Y16731452D01*
X45045218Y16891227D01*
X44982877Y17041731D01*
X44892372Y17177181D01*
X44777181Y17292372D01*
X44641731Y17382877D01*
X44491227Y17445218D01*
X44331452Y17477000D01*
X44168548Y17477000D01*
X44008773Y17445218D01*
X43858269Y17382877D01*
X43722819Y17292372D01*
X43607628Y17177181D01*
X43517123Y17041731D01*
X43454782Y16891227D01*
X43423000Y16731452D01*
X7642479Y16731452D01*
X7695218Y16858773D01*
X7727000Y17018548D01*
X7727000Y17181452D01*
X7695218Y17341227D01*
X7632877Y17491731D01*
X7542372Y17627181D01*
X7427181Y17742372D01*
X7291731Y17832877D01*
X7141227Y17895218D01*
X6981452Y17927000D01*
X6818548Y17927000D01*
X6658773Y17895218D01*
X6508269Y17832877D01*
X6372819Y17742372D01*
X6257628Y17627181D01*
X6167123Y17491731D01*
X6104782Y17341227D01*
X6073000Y17181452D01*
X352000Y17181452D01*
X352000Y18581452D01*
X53123000Y18581452D01*
X53123000Y18418548D01*
X53154782Y18258773D01*
X53217123Y18108269D01*
X53307628Y17972819D01*
X53422819Y17857628D01*
X53558269Y17767123D01*
X53708773Y17704782D01*
X53868548Y17673000D01*
X54031452Y17673000D01*
X54191227Y17704782D01*
X54341731Y17767123D01*
X54477181Y17857628D01*
X54592372Y17972819D01*
X54682877Y18108269D01*
X54745218Y18258773D01*
X54777000Y18418548D01*
X54777000Y18581452D01*
X54745218Y18741227D01*
X54682877Y18891731D01*
X54592372Y19027181D01*
X54477181Y19142372D01*
X54341731Y19232877D01*
X54191227Y19295218D01*
X54031452Y19327000D01*
X53868548Y19327000D01*
X53708773Y19295218D01*
X53558269Y19232877D01*
X53422819Y19142372D01*
X53307628Y19027181D01*
X53217123Y18891731D01*
X53154782Y18741227D01*
X53123000Y18581452D01*
X352000Y18581452D01*
X352000Y20871603D01*
X27423000Y20871603D01*
X27423000Y20728397D01*
X27450938Y20587942D01*
X27505741Y20455636D01*
X27585302Y20336564D01*
X27686564Y20235302D01*
X27805636Y20155741D01*
X27937942Y20100938D01*
X28078397Y20073000D01*
X28221603Y20073000D01*
X28362058Y20100938D01*
X28494364Y20155741D01*
X28613436Y20235302D01*
X28714698Y20336564D01*
X28794259Y20455636D01*
X28825663Y20531452D01*
X43423000Y20531452D01*
X43423000Y20368548D01*
X43454782Y20208773D01*
X43517123Y20058269D01*
X43607628Y19922819D01*
X43722819Y19807628D01*
X43858269Y19717123D01*
X44008773Y19654782D01*
X44168548Y19623000D01*
X44331452Y19623000D01*
X44491227Y19654782D01*
X44641731Y19717123D01*
X44777181Y19807628D01*
X44892372Y19922819D01*
X44982877Y20058269D01*
X45045218Y20208773D01*
X45077000Y20368548D01*
X45077000Y20531452D01*
X45045218Y20691227D01*
X44982877Y20841731D01*
X44892372Y20977181D01*
X44777181Y21092372D01*
X44641731Y21182877D01*
X44491227Y21245218D01*
X44331452Y21277000D01*
X44168548Y21277000D01*
X44008773Y21245218D01*
X43858269Y21182877D01*
X43722819Y21092372D01*
X43607628Y20977181D01*
X43517123Y20841731D01*
X43454782Y20691227D01*
X43423000Y20531452D01*
X28825663Y20531452D01*
X28849062Y20587942D01*
X28877000Y20728397D01*
X28877000Y20871603D01*
X28849062Y21012058D01*
X28794259Y21144364D01*
X28714698Y21263436D01*
X28613436Y21364698D01*
X28494364Y21444259D01*
X28362058Y21499062D01*
X28221603Y21527000D01*
X28078397Y21527000D01*
X27937942Y21499062D01*
X27805636Y21444259D01*
X27686564Y21364698D01*
X27585302Y21263436D01*
X27505741Y21144364D01*
X27450938Y21012058D01*
X27423000Y20871603D01*
X352000Y20871603D01*
X352000Y22431452D01*
X50522996Y22431452D01*
X50522996Y22268548D01*
X50554778Y22108773D01*
X50617119Y21958269D01*
X50707624Y21822819D01*
X50822815Y21707628D01*
X50958265Y21617123D01*
X51108769Y21554782D01*
X51268544Y21523000D01*
X51431448Y21523000D01*
X51591223Y21554782D01*
X51741727Y21617123D01*
X51877177Y21707628D01*
X51992368Y21822819D01*
X52082873Y21958269D01*
X52145214Y22108773D01*
X52176996Y22268548D01*
X52176996Y22431452D01*
X52145214Y22591227D01*
X52082873Y22741731D01*
X51992368Y22877181D01*
X51877177Y22992372D01*
X51741727Y23082877D01*
X51591223Y23145218D01*
X51431448Y23177000D01*
X51268544Y23177000D01*
X51108769Y23145218D01*
X50958265Y23082877D01*
X50822815Y22992372D01*
X50707624Y22877181D01*
X50617119Y22741731D01*
X50554778Y22591227D01*
X50522996Y22431452D01*
X352000Y22431452D01*
X352000Y24771603D01*
X26073000Y24771603D01*
X26073000Y24628397D01*
X26100938Y24487942D01*
X26155741Y24355636D01*
X26235302Y24236564D01*
X26336564Y24135302D01*
X26455636Y24055741D01*
X26587942Y24000938D01*
X26728397Y23973000D01*
X26871603Y23973000D01*
X27012058Y24000938D01*
X27144364Y24055741D01*
X27196691Y24090704D01*
X27173000Y23971603D01*
X27173000Y23828397D01*
X27200938Y23687942D01*
X27255741Y23555636D01*
X27335302Y23436564D01*
X27436564Y23335302D01*
X27555636Y23255741D01*
X27687942Y23200938D01*
X27828397Y23173000D01*
X27971603Y23173000D01*
X28112058Y23200938D01*
X28244364Y23255741D01*
X28363436Y23335302D01*
X28464698Y23436564D01*
X28544259Y23555636D01*
X28599062Y23687942D01*
X28627000Y23828397D01*
X28627000Y23971603D01*
X28599062Y24112058D01*
X28544259Y24244364D01*
X28486069Y24331452D01*
X43423000Y24331452D01*
X43423000Y24168548D01*
X43454782Y24008773D01*
X43517123Y23858269D01*
X43607628Y23722819D01*
X43722819Y23607628D01*
X43858269Y23517123D01*
X44008773Y23454782D01*
X44168548Y23423000D01*
X44331452Y23423000D01*
X44491227Y23454782D01*
X44641731Y23517123D01*
X44777181Y23607628D01*
X44892372Y23722819D01*
X44982877Y23858269D01*
X45045218Y24008773D01*
X45077000Y24168548D01*
X45077000Y24331452D01*
X45045218Y24491227D01*
X44982877Y24641731D01*
X44892372Y24777181D01*
X44777181Y24892372D01*
X44641731Y24982877D01*
X44491227Y25045218D01*
X44331452Y25077000D01*
X44168548Y25077000D01*
X44008773Y25045218D01*
X43858269Y24982877D01*
X43722819Y24892372D01*
X43607628Y24777181D01*
X43517123Y24641731D01*
X43454782Y24491227D01*
X43423000Y24331452D01*
X28486069Y24331452D01*
X28464698Y24363436D01*
X28363436Y24464698D01*
X28244364Y24544259D01*
X28112058Y24599062D01*
X27971603Y24627000D01*
X27828397Y24627000D01*
X27687942Y24599062D01*
X27555636Y24544259D01*
X27503309Y24509296D01*
X27527000Y24628397D01*
X27527000Y24771603D01*
X27499062Y24912058D01*
X27444259Y25044364D01*
X27364698Y25163436D01*
X27263436Y25264698D01*
X27144364Y25344259D01*
X27012058Y25399062D01*
X26871603Y25427000D01*
X26728397Y25427000D01*
X26587942Y25399062D01*
X26455636Y25344259D01*
X26336564Y25264698D01*
X26235302Y25163436D01*
X26155741Y25044364D01*
X26100938Y24912058D01*
X26073000Y24771603D01*
X352000Y24771603D01*
X352000Y27780665D01*
X388632Y27808752D01*
X502395Y27855844D01*
X632785Y27873000D01*
X13400000Y27873000D01*
X13416577Y27874087D01*
X13571868Y27894532D01*
X13603891Y27903112D01*
X13748600Y27963052D01*
X13777313Y27979629D01*
X13901577Y28074980D01*
X13925020Y28098423D01*
X13950364Y28131452D01*
X43423000Y28131452D01*
X43423000Y27968548D01*
X43454782Y27808773D01*
X43517123Y27658269D01*
X43607628Y27522819D01*
X43722819Y27407628D01*
X43858269Y27317123D01*
X44008773Y27254782D01*
X44168548Y27223000D01*
X44331452Y27223000D01*
X44491227Y27254782D01*
X44641731Y27317123D01*
X44777181Y27407628D01*
X44892372Y27522819D01*
X44982877Y27658269D01*
X45045218Y27808773D01*
X45077000Y27968548D01*
X45077000Y28131452D01*
X45045218Y28291227D01*
X44982877Y28441731D01*
X44892372Y28577181D01*
X44777181Y28692372D01*
X44641731Y28782877D01*
X44491227Y28845218D01*
X44331452Y28877000D01*
X44168548Y28877000D01*
X44008773Y28845218D01*
X43858269Y28782877D01*
X43722819Y28692372D01*
X43607628Y28577181D01*
X43517123Y28441731D01*
X43454782Y28291227D01*
X43423000Y28131452D01*
X13950364Y28131452D01*
X14020371Y28222687D01*
X14036948Y28251400D01*
X14096888Y28396109D01*
X14105468Y28428132D01*
X14125913Y28583423D01*
X14127000Y28600000D01*
X14127000Y29071603D01*
X26073000Y29071603D01*
X26073000Y28928397D01*
X26100938Y28787942D01*
X26155741Y28655636D01*
X26235302Y28536564D01*
X26336564Y28435302D01*
X26455636Y28355741D01*
X26587942Y28300938D01*
X26728397Y28273000D01*
X26871603Y28273000D01*
X27012058Y28300938D01*
X27144364Y28355741D01*
X27263436Y28435302D01*
X27364698Y28536564D01*
X27444259Y28655636D01*
X27499062Y28787942D01*
X27527000Y28928397D01*
X27527000Y29071603D01*
X27499062Y29212058D01*
X27444259Y29344364D01*
X27364698Y29463436D01*
X27263436Y29564698D01*
X27144364Y29644259D01*
X27012058Y29699062D01*
X26871603Y29727000D01*
X26728397Y29727000D01*
X26587942Y29699062D01*
X26455636Y29644259D01*
X26336564Y29564698D01*
X26235302Y29463436D01*
X26155741Y29344364D01*
X26100938Y29212058D01*
X26073000Y29071603D01*
X14127000Y29071603D01*
X14127000Y29100000D01*
X14125913Y29116577D01*
X14105468Y29271868D01*
X14096888Y29303891D01*
X14036948Y29448600D01*
X14020371Y29477313D01*
X13925020Y29601577D01*
X13901577Y29625020D01*
X13777313Y29720371D01*
X13748600Y29736948D01*
X13603891Y29796888D01*
X13571868Y29805468D01*
X13416577Y29825913D01*
X13400000Y29827000D01*
X13008321Y29827000D01*
X12877864Y29844175D01*
X12764049Y29891319D01*
X12666314Y29966314D01*
X12591319Y30064049D01*
X12544175Y30177864D01*
X12527000Y30308321D01*
X12527000Y30371603D01*
X25273000Y30371603D01*
X25273000Y30228397D01*
X25300938Y30087942D01*
X25355741Y29955636D01*
X25435302Y29836564D01*
X25536564Y29735302D01*
X25655636Y29655741D01*
X25787942Y29600938D01*
X25928397Y29573000D01*
X26071603Y29573000D01*
X26212058Y29600938D01*
X26344364Y29655741D01*
X26463436Y29735302D01*
X26564698Y29836564D01*
X26644259Y29955636D01*
X26699062Y30087942D01*
X26727000Y30228397D01*
X26727000Y30371603D01*
X26699062Y30512058D01*
X26644259Y30644364D01*
X26564698Y30763436D01*
X26463436Y30864698D01*
X26344364Y30944259D01*
X26212058Y30999062D01*
X26071603Y31027000D01*
X25928397Y31027000D01*
X25787942Y30999062D01*
X25655636Y30944259D01*
X25536564Y30864698D01*
X25435302Y30763436D01*
X25355741Y30644364D01*
X25300938Y30512058D01*
X25273000Y30371603D01*
X12527000Y30371603D01*
X12527000Y32721603D01*
X25323000Y32721603D01*
X25323000Y32578397D01*
X25350938Y32437942D01*
X25405741Y32305636D01*
X25485302Y32186564D01*
X25586564Y32085302D01*
X25705636Y32005741D01*
X25837942Y31950938D01*
X25978397Y31923000D01*
X26121603Y31923000D01*
X26164094Y31931452D01*
X43423000Y31931452D01*
X43423000Y31768548D01*
X43454782Y31608773D01*
X43517123Y31458269D01*
X43607628Y31322819D01*
X43722819Y31207628D01*
X43858269Y31117123D01*
X44008773Y31054782D01*
X44168548Y31023000D01*
X44331452Y31023000D01*
X44491227Y31054782D01*
X44641731Y31117123D01*
X44777181Y31207628D01*
X44892372Y31322819D01*
X44982877Y31458269D01*
X45045218Y31608773D01*
X45077000Y31768548D01*
X45077000Y31931452D01*
X45045218Y32091227D01*
X44982877Y32241731D01*
X44892372Y32377181D01*
X44777181Y32492372D01*
X44641731Y32582877D01*
X44491227Y32645218D01*
X44331452Y32677000D01*
X44168548Y32677000D01*
X44008773Y32645218D01*
X43858269Y32582877D01*
X43722819Y32492372D01*
X43607628Y32377181D01*
X43517123Y32241731D01*
X43454782Y32091227D01*
X43423000Y31931452D01*
X26164094Y31931452D01*
X26262058Y31950938D01*
X26394364Y32005741D01*
X26513436Y32085302D01*
X26614698Y32186564D01*
X26694259Y32305636D01*
X26749062Y32437942D01*
X26777000Y32578397D01*
X26777000Y32721603D01*
X26767055Y32771603D01*
X27573000Y32771603D01*
X27573000Y32628397D01*
X27600938Y32487942D01*
X27655741Y32355636D01*
X27735302Y32236564D01*
X27836564Y32135302D01*
X27955636Y32055741D01*
X28087942Y32000938D01*
X28228397Y31973000D01*
X28371603Y31973000D01*
X28512058Y32000938D01*
X28644364Y32055741D01*
X28763436Y32135302D01*
X28864698Y32236564D01*
X28944259Y32355636D01*
X28999062Y32487942D01*
X29027000Y32628397D01*
X29027000Y32771603D01*
X28999062Y32912058D01*
X28944259Y33044364D01*
X28864698Y33163436D01*
X28763436Y33264698D01*
X28644364Y33344259D01*
X28512058Y33399062D01*
X28371603Y33427000D01*
X28228397Y33427000D01*
X28087942Y33399062D01*
X27955636Y33344259D01*
X27836564Y33264698D01*
X27735302Y33163436D01*
X27655741Y33044364D01*
X27600938Y32912058D01*
X27573000Y32771603D01*
X26767055Y32771603D01*
X26749062Y32862058D01*
X26694259Y32994364D01*
X26614698Y33113436D01*
X26513436Y33214698D01*
X26394364Y33294259D01*
X26262058Y33349062D01*
X26121603Y33377000D01*
X25978397Y33377000D01*
X25837942Y33349062D01*
X25705636Y33294259D01*
X25586564Y33214698D01*
X25485302Y33113436D01*
X25405741Y32994364D01*
X25350938Y32862058D01*
X25323000Y32721603D01*
X12527000Y32721603D01*
X12527000Y33600000D01*
X12525913Y33616577D01*
X12505468Y33771868D01*
X12496888Y33803891D01*
X12436948Y33948600D01*
X12420371Y33977313D01*
X12325020Y34101577D01*
X12301577Y34125020D01*
X12177313Y34220371D01*
X12148600Y34236948D01*
X12003891Y34296888D01*
X11971868Y34305468D01*
X11816577Y34325913D01*
X11800000Y34327000D01*
X7008321Y34327000D01*
X6877864Y34344175D01*
X6764049Y34391319D01*
X6666314Y34466314D01*
X6591319Y34564049D01*
X6544175Y34677864D01*
X6527000Y34808321D01*
X6527000Y35731452D01*
X43423000Y35731452D01*
X43423000Y35568548D01*
X43454782Y35408773D01*
X43517123Y35258269D01*
X43607628Y35122819D01*
X43722819Y35007628D01*
X43858269Y34917123D01*
X44008773Y34854782D01*
X44168548Y34823000D01*
X44331452Y34823000D01*
X44491227Y34854782D01*
X44641731Y34917123D01*
X44777181Y35007628D01*
X44892372Y35122819D01*
X44982877Y35258269D01*
X45045218Y35408773D01*
X45077000Y35568548D01*
X45077000Y35581452D01*
X50523000Y35581452D01*
X50523000Y35418548D01*
X50554782Y35258773D01*
X50617123Y35108269D01*
X50707628Y34972819D01*
X50822819Y34857628D01*
X50958269Y34767123D01*
X51108773Y34704782D01*
X51268548Y34673000D01*
X51431452Y34673000D01*
X51591227Y34704782D01*
X51741731Y34767123D01*
X51877181Y34857628D01*
X51992372Y34972819D01*
X52082877Y35108269D01*
X52145218Y35258773D01*
X52177000Y35418548D01*
X52177000Y35581452D01*
X52145218Y35741227D01*
X52082877Y35891731D01*
X51992372Y36027181D01*
X51877181Y36142372D01*
X51741731Y36232877D01*
X51591227Y36295218D01*
X51431452Y36327000D01*
X51268548Y36327000D01*
X51108773Y36295218D01*
X50958269Y36232877D01*
X50822819Y36142372D01*
X50707628Y36027181D01*
X50617123Y35891731D01*
X50554782Y35741227D01*
X50523000Y35581452D01*
X45077000Y35581452D01*
X45077000Y35731452D01*
X45045218Y35891227D01*
X44982877Y36041731D01*
X44892372Y36177181D01*
X44777181Y36292372D01*
X44641731Y36382877D01*
X44491227Y36445218D01*
X44331452Y36477000D01*
X44168548Y36477000D01*
X44008773Y36445218D01*
X43858269Y36382877D01*
X43722819Y36292372D01*
X43607628Y36177181D01*
X43517123Y36041731D01*
X43454782Y35891227D01*
X43423000Y35731452D01*
X6527000Y35731452D01*
X6527000Y40281452D01*
X22773000Y40281452D01*
X22773000Y40118548D01*
X22804782Y39958773D01*
X22867123Y39808269D01*
X22957628Y39672819D01*
X23072819Y39557628D01*
X23208269Y39467123D01*
X23358773Y39404782D01*
X23518548Y39373000D01*
X23681452Y39373000D01*
X23841227Y39404782D01*
X23991731Y39467123D01*
X24127181Y39557628D01*
X24242372Y39672819D01*
X24332877Y39808269D01*
X24395218Y39958773D01*
X24427000Y40118548D01*
X24427000Y40281452D01*
X24395218Y40441227D01*
X24332877Y40591731D01*
X24242372Y40727181D01*
X24127181Y40842372D01*
X23991731Y40932877D01*
X23841227Y40995218D01*
X23681452Y41027000D01*
X23518548Y41027000D01*
X23358773Y40995218D01*
X23208269Y40932877D01*
X23072819Y40842372D01*
X22957628Y40727181D01*
X22867123Y40591731D01*
X22804782Y40441227D01*
X22773000Y40281452D01*
X6527000Y40281452D01*
X6527000Y57541679D01*
X6544175Y57672136D01*
X6591319Y57785951D01*
X6666314Y57883686D01*
X6764049Y57958681D01*
X6877864Y58005825D01*
X7008321Y58023000D01*
X12091679Y58023000D01*
X12222136Y58005825D01*
X12335951Y57958681D01*
X12433686Y57883686D01*
X12508681Y57785951D01*
X12555825Y57672136D01*
X12573000Y57541679D01*
X12573000Y45100000D01*
X12574087Y45083423D01*
X12594532Y44928132D01*
X12603112Y44896109D01*
X12663052Y44751400D01*
X12679629Y44722687D01*
X12774980Y44598423D01*
X12798423Y44574980D01*
X12922687Y44479629D01*
X12951400Y44463052D01*
X13096109Y44403112D01*
X13128132Y44394532D01*
X13283423Y44374087D01*
X13300000Y44373000D01*
X22759364Y44373000D01*
X22704782Y44241227D01*
X22673000Y44081452D01*
X22673000Y43918548D01*
X22704782Y43758773D01*
X22767123Y43608269D01*
X22857628Y43472819D01*
X22972819Y43357628D01*
X23108269Y43267123D01*
X23258773Y43204782D01*
X23418548Y43173000D01*
X23581452Y43173000D01*
X23741227Y43204782D01*
X23891731Y43267123D01*
X24027181Y43357628D01*
X24142372Y43472819D01*
X24232877Y43608269D01*
X24295218Y43758773D01*
X24327000Y43918548D01*
X24327000Y44081452D01*
X24295218Y44241227D01*
X24240636Y44373000D01*
X33559364Y44373000D01*
X33504782Y44241227D01*
X33473000Y44081452D01*
X33473000Y43918548D01*
X33504782Y43758773D01*
X33567123Y43608269D01*
X33657628Y43472819D01*
X33772819Y43357628D01*
X33908269Y43267123D01*
X34058773Y43204782D01*
X34218548Y43173000D01*
X34381452Y43173000D01*
X34541227Y43204782D01*
X34691731Y43267123D01*
X34827181Y43357628D01*
X34942372Y43472819D01*
X35025000Y43596480D01*
X35107628Y43472819D01*
X35222819Y43357628D01*
X35358269Y43267123D01*
X35508773Y43204782D01*
X35668548Y43173000D01*
X35831452Y43173000D01*
X35991227Y43204782D01*
X36141731Y43267123D01*
X36277181Y43357628D01*
X36392372Y43472819D01*
X36482877Y43608269D01*
X36545218Y43758773D01*
X36577000Y43918548D01*
X36577000Y44081452D01*
X36545218Y44241227D01*
X36490636Y44373000D01*
X44359364Y44373000D01*
X44304782Y44241227D01*
X44273000Y44081452D01*
X44273000Y43918548D01*
X44304782Y43758773D01*
X44367123Y43608269D01*
X44457628Y43472819D01*
X44572819Y43357628D01*
X44708269Y43267123D01*
X44858773Y43204782D01*
X45018548Y43173000D01*
X45181452Y43173000D01*
X45341227Y43204782D01*
X45491731Y43267123D01*
X45627181Y43357628D01*
X45742372Y43472819D01*
X45832877Y43608269D01*
X45895218Y43758773D01*
X45927000Y43918548D01*
X45927000Y44081452D01*
X45895218Y44241227D01*
X45840636Y44373000D01*
X47500000Y44373000D01*
X47516577Y44374087D01*
X47671868Y44394532D01*
X47703891Y44403112D01*
X47848600Y44463052D01*
X47877313Y44479629D01*
X48001577Y44574980D01*
X48025020Y44598423D01*
X48120371Y44722687D01*
X48136948Y44751400D01*
X48196888Y44896109D01*
X48205468Y44928132D01*
X48225913Y45083423D01*
X48227000Y45100000D01*
X48227000Y70391679D01*
X48244175Y70522136D01*
X48291319Y70635951D01*
X48300565Y70648000D01*
X60399435Y70648000D01*
X60408681Y70635951D01*
G36*
X71773000Y70637491D02*
G01*
X71773000Y43400000D01*
X71775440Y43375224D01*
X71798276Y43260419D01*
X71805503Y43236594D01*
X71817239Y43214637D01*
X71882271Y43117310D01*
X71898066Y43098065D01*
X71917310Y43082271D01*
X72014637Y43017239D01*
X72036594Y43005503D01*
X72060419Y42998276D01*
X72175224Y42975440D01*
X72200000Y42973000D01*
X75537491Y42973000D01*
X75615251Y42957533D01*
X75670570Y42920570D01*
X75707533Y42865251D01*
X75723000Y42787491D01*
X75723000Y41412509D01*
X75707533Y41334749D01*
X75670570Y41279430D01*
X75615251Y41242467D01*
X75537491Y41227000D01*
X72200000Y41227000D01*
X72175224Y41224560D01*
X72060419Y41201724D01*
X72036594Y41194497D01*
X72014637Y41182761D01*
X71917310Y41117729D01*
X71898065Y41101934D01*
X71882271Y41082690D01*
X71817239Y40985363D01*
X71805503Y40963406D01*
X71798276Y40939581D01*
X71775440Y40824776D01*
X71773000Y40800000D01*
X71773000Y22500000D01*
X71775440Y22475224D01*
X71798276Y22360419D01*
X71805503Y22336594D01*
X71817239Y22314637D01*
X71882271Y22217310D01*
X71898066Y22198065D01*
X71917310Y22182271D01*
X72014637Y22117239D01*
X72036594Y22105503D01*
X72060419Y22098276D01*
X72175224Y22075440D01*
X72200000Y22073000D01*
X75537491Y22073000D01*
X75615251Y22057533D01*
X75670570Y22020570D01*
X75707533Y21965251D01*
X75723000Y21887491D01*
X75723000Y20512509D01*
X75707533Y20434749D01*
X75670570Y20379430D01*
X75615251Y20342467D01*
X75537491Y20327000D01*
X72200000Y20327000D01*
X72175224Y20324560D01*
X72060419Y20301724D01*
X72036594Y20294497D01*
X72014637Y20282761D01*
X71917310Y20217729D01*
X71898065Y20201934D01*
X71882271Y20182690D01*
X71817239Y20085363D01*
X71805503Y20063406D01*
X71798276Y20039581D01*
X71775440Y19924776D01*
X71773000Y19900000D01*
X71773000Y1700000D01*
X71775440Y1675224D01*
X71798276Y1560419D01*
X71805503Y1536594D01*
X71817239Y1514637D01*
X71882271Y1417310D01*
X71898066Y1398065D01*
X71917310Y1382271D01*
X72014637Y1317239D01*
X72036594Y1305503D01*
X72060419Y1298276D01*
X72175224Y1275440D01*
X72200000Y1273000D01*
X75537491Y1273000D01*
X75615251Y1257533D01*
X75670570Y1220570D01*
X75707533Y1165251D01*
X75723000Y1087491D01*
X75723000Y-287491D01*
X75707533Y-365251D01*
X75670570Y-420570D01*
X75615251Y-457533D01*
X75537491Y-473000D01*
X72200000Y-473000D01*
X72175224Y-475440D01*
X72060419Y-498276D01*
X72036594Y-505503D01*
X72014637Y-517239D01*
X71917310Y-582271D01*
X71898065Y-598066D01*
X71882271Y-617310D01*
X71817239Y-714637D01*
X71805503Y-736594D01*
X71798276Y-760419D01*
X71775440Y-875224D01*
X71773000Y-900000D01*
X71773000Y-19100000D01*
X71775440Y-19124776D01*
X71798276Y-19239581D01*
X71805503Y-19263406D01*
X71817239Y-19285363D01*
X71882271Y-19382690D01*
X71898066Y-19401935D01*
X71917310Y-19417729D01*
X72014637Y-19482761D01*
X72036594Y-19494497D01*
X72060419Y-19501724D01*
X72175224Y-19524560D01*
X72200000Y-19527000D01*
X75537491Y-19527000D01*
X75615251Y-19542467D01*
X75670570Y-19579430D01*
X75707533Y-19634749D01*
X75723000Y-19712509D01*
X75723000Y-21087491D01*
X75707533Y-21165251D01*
X75670570Y-21220570D01*
X75615251Y-21257533D01*
X75537491Y-21273000D01*
X69612509Y-21273000D01*
X69534749Y-21257533D01*
X69479430Y-21220570D01*
X69442467Y-21165251D01*
X69427000Y-21087491D01*
X69427000Y61700000D01*
X69424560Y61724776D01*
X69401724Y61839581D01*
X69394497Y61863406D01*
X69382761Y61885363D01*
X69317729Y61982690D01*
X69301934Y62001935D01*
X69282690Y62017729D01*
X69185363Y62082761D01*
X69163406Y62094497D01*
X69139581Y62101724D01*
X69024776Y62124560D01*
X69000000Y62127000D01*
X59412509Y62127000D01*
X59334749Y62142467D01*
X59279430Y62179430D01*
X59242467Y62234749D01*
X59227000Y62312509D01*
X59227000Y70637491D01*
X59229090Y70648000D01*
X71770910Y70648000D01*
X71773000Y70637491D01*
G37*
X71773000Y70637491D02*
X71773000Y43400000D01*
X71775440Y43375224D01*
X71798276Y43260419D01*
X71805503Y43236594D01*
X71817239Y43214637D01*
X71882271Y43117310D01*
X71898066Y43098065D01*
X71917310Y43082271D01*
X72014637Y43017239D01*
X72036594Y43005503D01*
X72060419Y42998276D01*
X72175224Y42975440D01*
X72200000Y42973000D01*
X75537491Y42973000D01*
X75615251Y42957533D01*
X75670570Y42920570D01*
X75707533Y42865251D01*
X75723000Y42787491D01*
X75723000Y41412509D01*
X75707533Y41334749D01*
X75670570Y41279430D01*
X75615251Y41242467D01*
X75537491Y41227000D01*
X72200000Y41227000D01*
X72175224Y41224560D01*
X72060419Y41201724D01*
X72036594Y41194497D01*
X72014637Y41182761D01*
X71917310Y41117729D01*
X71898065Y41101934D01*
X71882271Y41082690D01*
X71817239Y40985363D01*
X71805503Y40963406D01*
X71798276Y40939581D01*
X71775440Y40824776D01*
X71773000Y40800000D01*
X71773000Y22500000D01*
X71775440Y22475224D01*
X71798276Y22360419D01*
X71805503Y22336594D01*
X71817239Y22314637D01*
X71882271Y22217310D01*
X71898066Y22198065D01*
X71917310Y22182271D01*
X72014637Y22117239D01*
X72036594Y22105503D01*
X72060419Y22098276D01*
X72175224Y22075440D01*
X72200000Y22073000D01*
X75537491Y22073000D01*
X75615251Y22057533D01*
X75670570Y22020570D01*
X75707533Y21965251D01*
X75723000Y21887491D01*
X75723000Y20512509D01*
X75707533Y20434749D01*
X75670570Y20379430D01*
X75615251Y20342467D01*
X75537491Y20327000D01*
X72200000Y20327000D01*
X72175224Y20324560D01*
X72060419Y20301724D01*
X72036594Y20294497D01*
X72014637Y20282761D01*
X71917310Y20217729D01*
X71898065Y20201934D01*
X71882271Y20182690D01*
X71817239Y20085363D01*
X71805503Y20063406D01*
X71798276Y20039581D01*
X71775440Y19924776D01*
X71773000Y19900000D01*
X71773000Y1700000D01*
X71775440Y1675224D01*
X71798276Y1560419D01*
X71805503Y1536594D01*
X71817239Y1514637D01*
X71882271Y1417310D01*
X71898066Y1398065D01*
X71917310Y1382271D01*
X72014637Y1317239D01*
X72036594Y1305503D01*
X72060419Y1298276D01*
X72175224Y1275440D01*
X72200000Y1273000D01*
X75537491Y1273000D01*
X75615251Y1257533D01*
X75670570Y1220570D01*
X75707533Y1165251D01*
X75723000Y1087491D01*
X75723000Y-287491D01*
X75707533Y-365251D01*
X75670570Y-420570D01*
X75615251Y-457533D01*
X75537491Y-473000D01*
X72200000Y-473000D01*
X72175224Y-475440D01*
X72060419Y-498276D01*
X72036594Y-505503D01*
X72014637Y-517239D01*
X71917310Y-582271D01*
X71898065Y-598066D01*
X71882271Y-617310D01*
X71817239Y-714637D01*
X71805503Y-736594D01*
X71798276Y-760419D01*
X71775440Y-875224D01*
X71773000Y-900000D01*
X71773000Y-19100000D01*
X71775440Y-19124776D01*
X71798276Y-19239581D01*
X71805503Y-19263406D01*
X71817239Y-19285363D01*
X71882271Y-19382690D01*
X71898066Y-19401935D01*
X71917310Y-19417729D01*
X72014637Y-19482761D01*
X72036594Y-19494497D01*
X72060419Y-19501724D01*
X72175224Y-19524560D01*
X72200000Y-19527000D01*
X75537491Y-19527000D01*
X75615251Y-19542467D01*
X75670570Y-19579430D01*
X75707533Y-19634749D01*
X75723000Y-19712509D01*
X75723000Y-21087491D01*
X75707533Y-21165251D01*
X75670570Y-21220570D01*
X75615251Y-21257533D01*
X75537491Y-21273000D01*
X69612509Y-21273000D01*
X69534749Y-21257533D01*
X69479430Y-21220570D01*
X69442467Y-21165251D01*
X69427000Y-21087491D01*
X69427000Y61700000D01*
X69424560Y61724776D01*
X69401724Y61839581D01*
X69394497Y61863406D01*
X69382761Y61885363D01*
X69317729Y61982690D01*
X69301934Y62001935D01*
X69282690Y62017729D01*
X69185363Y62082761D01*
X69163406Y62094497D01*
X69139581Y62101724D01*
X69024776Y62124560D01*
X69000000Y62127000D01*
X59412509Y62127000D01*
X59334749Y62142467D01*
X59279430Y62179430D01*
X59242467Y62234749D01*
X59227000Y62312509D01*
X59227000Y70637491D01*
X59229090Y70648000D01*
X71770910Y70648000D01*
X71773000Y70637491D01*
G36*
X82822136Y68255825D02*
G01*
X82935951Y68208681D01*
X83033686Y68133686D01*
X83108681Y68035951D01*
X83155825Y67922136D01*
X83173000Y67791679D01*
X83173000Y63500000D01*
X83174087Y63483423D01*
X83194532Y63328132D01*
X83203112Y63296109D01*
X83263052Y63151400D01*
X83279629Y63122687D01*
X83374980Y62998423D01*
X83398423Y62974980D01*
X83522687Y62879629D01*
X83551400Y62863052D01*
X83696109Y62803112D01*
X83728132Y62794532D01*
X83883423Y62774087D01*
X83900000Y62773000D01*
X85791679Y62773000D01*
X85922136Y62755825D01*
X86035951Y62708681D01*
X86133686Y62633686D01*
X86208681Y62535951D01*
X86255825Y62422136D01*
X86273000Y62291679D01*
X86273000Y58708321D01*
X86255825Y58577864D01*
X86208681Y58464049D01*
X86133686Y58366314D01*
X86035951Y58291319D01*
X85922136Y58244175D01*
X85628132Y58205468D01*
X85596109Y58196888D01*
X85451400Y58136948D01*
X85422687Y58120371D01*
X85298423Y58025020D01*
X85274980Y58001577D01*
X85179629Y57877313D01*
X85163052Y57848600D01*
X85103112Y57703891D01*
X85094532Y57671868D01*
X85074087Y57516577D01*
X85073000Y57500000D01*
X85073000Y46200000D01*
X85074087Y46183423D01*
X85094532Y46028132D01*
X85103112Y45996109D01*
X85163052Y45851400D01*
X85179629Y45822687D01*
X85274980Y45698423D01*
X85298423Y45674980D01*
X85422687Y45579629D01*
X85451400Y45563052D01*
X85596109Y45503112D01*
X85628132Y45494532D01*
X85783423Y45474087D01*
X85800000Y45473000D01*
X88991679Y45473000D01*
X89122136Y45455825D01*
X89235951Y45408681D01*
X89333686Y45333686D01*
X89408681Y45235951D01*
X89455825Y45122136D01*
X89473000Y44991679D01*
X89473000Y37508321D01*
X89455825Y37377864D01*
X89408681Y37264049D01*
X89333686Y37166314D01*
X89235951Y37091319D01*
X89122136Y37044175D01*
X88991679Y37027000D01*
X85700000Y37027000D01*
X85683423Y37025913D01*
X85528132Y37005468D01*
X85496109Y36996888D01*
X85351400Y36936948D01*
X85322687Y36920371D01*
X85198423Y36825020D01*
X85174980Y36801577D01*
X85079629Y36677313D01*
X85063052Y36648600D01*
X85003112Y36503891D01*
X84994532Y36471868D01*
X84974087Y36316577D01*
X84973000Y36300000D01*
X84973000Y25300000D01*
X84974087Y25283423D01*
X84994532Y25128132D01*
X85003112Y25096109D01*
X85063052Y24951400D01*
X85079629Y24922687D01*
X85174980Y24798423D01*
X85198423Y24774980D01*
X85322687Y24679629D01*
X85351400Y24663052D01*
X85496109Y24603112D01*
X85528132Y24594532D01*
X85683423Y24574087D01*
X85700000Y24573000D01*
X88891679Y24573000D01*
X89022136Y24555825D01*
X89135951Y24508681D01*
X89233686Y24433686D01*
X89308681Y24335951D01*
X89355825Y24222136D01*
X89373000Y24091679D01*
X89373000Y16708321D01*
X89355825Y16577864D01*
X89308681Y16464049D01*
X89233686Y16366314D01*
X89135951Y16291319D01*
X89022136Y16244175D01*
X88891679Y16227000D01*
X85700000Y16227000D01*
X85683423Y16225913D01*
X85528132Y16205468D01*
X85496109Y16196888D01*
X85351400Y16136948D01*
X85322687Y16120371D01*
X85198423Y16025020D01*
X85174980Y16001577D01*
X85079629Y15877313D01*
X85063052Y15848600D01*
X85003112Y15703891D01*
X84994532Y15671868D01*
X84974087Y15516577D01*
X84973000Y15500000D01*
X84973000Y4500000D01*
X84974087Y4483423D01*
X84994532Y4328132D01*
X85003112Y4296109D01*
X85063052Y4151400D01*
X85079629Y4122687D01*
X85174980Y3998423D01*
X85198423Y3974980D01*
X85322687Y3879629D01*
X85351400Y3863052D01*
X85496109Y3803112D01*
X85528132Y3794532D01*
X85683423Y3774087D01*
X85700000Y3773000D01*
X88891679Y3773000D01*
X89022136Y3755825D01*
X89135951Y3708681D01*
X89233686Y3633686D01*
X89308681Y3535951D01*
X89355825Y3422136D01*
X89373000Y3291679D01*
X89373000Y-4091679D01*
X89355825Y-4222136D01*
X89308681Y-4335951D01*
X89233686Y-4433686D01*
X89135951Y-4508681D01*
X89022136Y-4555825D01*
X88891679Y-4573000D01*
X85700000Y-4573000D01*
X85683423Y-4574087D01*
X85528132Y-4594532D01*
X85496109Y-4603112D01*
X85351400Y-4663052D01*
X85322687Y-4679629D01*
X85198423Y-4774980D01*
X85174980Y-4798423D01*
X85079629Y-4922687D01*
X85063052Y-4951400D01*
X85003112Y-5096109D01*
X84994532Y-5128132D01*
X84974087Y-5283423D01*
X84973000Y-5300000D01*
X84973000Y-16200000D01*
X84974087Y-16216577D01*
X84994532Y-16371868D01*
X85003112Y-16403891D01*
X85063052Y-16548600D01*
X85079629Y-16577313D01*
X85174980Y-16701577D01*
X85198423Y-16725020D01*
X85322687Y-16820371D01*
X85351400Y-16836948D01*
X85496109Y-16896888D01*
X85528132Y-16905468D01*
X85683423Y-16925913D01*
X85700000Y-16927000D01*
X88791679Y-16927000D01*
X88922136Y-16944175D01*
X89035951Y-16991319D01*
X89133686Y-17066314D01*
X89208681Y-17164049D01*
X89255825Y-17277864D01*
X89273000Y-17408321D01*
X89273000Y-17991679D01*
X89255825Y-18122136D01*
X89208681Y-18235951D01*
X89133686Y-18333686D01*
X89035951Y-18408681D01*
X88922136Y-18455825D01*
X88791679Y-18473000D01*
X82218485Y-18473000D01*
X82225913Y-18416577D01*
X82227000Y-18400000D01*
X82227000Y-16894419D01*
X82225926Y-16877941D01*
X82205723Y-16723552D01*
X82197243Y-16691703D01*
X82137993Y-16547712D01*
X82121603Y-16519119D01*
X82027298Y-16395222D01*
X82004103Y-16371809D01*
X81881093Y-16276350D01*
X81852654Y-16259694D01*
X81709222Y-16199101D01*
X81677455Y-16190323D01*
X81523262Y-16168678D01*
X81506794Y-16167451D01*
X77356794Y-16128666D01*
X77340110Y-16129609D01*
X77227000Y-16143515D01*
X77227000Y-6700000D01*
X77225913Y-6683423D01*
X77205468Y-6528132D01*
X77196888Y-6496109D01*
X77136948Y-6351400D01*
X77120371Y-6322687D01*
X77025020Y-6198423D01*
X77001577Y-6174980D01*
X76877313Y-6079629D01*
X76848600Y-6063052D01*
X76703891Y-6003112D01*
X76671868Y-5994532D01*
X76516577Y-5974087D01*
X76500000Y-5973000D01*
X74508321Y-5973000D01*
X74377864Y-5955825D01*
X74264049Y-5908681D01*
X74166314Y-5833686D01*
X74091319Y-5735951D01*
X74044175Y-5622136D01*
X74027000Y-5491679D01*
X74027000Y-4808321D01*
X74044175Y-4677864D01*
X74091319Y-4564049D01*
X74166314Y-4466314D01*
X74264049Y-4391319D01*
X74377864Y-4344175D01*
X74508321Y-4327000D01*
X80200000Y-4327000D01*
X80216577Y-4325913D01*
X80371868Y-4305468D01*
X80403891Y-4296888D01*
X80548600Y-4236948D01*
X80577313Y-4220371D01*
X80701577Y-4125020D01*
X80725020Y-4101577D01*
X80820371Y-3977313D01*
X80836948Y-3948600D01*
X80896888Y-3803891D01*
X80905468Y-3771868D01*
X80925913Y-3616577D01*
X80927000Y-3600000D01*
X80927000Y-1400000D01*
X80925913Y-1383423D01*
X80905468Y-1228132D01*
X80896888Y-1196109D01*
X80836948Y-1051400D01*
X80820371Y-1022687D01*
X80725020Y-898423D01*
X80701577Y-874980D01*
X80577313Y-779629D01*
X80548600Y-763052D01*
X80403891Y-703112D01*
X80371868Y-694532D01*
X80216577Y-674087D01*
X80200000Y-673000D01*
X77708321Y-673000D01*
X77577864Y-655825D01*
X77464049Y-608681D01*
X77366314Y-533686D01*
X77291319Y-435951D01*
X77244175Y-322136D01*
X77227000Y-191679D01*
X77227000Y14100000D01*
X77225913Y14116577D01*
X77205468Y14271868D01*
X77196888Y14303891D01*
X77136948Y14448600D01*
X77120371Y14477313D01*
X77025020Y14601577D01*
X77001577Y14625020D01*
X76877313Y14720371D01*
X76848600Y14736948D01*
X76703891Y14796888D01*
X76671868Y14805468D01*
X76516577Y14825913D01*
X76500000Y14827000D01*
X74508321Y14827000D01*
X74377864Y14844175D01*
X74264049Y14891319D01*
X74166314Y14966314D01*
X74091319Y15064049D01*
X74044175Y15177864D01*
X74027000Y15308321D01*
X74027000Y15991679D01*
X74044175Y16122136D01*
X74091319Y16235951D01*
X74166314Y16333686D01*
X74264049Y16408681D01*
X74377864Y16455825D01*
X74508321Y16473000D01*
X80200000Y16473000D01*
X80216577Y16474087D01*
X80371868Y16494532D01*
X80403891Y16503112D01*
X80548600Y16563052D01*
X80577313Y16579629D01*
X80701577Y16674980D01*
X80725020Y16698423D01*
X80820371Y16822687D01*
X80836948Y16851400D01*
X80896888Y16996109D01*
X80905468Y17028132D01*
X80925913Y17183423D01*
X80927000Y17200000D01*
X80927000Y19300000D01*
X80925913Y19316577D01*
X80905468Y19471868D01*
X80896888Y19503891D01*
X80836948Y19648600D01*
X80820371Y19677313D01*
X80725020Y19801577D01*
X80701577Y19825020D01*
X80577313Y19920371D01*
X80548600Y19936948D01*
X80403891Y19996888D01*
X80371868Y20005468D01*
X80216577Y20025913D01*
X80200000Y20027000D01*
X77708321Y20027000D01*
X77577864Y20044175D01*
X77464049Y20091319D01*
X77366314Y20166314D01*
X77291319Y20264049D01*
X77244175Y20377864D01*
X77227000Y20508321D01*
X77227000Y34900000D01*
X77225913Y34916577D01*
X77205468Y35071868D01*
X77196888Y35103891D01*
X77136948Y35248600D01*
X77120371Y35277313D01*
X77025020Y35401577D01*
X77001577Y35425020D01*
X76877313Y35520371D01*
X76848600Y35536948D01*
X76703891Y35596888D01*
X76671868Y35605468D01*
X76516577Y35625913D01*
X76500000Y35627000D01*
X74508321Y35627000D01*
X74377864Y35644175D01*
X74264049Y35691319D01*
X74166314Y35766314D01*
X74091319Y35864049D01*
X74044175Y35977864D01*
X74027000Y36108321D01*
X74027000Y36791679D01*
X74044175Y36922136D01*
X74091319Y37035951D01*
X74166314Y37133686D01*
X74264049Y37208681D01*
X74377864Y37255825D01*
X74508321Y37273000D01*
X80200000Y37273000D01*
X80216577Y37274087D01*
X80371868Y37294532D01*
X80403891Y37303112D01*
X80548600Y37363052D01*
X80577313Y37379629D01*
X80701577Y37474980D01*
X80725020Y37498423D01*
X80820371Y37622687D01*
X80836948Y37651400D01*
X80896888Y37796109D01*
X80905468Y37828132D01*
X80925913Y37983423D01*
X80927000Y38000000D01*
X80927000Y39700000D01*
X80925913Y39716577D01*
X80905468Y39871868D01*
X80896888Y39903891D01*
X80836948Y40048600D01*
X80820371Y40077313D01*
X80725020Y40201577D01*
X80701577Y40225020D01*
X80577313Y40320371D01*
X80548600Y40336948D01*
X80403891Y40396888D01*
X80371868Y40405468D01*
X80216577Y40425913D01*
X80200000Y40427000D01*
X77708321Y40427000D01*
X77577864Y40444175D01*
X77464049Y40491319D01*
X77366314Y40566314D01*
X77291319Y40664049D01*
X77244175Y40777864D01*
X77227000Y40908321D01*
X77227000Y55800000D01*
X77225913Y55816577D01*
X77205468Y55971868D01*
X77196888Y56003891D01*
X77136948Y56148600D01*
X77120371Y56177313D01*
X77025020Y56301577D01*
X77001577Y56325020D01*
X76877313Y56420371D01*
X76848600Y56436948D01*
X76703891Y56496888D01*
X76671868Y56505468D01*
X76516577Y56525913D01*
X76500000Y56527000D01*
X74508321Y56527000D01*
X74377864Y56544175D01*
X74264049Y56591319D01*
X74166314Y56666314D01*
X74091319Y56764049D01*
X74044175Y56877864D01*
X74027000Y57008321D01*
X74027000Y57791679D01*
X74044175Y57922136D01*
X74091319Y58035951D01*
X74166314Y58133686D01*
X74264049Y58208681D01*
X74377864Y58255825D01*
X74508321Y58273000D01*
X76500000Y58273000D01*
X76516577Y58274087D01*
X76671868Y58294532D01*
X76703891Y58303112D01*
X76848600Y58363052D01*
X76877313Y58379629D01*
X77001577Y58474980D01*
X77025020Y58498423D01*
X77120371Y58622687D01*
X77136948Y58651400D01*
X77196888Y58796109D01*
X77205468Y58828132D01*
X77225913Y58983423D01*
X77227000Y59000000D01*
X77227000Y65200000D01*
X77225913Y65216577D01*
X77205468Y65371868D01*
X77196888Y65403891D01*
X77136948Y65548600D01*
X77120371Y65577313D01*
X77025020Y65701577D01*
X77001577Y65725020D01*
X76877313Y65820371D01*
X76848600Y65836948D01*
X76703891Y65896888D01*
X76671868Y65905468D01*
X76516577Y65925913D01*
X76500000Y65927000D01*
X74508321Y65927000D01*
X74377864Y65944175D01*
X74264049Y65991319D01*
X74166314Y66066314D01*
X74091319Y66164049D01*
X74044175Y66277864D01*
X74027000Y66408321D01*
X74027000Y67791679D01*
X74044175Y67922136D01*
X74091319Y68035951D01*
X74166314Y68133686D01*
X74264049Y68208681D01*
X74377864Y68255825D01*
X74508321Y68273000D01*
X82691679Y68273000D01*
X82822136Y68255825D01*
G37*
X82822136Y68255825D02*
X82935951Y68208681D01*
X83033686Y68133686D01*
X83108681Y68035951D01*
X83155825Y67922136D01*
X83173000Y67791679D01*
X83173000Y63500000D01*
X83174087Y63483423D01*
X83194532Y63328132D01*
X83203112Y63296109D01*
X83263052Y63151400D01*
X83279629Y63122687D01*
X83374980Y62998423D01*
X83398423Y62974980D01*
X83522687Y62879629D01*
X83551400Y62863052D01*
X83696109Y62803112D01*
X83728132Y62794532D01*
X83883423Y62774087D01*
X83900000Y62773000D01*
X85791679Y62773000D01*
X85922136Y62755825D01*
X86035951Y62708681D01*
X86133686Y62633686D01*
X86208681Y62535951D01*
X86255825Y62422136D01*
X86273000Y62291679D01*
X86273000Y58708321D01*
X86255825Y58577864D01*
X86208681Y58464049D01*
X86133686Y58366314D01*
X86035951Y58291319D01*
X85922136Y58244175D01*
X85628132Y58205468D01*
X85596109Y58196888D01*
X85451400Y58136948D01*
X85422687Y58120371D01*
X85298423Y58025020D01*
X85274980Y58001577D01*
X85179629Y57877313D01*
X85163052Y57848600D01*
X85103112Y57703891D01*
X85094532Y57671868D01*
X85074087Y57516577D01*
X85073000Y57500000D01*
X85073000Y46200000D01*
X85074087Y46183423D01*
X85094532Y46028132D01*
X85103112Y45996109D01*
X85163052Y45851400D01*
X85179629Y45822687D01*
X85274980Y45698423D01*
X85298423Y45674980D01*
X85422687Y45579629D01*
X85451400Y45563052D01*
X85596109Y45503112D01*
X85628132Y45494532D01*
X85783423Y45474087D01*
X85800000Y45473000D01*
X88991679Y45473000D01*
X89122136Y45455825D01*
X89235951Y45408681D01*
X89333686Y45333686D01*
X89408681Y45235951D01*
X89455825Y45122136D01*
X89473000Y44991679D01*
X89473000Y37508321D01*
X89455825Y37377864D01*
X89408681Y37264049D01*
X89333686Y37166314D01*
X89235951Y37091319D01*
X89122136Y37044175D01*
X88991679Y37027000D01*
X85700000Y37027000D01*
X85683423Y37025913D01*
X85528132Y37005468D01*
X85496109Y36996888D01*
X85351400Y36936948D01*
X85322687Y36920371D01*
X85198423Y36825020D01*
X85174980Y36801577D01*
X85079629Y36677313D01*
X85063052Y36648600D01*
X85003112Y36503891D01*
X84994532Y36471868D01*
X84974087Y36316577D01*
X84973000Y36300000D01*
X84973000Y25300000D01*
X84974087Y25283423D01*
X84994532Y25128132D01*
X85003112Y25096109D01*
X85063052Y24951400D01*
X85079629Y24922687D01*
X85174980Y24798423D01*
X85198423Y24774980D01*
X85322687Y24679629D01*
X85351400Y24663052D01*
X85496109Y24603112D01*
X85528132Y24594532D01*
X85683423Y24574087D01*
X85700000Y24573000D01*
X88891679Y24573000D01*
X89022136Y24555825D01*
X89135951Y24508681D01*
X89233686Y24433686D01*
X89308681Y24335951D01*
X89355825Y24222136D01*
X89373000Y24091679D01*
X89373000Y16708321D01*
X89355825Y16577864D01*
X89308681Y16464049D01*
X89233686Y16366314D01*
X89135951Y16291319D01*
X89022136Y16244175D01*
X88891679Y16227000D01*
X85700000Y16227000D01*
X85683423Y16225913D01*
X85528132Y16205468D01*
X85496109Y16196888D01*
X85351400Y16136948D01*
X85322687Y16120371D01*
X85198423Y16025020D01*
X85174980Y16001577D01*
X85079629Y15877313D01*
X85063052Y15848600D01*
X85003112Y15703891D01*
X84994532Y15671868D01*
X84974087Y15516577D01*
X84973000Y15500000D01*
X84973000Y4500000D01*
X84974087Y4483423D01*
X84994532Y4328132D01*
X85003112Y4296109D01*
X85063052Y4151400D01*
X85079629Y4122687D01*
X85174980Y3998423D01*
X85198423Y3974980D01*
X85322687Y3879629D01*
X85351400Y3863052D01*
X85496109Y3803112D01*
X85528132Y3794532D01*
X85683423Y3774087D01*
X85700000Y3773000D01*
X88891679Y3773000D01*
X89022136Y3755825D01*
X89135951Y3708681D01*
X89233686Y3633686D01*
X89308681Y3535951D01*
X89355825Y3422136D01*
X89373000Y3291679D01*
X89373000Y-4091679D01*
X89355825Y-4222136D01*
X89308681Y-4335951D01*
X89233686Y-4433686D01*
X89135951Y-4508681D01*
X89022136Y-4555825D01*
X88891679Y-4573000D01*
X85700000Y-4573000D01*
X85683423Y-4574087D01*
X85528132Y-4594532D01*
X85496109Y-4603112D01*
X85351400Y-4663052D01*
X85322687Y-4679629D01*
X85198423Y-4774980D01*
X85174980Y-4798423D01*
X85079629Y-4922687D01*
X85063052Y-4951400D01*
X85003112Y-5096109D01*
X84994532Y-5128132D01*
X84974087Y-5283423D01*
X84973000Y-5300000D01*
X84973000Y-16200000D01*
X84974087Y-16216577D01*
X84994532Y-16371868D01*
X85003112Y-16403891D01*
X85063052Y-16548600D01*
X85079629Y-16577313D01*
X85174980Y-16701577D01*
X85198423Y-16725020D01*
X85322687Y-16820371D01*
X85351400Y-16836948D01*
X85496109Y-16896888D01*
X85528132Y-16905468D01*
X85683423Y-16925913D01*
X85700000Y-16927000D01*
X88791679Y-16927000D01*
X88922136Y-16944175D01*
X89035951Y-16991319D01*
X89133686Y-17066314D01*
X89208681Y-17164049D01*
X89255825Y-17277864D01*
X89273000Y-17408321D01*
X89273000Y-17991679D01*
X89255825Y-18122136D01*
X89208681Y-18235951D01*
X89133686Y-18333686D01*
X89035951Y-18408681D01*
X88922136Y-18455825D01*
X88791679Y-18473000D01*
X82218485Y-18473000D01*
X82225913Y-18416577D01*
X82227000Y-18400000D01*
X82227000Y-16894419D01*
X82225926Y-16877941D01*
X82205723Y-16723552D01*
X82197243Y-16691703D01*
X82137993Y-16547712D01*
X82121603Y-16519119D01*
X82027298Y-16395222D01*
X82004103Y-16371809D01*
X81881093Y-16276350D01*
X81852654Y-16259694D01*
X81709222Y-16199101D01*
X81677455Y-16190323D01*
X81523262Y-16168678D01*
X81506794Y-16167451D01*
X77356794Y-16128666D01*
X77340110Y-16129609D01*
X77227000Y-16143515D01*
X77227000Y-6700000D01*
X77225913Y-6683423D01*
X77205468Y-6528132D01*
X77196888Y-6496109D01*
X77136948Y-6351400D01*
X77120371Y-6322687D01*
X77025020Y-6198423D01*
X77001577Y-6174980D01*
X76877313Y-6079629D01*
X76848600Y-6063052D01*
X76703891Y-6003112D01*
X76671868Y-5994532D01*
X76516577Y-5974087D01*
X76500000Y-5973000D01*
X74508321Y-5973000D01*
X74377864Y-5955825D01*
X74264049Y-5908681D01*
X74166314Y-5833686D01*
X74091319Y-5735951D01*
X74044175Y-5622136D01*
X74027000Y-5491679D01*
X74027000Y-4808321D01*
X74044175Y-4677864D01*
X74091319Y-4564049D01*
X74166314Y-4466314D01*
X74264049Y-4391319D01*
X74377864Y-4344175D01*
X74508321Y-4327000D01*
X80200000Y-4327000D01*
X80216577Y-4325913D01*
X80371868Y-4305468D01*
X80403891Y-4296888D01*
X80548600Y-4236948D01*
X80577313Y-4220371D01*
X80701577Y-4125020D01*
X80725020Y-4101577D01*
X80820371Y-3977313D01*
X80836948Y-3948600D01*
X80896888Y-3803891D01*
X80905468Y-3771868D01*
X80925913Y-3616577D01*
X80927000Y-3600000D01*
X80927000Y-1400000D01*
X80925913Y-1383423D01*
X80905468Y-1228132D01*
X80896888Y-1196109D01*
X80836948Y-1051400D01*
X80820371Y-1022687D01*
X80725020Y-898423D01*
X80701577Y-874980D01*
X80577313Y-779629D01*
X80548600Y-763052D01*
X80403891Y-703112D01*
X80371868Y-694532D01*
X80216577Y-674087D01*
X80200000Y-673000D01*
X77708321Y-673000D01*
X77577864Y-655825D01*
X77464049Y-608681D01*
X77366314Y-533686D01*
X77291319Y-435951D01*
X77244175Y-322136D01*
X77227000Y-191679D01*
X77227000Y14100000D01*
X77225913Y14116577D01*
X77205468Y14271868D01*
X77196888Y14303891D01*
X77136948Y14448600D01*
X77120371Y14477313D01*
X77025020Y14601577D01*
X77001577Y14625020D01*
X76877313Y14720371D01*
X76848600Y14736948D01*
X76703891Y14796888D01*
X76671868Y14805468D01*
X76516577Y14825913D01*
X76500000Y14827000D01*
X74508321Y14827000D01*
X74377864Y14844175D01*
X74264049Y14891319D01*
X74166314Y14966314D01*
X74091319Y15064049D01*
X74044175Y15177864D01*
X74027000Y15308321D01*
X74027000Y15991679D01*
X74044175Y16122136D01*
X74091319Y16235951D01*
X74166314Y16333686D01*
X74264049Y16408681D01*
X74377864Y16455825D01*
X74508321Y16473000D01*
X80200000Y16473000D01*
X80216577Y16474087D01*
X80371868Y16494532D01*
X80403891Y16503112D01*
X80548600Y16563052D01*
X80577313Y16579629D01*
X80701577Y16674980D01*
X80725020Y16698423D01*
X80820371Y16822687D01*
X80836948Y16851400D01*
X80896888Y16996109D01*
X80905468Y17028132D01*
X80925913Y17183423D01*
X80927000Y17200000D01*
X80927000Y19300000D01*
X80925913Y19316577D01*
X80905468Y19471868D01*
X80896888Y19503891D01*
X80836948Y19648600D01*
X80820371Y19677313D01*
X80725020Y19801577D01*
X80701577Y19825020D01*
X80577313Y19920371D01*
X80548600Y19936948D01*
X80403891Y19996888D01*
X80371868Y20005468D01*
X80216577Y20025913D01*
X80200000Y20027000D01*
X77708321Y20027000D01*
X77577864Y20044175D01*
X77464049Y20091319D01*
X77366314Y20166314D01*
X77291319Y20264049D01*
X77244175Y20377864D01*
X77227000Y20508321D01*
X77227000Y34900000D01*
X77225913Y34916577D01*
X77205468Y35071868D01*
X77196888Y35103891D01*
X77136948Y35248600D01*
X77120371Y35277313D01*
X77025020Y35401577D01*
X77001577Y35425020D01*
X76877313Y35520371D01*
X76848600Y35536948D01*
X76703891Y35596888D01*
X76671868Y35605468D01*
X76516577Y35625913D01*
X76500000Y35627000D01*
X74508321Y35627000D01*
X74377864Y35644175D01*
X74264049Y35691319D01*
X74166314Y35766314D01*
X74091319Y35864049D01*
X74044175Y35977864D01*
X74027000Y36108321D01*
X74027000Y36791679D01*
X74044175Y36922136D01*
X74091319Y37035951D01*
X74166314Y37133686D01*
X74264049Y37208681D01*
X74377864Y37255825D01*
X74508321Y37273000D01*
X80200000Y37273000D01*
X80216577Y37274087D01*
X80371868Y37294532D01*
X80403891Y37303112D01*
X80548600Y37363052D01*
X80577313Y37379629D01*
X80701577Y37474980D01*
X80725020Y37498423D01*
X80820371Y37622687D01*
X80836948Y37651400D01*
X80896888Y37796109D01*
X80905468Y37828132D01*
X80925913Y37983423D01*
X80927000Y38000000D01*
X80927000Y39700000D01*
X80925913Y39716577D01*
X80905468Y39871868D01*
X80896888Y39903891D01*
X80836948Y40048600D01*
X80820371Y40077313D01*
X80725020Y40201577D01*
X80701577Y40225020D01*
X80577313Y40320371D01*
X80548600Y40336948D01*
X80403891Y40396888D01*
X80371868Y40405468D01*
X80216577Y40425913D01*
X80200000Y40427000D01*
X77708321Y40427000D01*
X77577864Y40444175D01*
X77464049Y40491319D01*
X77366314Y40566314D01*
X77291319Y40664049D01*
X77244175Y40777864D01*
X77227000Y40908321D01*
X77227000Y55800000D01*
X77225913Y55816577D01*
X77205468Y55971868D01*
X77196888Y56003891D01*
X77136948Y56148600D01*
X77120371Y56177313D01*
X77025020Y56301577D01*
X77001577Y56325020D01*
X76877313Y56420371D01*
X76848600Y56436948D01*
X76703891Y56496888D01*
X76671868Y56505468D01*
X76516577Y56525913D01*
X76500000Y56527000D01*
X74508321Y56527000D01*
X74377864Y56544175D01*
X74264049Y56591319D01*
X74166314Y56666314D01*
X74091319Y56764049D01*
X74044175Y56877864D01*
X74027000Y57008321D01*
X74027000Y57791679D01*
X74044175Y57922136D01*
X74091319Y58035951D01*
X74166314Y58133686D01*
X74264049Y58208681D01*
X74377864Y58255825D01*
X74508321Y58273000D01*
X76500000Y58273000D01*
X76516577Y58274087D01*
X76671868Y58294532D01*
X76703891Y58303112D01*
X76848600Y58363052D01*
X76877313Y58379629D01*
X77001577Y58474980D01*
X77025020Y58498423D01*
X77120371Y58622687D01*
X77136948Y58651400D01*
X77196888Y58796109D01*
X77205468Y58828132D01*
X77225913Y58983423D01*
X77227000Y59000000D01*
X77227000Y65200000D01*
X77225913Y65216577D01*
X77205468Y65371868D01*
X77196888Y65403891D01*
X77136948Y65548600D01*
X77120371Y65577313D01*
X77025020Y65701577D01*
X77001577Y65725020D01*
X76877313Y65820371D01*
X76848600Y65836948D01*
X76703891Y65896888D01*
X76671868Y65905468D01*
X76516577Y65925913D01*
X76500000Y65927000D01*
X74508321Y65927000D01*
X74377864Y65944175D01*
X74264049Y65991319D01*
X74166314Y66066314D01*
X74091319Y66164049D01*
X74044175Y66277864D01*
X74027000Y66408321D01*
X74027000Y67791679D01*
X74044175Y67922136D01*
X74091319Y68035951D01*
X74166314Y68133686D01*
X74264049Y68208681D01*
X74377864Y68255825D01*
X74508321Y68273000D01*
X82691679Y68273000D01*
X82822136Y68255825D01*
M02*
