%TF.GenerationSoftware,KiCad,Pcbnew,(5.1.5)-2*%
%TF.CreationDate,2019-12-28T19:20:09-08:00*%
%TF.ProjectId,20191222_Projects_Mainboard_A0,32303139-3132-4323-925f-50726f6a6563,A3*%
%TF.SameCoordinates,PX2191c00PY7534e20*%
%TF.FileFunction,Legend,Bot*%
%TF.FilePolarity,Positive*%
%FSLAX46Y46*%
G04 Gerber Fmt 4.6, Leading zero omitted, Abs format (unit mm)*
G04 Created by KiCad (PCBNEW (5.1.5)-2) date 2019-12-28 19:20:09*
%MOMM*%
%LPD*%
G04 APERTURE LIST*
%ADD10C,0.120000*%
%ADD11C,0.150000*%
G04 APERTURE END LIST*
D10*
X3946267Y37790000D02*
X3603733Y37790000D01*
X3946267Y38810000D02*
X3603733Y38810000D01*
X4628733Y65610000D02*
X4971267Y65610000D01*
X4628733Y64590000D02*
X4971267Y64590000D01*
X37971267Y3310000D02*
X37628733Y3310000D01*
X37971267Y2290000D02*
X37628733Y2290000D01*
X9271267Y2290000D02*
X8928733Y2290000D01*
X9271267Y3310000D02*
X8928733Y3310000D01*
X18871267Y3310000D02*
X18528733Y3310000D01*
X18871267Y2290000D02*
X18528733Y2290000D01*
X9271267Y11390000D02*
X8928733Y11390000D01*
X9271267Y12410000D02*
X8928733Y12410000D01*
X28471267Y3310000D02*
X28128733Y3310000D01*
X28471267Y2290000D02*
X28128733Y2290000D01*
X5010000Y25471267D02*
X5010000Y25128733D01*
X3990000Y25471267D02*
X3990000Y25128733D01*
X5590000Y25471267D02*
X5590000Y25128733D01*
X6610000Y25471267D02*
X6610000Y25128733D01*
X9290000Y25271267D02*
X9290000Y24928733D01*
X10310000Y25271267D02*
X10310000Y24928733D01*
X11910000Y25271267D02*
X11910000Y24928733D01*
X10890000Y25271267D02*
X10890000Y24928733D01*
X12490000Y25271267D02*
X12490000Y24928733D01*
X13510000Y25271267D02*
X13510000Y24928733D01*
X80750000Y67000000D02*
X80750000Y61600000D01*
X84050000Y67000000D02*
X84050000Y61600000D01*
X80750000Y67000000D02*
X84050000Y67000000D01*
X3800000Y27400000D02*
X11000000Y27400000D01*
X11000000Y27400000D02*
X11000000Y34000000D01*
X11000000Y34000000D02*
X3800000Y34000000D01*
X3800000Y34000000D02*
X3800000Y27500000D01*
X3800000Y27500000D02*
X3800000Y27400000D01*
X37800000Y3790000D02*
X35350000Y3790000D01*
X36000000Y7010000D02*
X37800000Y7010000D01*
X7300000Y7010000D02*
X9100000Y7010000D01*
X9100000Y3790000D02*
X6650000Y3790000D01*
X18700000Y3790000D02*
X16250000Y3790000D01*
X16900000Y7010000D02*
X18700000Y7010000D01*
X7300000Y16110000D02*
X9100000Y16110000D01*
X9100000Y12890000D02*
X6650000Y12890000D01*
X26450000Y7010000D02*
X28250000Y7010000D01*
X28250000Y3790000D02*
X25800000Y3790000D01*
X53400000Y-18090000D02*
X54800000Y-18090000D01*
X54800000Y-20410000D02*
X52900000Y-20410000D01*
X34371267Y8510000D02*
X34028733Y8510000D01*
X34371267Y7490000D02*
X34028733Y7490000D01*
X5671267Y8510000D02*
X5328733Y8510000D01*
X5671267Y7490000D02*
X5328733Y7490000D01*
X15271267Y7490000D02*
X14928733Y7490000D01*
X15271267Y8510000D02*
X14928733Y8510000D01*
X5671267Y17610000D02*
X5328733Y17610000D01*
X5671267Y16590000D02*
X5328733Y16590000D01*
X24871267Y8510000D02*
X24528733Y8510000D01*
X24871267Y7490000D02*
X24528733Y7490000D01*
X60010000Y14971267D02*
X60010000Y14628733D01*
X58990000Y14971267D02*
X58990000Y14628733D01*
X60060000Y35771267D02*
X60060000Y35428733D01*
X59040000Y35771267D02*
X59040000Y35428733D01*
X58990000Y56721267D02*
X58990000Y56378733D01*
X60010000Y56721267D02*
X60010000Y56378733D01*
X59090000Y-5828733D02*
X59090000Y-6171267D01*
X60110000Y-5828733D02*
X60110000Y-6171267D01*
X34396267Y34610000D02*
X34053733Y34610000D01*
X34396267Y33590000D02*
X34053733Y33590000D01*
X36756000Y32540000D02*
X36756000Y27460000D01*
X36756000Y27460000D02*
X29644000Y27460000D01*
X29644000Y27460000D02*
X29644000Y32540000D01*
X29644000Y32540000D02*
X36756000Y32540000D01*
X36502000Y26190000D02*
G75*
G03X37518000Y27206000I0J1016000D01*
G01*
D11*
X4446428Y39515715D02*
X4475000Y39487143D01*
X4560714Y39458572D01*
X4617857Y39458572D01*
X4703571Y39487143D01*
X4760714Y39544286D01*
X4789285Y39601429D01*
X4817857Y39715715D01*
X4817857Y39801429D01*
X4789285Y39915715D01*
X4760714Y39972858D01*
X4703571Y40030000D01*
X4617857Y40058572D01*
X4560714Y40058572D01*
X4475000Y40030000D01*
X4446428Y40001429D01*
X3875000Y39458572D02*
X4217857Y39458572D01*
X4046428Y39458572D02*
X4046428Y40058572D01*
X4103571Y39972858D01*
X4160714Y39915715D01*
X4217857Y39887143D01*
X3503571Y40058572D02*
X3446428Y40058572D01*
X3389285Y40030000D01*
X3360714Y40001429D01*
X3332142Y39944286D01*
X3303571Y39830000D01*
X3303571Y39687143D01*
X3332142Y39572858D01*
X3360714Y39515715D01*
X3389285Y39487143D01*
X3446428Y39458572D01*
X3503571Y39458572D01*
X3560714Y39487143D01*
X3589285Y39515715D01*
X3617857Y39572858D01*
X3646428Y39687143D01*
X3646428Y39830000D01*
X3617857Y39944286D01*
X3589285Y40001429D01*
X3560714Y40030000D01*
X3503571Y40058572D01*
X2732142Y39458572D02*
X3075000Y39458572D01*
X2903571Y39458572D02*
X2903571Y40058572D01*
X2960714Y39972858D01*
X3017857Y39915715D01*
X3075000Y39887143D01*
X5471428Y63585715D02*
X5500000Y63557143D01*
X5585714Y63528572D01*
X5642857Y63528572D01*
X5728571Y63557143D01*
X5785714Y63614286D01*
X5814285Y63671429D01*
X5842857Y63785715D01*
X5842857Y63871429D01*
X5814285Y63985715D01*
X5785714Y64042858D01*
X5728571Y64100000D01*
X5642857Y64128572D01*
X5585714Y64128572D01*
X5500000Y64100000D01*
X5471428Y64071429D01*
X5242857Y64071429D02*
X5214285Y64100000D01*
X5157142Y64128572D01*
X5014285Y64128572D01*
X4957142Y64100000D01*
X4928571Y64071429D01*
X4900000Y64014286D01*
X4900000Y63957143D01*
X4928571Y63871429D01*
X5271428Y63528572D01*
X4900000Y63528572D01*
X4528571Y64128572D02*
X4471428Y64128572D01*
X4414285Y64100000D01*
X4385714Y64071429D01*
X4357142Y64014286D01*
X4328571Y63900000D01*
X4328571Y63757143D01*
X4357142Y63642858D01*
X4385714Y63585715D01*
X4414285Y63557143D01*
X4471428Y63528572D01*
X4528571Y63528572D01*
X4585714Y63557143D01*
X4614285Y63585715D01*
X4642857Y63642858D01*
X4671428Y63757143D01*
X4671428Y63900000D01*
X4642857Y64014286D01*
X4614285Y64071429D01*
X4585714Y64100000D01*
X4528571Y64128572D01*
X4100000Y64071429D02*
X4071428Y64100000D01*
X4014285Y64128572D01*
X3871428Y64128572D01*
X3814285Y64100000D01*
X3785714Y64071429D01*
X3757142Y64014286D01*
X3757142Y63957143D01*
X3785714Y63871429D01*
X4128571Y63528572D01*
X3757142Y63528572D01*
X38471428Y1385715D02*
X38500000Y1357143D01*
X38585714Y1328572D01*
X38642857Y1328572D01*
X38728571Y1357143D01*
X38785714Y1414286D01*
X38814285Y1471429D01*
X38842857Y1585715D01*
X38842857Y1671429D01*
X38814285Y1785715D01*
X38785714Y1842858D01*
X38728571Y1900000D01*
X38642857Y1928572D01*
X38585714Y1928572D01*
X38500000Y1900000D01*
X38471428Y1871429D01*
X38271428Y1928572D02*
X37900000Y1928572D01*
X38100000Y1700000D01*
X38014285Y1700000D01*
X37957142Y1671429D01*
X37928571Y1642858D01*
X37900000Y1585715D01*
X37900000Y1442858D01*
X37928571Y1385715D01*
X37957142Y1357143D01*
X38014285Y1328572D01*
X38185714Y1328572D01*
X38242857Y1357143D01*
X38271428Y1385715D01*
X37528571Y1928572D02*
X37471428Y1928572D01*
X37414285Y1900000D01*
X37385714Y1871429D01*
X37357142Y1814286D01*
X37328571Y1700000D01*
X37328571Y1557143D01*
X37357142Y1442858D01*
X37385714Y1385715D01*
X37414285Y1357143D01*
X37471428Y1328572D01*
X37528571Y1328572D01*
X37585714Y1357143D01*
X37614285Y1385715D01*
X37642857Y1442858D01*
X37671428Y1557143D01*
X37671428Y1700000D01*
X37642857Y1814286D01*
X37614285Y1871429D01*
X37585714Y1900000D01*
X37528571Y1928572D01*
X36757142Y1328572D02*
X37100000Y1328572D01*
X36928571Y1328572D02*
X36928571Y1928572D01*
X36985714Y1842858D01*
X37042857Y1785715D01*
X37100000Y1757143D01*
X9771428Y1285715D02*
X9800000Y1257143D01*
X9885714Y1228572D01*
X9942857Y1228572D01*
X10028571Y1257143D01*
X10085714Y1314286D01*
X10114285Y1371429D01*
X10142857Y1485715D01*
X10142857Y1571429D01*
X10114285Y1685715D01*
X10085714Y1742858D01*
X10028571Y1800000D01*
X9942857Y1828572D01*
X9885714Y1828572D01*
X9800000Y1800000D01*
X9771428Y1771429D01*
X9571428Y1828572D02*
X9200000Y1828572D01*
X9400000Y1600000D01*
X9314285Y1600000D01*
X9257142Y1571429D01*
X9228571Y1542858D01*
X9200000Y1485715D01*
X9200000Y1342858D01*
X9228571Y1285715D01*
X9257142Y1257143D01*
X9314285Y1228572D01*
X9485714Y1228572D01*
X9542857Y1257143D01*
X9571428Y1285715D01*
X8828571Y1828572D02*
X8771428Y1828572D01*
X8714285Y1800000D01*
X8685714Y1771429D01*
X8657142Y1714286D01*
X8628571Y1600000D01*
X8628571Y1457143D01*
X8657142Y1342858D01*
X8685714Y1285715D01*
X8714285Y1257143D01*
X8771428Y1228572D01*
X8828571Y1228572D01*
X8885714Y1257143D01*
X8914285Y1285715D01*
X8942857Y1342858D01*
X8971428Y1457143D01*
X8971428Y1600000D01*
X8942857Y1714286D01*
X8914285Y1771429D01*
X8885714Y1800000D01*
X8828571Y1828572D01*
X8400000Y1771429D02*
X8371428Y1800000D01*
X8314285Y1828572D01*
X8171428Y1828572D01*
X8114285Y1800000D01*
X8085714Y1771429D01*
X8057142Y1714286D01*
X8057142Y1657143D01*
X8085714Y1571429D01*
X8428571Y1228572D01*
X8057142Y1228572D01*
X19446428Y1185715D02*
X19475000Y1157143D01*
X19560714Y1128572D01*
X19617857Y1128572D01*
X19703571Y1157143D01*
X19760714Y1214286D01*
X19789285Y1271429D01*
X19817857Y1385715D01*
X19817857Y1471429D01*
X19789285Y1585715D01*
X19760714Y1642858D01*
X19703571Y1700000D01*
X19617857Y1728572D01*
X19560714Y1728572D01*
X19475000Y1700000D01*
X19446428Y1671429D01*
X19246428Y1728572D02*
X18875000Y1728572D01*
X19075000Y1500000D01*
X18989285Y1500000D01*
X18932142Y1471429D01*
X18903571Y1442858D01*
X18875000Y1385715D01*
X18875000Y1242858D01*
X18903571Y1185715D01*
X18932142Y1157143D01*
X18989285Y1128572D01*
X19160714Y1128572D01*
X19217857Y1157143D01*
X19246428Y1185715D01*
X18503571Y1728572D02*
X18446428Y1728572D01*
X18389285Y1700000D01*
X18360714Y1671429D01*
X18332142Y1614286D01*
X18303571Y1500000D01*
X18303571Y1357143D01*
X18332142Y1242858D01*
X18360714Y1185715D01*
X18389285Y1157143D01*
X18446428Y1128572D01*
X18503571Y1128572D01*
X18560714Y1157143D01*
X18589285Y1185715D01*
X18617857Y1242858D01*
X18646428Y1357143D01*
X18646428Y1500000D01*
X18617857Y1614286D01*
X18589285Y1671429D01*
X18560714Y1700000D01*
X18503571Y1728572D01*
X18103571Y1728572D02*
X17732142Y1728572D01*
X17932142Y1500000D01*
X17846428Y1500000D01*
X17789285Y1471429D01*
X17760714Y1442858D01*
X17732142Y1385715D01*
X17732142Y1242858D01*
X17760714Y1185715D01*
X17789285Y1157143D01*
X17846428Y1128572D01*
X18017857Y1128572D01*
X18075000Y1157143D01*
X18103571Y1185715D01*
X9746428Y10385715D02*
X9775000Y10357143D01*
X9860714Y10328572D01*
X9917857Y10328572D01*
X10003571Y10357143D01*
X10060714Y10414286D01*
X10089285Y10471429D01*
X10117857Y10585715D01*
X10117857Y10671429D01*
X10089285Y10785715D01*
X10060714Y10842858D01*
X10003571Y10900000D01*
X9917857Y10928572D01*
X9860714Y10928572D01*
X9775000Y10900000D01*
X9746428Y10871429D01*
X9546428Y10928572D02*
X9175000Y10928572D01*
X9375000Y10700000D01*
X9289285Y10700000D01*
X9232142Y10671429D01*
X9203571Y10642858D01*
X9175000Y10585715D01*
X9175000Y10442858D01*
X9203571Y10385715D01*
X9232142Y10357143D01*
X9289285Y10328572D01*
X9460714Y10328572D01*
X9517857Y10357143D01*
X9546428Y10385715D01*
X8803571Y10928572D02*
X8746428Y10928572D01*
X8689285Y10900000D01*
X8660714Y10871429D01*
X8632142Y10814286D01*
X8603571Y10700000D01*
X8603571Y10557143D01*
X8632142Y10442858D01*
X8660714Y10385715D01*
X8689285Y10357143D01*
X8746428Y10328572D01*
X8803571Y10328572D01*
X8860714Y10357143D01*
X8889285Y10385715D01*
X8917857Y10442858D01*
X8946428Y10557143D01*
X8946428Y10700000D01*
X8917857Y10814286D01*
X8889285Y10871429D01*
X8860714Y10900000D01*
X8803571Y10928572D01*
X8089285Y10728572D02*
X8089285Y10328572D01*
X8232142Y10957143D02*
X8375000Y10528572D01*
X8003571Y10528572D01*
X28971428Y1285715D02*
X29000000Y1257143D01*
X29085714Y1228572D01*
X29142857Y1228572D01*
X29228571Y1257143D01*
X29285714Y1314286D01*
X29314285Y1371429D01*
X29342857Y1485715D01*
X29342857Y1571429D01*
X29314285Y1685715D01*
X29285714Y1742858D01*
X29228571Y1800000D01*
X29142857Y1828572D01*
X29085714Y1828572D01*
X29000000Y1800000D01*
X28971428Y1771429D01*
X28771428Y1828572D02*
X28400000Y1828572D01*
X28600000Y1600000D01*
X28514285Y1600000D01*
X28457142Y1571429D01*
X28428571Y1542858D01*
X28400000Y1485715D01*
X28400000Y1342858D01*
X28428571Y1285715D01*
X28457142Y1257143D01*
X28514285Y1228572D01*
X28685714Y1228572D01*
X28742857Y1257143D01*
X28771428Y1285715D01*
X28028571Y1828572D02*
X27971428Y1828572D01*
X27914285Y1800000D01*
X27885714Y1771429D01*
X27857142Y1714286D01*
X27828571Y1600000D01*
X27828571Y1457143D01*
X27857142Y1342858D01*
X27885714Y1285715D01*
X27914285Y1257143D01*
X27971428Y1228572D01*
X28028571Y1228572D01*
X28085714Y1257143D01*
X28114285Y1285715D01*
X28142857Y1342858D01*
X28171428Y1457143D01*
X28171428Y1600000D01*
X28142857Y1714286D01*
X28114285Y1771429D01*
X28085714Y1800000D01*
X28028571Y1828572D01*
X27285714Y1828572D02*
X27571428Y1828572D01*
X27600000Y1542858D01*
X27571428Y1571429D01*
X27514285Y1600000D01*
X27371428Y1600000D01*
X27314285Y1571429D01*
X27285714Y1542858D01*
X27257142Y1485715D01*
X27257142Y1342858D01*
X27285714Y1285715D01*
X27314285Y1257143D01*
X27371428Y1228572D01*
X27514285Y1228572D01*
X27571428Y1257143D01*
X27600000Y1285715D01*
X4714285Y22971429D02*
X4742857Y23000000D01*
X4771428Y23085715D01*
X4771428Y23142858D01*
X4742857Y23228572D01*
X4685714Y23285715D01*
X4628571Y23314286D01*
X4514285Y23342858D01*
X4428571Y23342858D01*
X4314285Y23314286D01*
X4257142Y23285715D01*
X4200000Y23228572D01*
X4171428Y23142858D01*
X4171428Y23085715D01*
X4200000Y23000000D01*
X4228571Y22971429D01*
X4371428Y22457143D02*
X4771428Y22457143D01*
X4142857Y22600000D02*
X4571428Y22742858D01*
X4571428Y22371429D01*
X4171428Y22028572D02*
X4171428Y21971429D01*
X4200000Y21914286D01*
X4228571Y21885715D01*
X4285714Y21857143D01*
X4400000Y21828572D01*
X4542857Y21828572D01*
X4657142Y21857143D01*
X4714285Y21885715D01*
X4742857Y21914286D01*
X4771428Y21971429D01*
X4771428Y22028572D01*
X4742857Y22085715D01*
X4714285Y22114286D01*
X4657142Y22142858D01*
X4542857Y22171429D01*
X4400000Y22171429D01*
X4285714Y22142858D01*
X4228571Y22114286D01*
X4200000Y22085715D01*
X4171428Y22028572D01*
X4771428Y21257143D02*
X4771428Y21600000D01*
X4771428Y21428572D02*
X4171428Y21428572D01*
X4257142Y21485715D01*
X4314285Y21542858D01*
X4342857Y21600000D01*
X6314285Y22971429D02*
X6342857Y23000000D01*
X6371428Y23085715D01*
X6371428Y23142858D01*
X6342857Y23228572D01*
X6285714Y23285715D01*
X6228571Y23314286D01*
X6114285Y23342858D01*
X6028571Y23342858D01*
X5914285Y23314286D01*
X5857142Y23285715D01*
X5800000Y23228572D01*
X5771428Y23142858D01*
X5771428Y23085715D01*
X5800000Y23000000D01*
X5828571Y22971429D01*
X5971428Y22457143D02*
X6371428Y22457143D01*
X5742857Y22600000D02*
X6171428Y22742858D01*
X6171428Y22371429D01*
X5771428Y22028572D02*
X5771428Y21971429D01*
X5800000Y21914286D01*
X5828571Y21885715D01*
X5885714Y21857143D01*
X6000000Y21828572D01*
X6142857Y21828572D01*
X6257142Y21857143D01*
X6314285Y21885715D01*
X6342857Y21914286D01*
X6371428Y21971429D01*
X6371428Y22028572D01*
X6342857Y22085715D01*
X6314285Y22114286D01*
X6257142Y22142858D01*
X6142857Y22171429D01*
X6000000Y22171429D01*
X5885714Y22142858D01*
X5828571Y22114286D01*
X5800000Y22085715D01*
X5771428Y22028572D01*
X5828571Y21600000D02*
X5800000Y21571429D01*
X5771428Y21514286D01*
X5771428Y21371429D01*
X5800000Y21314286D01*
X5828571Y21285715D01*
X5885714Y21257143D01*
X5942857Y21257143D01*
X6028571Y21285715D01*
X6371428Y21628572D01*
X6371428Y21257143D01*
X10014285Y22771429D02*
X10042857Y22800000D01*
X10071428Y22885715D01*
X10071428Y22942858D01*
X10042857Y23028572D01*
X9985714Y23085715D01*
X9928571Y23114286D01*
X9814285Y23142858D01*
X9728571Y23142858D01*
X9614285Y23114286D01*
X9557142Y23085715D01*
X9500000Y23028572D01*
X9471428Y22942858D01*
X9471428Y22885715D01*
X9500000Y22800000D01*
X9528571Y22771429D01*
X9671428Y22257143D02*
X10071428Y22257143D01*
X9442857Y22400000D02*
X9871428Y22542858D01*
X9871428Y22171429D01*
X9471428Y21828572D02*
X9471428Y21771429D01*
X9500000Y21714286D01*
X9528571Y21685715D01*
X9585714Y21657143D01*
X9700000Y21628572D01*
X9842857Y21628572D01*
X9957142Y21657143D01*
X10014285Y21685715D01*
X10042857Y21714286D01*
X10071428Y21771429D01*
X10071428Y21828572D01*
X10042857Y21885715D01*
X10014285Y21914286D01*
X9957142Y21942858D01*
X9842857Y21971429D01*
X9700000Y21971429D01*
X9585714Y21942858D01*
X9528571Y21914286D01*
X9500000Y21885715D01*
X9471428Y21828572D01*
X9471428Y21428572D02*
X9471428Y21057143D01*
X9700000Y21257143D01*
X9700000Y21171429D01*
X9728571Y21114286D01*
X9757142Y21085715D01*
X9814285Y21057143D01*
X9957142Y21057143D01*
X10014285Y21085715D01*
X10042857Y21114286D01*
X10071428Y21171429D01*
X10071428Y21342858D01*
X10042857Y21400000D01*
X10014285Y21428572D01*
X11614285Y22771429D02*
X11642857Y22800000D01*
X11671428Y22885715D01*
X11671428Y22942858D01*
X11642857Y23028572D01*
X11585714Y23085715D01*
X11528571Y23114286D01*
X11414285Y23142858D01*
X11328571Y23142858D01*
X11214285Y23114286D01*
X11157142Y23085715D01*
X11100000Y23028572D01*
X11071428Y22942858D01*
X11071428Y22885715D01*
X11100000Y22800000D01*
X11128571Y22771429D01*
X11271428Y22257143D02*
X11671428Y22257143D01*
X11042857Y22400000D02*
X11471428Y22542858D01*
X11471428Y22171429D01*
X11071428Y21828572D02*
X11071428Y21771429D01*
X11100000Y21714286D01*
X11128571Y21685715D01*
X11185714Y21657143D01*
X11300000Y21628572D01*
X11442857Y21628572D01*
X11557142Y21657143D01*
X11614285Y21685715D01*
X11642857Y21714286D01*
X11671428Y21771429D01*
X11671428Y21828572D01*
X11642857Y21885715D01*
X11614285Y21914286D01*
X11557142Y21942858D01*
X11442857Y21971429D01*
X11300000Y21971429D01*
X11185714Y21942858D01*
X11128571Y21914286D01*
X11100000Y21885715D01*
X11071428Y21828572D01*
X11271428Y21114286D02*
X11671428Y21114286D01*
X11042857Y21257143D02*
X11471428Y21400000D01*
X11471428Y21028572D01*
X13214285Y22771429D02*
X13242857Y22800000D01*
X13271428Y22885715D01*
X13271428Y22942858D01*
X13242857Y23028572D01*
X13185714Y23085715D01*
X13128571Y23114286D01*
X13014285Y23142858D01*
X12928571Y23142858D01*
X12814285Y23114286D01*
X12757142Y23085715D01*
X12700000Y23028572D01*
X12671428Y22942858D01*
X12671428Y22885715D01*
X12700000Y22800000D01*
X12728571Y22771429D01*
X12871428Y22257143D02*
X13271428Y22257143D01*
X12642857Y22400000D02*
X13071428Y22542858D01*
X13071428Y22171429D01*
X12671428Y21828572D02*
X12671428Y21771429D01*
X12700000Y21714286D01*
X12728571Y21685715D01*
X12785714Y21657143D01*
X12900000Y21628572D01*
X13042857Y21628572D01*
X13157142Y21657143D01*
X13214285Y21685715D01*
X13242857Y21714286D01*
X13271428Y21771429D01*
X13271428Y21828572D01*
X13242857Y21885715D01*
X13214285Y21914286D01*
X13157142Y21942858D01*
X13042857Y21971429D01*
X12900000Y21971429D01*
X12785714Y21942858D01*
X12728571Y21914286D01*
X12700000Y21885715D01*
X12671428Y21828572D01*
X12671428Y21085715D02*
X12671428Y21371429D01*
X12957142Y21400000D01*
X12928571Y21371429D01*
X12900000Y21314286D01*
X12900000Y21171429D01*
X12928571Y21114286D01*
X12957142Y21085715D01*
X13014285Y21057143D01*
X13157142Y21057143D01*
X13214285Y21085715D01*
X13242857Y21114286D01*
X13271428Y21171429D01*
X13271428Y21314286D01*
X13242857Y21371429D01*
X13214285Y21400000D01*
X80171428Y64614286D02*
X79571428Y64614286D01*
X79571428Y64471429D01*
X79600000Y64385715D01*
X79657142Y64328572D01*
X79714285Y64300000D01*
X79828571Y64271429D01*
X79914285Y64271429D01*
X80028571Y64300000D01*
X80085714Y64328572D01*
X80142857Y64385715D01*
X80171428Y64471429D01*
X80171428Y64614286D01*
X79571428Y63728572D02*
X79571428Y64014286D01*
X79857142Y64042858D01*
X79828571Y64014286D01*
X79800000Y63957143D01*
X79800000Y63814286D01*
X79828571Y63757143D01*
X79857142Y63728572D01*
X79914285Y63700000D01*
X80057142Y63700000D01*
X80114285Y63728572D01*
X80142857Y63757143D01*
X80171428Y63814286D01*
X80171428Y63957143D01*
X80142857Y64014286D01*
X80114285Y64042858D01*
X79571428Y63328572D02*
X79571428Y63271429D01*
X79600000Y63214286D01*
X79628571Y63185715D01*
X79685714Y63157143D01*
X79800000Y63128572D01*
X79942857Y63128572D01*
X80057142Y63157143D01*
X80114285Y63185715D01*
X80142857Y63214286D01*
X80171428Y63271429D01*
X80171428Y63328572D01*
X80142857Y63385715D01*
X80114285Y63414286D01*
X80057142Y63442858D01*
X79942857Y63471429D01*
X79800000Y63471429D01*
X79685714Y63442858D01*
X79628571Y63414286D01*
X79600000Y63385715D01*
X79571428Y63328572D01*
X80171428Y62557143D02*
X80171428Y62900000D01*
X80171428Y62728572D02*
X79571428Y62728572D01*
X79657142Y62785715D01*
X79714285Y62842858D01*
X79742857Y62900000D01*
X8071428Y34428572D02*
X8357142Y34428572D01*
X8357142Y35028572D01*
X7614285Y34828572D02*
X7614285Y34428572D01*
X7757142Y35057143D02*
X7900000Y34628572D01*
X7528571Y34628572D01*
X7185714Y35028572D02*
X7128571Y35028572D01*
X7071428Y35000000D01*
X7042857Y34971429D01*
X7014285Y34914286D01*
X6985714Y34800000D01*
X6985714Y34657143D01*
X7014285Y34542858D01*
X7042857Y34485715D01*
X7071428Y34457143D01*
X7128571Y34428572D01*
X7185714Y34428572D01*
X7242857Y34457143D01*
X7271428Y34485715D01*
X7300000Y34542858D01*
X7328571Y34657143D01*
X7328571Y34800000D01*
X7300000Y34914286D01*
X7271428Y34971429D01*
X7242857Y35000000D01*
X7185714Y35028572D01*
X6414285Y34428572D02*
X6757142Y34428572D01*
X6585714Y34428572D02*
X6585714Y35028572D01*
X6642857Y34942858D01*
X6700000Y34885715D01*
X6757142Y34857143D01*
X40128571Y6128572D02*
X40100000Y6185715D01*
X40042857Y6242858D01*
X39957142Y6328572D01*
X39928571Y6385715D01*
X39928571Y6442858D01*
X40071428Y6414286D02*
X40042857Y6471429D01*
X39985714Y6528572D01*
X39871428Y6557143D01*
X39671428Y6557143D01*
X39557142Y6528572D01*
X39500000Y6471429D01*
X39471428Y6414286D01*
X39471428Y6300000D01*
X39500000Y6242858D01*
X39557142Y6185715D01*
X39671428Y6157143D01*
X39871428Y6157143D01*
X39985714Y6185715D01*
X40042857Y6242858D01*
X40071428Y6300000D01*
X40071428Y6414286D01*
X39471428Y5957143D02*
X39471428Y5585715D01*
X39700000Y5785715D01*
X39700000Y5700000D01*
X39728571Y5642858D01*
X39757142Y5614286D01*
X39814285Y5585715D01*
X39957142Y5585715D01*
X40014285Y5614286D01*
X40042857Y5642858D01*
X40071428Y5700000D01*
X40071428Y5871429D01*
X40042857Y5928572D01*
X40014285Y5957143D01*
X39471428Y5214286D02*
X39471428Y5157143D01*
X39500000Y5100000D01*
X39528571Y5071429D01*
X39585714Y5042858D01*
X39700000Y5014286D01*
X39842857Y5014286D01*
X39957142Y5042858D01*
X40014285Y5071429D01*
X40042857Y5100000D01*
X40071428Y5157143D01*
X40071428Y5214286D01*
X40042857Y5271429D01*
X40014285Y5300000D01*
X39957142Y5328572D01*
X39842857Y5357143D01*
X39700000Y5357143D01*
X39585714Y5328572D01*
X39528571Y5300000D01*
X39500000Y5271429D01*
X39471428Y5214286D01*
X40071428Y4442858D02*
X40071428Y4785715D01*
X40071428Y4614286D02*
X39471428Y4614286D01*
X39557142Y4671429D01*
X39614285Y4728572D01*
X39642857Y4785715D01*
X11528571Y6028572D02*
X11500000Y6085715D01*
X11442857Y6142858D01*
X11357142Y6228572D01*
X11328571Y6285715D01*
X11328571Y6342858D01*
X11471428Y6314286D02*
X11442857Y6371429D01*
X11385714Y6428572D01*
X11271428Y6457143D01*
X11071428Y6457143D01*
X10957142Y6428572D01*
X10900000Y6371429D01*
X10871428Y6314286D01*
X10871428Y6200000D01*
X10900000Y6142858D01*
X10957142Y6085715D01*
X11071428Y6057143D01*
X11271428Y6057143D01*
X11385714Y6085715D01*
X11442857Y6142858D01*
X11471428Y6200000D01*
X11471428Y6314286D01*
X10871428Y5857143D02*
X10871428Y5485715D01*
X11100000Y5685715D01*
X11100000Y5600000D01*
X11128571Y5542858D01*
X11157142Y5514286D01*
X11214285Y5485715D01*
X11357142Y5485715D01*
X11414285Y5514286D01*
X11442857Y5542858D01*
X11471428Y5600000D01*
X11471428Y5771429D01*
X11442857Y5828572D01*
X11414285Y5857143D01*
X10871428Y5114286D02*
X10871428Y5057143D01*
X10900000Y5000000D01*
X10928571Y4971429D01*
X10985714Y4942858D01*
X11100000Y4914286D01*
X11242857Y4914286D01*
X11357142Y4942858D01*
X11414285Y4971429D01*
X11442857Y5000000D01*
X11471428Y5057143D01*
X11471428Y5114286D01*
X11442857Y5171429D01*
X11414285Y5200000D01*
X11357142Y5228572D01*
X11242857Y5257143D01*
X11100000Y5257143D01*
X10985714Y5228572D01*
X10928571Y5200000D01*
X10900000Y5171429D01*
X10871428Y5114286D01*
X10928571Y4685715D02*
X10900000Y4657143D01*
X10871428Y4600000D01*
X10871428Y4457143D01*
X10900000Y4400000D01*
X10928571Y4371429D01*
X10985714Y4342858D01*
X11042857Y4342858D01*
X11128571Y4371429D01*
X11471428Y4714286D01*
X11471428Y4342858D01*
X21028571Y6128572D02*
X21000000Y6185715D01*
X20942857Y6242858D01*
X20857142Y6328572D01*
X20828571Y6385715D01*
X20828571Y6442858D01*
X20971428Y6414286D02*
X20942857Y6471429D01*
X20885714Y6528572D01*
X20771428Y6557143D01*
X20571428Y6557143D01*
X20457142Y6528572D01*
X20400000Y6471429D01*
X20371428Y6414286D01*
X20371428Y6300000D01*
X20400000Y6242858D01*
X20457142Y6185715D01*
X20571428Y6157143D01*
X20771428Y6157143D01*
X20885714Y6185715D01*
X20942857Y6242858D01*
X20971428Y6300000D01*
X20971428Y6414286D01*
X20371428Y5957143D02*
X20371428Y5585715D01*
X20600000Y5785715D01*
X20600000Y5700000D01*
X20628571Y5642858D01*
X20657142Y5614286D01*
X20714285Y5585715D01*
X20857142Y5585715D01*
X20914285Y5614286D01*
X20942857Y5642858D01*
X20971428Y5700000D01*
X20971428Y5871429D01*
X20942857Y5928572D01*
X20914285Y5957143D01*
X20371428Y5214286D02*
X20371428Y5157143D01*
X20400000Y5100000D01*
X20428571Y5071429D01*
X20485714Y5042858D01*
X20600000Y5014286D01*
X20742857Y5014286D01*
X20857142Y5042858D01*
X20914285Y5071429D01*
X20942857Y5100000D01*
X20971428Y5157143D01*
X20971428Y5214286D01*
X20942857Y5271429D01*
X20914285Y5300000D01*
X20857142Y5328572D01*
X20742857Y5357143D01*
X20600000Y5357143D01*
X20485714Y5328572D01*
X20428571Y5300000D01*
X20400000Y5271429D01*
X20371428Y5214286D01*
X20371428Y4814286D02*
X20371428Y4442858D01*
X20600000Y4642858D01*
X20600000Y4557143D01*
X20628571Y4500000D01*
X20657142Y4471429D01*
X20714285Y4442858D01*
X20857142Y4442858D01*
X20914285Y4471429D01*
X20942857Y4500000D01*
X20971428Y4557143D01*
X20971428Y4728572D01*
X20942857Y4785715D01*
X20914285Y4814286D01*
X12428571Y14171429D02*
X12485714Y14200000D01*
X12542857Y14257143D01*
X12628571Y14342858D01*
X12685714Y14371429D01*
X12742857Y14371429D01*
X12714285Y14228572D02*
X12771428Y14257143D01*
X12828571Y14314286D01*
X12857142Y14428572D01*
X12857142Y14628572D01*
X12828571Y14742858D01*
X12771428Y14800000D01*
X12714285Y14828572D01*
X12600000Y14828572D01*
X12542857Y14800000D01*
X12485714Y14742858D01*
X12457142Y14628572D01*
X12457142Y14428572D01*
X12485714Y14314286D01*
X12542857Y14257143D01*
X12600000Y14228572D01*
X12714285Y14228572D01*
X12257142Y14828572D02*
X11885714Y14828572D01*
X12085714Y14600000D01*
X12000000Y14600000D01*
X11942857Y14571429D01*
X11914285Y14542858D01*
X11885714Y14485715D01*
X11885714Y14342858D01*
X11914285Y14285715D01*
X11942857Y14257143D01*
X12000000Y14228572D01*
X12171428Y14228572D01*
X12228571Y14257143D01*
X12257142Y14285715D01*
X11514285Y14828572D02*
X11457142Y14828572D01*
X11400000Y14800000D01*
X11371428Y14771429D01*
X11342857Y14714286D01*
X11314285Y14600000D01*
X11314285Y14457143D01*
X11342857Y14342858D01*
X11371428Y14285715D01*
X11400000Y14257143D01*
X11457142Y14228572D01*
X11514285Y14228572D01*
X11571428Y14257143D01*
X11600000Y14285715D01*
X11628571Y14342858D01*
X11657142Y14457143D01*
X11657142Y14600000D01*
X11628571Y14714286D01*
X11600000Y14771429D01*
X11571428Y14800000D01*
X11514285Y14828572D01*
X10800000Y14628572D02*
X10800000Y14228572D01*
X10942857Y14857143D02*
X11085714Y14428572D01*
X10714285Y14428572D01*
X30578571Y6028572D02*
X30550000Y6085715D01*
X30492857Y6142858D01*
X30407142Y6228572D01*
X30378571Y6285715D01*
X30378571Y6342858D01*
X30521428Y6314286D02*
X30492857Y6371429D01*
X30435714Y6428572D01*
X30321428Y6457143D01*
X30121428Y6457143D01*
X30007142Y6428572D01*
X29950000Y6371429D01*
X29921428Y6314286D01*
X29921428Y6200000D01*
X29950000Y6142858D01*
X30007142Y6085715D01*
X30121428Y6057143D01*
X30321428Y6057143D01*
X30435714Y6085715D01*
X30492857Y6142858D01*
X30521428Y6200000D01*
X30521428Y6314286D01*
X29921428Y5857143D02*
X29921428Y5485715D01*
X30150000Y5685715D01*
X30150000Y5600000D01*
X30178571Y5542858D01*
X30207142Y5514286D01*
X30264285Y5485715D01*
X30407142Y5485715D01*
X30464285Y5514286D01*
X30492857Y5542858D01*
X30521428Y5600000D01*
X30521428Y5771429D01*
X30492857Y5828572D01*
X30464285Y5857143D01*
X29921428Y5114286D02*
X29921428Y5057143D01*
X29950000Y5000000D01*
X29978571Y4971429D01*
X30035714Y4942858D01*
X30150000Y4914286D01*
X30292857Y4914286D01*
X30407142Y4942858D01*
X30464285Y4971429D01*
X30492857Y5000000D01*
X30521428Y5057143D01*
X30521428Y5114286D01*
X30492857Y5171429D01*
X30464285Y5200000D01*
X30407142Y5228572D01*
X30292857Y5257143D01*
X30150000Y5257143D01*
X30035714Y5228572D01*
X29978571Y5200000D01*
X29950000Y5171429D01*
X29921428Y5114286D01*
X29921428Y4371429D02*
X29921428Y4657143D01*
X30207142Y4685715D01*
X30178571Y4657143D01*
X30150000Y4600000D01*
X30150000Y4457143D01*
X30178571Y4400000D01*
X30207142Y4371429D01*
X30264285Y4342858D01*
X30407142Y4342858D01*
X30464285Y4371429D01*
X30492857Y4400000D01*
X30521428Y4457143D01*
X30521428Y4600000D01*
X30492857Y4657143D01*
X30464285Y4685715D01*
X54728571Y-17628571D02*
X54785714Y-17600000D01*
X54842857Y-17542857D01*
X54928571Y-17457142D01*
X54985714Y-17428571D01*
X55042857Y-17428571D01*
X55014285Y-17571428D02*
X55071428Y-17542857D01*
X55128571Y-17485714D01*
X55157142Y-17371428D01*
X55157142Y-17171428D01*
X55128571Y-17057142D01*
X55071428Y-17000000D01*
X55014285Y-16971428D01*
X54900000Y-16971428D01*
X54842857Y-17000000D01*
X54785714Y-17057142D01*
X54757142Y-17171428D01*
X54757142Y-17371428D01*
X54785714Y-17485714D01*
X54842857Y-17542857D01*
X54900000Y-17571428D01*
X55014285Y-17571428D01*
X54214285Y-16971428D02*
X54500000Y-16971428D01*
X54528571Y-17257142D01*
X54500000Y-17228571D01*
X54442857Y-17200000D01*
X54300000Y-17200000D01*
X54242857Y-17228571D01*
X54214285Y-17257142D01*
X54185714Y-17314285D01*
X54185714Y-17457142D01*
X54214285Y-17514285D01*
X54242857Y-17542857D01*
X54300000Y-17571428D01*
X54442857Y-17571428D01*
X54500000Y-17542857D01*
X54528571Y-17514285D01*
X53814285Y-16971428D02*
X53757142Y-16971428D01*
X53700000Y-17000000D01*
X53671428Y-17028571D01*
X53642857Y-17085714D01*
X53614285Y-17200000D01*
X53614285Y-17342857D01*
X53642857Y-17457142D01*
X53671428Y-17514285D01*
X53700000Y-17542857D01*
X53757142Y-17571428D01*
X53814285Y-17571428D01*
X53871428Y-17542857D01*
X53900000Y-17514285D01*
X53928571Y-17457142D01*
X53957142Y-17342857D01*
X53957142Y-17200000D01*
X53928571Y-17085714D01*
X53900000Y-17028571D01*
X53871428Y-17000000D01*
X53814285Y-16971428D01*
X53328571Y-17571428D02*
X53214285Y-17571428D01*
X53157142Y-17542857D01*
X53128571Y-17514285D01*
X53071428Y-17428571D01*
X53042857Y-17314285D01*
X53042857Y-17085714D01*
X53071428Y-17028571D01*
X53100000Y-17000000D01*
X53157142Y-16971428D01*
X53271428Y-16971428D01*
X53328571Y-17000000D01*
X53357142Y-17028571D01*
X53385714Y-17085714D01*
X53385714Y-17228571D01*
X53357142Y-17285714D01*
X53328571Y-17314285D01*
X53271428Y-17342857D01*
X53157142Y-17342857D01*
X53100000Y-17314285D01*
X53071428Y-17285714D01*
X53042857Y-17228571D01*
X34871428Y8928572D02*
X35071428Y9214286D01*
X35214285Y8928572D02*
X35214285Y9528572D01*
X34985714Y9528572D01*
X34928571Y9500000D01*
X34900000Y9471429D01*
X34871428Y9414286D01*
X34871428Y9328572D01*
X34900000Y9271429D01*
X34928571Y9242858D01*
X34985714Y9214286D01*
X35214285Y9214286D01*
X34671428Y9528572D02*
X34300000Y9528572D01*
X34500000Y9300000D01*
X34414285Y9300000D01*
X34357142Y9271429D01*
X34328571Y9242858D01*
X34300000Y9185715D01*
X34300000Y9042858D01*
X34328571Y8985715D01*
X34357142Y8957143D01*
X34414285Y8928572D01*
X34585714Y8928572D01*
X34642857Y8957143D01*
X34671428Y8985715D01*
X33928571Y9528572D02*
X33871428Y9528572D01*
X33814285Y9500000D01*
X33785714Y9471429D01*
X33757142Y9414286D01*
X33728571Y9300000D01*
X33728571Y9157143D01*
X33757142Y9042858D01*
X33785714Y8985715D01*
X33814285Y8957143D01*
X33871428Y8928572D01*
X33928571Y8928572D01*
X33985714Y8957143D01*
X34014285Y8985715D01*
X34042857Y9042858D01*
X34071428Y9157143D01*
X34071428Y9300000D01*
X34042857Y9414286D01*
X34014285Y9471429D01*
X33985714Y9500000D01*
X33928571Y9528572D01*
X33157142Y8928572D02*
X33500000Y8928572D01*
X33328571Y8928572D02*
X33328571Y9528572D01*
X33385714Y9442858D01*
X33442857Y9385715D01*
X33500000Y9357143D01*
X6171428Y8928572D02*
X6371428Y9214286D01*
X6514285Y8928572D02*
X6514285Y9528572D01*
X6285714Y9528572D01*
X6228571Y9500000D01*
X6200000Y9471429D01*
X6171428Y9414286D01*
X6171428Y9328572D01*
X6200000Y9271429D01*
X6228571Y9242858D01*
X6285714Y9214286D01*
X6514285Y9214286D01*
X5971428Y9528572D02*
X5600000Y9528572D01*
X5800000Y9300000D01*
X5714285Y9300000D01*
X5657142Y9271429D01*
X5628571Y9242858D01*
X5600000Y9185715D01*
X5600000Y9042858D01*
X5628571Y8985715D01*
X5657142Y8957143D01*
X5714285Y8928572D01*
X5885714Y8928572D01*
X5942857Y8957143D01*
X5971428Y8985715D01*
X5228571Y9528572D02*
X5171428Y9528572D01*
X5114285Y9500000D01*
X5085714Y9471429D01*
X5057142Y9414286D01*
X5028571Y9300000D01*
X5028571Y9157143D01*
X5057142Y9042858D01*
X5085714Y8985715D01*
X5114285Y8957143D01*
X5171428Y8928572D01*
X5228571Y8928572D01*
X5285714Y8957143D01*
X5314285Y8985715D01*
X5342857Y9042858D01*
X5371428Y9157143D01*
X5371428Y9300000D01*
X5342857Y9414286D01*
X5314285Y9471429D01*
X5285714Y9500000D01*
X5228571Y9528572D01*
X4800000Y9471429D02*
X4771428Y9500000D01*
X4714285Y9528572D01*
X4571428Y9528572D01*
X4514285Y9500000D01*
X4485714Y9471429D01*
X4457142Y9414286D01*
X4457142Y9357143D01*
X4485714Y9271429D01*
X4828571Y8928572D01*
X4457142Y8928572D01*
X15771428Y8928572D02*
X15971428Y9214286D01*
X16114285Y8928572D02*
X16114285Y9528572D01*
X15885714Y9528572D01*
X15828571Y9500000D01*
X15800000Y9471429D01*
X15771428Y9414286D01*
X15771428Y9328572D01*
X15800000Y9271429D01*
X15828571Y9242858D01*
X15885714Y9214286D01*
X16114285Y9214286D01*
X15571428Y9528572D02*
X15200000Y9528572D01*
X15400000Y9300000D01*
X15314285Y9300000D01*
X15257142Y9271429D01*
X15228571Y9242858D01*
X15200000Y9185715D01*
X15200000Y9042858D01*
X15228571Y8985715D01*
X15257142Y8957143D01*
X15314285Y8928572D01*
X15485714Y8928572D01*
X15542857Y8957143D01*
X15571428Y8985715D01*
X14828571Y9528572D02*
X14771428Y9528572D01*
X14714285Y9500000D01*
X14685714Y9471429D01*
X14657142Y9414286D01*
X14628571Y9300000D01*
X14628571Y9157143D01*
X14657142Y9042858D01*
X14685714Y8985715D01*
X14714285Y8957143D01*
X14771428Y8928572D01*
X14828571Y8928572D01*
X14885714Y8957143D01*
X14914285Y8985715D01*
X14942857Y9042858D01*
X14971428Y9157143D01*
X14971428Y9300000D01*
X14942857Y9414286D01*
X14914285Y9471429D01*
X14885714Y9500000D01*
X14828571Y9528572D01*
X14428571Y9528572D02*
X14057142Y9528572D01*
X14257142Y9300000D01*
X14171428Y9300000D01*
X14114285Y9271429D01*
X14085714Y9242858D01*
X14057142Y9185715D01*
X14057142Y9042858D01*
X14085714Y8985715D01*
X14114285Y8957143D01*
X14171428Y8928572D01*
X14342857Y8928572D01*
X14400000Y8957143D01*
X14428571Y8985715D01*
X6171428Y17928572D02*
X6371428Y18214286D01*
X6514285Y17928572D02*
X6514285Y18528572D01*
X6285714Y18528572D01*
X6228571Y18500000D01*
X6200000Y18471429D01*
X6171428Y18414286D01*
X6171428Y18328572D01*
X6200000Y18271429D01*
X6228571Y18242858D01*
X6285714Y18214286D01*
X6514285Y18214286D01*
X5971428Y18528572D02*
X5600000Y18528572D01*
X5800000Y18300000D01*
X5714285Y18300000D01*
X5657142Y18271429D01*
X5628571Y18242858D01*
X5600000Y18185715D01*
X5600000Y18042858D01*
X5628571Y17985715D01*
X5657142Y17957143D01*
X5714285Y17928572D01*
X5885714Y17928572D01*
X5942857Y17957143D01*
X5971428Y17985715D01*
X5228571Y18528572D02*
X5171428Y18528572D01*
X5114285Y18500000D01*
X5085714Y18471429D01*
X5057142Y18414286D01*
X5028571Y18300000D01*
X5028571Y18157143D01*
X5057142Y18042858D01*
X5085714Y17985715D01*
X5114285Y17957143D01*
X5171428Y17928572D01*
X5228571Y17928572D01*
X5285714Y17957143D01*
X5314285Y17985715D01*
X5342857Y18042858D01*
X5371428Y18157143D01*
X5371428Y18300000D01*
X5342857Y18414286D01*
X5314285Y18471429D01*
X5285714Y18500000D01*
X5228571Y18528572D01*
X4514285Y18328572D02*
X4514285Y17928572D01*
X4657142Y18557143D02*
X4800000Y18128572D01*
X4428571Y18128572D01*
X28371428Y7728572D02*
X28571428Y8014286D01*
X28714285Y7728572D02*
X28714285Y8328572D01*
X28485714Y8328572D01*
X28428571Y8300000D01*
X28400000Y8271429D01*
X28371428Y8214286D01*
X28371428Y8128572D01*
X28400000Y8071429D01*
X28428571Y8042858D01*
X28485714Y8014286D01*
X28714285Y8014286D01*
X28171428Y8328572D02*
X27800000Y8328572D01*
X28000000Y8100000D01*
X27914285Y8100000D01*
X27857142Y8071429D01*
X27828571Y8042858D01*
X27800000Y7985715D01*
X27800000Y7842858D01*
X27828571Y7785715D01*
X27857142Y7757143D01*
X27914285Y7728572D01*
X28085714Y7728572D01*
X28142857Y7757143D01*
X28171428Y7785715D01*
X27428571Y8328572D02*
X27371428Y8328572D01*
X27314285Y8300000D01*
X27285714Y8271429D01*
X27257142Y8214286D01*
X27228571Y8100000D01*
X27228571Y7957143D01*
X27257142Y7842858D01*
X27285714Y7785715D01*
X27314285Y7757143D01*
X27371428Y7728572D01*
X27428571Y7728572D01*
X27485714Y7757143D01*
X27514285Y7785715D01*
X27542857Y7842858D01*
X27571428Y7957143D01*
X27571428Y8100000D01*
X27542857Y8214286D01*
X27514285Y8271429D01*
X27485714Y8300000D01*
X27428571Y8328572D01*
X26685714Y8328572D02*
X26971428Y8328572D01*
X27000000Y8042858D01*
X26971428Y8071429D01*
X26914285Y8100000D01*
X26771428Y8100000D01*
X26714285Y8071429D01*
X26685714Y8042858D01*
X26657142Y7985715D01*
X26657142Y7842858D01*
X26685714Y7785715D01*
X26714285Y7757143D01*
X26771428Y7728572D01*
X26914285Y7728572D01*
X26971428Y7757143D01*
X27000000Y7785715D01*
X59771428Y18271429D02*
X59485714Y18471429D01*
X59771428Y18614286D02*
X59171428Y18614286D01*
X59171428Y18385715D01*
X59200000Y18328572D01*
X59228571Y18300000D01*
X59285714Y18271429D01*
X59371428Y18271429D01*
X59428571Y18300000D01*
X59457142Y18328572D01*
X59485714Y18385715D01*
X59485714Y18614286D01*
X59171428Y17728572D02*
X59171428Y18014286D01*
X59457142Y18042858D01*
X59428571Y18014286D01*
X59400000Y17957143D01*
X59400000Y17814286D01*
X59428571Y17757143D01*
X59457142Y17728572D01*
X59514285Y17700000D01*
X59657142Y17700000D01*
X59714285Y17728572D01*
X59742857Y17757143D01*
X59771428Y17814286D01*
X59771428Y17957143D01*
X59742857Y18014286D01*
X59714285Y18042858D01*
X59171428Y17328572D02*
X59171428Y17271429D01*
X59200000Y17214286D01*
X59228571Y17185715D01*
X59285714Y17157143D01*
X59400000Y17128572D01*
X59542857Y17128572D01*
X59657142Y17157143D01*
X59714285Y17185715D01*
X59742857Y17214286D01*
X59771428Y17271429D01*
X59771428Y17328572D01*
X59742857Y17385715D01*
X59714285Y17414286D01*
X59657142Y17442858D01*
X59542857Y17471429D01*
X59400000Y17471429D01*
X59285714Y17442858D01*
X59228571Y17414286D01*
X59200000Y17385715D01*
X59171428Y17328572D01*
X59771428Y16557143D02*
X59771428Y16900000D01*
X59771428Y16728572D02*
X59171428Y16728572D01*
X59257142Y16785715D01*
X59314285Y16842858D01*
X59342857Y16900000D01*
X59821428Y39146429D02*
X59535714Y39346429D01*
X59821428Y39489286D02*
X59221428Y39489286D01*
X59221428Y39260715D01*
X59250000Y39203572D01*
X59278571Y39175000D01*
X59335714Y39146429D01*
X59421428Y39146429D01*
X59478571Y39175000D01*
X59507142Y39203572D01*
X59535714Y39260715D01*
X59535714Y39489286D01*
X59221428Y38603572D02*
X59221428Y38889286D01*
X59507142Y38917858D01*
X59478571Y38889286D01*
X59450000Y38832143D01*
X59450000Y38689286D01*
X59478571Y38632143D01*
X59507142Y38603572D01*
X59564285Y38575000D01*
X59707142Y38575000D01*
X59764285Y38603572D01*
X59792857Y38632143D01*
X59821428Y38689286D01*
X59821428Y38832143D01*
X59792857Y38889286D01*
X59764285Y38917858D01*
X59221428Y38203572D02*
X59221428Y38146429D01*
X59250000Y38089286D01*
X59278571Y38060715D01*
X59335714Y38032143D01*
X59450000Y38003572D01*
X59592857Y38003572D01*
X59707142Y38032143D01*
X59764285Y38060715D01*
X59792857Y38089286D01*
X59821428Y38146429D01*
X59821428Y38203572D01*
X59792857Y38260715D01*
X59764285Y38289286D01*
X59707142Y38317858D01*
X59592857Y38346429D01*
X59450000Y38346429D01*
X59335714Y38317858D01*
X59278571Y38289286D01*
X59250000Y38260715D01*
X59221428Y38203572D01*
X59278571Y37775000D02*
X59250000Y37746429D01*
X59221428Y37689286D01*
X59221428Y37546429D01*
X59250000Y37489286D01*
X59278571Y37460715D01*
X59335714Y37432143D01*
X59392857Y37432143D01*
X59478571Y37460715D01*
X59821428Y37803572D01*
X59821428Y37432143D01*
X58341428Y57221429D02*
X58055714Y57421429D01*
X58341428Y57564286D02*
X57741428Y57564286D01*
X57741428Y57335715D01*
X57770000Y57278572D01*
X57798571Y57250000D01*
X57855714Y57221429D01*
X57941428Y57221429D01*
X57998571Y57250000D01*
X58027142Y57278572D01*
X58055714Y57335715D01*
X58055714Y57564286D01*
X57741428Y56678572D02*
X57741428Y56964286D01*
X58027142Y56992858D01*
X57998571Y56964286D01*
X57970000Y56907143D01*
X57970000Y56764286D01*
X57998571Y56707143D01*
X58027142Y56678572D01*
X58084285Y56650000D01*
X58227142Y56650000D01*
X58284285Y56678572D01*
X58312857Y56707143D01*
X58341428Y56764286D01*
X58341428Y56907143D01*
X58312857Y56964286D01*
X58284285Y56992858D01*
X57741428Y56278572D02*
X57741428Y56221429D01*
X57770000Y56164286D01*
X57798571Y56135715D01*
X57855714Y56107143D01*
X57970000Y56078572D01*
X58112857Y56078572D01*
X58227142Y56107143D01*
X58284285Y56135715D01*
X58312857Y56164286D01*
X58341428Y56221429D01*
X58341428Y56278572D01*
X58312857Y56335715D01*
X58284285Y56364286D01*
X58227142Y56392858D01*
X58112857Y56421429D01*
X57970000Y56421429D01*
X57855714Y56392858D01*
X57798571Y56364286D01*
X57770000Y56335715D01*
X57741428Y56278572D01*
X57741428Y55878572D02*
X57741428Y55507143D01*
X57970000Y55707143D01*
X57970000Y55621429D01*
X57998571Y55564286D01*
X58027142Y55535715D01*
X58084285Y55507143D01*
X58227142Y55507143D01*
X58284285Y55535715D01*
X58312857Y55564286D01*
X58341428Y55621429D01*
X58341428Y55792858D01*
X58312857Y55850000D01*
X58284285Y55878572D01*
X58441428Y-5328571D02*
X58155714Y-5128571D01*
X58441428Y-4985714D02*
X57841428Y-4985714D01*
X57841428Y-5214285D01*
X57870000Y-5271428D01*
X57898571Y-5300000D01*
X57955714Y-5328571D01*
X58041428Y-5328571D01*
X58098571Y-5300000D01*
X58127142Y-5271428D01*
X58155714Y-5214285D01*
X58155714Y-4985714D01*
X57841428Y-5871428D02*
X57841428Y-5585714D01*
X58127142Y-5557142D01*
X58098571Y-5585714D01*
X58070000Y-5642857D01*
X58070000Y-5785714D01*
X58098571Y-5842857D01*
X58127142Y-5871428D01*
X58184285Y-5900000D01*
X58327142Y-5900000D01*
X58384285Y-5871428D01*
X58412857Y-5842857D01*
X58441428Y-5785714D01*
X58441428Y-5642857D01*
X58412857Y-5585714D01*
X58384285Y-5557142D01*
X57841428Y-6271428D02*
X57841428Y-6328571D01*
X57870000Y-6385714D01*
X57898571Y-6414285D01*
X57955714Y-6442857D01*
X58070000Y-6471428D01*
X58212857Y-6471428D01*
X58327142Y-6442857D01*
X58384285Y-6414285D01*
X58412857Y-6385714D01*
X58441428Y-6328571D01*
X58441428Y-6271428D01*
X58412857Y-6214285D01*
X58384285Y-6185714D01*
X58327142Y-6157142D01*
X58212857Y-6128571D01*
X58070000Y-6128571D01*
X57955714Y-6157142D01*
X57898571Y-6185714D01*
X57870000Y-6214285D01*
X57841428Y-6271428D01*
X58041428Y-6985714D02*
X58441428Y-6985714D01*
X57812857Y-6842857D02*
X58241428Y-6700000D01*
X58241428Y-7071428D01*
X37796428Y33885715D02*
X37825000Y33857143D01*
X37910714Y33828572D01*
X37967857Y33828572D01*
X38053571Y33857143D01*
X38110714Y33914286D01*
X38139285Y33971429D01*
X38167857Y34085715D01*
X38167857Y34171429D01*
X38139285Y34285715D01*
X38110714Y34342858D01*
X38053571Y34400000D01*
X37967857Y34428572D01*
X37910714Y34428572D01*
X37825000Y34400000D01*
X37796428Y34371429D01*
X37225000Y33828572D02*
X37567857Y33828572D01*
X37396428Y33828572D02*
X37396428Y34428572D01*
X37453571Y34342858D01*
X37510714Y34285715D01*
X37567857Y34257143D01*
X36853571Y34428572D02*
X36796428Y34428572D01*
X36739285Y34400000D01*
X36710714Y34371429D01*
X36682142Y34314286D01*
X36653571Y34200000D01*
X36653571Y34057143D01*
X36682142Y33942858D01*
X36710714Y33885715D01*
X36739285Y33857143D01*
X36796428Y33828572D01*
X36853571Y33828572D01*
X36910714Y33857143D01*
X36939285Y33885715D01*
X36967857Y33942858D01*
X36996428Y34057143D01*
X36996428Y34200000D01*
X36967857Y34314286D01*
X36939285Y34371429D01*
X36910714Y34400000D01*
X36853571Y34428572D01*
X36139285Y34428572D02*
X36253571Y34428572D01*
X36310714Y34400000D01*
X36339285Y34371429D01*
X36396428Y34285715D01*
X36425000Y34171429D01*
X36425000Y33942858D01*
X36396428Y33885715D01*
X36367857Y33857143D01*
X36310714Y33828572D01*
X36196428Y33828572D01*
X36139285Y33857143D01*
X36110714Y33885715D01*
X36082142Y33942858D01*
X36082142Y34085715D01*
X36110714Y34142858D01*
X36139285Y34171429D01*
X36196428Y34200000D01*
X36310714Y34200000D01*
X36367857Y34171429D01*
X36396428Y34142858D01*
X36425000Y34085715D01*
X34057142Y24114286D02*
X34057142Y23828572D01*
X34257142Y24428572D02*
X34057142Y24114286D01*
X33857142Y24428572D01*
X33342857Y23828572D02*
X33685714Y23828572D01*
X33514285Y23828572D02*
X33514285Y24428572D01*
X33571428Y24342858D01*
X33628571Y24285715D01*
X33685714Y24257143D01*
X32971428Y24428572D02*
X32914285Y24428572D01*
X32857142Y24400000D01*
X32828571Y24371429D01*
X32800000Y24314286D01*
X32771428Y24200000D01*
X32771428Y24057143D01*
X32800000Y23942858D01*
X32828571Y23885715D01*
X32857142Y23857143D01*
X32914285Y23828572D01*
X32971428Y23828572D01*
X33028571Y23857143D01*
X33057142Y23885715D01*
X33085714Y23942858D01*
X33114285Y24057143D01*
X33114285Y24200000D01*
X33085714Y24314286D01*
X33057142Y24371429D01*
X33028571Y24400000D01*
X32971428Y24428572D01*
X32200000Y23828572D02*
X32542857Y23828572D01*
X32371428Y23828572D02*
X32371428Y24428572D01*
X32428571Y24342858D01*
X32485714Y24285715D01*
X32542857Y24257143D01*
M02*
